# MagicaVoxel @ Ephtracy

# group
o Computer Laptop

# material
mtllib Voxel Universe-42-Computer Laptop.mtl
usemtl palette

# normals
vn -1 0 0
vn 1 0 0
vn 0 0 1
vn 0 0 -1
vn 0 -1 0
vn 0 1 0

# texcoords
vt 0.0449219 0.5
vt 0.615234 0.5
vt 0.630859 0.5
vt 0.654297 0.5
vt 0.771484 0.5
vt 0.927734 0.5
vt 0.943359 0.5
vt 0.958984 0.5
vt 0.962891 0.5
vt 0.970703 0.5
vt 0.974609 0.5
vt 0.982422 0.5

# verts
v 0.5 0.1 2.8
v 0.5 0.1 2.6
v 0.5 0.1 2.4
v 0.5 0.1 0.7
v 0.5 0.1 0.5
v 0.5 0.1 0.3
v 0.5 0.2 2.6
v 0.5 0.2 2.4
v 0.5 0.2 0.7
v 0.5 0.2 0.5
v 0.5 0.3 2.8
v 0.5 0.3 0.3
v 2.3 0.3 2.8
v 2.3 0.3 0.3
v 2.3 0.4 2.7
v 2.3 0.4 2.4
v 2.3 0.4 0.8
v 2.3 0.4 0.4
v 2.3 0.5 2.7
v 2.3 0.5 2.4
v 2.3 0.5 0.8
v 2.3 0.5 0.4
v 2.3 0.6 0.7
v 2.3 0.6 0.4
v 2.3 0.7 1.1
v 2.3 0.7 0.7
v 2.3 0.7 0.5
v 2.3 0.8 1.1
v 2.3 0.8 0.7
v 2.3 0.8 0.5
v 2.3 0.8 0.4
v 2.3 0.9 2.4
v 2.3 0.9 2
v 2.3 0.9 0.7
v 2.3 0.9 0.5
v 2.3 1 2.7
v 2.3 1 2.4
v 2.3 1 2.1
v 2.3 1 2
v 2.3 1 1.8
v 2.3 1 1.6
v 2.3 1 0.7
v 2.3 1 0.5
v 2.3 1 0.4
v 2.3 1.1 2.5
v 2.3 1.1 2.4
v 2.3 1.1 2.2
v 2.3 1.1 2.1
v 2.3 1.1 2
v 2.3 1.1 1.8
v 2.3 1.1 1.6
v 2.3 1.1 0.7
v 2.3 1.2 2.7
v 2.3 1.2 2.6
v 2.3 1.2 2.5
v 2.3 1.2 2.4
v 2.3 1.2 2.2
v 2.3 1.2 2.1
v 2.3 1.2 2
v 2.3 1.2 1.7
v 2.3 1.2 0.7
v 2.3 1.2 0.5
v 2.3 1.3 2.6
v 2.3 1.3 2.5
v 2.3 1.3 2.2
v 2.3 1.3 1.7
v 2.3 1.3 1.4
v 2.3 1.3 1.3
v 2.3 1.3 1
v 2.3 1.3 0.8
v 2.3 1.3 0.7
v 2.3 1.3 0.5
v 2.3 1.4 2.7
v 2.3 1.4 2.5
v 2.3 1.4 2.4
v 2.3 1.4 2.2
v 2.3 1.4 2
v 2.3 1.4 1.9
v 2.3 1.4 1.7
v 2.3 1.4 1.4
v 2.3 1.4 1.3
v 2.3 1.5 2.7
v 2.3 1.5 2.5
v 2.3 1.5 2.4
v 2.3 1.5 2.1
v 2.3 1.5 2
v 2.3 1.5 1.9
v 2.3 1.5 1.7
v 2.3 1.5 1.5
v 2.3 1.5 1.4
v 2.3 1.5 1
v 2.3 1.5 0.8
v 2.3 1.5 0.7
v 2.3 1.5 0.5
v 2.3 1.6 2.6
v 2.3 1.6 2.2
v 2.3 1.6 2.1
v 2.3 1.6 1.9
v 2.3 1.6 1.5
v 2.3 1.6 1.4
v 2.3 1.6 1
v 2.3 1.6 0.8
v 2.3 1.6 0.7
v 2.3 1.6 0.5
v 2.3 1.7 2.7
v 2.3 1.7 2.6
v 2.3 1.7 2.3
v 2.3 1.7 2.2
v 2.3 1.7 2.1
v 2.3 1.7 2
v 2.3 1.7 1.8
v 2.3 1.7 1.6
v 2.3 1.7 0.7
v 2.3 1.7 0.5
v 2.3 1.8 2.1
v 2.3 1.8 2
v 2.3 1.8 1.8
v 2.3 1.8 1.6
v 2.3 1.8 1
v 2.3 1.8 0.8
v 2.3 1.8 0.7
v 2.3 1.8 0.5
v 2.3 1.9 2.7
v 2.3 1.9 2.3
v 2.3 1.9 0.4
v 2.3 2 2.8
v 2.3 2 0.3
v 2.5 0.1 2.8
v 2.5 0.1 0.3
v 2.5 0.9 1.6
v 2.5 0.9 1.5
v 2.5 1 1.7
v 2.5 1 1.6
v 2.5 1 1.5
v 2.5 1 1.4
v 2.5 1.2 1.7
v 2.5 1.2 1.6
v 2.5 1.2 1.5
v 2.5 1.2 1.4
v 2.5 1.3 1.6
v 2.5 1.3 1.5
v 2.5 2 2.8
v 2.5 2 0.3
v 0.5 0.1 2.8
v 0.5 0.3 2.8
v 2.3 0.3 2.8
v 2.3 2 2.8
v 2.5 0.1 2.8
v 2.5 2 2.8
v 0.5 0.1 0.3
v 0.5 0.3 0.3
v 1.2 0.1 0.3
v 1.2 0.2 0.3
v 1.4 0.1 0.3
v 1.4 0.2 0.3
v 1.6 0.1 0.3
v 1.6 0.2 0.3
v 1.7 0.1 0.3
v 1.7 0.2 0.3
v 1.8 0.1 0.3
v 1.8 0.2 0.3
v 2 0.1 0.3
v 2 0.2 0.3
v 2.1 0.1 0.3
v 2.1 0.2 0.3
v 2.3 0.1 0.3
v 2.3 0.2 0.3
v 2.3 0.3 0.3
v 2.3 2 0.3
v 2.5 0.1 0.3
v 2.5 2 0.3
v 0.5 0.1 2.8
v 2.5 0.1 2.8
v 0.5 0.1 2.6
v 0.6 0.1 2.6
v 0.5 0.1 2.4
v 0.6 0.1 2.4
v 0.5 0.1 0.7
v 0.6 0.1 0.7
v 0.5 0.1 0.5
v 0.6 0.1 0.5
v 1.2 0.1 0.4
v 1.4 0.1 0.4
v 1.6 0.1 0.4
v 1.7 0.1 0.4
v 1.8 0.1 0.4
v 2 0.1 0.4
v 2.1 0.1 0.4
v 2.3 0.1 0.4
v 0.5 0.1 0.3
v 1.2 0.1 0.3
v 1.4 0.1 0.3
v 1.6 0.1 0.3
v 1.7 0.1 0.3
v 1.8 0.1 0.3
v 2 0.1 0.3
v 2.1 0.1 0.3
v 2.3 0.1 0.3
v 2.5 0.1 0.3
v 0.5 0.3 2.8
v 2.3 0.3 2.8
v 1.2 0.3 2.6
v 1.3 0.3 2.6
v 1.4 0.3 2.6
v 1.5 0.3 2.6
v 1.6 0.3 2.6
v 1.7 0.3 2.6
v 1.8 0.3 2.6
v 1.9 0.3 2.6
v 2 0.3 2.6
v 2.1 0.3 2.6
v 1.4 0.3 2.5
v 1.5 0.3 2.5
v 1.2 0.3 2.4
v 1.3 0.3 2.4
v 1.4 0.3 2.4
v 1.5 0.3 2.4
v 1.6 0.3 2.4
v 1.7 0.3 2.4
v 2 0.3 2.4
v 2.1 0.3 2.4
v 1.2 0.3 2.3
v 1.3 0.3 2.3
v 1.4 0.3 2.3
v 1.5 0.3 2.3
v 1.6 0.3 2.3
v 1.7 0.3 2.3
v 1.8 0.3 2.3
v 1.9 0.3 2.3
v 2 0.3 2.3
v 2.1 0.3 2.3
v 0.6 0.3 2.2
v 1 0.3 2.2
v 1.2 0.3 2.2
v 1.3 0.3 2.2
v 1.4 0.3 2.2
v 1.5 0.3 2.2
v 1.6 0.3 2.2
v 1.7 0.3 2.2
v 1.8 0.3 2.2
v 1.9 0.3 2.2
v 1.2 0.3 2.1
v 1.3 0.3 2.1
v 1.4 0.3 2.1
v 1.5 0.3 2.1
v 1.6 0.3 2.1
v 1.7 0.3 2.1
v 2 0.3 2.1
v 2.1 0.3 2.1
v 1.4 0.3 2
v 1.5 0.3 2
v 1.6 0.3 2
v 1.7 0.3 2
v 1.8 0.3 2
v 1.9 0.3 2
v 2 0.3 2
v 2.1 0.3 2
v 1.4 0.3 1.9
v 1.5 0.3 1.9
v 1.6 0.3 1.9
v 1.7 0.3 1.9
v 1.8 0.3 1.9
v 1.9 0.3 1.9
v 1.4 0.3 1.8
v 1.5 0.3 1.8
v 1.6 0.3 1.8
v 1.7 0.3 1.8
v 2 0.3 1.8
v 2.1 0.3 1.8
v 1.4 0.3 1.7
v 1.5 0.3 1.7
v 1.6 0.3 1.7
v 1.7 0.3 1.7
v 1.8 0.3 1.7
v 1.9 0.3 1.7
v 2 0.3 1.7
v 2.1 0.3 1.7
v 1.4 0.3 1.6
v 1.5 0.3 1.6
v 1.6 0.3 1.6
v 1.7 0.3 1.6
v 1.8 0.3 1.6
v 1.9 0.3 1.6
v 1.4 0.3 1.5
v 1.5 0.3 1.5
v 1.6 0.3 1.5
v 1.7 0.3 1.5
v 2 0.3 1.5
v 2.1 0.3 1.5
v 1.4 0.3 1.4
v 1.5 0.3 1.4
v 1.6 0.3 1.4
v 1.7 0.3 1.4
v 1.8 0.3 1.4
v 1.9 0.3 1.4
v 2 0.3 1.4
v 2.1 0.3 1.4
v 1.2 0.3 1.3
v 1.3 0.3 1.3
v 1.4 0.3 1.3
v 1.5 0.3 1.3
v 1.6 0.3 1.3
v 1.7 0.3 1.3
v 1.8 0.3 1.3
v 1.9 0.3 1.3
v 1.2 0.3 1.2
v 1.3 0.3 1.2
v 1.4 0.3 1.2
v 1.5 0.3 1.2
v 1.6 0.3 1.2
v 1.7 0.3 1.2
v 2 0.3 1.2
v 2.1 0.3 1.2
v 1.2 0.3 1.1
v 1.3 0.3 1.1
v 1.4 0.3 1.1
v 1.5 0.3 1.1
v 1.6 0.3 1.1
v 1.7 0.3 1.1
v 1.8 0.3 1.1
v 1.9 0.3 1.1
v 2 0.3 1.1
v 2.1 0.3 1.1
v 0.6 0.3 1
v 1 0.3 1
v 1.2 0.3 1
v 1.3 0.3 1
v 1.4 0.3 1
v 1.5 0.3 1
v 1.6 0.3 1
v 1.7 0.3 1
v 1.8 0.3 1
v 1.9 0.3 1
v 2 0.3 1
v 2.1 0.3 1
v 1.2 0.3 0.9
v 1.3 0.3 0.9
v 1.6 0.3 0.9
v 1.7 0.3 0.9
v 2 0.3 0.9
v 2.1 0.3 0.9
v 1.2 0.3 0.8
v 1.3 0.3 0.8
v 1.4 0.3 0.8
v 1.5 0.3 0.8
v 1.6 0.3 0.8
v 1.7 0.3 0.8
v 1.8 0.3 0.8
v 1.9 0.3 0.8
v 2 0.3 0.8
v 2.1 0.3 0.8
v 1.2 0.3 0.7
v 1.3 0.3 0.7
v 1.5 0.3 0.7
v 1.9 0.3 0.7
v 2 0.3 0.7
v 2.1 0.3 0.7
v 1.2 0.3 0.6
v 1.4 0.3 0.6
v 1.2 0.3 0.5
v 1.4 0.3 0.5
v 1.5 0.3 0.5
v 1.9 0.3 0.5
v 2 0.3 0.5
v 2.1 0.3 0.5
v 0.5 0.3 0.3
v 2.3 0.3 0.3
v 2.3 2 2.8
v 2.5 2 2.8
v 2.3 2 0.3
v 2.5 2 0.3

# faces
f 7/11/1 2/11/1 1/11/1
f 7/12/1 3/12/1 2/12/1
f 8/11/1 4/11/1 3/11/1
f 8/12/1 3/12/1 7/12/1
f 9/12/1 5/12/1 4/12/1
f 9/11/1 4/11/1 8/11/1
f 10/11/1 6/11/1 5/11/1
f 10/12/1 5/12/1 9/12/1
f 11/11/1 9/11/1 8/11/1
f 11/11/1 8/11/1 7/11/1
f 11/11/1 10/11/1 9/11/1
f 11/11/1 7/11/1 1/11/1
f 12/11/1 6/11/1 10/11/1
f 12/11/1 10/11/1 11/11/1
f 15/11/1 14/11/1 13/11/1
f 16/11/1 14/11/1 15/11/1
f 17/11/1 14/11/1 16/11/1
f 18/11/1 14/11/1 17/11/1
f 19/11/1 15/11/1 13/11/1
f 19/10/1 16/10/1 15/10/1
f 20/12/1 17/12/1 16/12/1
f 20/10/1 16/10/1 19/10/1
f 21/10/1 18/10/1 17/10/1
f 21/12/1 17/12/1 20/12/1
f 22/11/1 14/11/1 18/11/1
f 22/10/1 18/10/1 21/10/1
f 23/5/1 21/5/1 20/5/1
f 23/5/1 20/5/1 19/5/1
f 23/5/1 22/5/1 21/5/1
f 24/11/1 14/11/1 22/11/1
f 24/5/1 22/5/1 23/5/1
f 25/5/1 23/5/1 19/5/1
f 26/4/1 24/4/1 23/4/1
f 26/5/1 23/5/1 25/5/1
f 27/4/1 24/4/1 26/4/1
f 28/5/1 25/5/1 19/5/1
f 28/4/1 26/4/1 25/4/1
f 29/1/1 27/1/1 26/1/1
f 29/4/1 26/4/1 28/4/1
f 30/4/1 24/4/1 27/4/1
f 30/1/1 27/1/1 29/1/1
f 31/11/1 14/11/1 24/11/1
f 31/4/1 24/4/1 30/4/1
f 32/5/1 29/5/1 28/5/1
f 32/5/1 28/5/1 19/5/1
f 33/5/1 29/5/1 32/5/1
f 34/1/1 30/1/1 29/1/1
f 34/5/1 29/5/1 33/5/1
f 35/5/1 31/5/1 30/5/1
f 35/1/1 30/1/1 34/1/1
f 36/11/1 19/11/1 13/11/1
f 36/5/1 32/5/1 19/5/1
f 37/4/1 33/4/1 32/4/1
f 37/5/1 32/5/1 36/5/1
f 38/4/1 33/4/1 37/4/1
f 39/5/1 34/5/1 33/5/1
f 39/4/1 33/4/1 38/4/1
f 39/5/1 35/5/1 34/5/1
f 40/5/1 35/5/1 39/5/1
f 41/5/1 35/5/1 40/5/1
f 42/5/1 35/5/1 41/5/1
f 43/5/1 31/5/1 35/5/1
f 43/5/1 35/5/1 42/5/1
f 44/11/1 14/11/1 31/11/1
f 44/5/1 31/5/1 43/5/1
f 45/9/1 38/9/1 37/9/1
f 45/9/1 37/9/1 36/9/1
f 46/9/1 38/9/1 45/9/1
f 47/9/1 38/9/1 46/9/1
f 48/2/1 39/2/1 38/2/1
f 48/9/1 38/9/1 47/9/1
f 48/2/1 40/2/1 39/2/1
f 49/2/1 40/2/1 48/2/1
f 50/4/1 41/4/1 40/4/1
f 50/2/1 40/2/1 49/2/1
f 51/5/1 42/5/1 41/5/1
f 51/4/1 41/4/1 50/4/1
f 52/1/1 43/1/1 42/1/1
f 52/5/1 42/5/1 51/5/1
f 53/11/1 36/11/1 13/11/1
f 53/9/1 45/9/1 36/9/1
f 54/9/1 45/9/1 53/9/1
f 55/2/1 46/2/1 45/2/1
f 55/9/1 45/9/1 54/9/1
f 56/9/1 47/9/1 46/9/1
f 56/2/1 46/2/1 55/2/1
f 57/2/1 48/2/1 47/2/1
f 57/9/1 47/9/1 56/9/1
f 58/9/1 49/9/1 48/9/1
f 58/2/1 48/2/1 57/2/1
f 59/2/1 50/2/1 49/2/1
f 59/9/1 49/9/1 58/9/1
f 59/2/1 51/2/1 50/2/1
f 59/2/1 52/2/1 51/2/1
f 60/2/1 52/2/1 59/2/1
f 61/1/1 43/1/1 52/1/1
f 61/2/1 52/2/1 60/2/1
f 62/2/1 44/2/1 43/2/1
f 62/1/1 43/1/1 61/1/1
f 63/9/1 60/9/1 59/9/1
f 63/9/1 58/9/1 57/9/1
f 63/9/1 55/9/1 54/9/1
f 63/9/1 59/9/1 58/9/1
f 63/9/1 56/9/1 55/9/1
f 63/9/1 57/9/1 56/9/1
f 63/2/1 54/2/1 53/2/1
f 64/9/1 60/9/1 63/9/1
f 65/9/1 60/9/1 64/9/1
f 66/2/1 62/2/1 61/2/1
f 66/9/1 60/9/1 65/9/1
f 66/2/1 61/2/1 60/2/1
f 67/2/1 62/2/1 66/2/1
f 68/2/1 62/2/1 67/2/1
f 69/2/1 62/2/1 68/2/1
f 70/2/1 62/2/1 69/2/1
f 71/2/1 62/2/1 70/2/1
f 72/2/1 44/2/1 62/2/1
f 72/2/1 62/2/1 71/2/1
f 73/11/1 53/11/1 13/11/1
f 73/2/1 64/2/1 63/2/1
f 73/2/1 63/2/1 53/2/1
f 74/9/1 65/9/1 64/9/1
f 74/2/1 64/2/1 73/2/1
f 75/9/1 65/9/1 74/9/1
f 76/2/1 66/2/1 65/2/1
f 76/9/1 65/9/1 75/9/1
f 76/2/1 67/2/1 66/2/1
f 77/2/1 67/2/1 76/2/1
f 78/2/1 67/2/1 77/2/1
f 79/2/1 67/2/1 78/2/1
f 80/9/1 68/9/1 67/9/1
f 80/2/1 67/2/1 79/2/1
f 81/2/1 69/2/1 68/2/1
f 81/9/1 68/9/1 80/9/1
f 82/11/1 73/11/1 13/11/1
f 82/9/1 74/9/1 73/9/1
f 83/2/1 75/2/1 74/2/1
f 83/9/1 74/9/1 82/9/1
f 84/9/1 76/9/1 75/9/1
f 84/2/1 75/2/1 83/2/1
f 84/9/1 77/9/1 76/9/1
f 85/9/1 77/9/1 84/9/1
f 86/2/1 78/2/1 77/2/1
f 86/9/1 77/9/1 85/9/1
f 87/9/1 79/9/1 78/9/1
f 87/2/1 78/2/1 86/2/1
f 88/2/1 81/2/1 80/2/1
f 88/9/1 79/9/1 87/9/1
f 88/2/1 80/2/1 79/2/1
f 89/2/1 81/2/1 88/2/1
f 90/2/1 81/2/1 89/2/1
f 91/2/1 69/2/1 81/2/1
f 91/2/1 81/2/1 90/2/1
f 91/6/1 70/6/1 69/6/1
f 92/2/1 71/2/1 70/2/1
f 92/6/1 70/6/1 91/6/1
f 93/8/1 72/8/1 71/8/1
f 93/2/1 71/2/1 92/2/1
f 94/2/1 44/2/1 72/2/1
f 94/8/1 72/8/1 93/8/1
f 95/2/1 84/2/1 83/2/1
f 95/2/1 83/2/1 82/2/1
f 95/2/1 85/2/1 84/2/1
f 96/2/1 85/2/1 95/2/1
f 97/9/1 87/9/1 86/9/1
f 97/2/1 85/2/1 96/2/1
f 97/9/1 86/9/1 85/9/1
f 98/2/1 89/2/1 88/2/1
f 98/9/1 87/9/1 97/9/1
f 98/2/1 88/2/1 87/2/1
f 99/9/1 90/9/1 89/9/1
f 99/2/1 89/2/1 98/2/1
f 100/2/1 91/2/1 90/2/1
f 100/9/1 90/9/1 99/9/1
f 100/2/1 93/2/1 92/2/1
f 100/2/1 94/2/1 93/2/1
f 100/2/1 92/2/1 91/2/1
f 101/2/1 94/2/1 100/2/1
f 102/2/1 94/2/1 101/2/1
f 103/2/1 94/2/1 102/2/1
f 104/2/1 44/2/1 94/2/1
f 104/2/1 94/2/1 103/2/1
f 105/2/1 95/2/1 82/2/1
f 105/11/1 82/11/1 13/11/1
f 106/9/1 96/9/1 95/9/1
f 106/2/1 95/2/1 105/2/1
f 107/9/1 96/9/1 106/9/1
f 108/2/1 99/2/1 98/2/1
f 108/9/1 96/9/1 107/9/1
f 108/2/1 98/2/1 97/2/1
f 108/2/1 97/2/1 96/2/1
f 108/2/1 100/2/1 99/2/1
f 108/2/1 101/2/1 100/2/1
f 109/2/1 101/2/1 108/2/1
f 110/2/1 101/2/1 109/2/1
f 111/2/1 101/2/1 110/2/1
f 112/2/1 101/2/1 111/2/1
f 113/2/1 103/2/1 102/2/1
f 113/10/1 104/10/1 103/10/1
f 114/2/1 44/2/1 104/2/1
f 114/10/1 104/10/1 113/10/1
f 115/2/1 108/2/1 107/2/1
f 115/2/1 109/2/1 108/2/1
f 115/9/1 110/9/1 109/9/1
f 116/2/1 111/2/1 110/2/1
f 116/9/1 110/9/1 115/9/1
f 117/9/1 112/9/1 111/9/1
f 117/2/1 111/2/1 116/2/1
f 118/2/1 101/2/1 112/2/1
f 118/9/1 112/9/1 117/9/1
f 119/3/1 102/3/1 101/3/1
f 119/2/1 101/2/1 118/2/1
f 120/2/1 113/2/1 102/2/1
f 120/3/1 102/3/1 119/3/1
f 121/7/1 114/7/1 113/7/1
f 121/2/1 113/2/1 120/2/1
f 122/2/1 44/2/1 114/2/1
f 122/7/1 114/7/1 121/7/1
f 123/9/1 107/9/1 106/9/1
f 123/9/1 106/9/1 105/9/1
f 123/11/1 105/11/1 13/11/1
f 124/2/1 122/2/1 121/2/1
f 124/9/1 107/9/1 123/9/1
f 124/2/1 117/2/1 116/2/1
f 124/2/1 120/2/1 119/2/1
f 124/2/1 121/2/1 120/2/1
f 124/2/1 115/2/1 107/2/1
f 124/2/1 116/2/1 115/2/1
f 124/2/1 118/2/1 117/2/1
f 124/2/1 119/2/1 118/2/1
f 125/2/1 44/2/1 122/2/1
f 125/2/1 122/2/1 124/2/1
f 125/11/1 14/11/1 44/11/1
f 126/11/1 124/11/1 123/11/1
f 126/11/1 123/11/1 13/11/1
f 126/11/1 125/11/1 124/11/1
f 127/11/1 14/11/1 125/11/1
f 127/11/1 125/11/1 126/11/1
f 128/11/2 129/11/2 130/11/2
f 130/11/2 129/11/2 131/11/2
f 128/11/2 130/11/2 132/11/2
f 130/8/2 131/8/2 133/8/2
f 132/11/2 130/11/2 133/11/2
f 131/11/2 129/11/2 134/11/2
f 133/8/2 131/8/2 134/8/2
f 134/11/2 129/11/2 135/11/2
f 132/8/2 133/8/2 136/8/2
f 128/11/2 132/11/2 136/11/2
f 134/8/2 135/8/2 136/8/2
f 133/8/2 134/8/2 136/8/2
f 136/8/2 135/8/2 137/8/2
f 137/8/2 135/8/2 138/8/2
f 135/11/2 129/11/2 139/11/2
f 138/8/2 135/8/2 139/8/2
f 137/8/2 138/8/2 140/8/2
f 136/11/2 137/11/2 140/11/2
f 138/11/2 139/11/2 141/11/2
f 140/8/2 138/8/2 141/8/2
f 128/11/2 136/11/2 142/11/2
f 136/11/2 140/11/2 142/11/2
f 140/11/2 141/11/2 142/11/2
f 139/11/2 129/11/2 143/11/2
f 142/11/2 141/11/2 143/11/2
f 141/11/2 139/11/2 143/11/2
f 146/11/3 145/11/3 144/11/3
f 148/11/3 146/11/3 144/11/3
f 148/11/3 147/11/3 146/11/3
f 149/11/3 147/11/3 148/11/3
f 150/11/4 151/11/4 152/11/4
f 152/11/4 151/11/4 153/11/4
f 152/12/4 153/12/4 154/12/4
f 153/11/4 151/11/4 155/11/4
f 154/12/4 153/12/4 155/12/4
f 154/11/4 155/11/4 156/11/4
f 155/11/4 151/11/4 157/11/4
f 156/11/4 155/11/4 157/11/4
f 156/12/4 157/12/4 158/12/4
f 157/11/4 151/11/4 159/11/4
f 158/12/4 157/12/4 159/12/4
f 158/11/4 159/11/4 160/11/4
f 159/11/4 151/11/4 161/11/4
f 160/11/4 159/11/4 161/11/4
f 160/12/4 161/12/4 162/12/4
f 161/11/4 151/11/4 163/11/4
f 162/12/4 161/12/4 163/12/4
f 162/11/4 163/11/4 164/11/4
f 163/11/4 151/11/4 165/11/4
f 164/11/4 163/11/4 165/11/4
f 164/12/4 165/12/4 166/12/4
f 165/11/4 151/11/4 167/11/4
f 166/12/4 165/12/4 167/12/4
f 167/11/4 151/11/4 168/11/4
f 166/11/4 167/11/4 170/11/4
f 168/11/4 169/11/4 170/11/4
f 167/11/4 168/11/4 170/11/4
f 170/11/4 169/11/4 171/11/4
f 174/11/5 173/11/5 172/11/5
f 175/11/5 173/11/5 174/11/5
f 176/12/5 175/12/5 174/12/5
f 177/11/5 173/11/5 175/11/5
f 177/12/5 175/12/5 176/12/5
f 178/11/5 177/11/5 176/11/5
f 179/11/5 173/11/5 177/11/5
f 179/11/5 177/11/5 178/11/5
f 180/12/5 179/12/5 178/12/5
f 181/11/5 173/11/5 179/11/5
f 181/12/5 179/12/5 180/12/5
f 182/11/5 181/11/5 180/11/5
f 182/11/5 173/11/5 181/11/5
f 183/11/5 173/11/5 182/11/5
f 184/11/5 173/11/5 183/11/5
f 185/11/5 173/11/5 184/11/5
f 186/11/5 173/11/5 185/11/5
f 187/11/5 173/11/5 186/11/5
f 188/11/5 173/11/5 187/11/5
f 189/11/5 173/11/5 188/11/5
f 190/11/5 182/11/5 180/11/5
f 191/12/5 183/12/5 182/12/5
f 191/11/5 182/11/5 190/11/5
f 192/11/5 184/11/5 183/11/5
f 192/12/5 183/12/5 191/12/5
f 193/12/5 185/12/5 184/12/5
f 193/11/5 184/11/5 192/11/5
f 194/11/5 186/11/5 185/11/5
f 194/12/5 185/12/5 193/12/5
f 195/12/5 187/12/5 186/12/5
f 195/11/5 186/11/5 194/11/5
f 196/11/5 188/11/5 187/11/5
f 196/12/5 187/12/5 195/12/5
f 197/12/5 189/12/5 188/12/5
f 197/11/5 188/11/5 196/11/5
f 198/11/5 173/11/5 189/11/5
f 198/12/5 189/12/5 197/12/5
f 199/11/5 173/11/5 198/11/5
f 200/11/6 201/11/6 202/11/6
f 202/11/6 201/11/6 203/11/6
f 203/11/6 201/11/6 204/11/6
f 204/11/6 201/11/6 205/11/6
f 205/11/6 201/11/6 206/11/6
f 206/11/6 201/11/6 207/11/6
f 207/11/6 201/11/6 208/11/6
f 208/11/6 201/11/6 209/11/6
f 209/11/6 201/11/6 210/11/6
f 210/11/6 201/11/6 211/11/6
f 203/11/6 204/11/6 212/11/6
f 204/12/6 205/12/6 212/12/6
f 205/11/6 206/11/6 213/11/6
f 212/12/6 205/12/6 213/12/6
f 200/11/6 202/11/6 214/11/6
f 202/12/6 203/12/6 214/12/6
f 212/11/6 213/11/6 215/11/6
f 214/12/6 203/12/6 215/12/6
f 203/11/6 212/11/6 215/11/6
f 215/11/6 213/11/6 216/11/6
f 213/11/6 206/11/6 217/11/6
f 216/11/6 213/11/6 217/11/6
f 206/12/6 207/12/6 218/12/6
f 217/11/6 206/11/6 218/11/6
f 207/11/6 208/11/6 219/11/6
f 218/12/6 207/12/6 219/12/6
f 210/12/6 211/12/6 220/12/6
f 209/11/6 210/11/6 220/11/6
f 211/11/6 201/11/6 221/11/6
f 220/12/6 211/12/6 221/12/6
f 215/11/6 216/11/6 222/11/6
f 200/11/6 214/11/6 222/11/6
f 214/11/6 215/11/6 222/11/6
f 222/11/6 216/11/6 223/11/6
f 216/12/6 217/12/6 224/12/6
f 223/11/6 216/11/6 224/11/6
f 218/11/6 219/11/6 225/11/6
f 224/12/6 217/12/6 225/12/6
f 217/11/6 218/11/6 225/11/6
f 225/11/6 219/11/6 226/11/6
f 219/11/6 208/11/6 227/11/6
f 226/11/6 219/11/6 227/11/6
f 208/12/6 209/12/6 228/12/6
f 227/11/6 208/11/6 228/11/6
f 220/11/6 221/11/6 229/11/6
f 228/12/6 209/12/6 229/12/6
f 209/11/6 220/11/6 229/11/6
f 229/11/6 221/11/6 230/11/6
f 221/11/6 201/11/6 231/11/6
f 230/11/6 221/11/6 231/11/6
f 200/11/6 222/11/6 232/11/6
f 232/11/6 222/11/6 233/11/6
f 222/12/6 223/12/6 234/12/6
f 233/11/6 222/11/6 234/11/6
f 224/11/6 225/11/6 235/11/6
f 234/12/6 223/12/6 235/12/6
f 225/11/6 226/11/6 235/11/6
f 223/11/6 224/11/6 235/11/6
f 235/11/6 226/11/6 236/11/6
f 236/11/6 226/11/6 237/11/6
f 226/12/6 227/12/6 238/12/6
f 237/11/6 226/11/6 238/11/6
f 229/11/6 230/11/6 239/11/6
f 238/12/6 227/12/6 239/12/6
f 227/11/6 228/11/6 239/11/6
f 228/11/6 229/11/6 239/11/6
f 239/11/6 230/11/6 240/11/6
f 240/11/6 230/11/6 241/11/6
f 235/11/6 236/11/6 242/11/6
f 233/11/6 234/11/6 242/11/6
f 234/11/6 235/11/6 242/11/6
f 242/11/6 236/11/6 243/11/6
f 236/12/6 237/12/6 244/12/6
f 243/11/6 236/11/6 244/11/6
f 237/11/6 238/11/6 245/11/6
f 244/12/6 237/12/6 245/12/6
f 239/11/6 240/11/6 245/11/6
f 238/11/6 239/11/6 245/11/6
f 245/11/6 240/11/6 246/11/6
f 246/11/6 240/11/6 247/11/6
f 241/11/6 230/11/6 248/11/6
f 230/12/6 231/12/6 248/12/6
f 231/11/6 201/11/6 249/11/6
f 248/12/6 231/12/6 249/12/6
f 243/11/6 244/11/6 250/11/6
f 244/11/6 245/11/6 250/11/6
f 245/11/6 246/11/6 250/11/6
f 250/11/6 246/11/6 251/11/6
f 246/12/6 247/12/6 252/12/6
f 251/11/6 246/11/6 252/11/6
f 247/11/6 240/11/6 253/11/6
f 252/12/6 247/12/6 253/12/6
f 240/12/6 241/12/6 254/12/6
f 253/11/6 240/11/6 254/11/6
f 241/11/6 248/11/6 255/11/6
f 254/12/6 241/12/6 255/12/6
f 248/11/6 249/11/6 255/11/6
f 255/11/6 249/11/6 256/11/6
f 249/11/6 201/11/6 257/11/6
f 256/11/6 249/11/6 257/11/6
f 250/12/6 251/12/6 258/12/6
f 243/11/6 250/11/6 258/11/6
f 255/11/6 256/11/6 259/11/6
f 258/12/6 251/12/6 259/12/6
f 251/11/6 252/11/6 259/11/6
f 254/11/6 255/11/6 259/11/6
f 252/11/6 253/11/6 259/11/6
f 253/11/6 254/11/6 259/11/6
f 259/11/6 256/11/6 260/11/6
f 260/11/6 256/11/6 261/11/6
f 261/11/6 256/11/6 262/11/6
f 262/11/6 256/11/6 263/11/6
f 243/11/6 258/11/6 264/11/6
f 258/11/6 259/11/6 264/11/6
f 259/11/6 260/11/6 264/11/6
f 264/11/6 260/11/6 265/11/6
f 260/12/6 261/12/6 266/12/6
f 265/11/6 260/11/6 266/11/6
f 261/11/6 262/11/6 267/11/6
f 266/12/6 261/12/6 267/12/6
f 263/11/6 256/11/6 268/11/6
f 256/12/6 257/12/6 268/12/6
f 257/11/6 201/11/6 269/11/6
f 268/12/6 257/12/6 269/12/6
f 264/12/6 265/12/6 270/12/6
f 243/11/6 264/11/6 270/11/6
f 266/11/6 267/11/6 271/11/6
f 270/12/6 265/12/6 271/12/6
f 265/11/6 266/11/6 271/11/6
f 271/11/6 267/11/6 272/11/6
f 267/11/6 262/11/6 273/11/6
f 272/11/6 267/11/6 273/11/6
f 262/12/6 263/12/6 274/12/6
f 273/11/6 262/11/6 274/11/6
f 263/11/6 268/11/6 275/11/6
f 274/12/6 263/12/6 275/12/6
f 268/11/6 269/11/6 275/11/6
f 275/11/6 269/11/6 276/11/6
f 269/11/6 201/11/6 277/11/6
f 276/11/6 269/11/6 277/11/6
f 271/11/6 272/11/6 278/11/6
f 243/11/6 270/11/6 278/11/6
f 270/11/6 271/11/6 278/11/6
f 278/11/6 272/11/6 279/11/6
f 272/12/6 273/12/6 280/12/6
f 279/11/6 272/11/6 280/11/6
f 273/11/6 274/11/6 281/11/6
f 280/12/6 273/12/6 281/12/6
f 274/11/6 275/11/6 281/11/6
f 275/11/6 276/11/6 281/11/6
f 281/11/6 276/11/6 282/11/6
f 282/11/6 276/11/6 283/11/6
f 278/12/6 279/12/6 284/12/6
f 243/11/6 278/11/6 284/11/6
f 279/11/6 280/11/6 285/11/6
f 284/12/6 279/12/6 285/12/6
f 280/11/6 281/11/6 285/11/6
f 281/11/6 282/11/6 285/11/6
f 285/11/6 282/11/6 286/11/6
f 286/11/6 282/11/6 287/11/6
f 276/12/6 277/12/6 288/12/6
f 283/11/6 276/11/6 288/11/6
f 277/11/6 201/11/6 289/11/6
f 288/12/6 277/12/6 289/12/6
f 243/11/6 284/11/6 290/11/6
f 284/11/6 285/11/6 290/11/6
f 285/11/6 286/11/6 290/11/6
f 290/11/6 286/11/6 291/11/6
f 286/12/6 287/12/6 292/12/6
f 291/11/6 286/11/6 292/11/6
f 287/11/6 282/11/6 293/11/6
f 292/12/6 287/12/6 293/12/6
f 282/12/6 283/12/6 294/12/6
f 293/11/6 282/11/6 294/11/6
f 283/11/6 288/11/6 295/11/6
f 294/12/6 283/12/6 295/12/6
f 288/11/6 289/11/6 295/11/6
f 295/11/6 289/11/6 296/11/6
f 289/11/6 201/11/6 297/11/6
f 296/11/6 289/11/6 297/11/6
f 233/11/6 242/11/6 298/11/6
f 242/12/6 243/12/6 298/12/6
f 243/11/6 290/11/6 299/11/6
f 298/12/6 243/12/6 299/12/6
f 290/12/6 291/12/6 300/12/6
f 299/11/6 290/11/6 300/11/6
f 293/11/6 294/11/6 301/11/6
f 300/12/6 291/12/6 301/12/6
f 291/11/6 292/11/6 301/11/6
f 294/11/6 295/11/6 301/11/6
f 295/11/6 296/11/6 301/11/6
f 292/11/6 293/11/6 301/11/6
f 301/11/6 296/11/6 302/11/6
f 302/11/6 296/11/6 303/11/6
f 303/11/6 296/11/6 304/11/6
f 304/11/6 296/11/6 305/11/6
f 299/11/6 300/11/6 306/11/6
f 233/11/6 298/11/6 306/11/6
f 298/11/6 299/11/6 306/11/6
f 300/11/6 301/11/6 306/11/6
f 301/11/6 302/11/6 306/11/6
f 306/11/6 302/11/6 307/11/6
f 307/11/6 302/11/6 308/11/6
f 308/11/6 302/11/6 309/11/6
f 302/12/6 303/12/6 310/12/6
f 309/11/6 302/11/6 310/11/6
f 303/11/6 304/11/6 311/11/6
f 310/12/6 303/12/6 311/12/6
f 305/11/6 296/11/6 312/11/6
f 296/12/6 297/12/6 312/12/6
f 297/11/6 201/11/6 313/11/6
f 312/12/6 297/12/6 313/12/6
f 233/11/6 306/11/6 314/11/6
f 306/12/6 307/12/6 314/12/6
f 307/11/6 308/11/6 315/11/6
f 314/12/6 307/12/6 315/12/6
f 308/12/6 309/12/6 316/12/6
f 315/11/6 308/11/6 316/11/6
f 309/11/6 310/11/6 317/11/6
f 316/12/6 309/12/6 317/12/6
f 310/11/6 311/11/6 317/11/6
f 317/11/6 311/11/6 318/11/6
f 311/11/6 304/11/6 319/11/6
f 318/11/6 311/11/6 319/11/6
f 304/12/6 305/12/6 320/12/6
f 319/11/6 304/11/6 320/11/6
f 305/11/6 312/11/6 321/11/6
f 320/12/6 305/12/6 321/12/6
f 312/11/6 313/11/6 321/11/6
f 321/11/6 313/11/6 322/11/6
f 313/11/6 201/11/6 323/11/6
f 322/11/6 313/11/6 323/11/6
f 200/11/6 232/11/6 324/11/6
f 232/12/6 233/12/6 324/12/6
f 317/11/6 318/11/6 325/11/6
f 324/12/6 233/12/6 325/12/6
f 315/11/6 316/11/6 325/11/6
f 233/11/6 314/11/6 325/11/6
f 316/11/6 317/11/6 325/11/6
f 314/11/6 315/11/6 325/11/6
f 325/11/6 318/11/6 326/11/6
f 326/11/6 318/11/6 327/11/6
f 327/11/6 318/11/6 328/11/6
f 328/11/6 318/11/6 329/11/6
f 318/12/6 319/12/6 330/12/6
f 329/11/6 318/11/6 330/11/6
f 319/11/6 320/11/6 331/11/6
f 330/12/6 319/12/6 331/12/6
f 320/11/6 321/11/6 331/11/6
f 321/11/6 322/11/6 331/11/6
f 331/11/6 322/11/6 332/11/6
f 332/11/6 322/11/6 333/11/6
f 322/12/6 323/12/6 334/12/6
f 333/11/6 322/11/6 334/11/6
f 323/11/6 201/11/6 335/11/6
f 334/12/6 323/12/6 335/12/6
f 326/12/6 327/12/6 336/12/6
f 324/11/6 325/11/6 336/11/6
f 325/11/6 326/11/6 336/11/6
f 327/11/6 328/11/6 337/11/6
f 336/12/6 327/12/6 337/12/6
f 329/11/6 330/11/6 338/11/6
f 331/11/6 332/11/6 338/11/6
f 330/11/6 331/11/6 338/11/6
f 338/11/6 332/11/6 339/11/6
f 333/11/6 334/11/6 340/11/6
f 334/11/6 335/11/6 340/11/6
f 335/11/6 201/11/6 341/11/6
f 340/11/6 335/11/6 341/11/6
f 324/11/6 336/11/6 342/11/6
f 336/11/6 337/11/6 342/11/6
f 337/11/6 328/11/6 343/11/6
f 342/11/6 337/11/6 343/11/6
f 328/12/6 329/12/6 344/12/6
f 343/11/6 328/11/6 344/11/6
f 329/11/6 338/11/6 345/11/6
f 344/12/6 329/12/6 345/12/6
f 338/12/6 339/12/6 346/12/6
f 345/11/6 338/11/6 346/11/6
f 339/11/6 332/11/6 347/11/6
f 346/12/6 339/12/6 347/12/6
f 332/12/6 333/12/6 348/12/6
f 347/11/6 332/11/6 348/11/6
f 333/11/6 340/11/6 349/11/6
f 348/12/6 333/12/6 349/12/6
f 340/12/6 341/12/6 350/12/6
f 349/11/6 340/11/6 350/11/6
f 341/11/6 201/11/6 351/11/6
f 350/12/6 341/12/6 351/12/6
f 342/12/6 343/12/6 352/12/6
f 324/11/6 342/11/6 352/11/6
f 350/11/6 351/11/6 353/11/6
f 352/12/6 343/12/6 353/12/6
f 345/11/6 346/11/6 353/11/6
f 343/11/6 344/11/6 353/11/6
f 348/11/6 349/11/6 353/11/6
f 344/11/6 345/11/6 353/11/6
f 347/11/6 348/11/6 353/11/6
f 346/11/6 347/11/6 353/11/6
f 349/11/6 350/11/6 353/11/6
f 353/11/6 351/11/6 354/11/6
f 354/11/6 351/11/6 355/11/6
f 355/11/6 351/11/6 356/11/6
f 351/11/6 201/11/6 357/11/6
f 356/11/6 351/11/6 357/11/6
f 324/11/6 352/11/6 358/11/6
f 352/11/6 353/11/6 358/11/6
f 353/11/6 354/11/6 358/11/6
f 358/11/6 354/11/6 359/11/6
f 324/11/6 358/11/6 360/11/6
f 358/12/6 359/12/6 360/12/6
f 359/11/6 354/11/6 361/11/6
f 360/12/6 359/12/6 361/12/6
f 354/12/6 355/12/6 362/12/6
f 361/11/6 354/11/6 362/11/6
f 355/11/6 356/11/6 363/11/6
f 362/12/6 355/12/6 363/12/6
f 356/12/6 357/12/6 364/12/6
f 363/11/6 356/11/6 364/11/6
f 357/11/6 201/11/6 365/11/6
f 364/12/6 357/12/6 365/12/6
f 200/11/6 324/11/6 366/11/6
f 361/11/6 362/11/6 366/11/6
f 364/11/6 365/11/6 366/11/6
f 324/11/6 360/11/6 366/11/6
f 360/11/6 361/11/6 366/11/6
f 362/11/6 363/11/6 366/11/6
f 363/11/6 364/11/6 366/11/6
f 365/11/6 201/11/6 367/11/6
f 366/11/6 365/11/6 367/11/6
f 368/11/6 369/11/6 370/11/6
f 370/11/6 369/11/6 371/11/6
