# MagicaVoxel @ Ephtracy

# group
o 

# material
mtllib Voxel Universe Objects-58.mtl
usemtl palette

# normals
vn 1 0 0
vn -1 0 0
vn 0 0 -1
vn 0 0 1
vn 0 -1 0
vn 0 1 0

# texcoords
vt 0.236328 0.5
vt 0.943359 0.5
vt 0.947266 0.5
vt 0.974609 0.5
vt 0.982422 0.5

# verts
v -7.5 0 -10.2
v -7.5 0 -9.7
v -7.5 0 -9.4
v -7.5 0.1 -10.2
v -7.5 0.1 -9.7
v -7.5 0.1 -9.4
v -7.5 0.2 -10.2
v -7.5 0.2 -9.7
v -7.5 0.2 -9.4
v -7.5 0.5 -9.8
v -7.5 0.5 -9.7
v -7.5 1 -10.2
v -7.5 1 -9.8
v -7.5 1 -9.4
v -7.5 1.4 -9.9
v -7.5 1.4 -9.8
v -7.5 1.8 -10.2
v -7.5 1.8 -9.9
v -7.5 1.8 -9.4
v -7.5 1.9 -10.2
v -7.5 1.9 -9.4
v -8.1 1.8 -10
v -8.1 1.8 -9.6
v -8.1 1.9 -10
v -8.1 1.9 -9.6
v -8.2 0 -10.1
v -8.2 0 -9.9
v -8.2 0 -9.5
v -8.2 0.1 -10.1
v -8.2 0.1 -9.9
v -8.2 0.1 -9.5
v -7.6 0 -10.1
v -7.6 0 -9.7
v -7.6 0 -9.5
v -7.6 0.1 -10.1
v -7.6 0.1 -9.7
v -7.6 0.1 -9.5
v -7.7 1.8 -10
v -7.7 1.8 -9.9
v -7.7 1.8 -9.7
v -7.7 1.8 -9.6
v -7.7 1.9 -10
v -7.7 1.9 -9.9
v -7.7 1.9 -9.7
v -7.7 1.9 -9.6
v -8 1.8 -9.9
v -8 1.8 -9.7
v -8 1.9 -9.9
v -8 1.9 -9.7
v -8.3 0 -10.2
v -8.3 0 -9.9
v -8.3 0 -9.4
v -8.3 0.1 -10.2
v -8.3 0.1 -9.9
v -8.3 0.1 -9.4
v -8.3 0.2 -10.2
v -8.3 0.2 -9.9
v -8.3 0.2 -9.4
v -8.3 0.6 -9.9
v -8.3 0.6 -9.8
v -8.3 1 -10.2
v -8.3 1 -9.8
v -8.3 1 -9.4
v -8.3 1.4 -9.8
v -8.3 1.4 -9.7
v -8.3 1.8 -10.2
v -8.3 1.8 -9.7
v -8.3 1.8 -9.4
v -8.3 1.9 -10.2
v -8.3 1.9 -9.4
v -7.5 0 -10.2
v -7.5 0.1 -10.2
v -7.5 0.2 -10.2
v -7.5 1 -10.2
v -7.5 1.8 -10.2
v -7.5 1.9 -10.2
v -7.8 0 -10.2
v -7.8 0.1 -10.2
v -7.8 0.2 -10.2
v -7.8 0.6 -10.2
v -7.9 0.6 -10.2
v -7.9 1 -10.2
v -7.9 1.4 -10.2
v -8 1.4 -10.2
v -8 1.8 -10.2
v -8.3 0 -10.2
v -8.3 0.1 -10.2
v -8.3 0.2 -10.2
v -8.3 1 -10.2
v -8.3 1.8 -10.2
v -8.3 1.9 -10.2
v -7.7 1.8 -9.9
v -7.7 1.9 -9.9
v -7.8 1.8 -9.9
v -7.8 1.9 -9.9
v -8 1.8 -9.9
v -8 1.9 -9.9
v -7.7 1.8 -9.6
v -7.7 1.9 -9.6
v -8.1 1.8 -9.6
v -8.1 1.9 -9.6
v -7.6 0 -9.5
v -7.6 0.1 -9.5
v -8 0 -9.5
v -8 0.1 -9.5
v -8.2 0 -9.5
v -8.2 0.1 -9.5
v -7.6 0 -10.1
v -7.6 0.1 -10.1
v -7.8 0 -10.1
v -7.8 0.1 -10.1
v -8.2 0 -10.1
v -8.2 0.1 -10.1
v -7.7 1.8 -10
v -7.7 1.9 -10
v -8.1 1.8 -10
v -8.1 1.9 -10
v -7.7 1.8 -9.7
v -7.7 1.9 -9.7
v -7.8 1.8 -9.7
v -7.8 1.9 -9.7
v -8 1.8 -9.7
v -8 1.9 -9.7
v -7.5 0 -9.4
v -7.5 0.1 -9.4
v -7.5 0.2 -9.4
v -7.5 1 -9.4
v -7.5 1.8 -9.4
v -7.5 1.9 -9.4
v -7.6 0.9 -9.4
v -7.6 1 -9.4
v -7.6 1.2 -9.4
v -7.7 0.7 -9.4
v -7.7 0.8 -9.4
v -7.7 0.9 -9.4
v -7.7 1 -9.4
v -7.7 1.2 -9.4
v -7.8 0.9 -9.4
v -7.8 1 -9.4
v -7.8 1.2 -9.4
v -7.8 1.4 -9.4
v -7.8 1.8 -9.4
v -7.9 0.5 -9.4
v -7.9 0.7 -9.4
v -7.9 0.8 -9.4
v -7.9 0.9 -9.4
v -7.9 1.1 -9.4
v -7.9 1.2 -9.4
v -7.9 1.4 -9.4
v -8 0 -9.4
v -8 0.1 -9.4
v -8 0.2 -9.4
v -8 0.5 -9.4
v -8 1 -9.4
v -8 1.1 -9.4
v -8 1.2 -9.4
v -8.1 0.7 -9.4
v -8.1 0.8 -9.4
v -8.1 0.9 -9.4
v -8.1 1 -9.4
v -8.1 1.1 -9.4
v -8.1 1.2 -9.4
v -8.2 0.9 -9.4
v -8.2 1 -9.4
v -8.2 1.1 -9.4
v -8.3 0 -9.4
v -8.3 0.1 -9.4
v -8.3 0.2 -9.4
v -8.3 1 -9.4
v -8.3 1.8 -9.4
v -8.3 1.9 -9.4
v -7.5 0 -10.2
v -7.8 0 -10.2
v -8.3 0 -10.2
v -7.6 0 -10.1
v -7.8 0 -10.1
v -8.2 0 -10.1
v -8.2 0 -9.9
v -8.3 0 -9.9
v -7.5 0 -9.7
v -7.6 0 -9.7
v -7.6 0 -9.5
v -8 0 -9.5
v -8.2 0 -9.5
v -7.5 0 -9.4
v -8 0 -9.4
v -8.3 0 -9.4
v -7.6 0.1 -10.1
v -7.8 0.1 -10.1
v -8.2 0.1 -10.1
v -8.2 0.1 -9.9
v -7.6 0.1 -9.7
v -7.6 0.1 -9.5
v -8 0.1 -9.5
v -8.2 0.1 -9.5
v -7.7 1.8 -10
v -8.1 1.8 -10
v -7.7 1.8 -9.9
v -7.8 1.8 -9.9
v -8 1.8 -9.9
v -7.7 1.8 -9.7
v -7.8 1.8 -9.7
v -8 1.8 -9.7
v -7.7 1.8 -9.6
v -8.1 1.8 -9.6
v -7.5 1.9 -10.2
v -8.3 1.9 -10.2
v -7.6 1.9 -10.1
v -8.2 1.9 -10.1
v -7.7 1.9 -10
v -8.1 1.9 -10
v -7.7 1.9 -9.9
v -7.8 1.9 -9.9
v -8 1.9 -9.9
v -7.7 1.9 -9.7
v -7.8 1.9 -9.7
v -8 1.9 -9.7
v -7.7 1.9 -9.6
v -8.1 1.9 -9.6
v -7.6 1.9 -9.5
v -8.2 1.9 -9.5
v -7.5 1.9 -9.4
v -8.3 1.9 -9.4

# faces
f 4/2/1 2/2/1 1/2/1
f 5/1/1 3/1/1 2/1/1
f 5/2/1 2/2/1 4/2/1
f 6/1/1 3/1/1 5/1/1
f 7/3/1 5/3/1 4/3/1
f 7/3/1 6/3/1 5/3/1
f 8/3/1 6/3/1 7/3/1
f 9/3/1 6/3/1 8/3/1
f 10/2/1 8/2/1 7/2/1
f 11/1/1 9/1/1 8/1/1
f 11/2/1 8/2/1 10/2/1
f 12/2/1 10/2/1 7/2/1
f 13/1/1 11/1/1 10/1/1
f 13/2/1 10/2/1 12/2/1
f 14/1/1 9/1/1 11/1/1
f 14/1/1 11/1/1 13/1/1
f 15/1/1 13/1/1 12/1/1
f 16/2/1 14/2/1 13/2/1
f 16/1/1 13/1/1 15/1/1
f 17/1/1 15/1/1 12/1/1
f 18/2/1 16/2/1 15/2/1
f 18/1/1 15/1/1 17/1/1
f 19/2/1 14/2/1 16/2/1
f 19/2/1 16/2/1 18/2/1
f 20/3/1 18/3/1 17/3/1
f 20/3/1 19/3/1 18/3/1
f 21/3/1 19/3/1 20/3/1
f 24/4/1 23/4/1 22/4/1
f 25/4/1 23/4/1 24/4/1
f 29/1/1 27/1/1 26/1/1
f 30/2/1 28/2/1 27/2/1
f 30/1/1 27/1/1 29/1/1
f 31/2/1 28/2/1 30/2/1
f 32/2/2 33/2/2 35/2/2
f 33/1/2 34/1/2 36/1/2
f 35/2/2 33/2/2 36/2/2
f 36/1/2 34/1/2 37/1/2
f 38/4/2 39/4/2 42/4/2
f 42/4/2 39/4/2 43/4/2
f 40/4/2 41/4/2 44/4/2
f 44/4/2 41/4/2 45/4/2
f 46/4/2 47/4/2 48/4/2
f 48/4/2 47/4/2 49/4/2
f 50/1/2 51/1/2 53/1/2
f 51/2/2 52/2/2 54/2/2
f 53/1/2 51/1/2 54/1/2
f 54/2/2 52/2/2 55/2/2
f 53/3/2 54/3/2 56/3/2
f 54/3/2 55/3/2 56/3/2
f 56/3/2 55/3/2 57/3/2
f 57/3/2 55/3/2 58/3/2
f 56/1/2 57/1/2 59/1/2
f 57/2/2 58/2/2 59/2/2
f 59/2/2 58/2/2 60/2/2
f 56/1/2 59/1/2 61/1/2
f 59/1/2 60/1/2 61/1/2
f 60/2/2 58/2/2 62/2/2
f 61/1/2 60/1/2 62/1/2
f 62/2/2 58/2/2 63/2/2
f 61/2/2 62/2/2 64/2/2
f 62/1/2 63/1/2 64/1/2
f 64/1/2 63/1/2 65/1/2
f 61/2/2 64/2/2 66/2/2
f 64/2/2 65/2/2 66/2/2
f 65/1/2 63/1/2 67/1/2
f 66/2/2 65/2/2 67/2/2
f 67/1/2 63/1/2 68/1/2
f 66/3/2 67/3/2 69/3/2
f 67/3/2 68/3/2 69/3/2
f 69/3/2 68/3/2 70/3/2
f 77/2/3 72/2/3 71/2/3
f 78/3/3 73/3/3 72/3/3
f 78/2/3 72/2/3 77/2/3
f 79/2/3 74/2/3 73/2/3
f 79/3/3 73/3/3 78/3/3
f 80/2/3 74/2/3 79/2/3
f 81/1/3 80/1/3 79/1/3
f 81/2/3 74/2/3 80/2/3
f 82/1/3 75/1/3 74/1/3
f 82/2/3 74/2/3 81/2/3
f 83/1/3 75/1/3 82/1/3
f 84/2/3 83/2/3 82/2/3
f 84/1/3 75/1/3 83/1/3
f 85/3/3 76/3/3 75/3/3
f 85/1/3 75/1/3 84/1/3
f 86/1/3 78/1/3 77/1/3
f 87/3/3 79/3/3 78/3/3
f 87/1/3 78/1/3 86/1/3
f 88/1/3 81/1/3 79/1/3
f 88/3/3 79/3/3 87/3/3
f 88/1/3 82/1/3 81/1/3
f 89/2/3 84/2/3 82/2/3
f 89/1/3 82/1/3 88/1/3
f 89/2/3 85/2/3 84/2/3
f 90/3/3 76/3/3 85/3/3
f 90/2/3 85/2/3 89/2/3
f 91/3/3 76/3/3 90/3/3
f 94/5/3 93/5/3 92/5/3
f 95/5/3 93/5/3 94/5/3
f 96/4/3 95/4/3 94/4/3
f 97/4/3 95/4/3 96/4/3
f 100/4/3 99/4/3 98/4/3
f 101/4/3 99/4/3 100/4/3
f 104/1/3 103/1/3 102/1/3
f 105/1/3 103/1/3 104/1/3
f 106/2/3 105/2/3 104/2/3
f 107/2/3 105/2/3 106/2/3
f 108/2/4 109/2/4 110/2/4
f 110/2/4 109/2/4 111/2/4
f 110/1/4 111/1/4 112/1/4
f 112/1/4 111/1/4 113/1/4
f 114/4/4 115/4/4 116/4/4
f 116/4/4 115/4/4 117/4/4
f 118/5/4 119/5/4 120/5/4
f 120/5/4 119/5/4 121/5/4
f 120/4/4 121/4/4 122/4/4
f 122/4/4 121/4/4 123/4/4
f 126/1/4 127/1/4 130/1/4
f 127/2/4 128/2/4 131/2/4
f 130/1/4 127/1/4 131/1/4
f 131/2/4 128/2/4 132/2/4
f 126/1/4 130/1/4 133/1/4
f 133/1/4 130/1/4 134/1/4
f 130/3/4 131/3/4 135/3/4
f 134/1/4 130/1/4 135/1/4
f 131/3/4 132/3/4 135/3/4
f 135/3/4 132/3/4 136/3/4
f 132/2/4 128/2/4 137/2/4
f 136/3/4 132/3/4 137/3/4
f 135/1/4 136/1/4 138/1/4
f 134/1/4 135/1/4 138/1/4
f 136/2/4 137/2/4 139/2/4
f 138/1/4 136/1/4 139/1/4
f 137/2/4 128/2/4 140/2/4
f 139/2/4 137/2/4 140/2/4
f 140/2/4 128/2/4 141/2/4
f 128/3/4 129/3/4 142/3/4
f 141/2/4 128/2/4 142/2/4
f 126/1/4 133/1/4 143/1/4
f 133/3/4 134/3/4 144/3/4
f 143/1/4 133/1/4 144/1/4
f 134/1/4 138/1/4 145/1/4
f 144/3/4 134/3/4 145/3/4
f 138/2/4 139/2/4 146/2/4
f 145/1/4 138/1/4 146/1/4
f 139/3/4 140/3/4 147/3/4
f 140/2/4 141/2/4 148/2/4
f 147/3/4 140/3/4 148/3/4
f 141/1/4 142/1/4 149/1/4
f 148/2/4 141/2/4 149/2/4
f 124/1/4 125/1/4 150/1/4
f 125/3/4 126/3/4 151/3/4
f 150/1/4 125/1/4 151/1/4
f 126/1/4 143/1/4 152/1/4
f 151/3/4 126/3/4 152/3/4
f 143/2/4 144/2/4 153/2/4
f 152/1/4 143/1/4 153/1/4
f 139/3/4 147/3/4 154/3/4
f 146/2/4 139/2/4 154/2/4
f 145/2/4 146/2/4 154/2/4
f 147/1/4 148/1/4 155/1/4
f 154/3/4 147/3/4 155/3/4
f 148/1/4 149/1/4 155/1/4
f 155/1/4 149/1/4 156/1/4
f 153/2/4 144/2/4 157/2/4
f 144/3/4 145/3/4 157/3/4
f 152/2/4 153/2/4 157/2/4
f 145/2/4 154/2/4 158/2/4
f 157/3/4 145/3/4 158/3/4
f 158/2/4 154/2/4 159/2/4
f 154/1/4 155/1/4 160/1/4
f 159/2/4 154/2/4 160/2/4
f 155/3/4 156/3/4 161/3/4
f 160/1/4 155/1/4 161/1/4
f 156/1/4 149/1/4 162/1/4
f 161/3/4 156/3/4 162/3/4
f 160/3/4 161/3/4 163/3/4
f 159/3/4 160/3/4 163/3/4
f 158/2/4 159/2/4 163/2/4
f 157/2/4 158/2/4 163/2/4
f 163/3/4 161/3/4 164/3/4
f 161/1/4 162/1/4 165/1/4
f 164/3/4 161/3/4 165/3/4
f 150/2/4 151/2/4 166/2/4
f 151/3/4 152/3/4 167/3/4
f 166/2/4 151/2/4 167/2/4
f 163/2/4 164/2/4 168/2/4
f 167/3/4 152/3/4 168/3/4
f 152/2/4 157/2/4 168/2/4
f 157/2/4 163/2/4 168/2/4
f 164/1/4 165/1/4 169/1/4
f 168/2/4 164/2/4 169/2/4
f 149/1/4 142/1/4 170/1/4
f 169/1/4 165/1/4 170/1/4
f 162/1/4 149/1/4 170/1/4
f 165/1/4 162/1/4 170/1/4
f 142/3/4 129/3/4 170/3/4
f 170/3/4 129/3/4 171/3/4
f 175/2/5 173/2/5 172/2/5
f 176/1/5 174/1/5 173/1/5
f 176/2/5 173/2/5 175/2/5
f 177/1/5 174/1/5 176/1/5
f 178/1/5 174/1/5 177/1/5
f 179/1/5 174/1/5 178/1/5
f 180/2/5 175/2/5 172/2/5
f 181/2/5 175/2/5 180/2/5
f 182/1/5 181/1/5 180/1/5
f 184/2/5 179/2/5 178/2/5
f 185/1/5 183/1/5 182/1/5
f 185/1/5 182/1/5 180/1/5
f 186/2/5 184/2/5 183/2/5
f 186/1/5 183/1/5 185/1/5
f 187/2/5 179/2/5 184/2/5
f 187/2/5 184/2/5 186/2/5
f 191/4/5 189/4/5 188/4/5
f 191/4/5 190/4/5 189/4/5
f 192/4/5 191/4/5 188/4/5
f 193/4/5 191/4/5 192/4/5
f 194/4/5 191/4/5 193/4/5
f 195/4/5 191/4/5 194/4/5
f 196/5/6 197/5/6 198/5/6
f 198/5/6 197/5/6 199/5/6
f 199/5/6 197/5/6 200/5/6
f 200/5/6 197/5/6 203/5/6
f 201/5/6 202/5/6 204/5/6
f 202/5/6 203/5/6 204/5/6
f 203/5/6 197/5/6 205/5/6
f 204/5/6 203/5/6 205/5/6
f 206/3/6 207/3/6 208/3/6
f 208/3/6 207/3/6 209/3/6
f 208/4/6 209/4/6 210/4/6
f 210/4/6 209/4/6 211/4/6
f 208/4/6 210/4/6 212/4/6
f 208/4/6 212/4/6 215/4/6
f 212/5/6 213/5/6 215/5/6
f 213/4/6 214/4/6 216/4/6
f 215/5/6 213/5/6 216/5/6
f 216/4/6 214/4/6 217/4/6
f 208/4/6 215/4/6 218/4/6
f 211/4/6 209/4/6 219/4/6
f 206/3/6 208/3/6 220/3/6
f 218/4/6 219/4/6 220/4/6
f 208/4/6 218/4/6 220/4/6
f 219/4/6 209/4/6 221/4/6
f 220/4/6 219/4/6 221/4/6
f 209/3/6 207/3/6 221/3/6
f 206/3/6 220/3/6 222/3/6
f 220/3/6 221/3/6 222/3/6
f 221/3/6 207/3/6 223/3/6
f 222/3/6 221/3/6 223/3/6
