# MagicaVoxel @ Ephtracy

# group
o 

# material
mtllib Voxel Universe Objects-31.mtl
usemtl palette

# normals
vn 1 0 0
vn -1 0 0
vn 0 0 -1
vn 0 0 1
vn 0 -1 0
vn 0 1 0

# texcoords
vt 0.810547 0.5
vt 0.837891 0.5

# verts
v -10.7 0 -3.6
v -10.7 0 -2.2
v -10.7 0 -2.1
v -10.7 0.2 -3.6
v -10.7 0.2 -3.5
v -10.7 0.2 -3
v -10.7 0.2 -2.2
v -10.7 0.2 -2.1
v -10.7 0.3 -3.5
v -10.7 0.3 -3
v -10.8 0.2 -3.5
v -10.8 0.2 -3
v -10.8 0.3 -3.5
v -10.8 0.3 -3
v -10.9 0 -3.6
v -10.9 0 -2.2
v -10.9 0 -2.1
v -10.9 0.2 -3.6
v -10.9 0.2 -2.2
v -10.9 0.2 -2.1
v -10.7 0 -3.6
v -10.7 0.2 -3.6
v -10.9 0 -3.6
v -10.9 0.2 -3.6
v -10.7 0.2 -3.5
v -10.7 0.3 -3.5
v -10.8 0.2 -3.5
v -10.8 0.3 -3.5
v -10.7 0.2 -3
v -10.7 0.3 -3
v -10.8 0.2 -3
v -10.8 0.3 -3
v -10.7 0 -2.1
v -10.7 0.2 -2.1
v -10.9 0 -2.1
v -10.9 0.2 -2.1
v -10.7 0 -3.6
v -10.9 0 -3.6
v -10.7 0 -2.2
v -10.9 0 -2.2
v -10.7 0 -2.1
v -10.9 0 -2.1
v -10.7 0.2 -3.6
v -10.9 0.2 -3.6
v -10.7 0.2 -3.5
v -10.8 0.2 -3.5
v -10.7 0.2 -3
v -10.8 0.2 -3
v -10.7 0.2 -2.2
v -10.9 0.2 -2.2
v -10.7 0.2 -2.1
v -10.9 0.2 -2.1
v -10.7 0.3 -3.5
v -10.8 0.3 -3.5
v -10.7 0.3 -3
v -10.8 0.3 -3

# faces
f 4/2/1 2/2/1 1/2/1
f 5/2/1 2/2/1 4/2/1
f 6/2/1 2/2/1 5/2/1
f 7/1/1 3/1/1 2/1/1
f 7/2/1 2/2/1 6/2/1
f 8/1/1 3/1/1 7/1/1
f 9/1/1 6/1/1 5/1/1
f 10/1/1 6/1/1 9/1/1
f 11/1/2 12/1/2 13/1/2
f 13/1/2 12/1/2 14/1/2
f 15/2/2 16/2/2 18/2/2
f 16/1/2 17/1/2 19/1/2
f 18/2/2 16/2/2 19/2/2
f 19/1/2 17/1/2 20/1/2
f 23/2/3 22/2/3 21/2/3
f 24/2/3 22/2/3 23/2/3
f 27/1/3 26/1/3 25/1/3
f 28/1/3 26/1/3 27/1/3
f 29/1/4 30/1/4 31/1/4
f 31/1/4 30/1/4 32/1/4
f 33/1/4 34/1/4 35/1/4
f 35/1/4 34/1/4 36/1/4
f 39/2/5 38/2/5 37/2/5
f 40/2/5 38/2/5 39/2/5
f 41/1/5 40/1/5 39/1/5
f 42/1/5 40/1/5 41/1/5
f 43/2/6 44/2/6 45/2/6
f 45/2/6 44/2/6 46/2/6
f 46/2/6 44/2/6 48/2/6
f 47/2/6 48/2/6 49/2/6
f 48/2/6 44/2/6 50/2/6
f 49/2/6 48/2/6 50/2/6
f 49/1/6 50/1/6 51/1/6
f 51/1/6 50/1/6 52/1/6
f 53/1/6 54/1/6 55/1/6
f 55/1/6 54/1/6 56/1/6
