# MagicaVoxel @ Ephtracy

# group
o 

# material
mtllib Voxel Universe Objects-34.mtl
usemtl palette

# normals
vn -1 0 0
vn 1 0 0
vn 0 0 1
vn 0 0 -1
vn 0 -1 0
vn 0 1 0

# texcoords
vt 0.458984 0.5
vt 0.794922 0.5
vt 0.947266 0.5

# verts
v -12.9 0 2.4
v -12.9 0 1.3
v -12.9 0.1 2.4
v -12.9 0.1 1.3
v -10.6 0 2.4
v -10.6 0 1.3
v -10.6 0.1 2.4
v -10.6 0.1 1.3
v -12.9 0 2.4
v -12.9 0.1 2.4
v -10.6 0 2.4
v -10.6 0.1 2.4
v -12.9 0 1.3
v -12.9 0.1 1.3
v -10.6 0 1.3
v -10.6 0.1 1.3
v -12.9 0 2.4
v -10.6 0 2.4
v -12.8 0 2.3
v -10.7 0 2.3
v -12.6 0 2.2
v -12.5 0 2.2
v -12 0 2.2
v -11.5 0 2.2
v -11 0 2.2
v -10.9 0 2.2
v -12.7 0 2.1
v -12.6 0 2.1
v -12.5 0 2.1
v -12.4 0 2.1
v -12.3 0 2.1
v -12.1 0 2.1
v -12 0 2.1
v -11.9 0 2.1
v -11.8 0 2.1
v -11.7 0 2.1
v -11.6 0 2.1
v -11.5 0 2.1
v -11.4 0 2.1
v -11.2 0 2.1
v -11.1 0 2.1
v -11 0 2.1
v -10.9 0 2.1
v -10.8 0 2.1
v -12.7 0 2
v -12.6 0 2
v -12.5 0 2
v -12.4 0 2
v -12.3 0 2
v -12.2 0 2
v -11.9 0 2
v -11.8 0 2
v -11.7 0 2
v -11.6 0 2
v -11.3 0 2
v -11.2 0 2
v -11.1 0 2
v -11 0 2
v -10.9 0 2
v -10.8 0 2
v -12.6 0 1.9
v -12.5 0 1.9
v -12.3 0 1.9
v -12.2 0 1.9
v -11.3 0 1.9
v -11.2 0 1.9
v -11 0 1.9
v -10.9 0 1.9
v -12.6 0 1.8
v -12.5 0 1.8
v -12.3 0 1.8
v -12.2 0 1.8
v -11.3 0 1.8
v -11.2 0 1.8
v -11 0 1.8
v -10.9 0 1.8
v -12.7 0 1.7
v -12.6 0 1.7
v -12.5 0 1.7
v -12.4 0 1.7
v -12.3 0 1.7
v -12.2 0 1.7
v -11.9 0 1.7
v -11.8 0 1.7
v -11.7 0 1.7
v -11.6 0 1.7
v -11.3 0 1.7
v -11.2 0 1.7
v -11.1 0 1.7
v -11 0 1.7
v -10.9 0 1.7
v -10.8 0 1.7
v -12.7 0 1.6
v -12.6 0 1.6
v -12.5 0 1.6
v -12.4 0 1.6
v -12.3 0 1.6
v -12.1 0 1.6
v -12 0 1.6
v -11.9 0 1.6
v -11.8 0 1.6
v -11.7 0 1.6
v -11.6 0 1.6
v -11.5 0 1.6
v -11.4 0 1.6
v -11.2 0 1.6
v -11.1 0 1.6
v -11 0 1.6
v -10.9 0 1.6
v -10.8 0 1.6
v -12.7 0 1.5
v -12.6 0 1.5
v -12.5 0 1.5
v -12 0 1.5
v -11.5 0 1.5
v -11 0 1.5
v -10.9 0 1.5
v -10.8 0 1.5
v -12.8 0 1.4
v -10.7 0 1.4
v -12.9 0 1.3
v -10.6 0 1.3
v -12.9 0.1 2.4
v -10.6 0.1 2.4
v -12.8 0.1 2.3
v -10.7 0.1 2.3
v -12.6 0.1 2.2
v -12.5 0.1 2.2
v -12 0.1 2.2
v -11.5 0.1 2.2
v -11 0.1 2.2
v -10.9 0.1 2.2
v -12.7 0.1 2.1
v -12.6 0.1 2.1
v -12.5 0.1 2.1
v -12.4 0.1 2.1
v -12.3 0.1 2.1
v -12.1 0.1 2.1
v -12 0.1 2.1
v -11.9 0.1 2.1
v -11.8 0.1 2.1
v -11.7 0.1 2.1
v -11.6 0.1 2.1
v -11.5 0.1 2.1
v -11.4 0.1 2.1
v -11.2 0.1 2.1
v -11.1 0.1 2.1
v -11 0.1 2.1
v -10.9 0.1 2.1
v -10.8 0.1 2.1
v -12.7 0.1 2
v -12.6 0.1 2
v -12.5 0.1 2
v -12.4 0.1 2
v -12.3 0.1 2
v -12.2 0.1 2
v -11.9 0.1 2
v -11.8 0.1 2
v -11.7 0.1 2
v -11.6 0.1 2
v -11.3 0.1 2
v -11.2 0.1 2
v -11.1 0.1 2
v -11 0.1 2
v -10.9 0.1 2
v -10.8 0.1 2
v -12.6 0.1 1.9
v -12.5 0.1 1.9
v -12.3 0.1 1.9
v -12.2 0.1 1.9
v -11.3 0.1 1.9
v -11.2 0.1 1.9
v -11 0.1 1.9
v -10.9 0.1 1.9
v -12.6 0.1 1.8
v -12.5 0.1 1.8
v -12.3 0.1 1.8
v -12.2 0.1 1.8
v -11.3 0.1 1.8
v -11.2 0.1 1.8
v -11 0.1 1.8
v -10.9 0.1 1.8
v -12.7 0.1 1.7
v -12.6 0.1 1.7
v -12.5 0.1 1.7
v -12.4 0.1 1.7
v -12.3 0.1 1.7
v -12.2 0.1 1.7
v -11.9 0.1 1.7
v -11.8 0.1 1.7
v -11.7 0.1 1.7
v -11.6 0.1 1.7
v -11.3 0.1 1.7
v -11.2 0.1 1.7
v -11.1 0.1 1.7
v -11 0.1 1.7
v -10.9 0.1 1.7
v -10.8 0.1 1.7
v -12.7 0.1 1.6
v -12.6 0.1 1.6
v -12.5 0.1 1.6
v -12.4 0.1 1.6
v -12.3 0.1 1.6
v -12.1 0.1 1.6
v -12 0.1 1.6
v -11.9 0.1 1.6
v -11.8 0.1 1.6
v -11.7 0.1 1.6
v -11.6 0.1 1.6
v -11.5 0.1 1.6
v -11.4 0.1 1.6
v -11.2 0.1 1.6
v -11.1 0.1 1.6
v -11 0.1 1.6
v -10.9 0.1 1.6
v -10.8 0.1 1.6
v -12.7 0.1 1.5
v -12.6 0.1 1.5
v -12.5 0.1 1.5
v -12 0.1 1.5
v -11.5 0.1 1.5
v -11 0.1 1.5
v -10.9 0.1 1.5
v -10.8 0.1 1.5
v -12.8 0.1 1.4
v -10.7 0.1 1.4
v -12.9 0.1 1.3
v -10.6 0.1 1.3

# faces
f 3/3/1 2/3/1 1/3/1
f 4/3/1 2/3/1 3/3/1
f 5/3/2 6/3/2 7/3/2
f 7/3/2 6/3/2 8/3/2
f 11/3/3 10/3/3 9/3/3
f 12/3/3 10/3/3 11/3/3
f 13/3/4 14/3/4 15/3/4
f 15/3/4 14/3/4 16/3/4
f 19/3/5 18/3/5 17/3/5
f 20/3/5 18/3/5 19/3/5
f 21/2/5 20/2/5 19/2/5
f 22/2/5 20/2/5 21/2/5
f 23/2/5 20/2/5 22/2/5
f 24/2/5 20/2/5 23/2/5
f 25/2/5 20/2/5 24/2/5
f 26/2/5 20/2/5 25/2/5
f 27/2/5 21/2/5 19/2/5
f 28/1/5 22/1/5 21/1/5
f 28/2/5 21/2/5 27/2/5
f 29/3/5 23/3/5 22/3/5
f 29/1/5 22/1/5 28/1/5
f 30/3/5 23/3/5 29/3/5
f 31/3/5 23/3/5 30/3/5
f 32/3/5 23/3/5 31/3/5
f 33/2/5 24/2/5 23/2/5
f 33/3/5 23/3/5 32/3/5
f 34/2/5 24/2/5 33/2/5
f 35/2/5 24/2/5 34/2/5
f 36/2/5 24/2/5 35/2/5
f 37/2/5 24/2/5 36/2/5
f 38/3/5 25/3/5 24/3/5
f 38/2/5 24/2/5 37/2/5
f 39/3/5 25/3/5 38/3/5
f 40/3/5 25/3/5 39/3/5
f 41/3/5 25/3/5 40/3/5
f 42/1/5 26/1/5 25/1/5
f 42/3/5 25/3/5 41/3/5
f 43/2/5 20/2/5 26/2/5
f 43/1/5 26/1/5 42/1/5
f 44/2/5 20/2/5 43/2/5
f 45/2/5 27/2/5 19/2/5
f 45/1/5 28/1/5 27/1/5
f 46/3/5 29/3/5 28/3/5
f 46/1/5 28/1/5 45/1/5
f 47/1/5 30/1/5 29/1/5
f 47/3/5 29/3/5 46/3/5
f 48/2/5 31/2/5 30/2/5
f 48/1/5 30/1/5 47/1/5
f 49/3/5 32/3/5 31/3/5
f 49/2/5 31/2/5 48/2/5
f 50/3/5 32/3/5 49/3/5
f 51/3/5 34/3/5 33/3/5
f 51/1/5 35/1/5 34/1/5
f 52/2/5 36/2/5 35/2/5
f 52/1/5 35/1/5 51/1/5
f 53/1/5 37/1/5 36/1/5
f 53/2/5 36/2/5 52/2/5
f 54/3/5 38/3/5 37/3/5
f 54/1/5 37/1/5 53/1/5
f 55/3/5 40/3/5 39/3/5
f 56/2/5 41/2/5 40/2/5
f 56/3/5 40/3/5 55/3/5
f 57/1/5 42/1/5 41/1/5
f 57/2/5 41/2/5 56/2/5
f 58/3/5 43/3/5 42/3/5
f 58/1/5 42/1/5 57/1/5
f 59/1/5 44/1/5 43/1/5
f 59/3/5 43/3/5 58/3/5
f 60/2/5 20/2/5 44/2/5
f 60/1/5 44/1/5 59/1/5
f 61/3/5 46/3/5 45/3/5
f 61/1/5 47/1/5 46/1/5
f 62/3/5 48/3/5 47/3/5
f 62/1/5 47/1/5 61/1/5
f 62/3/5 49/3/5 48/3/5
f 63/1/5 50/1/5 49/1/5
f 63/3/5 49/3/5 62/3/5
f 64/3/5 32/3/5 50/3/5
f 64/1/5 50/1/5 63/1/5
f 65/1/5 56/1/5 55/1/5
f 65/3/5 55/3/5 39/3/5
f 66/3/5 58/3/5 57/3/5
f 66/1/5 56/1/5 65/1/5
f 66/3/5 57/3/5 56/3/5
f 67/1/5 59/1/5 58/1/5
f 67/3/5 58/3/5 66/3/5
f 68/3/5 60/3/5 59/3/5
f 68/1/5 59/1/5 67/1/5
f 69/3/5 61/3/5 45/3/5
f 69/2/5 62/2/5 61/2/5
f 70/3/5 63/3/5 62/3/5
f 70/2/5 62/2/5 69/2/5
f 71/2/5 64/2/5 63/2/5
f 71/3/5 63/3/5 70/3/5
f 72/3/5 32/3/5 64/3/5
f 72/2/5 64/2/5 71/2/5
f 73/2/5 66/2/5 65/2/5
f 73/3/5 65/3/5 39/3/5
f 74/3/5 67/3/5 66/3/5
f 74/2/5 66/2/5 73/2/5
f 75/2/5 68/2/5 67/2/5
f 75/3/5 67/3/5 74/3/5
f 76/3/5 60/3/5 68/3/5
f 76/2/5 68/2/5 75/2/5
f 77/2/5 45/2/5 19/2/5
f 77/3/5 69/3/5 45/3/5
f 78/1/5 70/1/5 69/1/5
f 78/3/5 69/3/5 77/3/5
f 79/3/5 71/3/5 70/3/5
f 79/1/5 70/1/5 78/1/5
f 80/3/5 71/3/5 79/3/5
f 81/1/5 72/1/5 71/1/5
f 81/3/5 71/3/5 80/3/5
f 82/3/5 32/3/5 72/3/5
f 82/1/5 72/1/5 81/1/5
f 83/2/5 52/2/5 51/2/5
f 83/3/5 51/3/5 33/3/5
f 83/2/5 53/2/5 52/2/5
f 83/2/5 54/2/5 53/2/5
f 84/2/5 54/2/5 83/2/5
f 85/2/5 54/2/5 84/2/5
f 86/3/5 38/3/5 54/3/5
f 86/2/5 54/2/5 85/2/5
f 87/3/5 73/3/5 39/3/5
f 87/1/5 74/1/5 73/1/5
f 88/3/5 75/3/5 74/3/5
f 88/1/5 74/1/5 87/1/5
f 89/3/5 75/3/5 88/3/5
f 90/1/5 76/1/5 75/1/5
f 90/3/5 75/3/5 89/3/5
f 91/3/5 60/3/5 76/3/5
f 91/1/5 76/1/5 90/1/5
f 92/2/5 20/2/5 60/2/5
f 92/3/5 60/3/5 91/3/5
f 93/2/5 78/2/5 77/2/5
f 93/2/5 77/2/5 19/2/5
f 93/2/5 79/2/5 78/2/5
f 94/2/5 79/2/5 93/2/5
f 95/1/5 80/1/5 79/1/5
f 95/2/5 79/2/5 94/2/5
f 96/2/5 81/2/5 80/2/5
f 96/1/5 80/1/5 95/1/5
f 97/3/5 82/3/5 81/3/5
f 97/2/5 81/2/5 96/2/5
f 98/3/5 32/3/5 82/3/5
f 98/3/5 82/3/5 97/3/5
f 98/1/5 33/1/5 32/1/5
f 99/3/5 83/3/5 33/3/5
f 99/1/5 33/1/5 98/1/5
f 100/1/5 84/1/5 83/1/5
f 100/3/5 83/3/5 99/3/5
f 101/2/5 85/2/5 84/2/5
f 101/1/5 84/1/5 100/1/5
f 102/1/5 86/1/5 85/1/5
f 102/2/5 85/2/5 101/2/5
f 103/3/5 38/3/5 86/3/5
f 103/1/5 86/1/5 102/1/5
f 104/1/5 39/1/5 38/1/5
f 104/3/5 38/3/5 103/3/5
f 105/3/5 87/3/5 39/3/5
f 105/1/5 39/1/5 104/1/5
f 105/3/5 88/3/5 87/3/5
f 106/2/5 89/2/5 88/2/5
f 106/3/5 88/3/5 105/3/5
f 107/1/5 90/1/5 89/1/5
f 107/2/5 89/2/5 106/2/5
f 108/2/5 92/2/5 91/2/5
f 108/1/5 90/1/5 107/1/5
f 108/2/5 91/2/5 90/2/5
f 109/2/5 92/2/5 108/2/5
f 110/2/5 20/2/5 92/2/5
f 110/2/5 92/2/5 109/2/5
f 111/1/5 94/1/5 93/1/5
f 111/2/5 93/2/5 19/2/5
f 112/2/5 95/2/5 94/2/5
f 112/1/5 94/1/5 111/1/5
f 113/3/5 97/3/5 96/3/5
f 113/2/5 95/2/5 112/2/5
f 113/3/5 98/3/5 97/3/5
f 113/3/5 96/3/5 95/3/5
f 113/3/5 99/3/5 98/3/5
f 114/1/5 104/1/5 103/1/5
f 114/3/5 99/3/5 113/3/5
f 114/1/5 102/1/5 101/1/5
f 114/1/5 103/1/5 102/1/5
f 114/1/5 100/1/5 99/1/5
f 114/1/5 101/1/5 100/1/5
f 115/3/5 107/3/5 106/3/5
f 115/1/5 104/1/5 114/1/5
f 115/3/5 106/3/5 105/3/5
f 115/3/5 108/3/5 107/3/5
f 115/3/5 105/3/5 104/3/5
f 116/2/5 109/2/5 108/2/5
f 116/3/5 108/3/5 115/3/5
f 117/1/5 110/1/5 109/1/5
f 117/2/5 109/2/5 116/2/5
f 118/2/5 20/2/5 110/2/5
f 118/1/5 110/1/5 117/1/5
f 119/3/5 19/3/5 17/3/5
f 119/2/5 115/2/5 114/2/5
f 119/2/5 118/2/5 117/2/5
f 119/2/5 116/2/5 115/2/5
f 119/2/5 114/2/5 113/2/5
f 119/2/5 112/2/5 111/2/5
f 119/2/5 113/2/5 112/2/5
f 119/2/5 117/2/5 116/2/5
f 119/2/5 111/2/5 19/2/5
f 120/2/5 20/2/5 118/2/5
f 120/2/5 118/2/5 119/2/5
f 120/3/5 18/3/5 20/3/5
f 121/3/5 119/3/5 17/3/5
f 121/3/5 120/3/5 119/3/5
f 122/3/5 18/3/5 120/3/5
f 122/3/5 120/3/5 121/3/5
f 123/3/6 124/3/6 125/3/6
f 125/3/6 124/3/6 126/3/6
f 125/2/6 126/2/6 127/2/6
f 127/2/6 126/2/6 128/2/6
f 128/2/6 126/2/6 129/2/6
f 129/2/6 126/2/6 130/2/6
f 130/2/6 126/2/6 131/2/6
f 131/2/6 126/2/6 132/2/6
f 125/2/6 127/2/6 133/2/6
f 127/1/6 128/1/6 134/1/6
f 133/2/6 127/2/6 134/2/6
f 128/3/6 129/3/6 135/3/6
f 134/1/6 128/1/6 135/1/6
f 135/3/6 129/3/6 136/3/6
f 136/3/6 129/3/6 137/3/6
f 137/3/6 129/3/6 138/3/6
f 129/2/6 130/2/6 139/2/6
f 138/3/6 129/3/6 139/3/6
f 139/2/6 130/2/6 140/2/6
f 140/2/6 130/2/6 141/2/6
f 141/2/6 130/2/6 142/2/6
f 142/2/6 130/2/6 143/2/6
f 130/3/6 131/3/6 144/3/6
f 143/2/6 130/2/6 144/2/6
f 144/3/6 131/3/6 145/3/6
f 145/3/6 131/3/6 146/3/6
f 146/3/6 131/3/6 147/3/6
f 131/1/6 132/1/6 148/1/6
f 147/3/6 131/3/6 148/3/6
f 132/2/6 126/2/6 149/2/6
f 148/1/6 132/1/6 149/1/6
f 149/2/6 126/2/6 150/2/6
f 125/2/6 133/2/6 151/2/6
f 133/1/6 134/1/6 151/1/6
f 134/3/6 135/3/6 152/3/6
f 151/1/6 134/1/6 152/1/6
f 135/1/6 136/1/6 153/1/6
f 152/3/6 135/3/6 153/3/6
f 136/2/6 137/2/6 154/2/6
f 153/1/6 136/1/6 154/1/6
f 137/3/6 138/3/6 155/3/6
f 154/2/6 137/2/6 155/2/6
f 155/3/6 138/3/6 156/3/6
f 139/3/6 140/3/6 157/3/6
f 140/1/6 141/1/6 157/1/6
f 141/2/6 142/2/6 158/2/6
f 157/1/6 141/1/6 158/1/6
f 142/1/6 143/1/6 159/1/6
f 158/2/6 142/2/6 159/2/6
f 143/3/6 144/3/6 160/3/6
f 159/1/6 143/1/6 160/1/6
f 145/3/6 146/3/6 161/3/6
f 146/2/6 147/2/6 162/2/6
f 161/3/6 146/3/6 162/3/6
f 147/1/6 148/1/6 163/1/6
f 162/2/6 147/2/6 163/2/6
f 148/3/6 149/3/6 164/3/6
f 163/1/6 148/1/6 164/1/6
f 149/1/6 150/1/6 165/1/6
f 164/3/6 149/3/6 165/3/6
f 150/2/6 126/2/6 166/2/6
f 165/1/6 150/1/6 166/1/6
f 151/3/6 152/3/6 167/3/6
f 152/1/6 153/1/6 167/1/6
f 153/3/6 154/3/6 168/3/6
f 167/1/6 153/1/6 168/1/6
f 154/3/6 155/3/6 168/3/6
f 155/1/6 156/1/6 169/1/6
f 168/3/6 155/3/6 169/3/6
f 156/3/6 138/3/6 170/3/6
f 169/1/6 156/1/6 170/1/6
f 161/1/6 162/1/6 171/1/6
f 145/3/6 161/3/6 171/3/6
f 163/3/6 164/3/6 172/3/6
f 171/1/6 162/1/6 172/1/6
f 162/3/6 163/3/6 172/3/6
f 164/1/6 165/1/6 173/1/6
f 172/3/6 164/3/6 173/3/6
f 165/3/6 166/3/6 174/3/6
f 173/1/6 165/1/6 174/1/6
f 151/3/6 167/3/6 175/3/6
f 167/2/6 168/2/6 175/2/6
f 168/3/6 169/3/6 176/3/6
f 175/2/6 168/2/6 176/2/6
f 169/2/6 170/2/6 177/2/6
f 176/3/6 169/3/6 177/3/6
f 170/3/6 138/3/6 178/3/6
f 177/2/6 170/2/6 178/2/6
f 171/2/6 172/2/6 179/2/6
f 145/3/6 171/3/6 179/3/6
f 172/3/6 173/3/6 180/3/6
f 179/2/6 172/2/6 180/2/6
f 173/2/6 174/2/6 181/2/6
f 180/3/6 173/3/6 181/3/6
f 174/3/6 166/3/6 182/3/6
f 181/2/6 174/2/6 182/2/6
f 125/2/6 151/2/6 183/2/6
f 151/3/6 175/3/6 183/3/6
f 175/1/6 176/1/6 184/1/6
f 183/3/6 175/3/6 184/3/6
f 176/3/6 177/3/6 185/3/6
f 184/1/6 176/1/6 185/1/6
f 185/3/6 177/3/6 186/3/6
f 177/1/6 178/1/6 187/1/6
f 186/3/6 177/3/6 187/3/6
f 178/3/6 138/3/6 188/3/6
f 187/1/6 178/1/6 188/1/6
f 157/2/6 158/2/6 189/2/6
f 139/3/6 157/3/6 189/3/6
f 158/2/6 159/2/6 189/2/6
f 159/2/6 160/2/6 189/2/6
f 189/2/6 160/2/6 190/2/6
f 190/2/6 160/2/6 191/2/6
f 160/3/6 144/3/6 192/3/6
f 191/2/6 160/2/6 192/2/6
f 145/3/6 179/3/6 193/3/6
f 179/1/6 180/1/6 193/1/6
f 180/3/6 181/3/6 194/3/6
f 193/1/6 180/1/6 194/1/6
f 194/3/6 181/3/6 195/3/6
f 181/1/6 182/1/6 196/1/6
f 195/3/6 181/3/6 196/3/6
f 182/3/6 166/3/6 197/3/6
f 196/1/6 182/1/6 197/1/6
f 166/2/6 126/2/6 198/2/6
f 197/3/6 166/3/6 198/3/6
f 183/2/6 184/2/6 199/2/6
f 125/2/6 183/2/6 199/2/6
f 184/2/6 185/2/6 199/2/6
f 199/2/6 185/2/6 200/2/6
f 185/1/6 186/1/6 201/1/6
f 200/2/6 185/2/6 201/2/6
f 186/2/6 187/2/6 202/2/6
f 201/1/6 186/1/6 202/1/6
f 187/3/6 188/3/6 203/3/6
f 202/2/6 187/2/6 203/2/6
f 188/3/6 138/3/6 204/3/6
f 203/3/6 188/3/6 204/3/6
f 138/1/6 139/1/6 204/1/6
f 139/3/6 189/3/6 205/3/6
f 204/1/6 139/1/6 205/1/6
f 189/1/6 190/1/6 206/1/6
f 205/3/6 189/3/6 206/3/6
f 190/2/6 191/2/6 207/2/6
f 206/1/6 190/1/6 207/1/6
f 191/1/6 192/1/6 208/1/6
f 207/2/6 191/2/6 208/2/6
f 192/3/6 144/3/6 209/3/6
f 208/1/6 192/1/6 209/1/6
f 144/1/6 145/1/6 210/1/6
f 209/3/6 144/3/6 210/3/6
f 145/3/6 193/3/6 211/3/6
f 210/1/6 145/1/6 211/1/6
f 193/3/6 194/3/6 211/3/6
f 194/2/6 195/2/6 212/2/6
f 211/3/6 194/3/6 212/3/6
f 195/1/6 196/1/6 213/1/6
f 212/2/6 195/2/6 213/2/6
f 197/2/6 198/2/6 214/2/6
f 213/1/6 196/1/6 214/1/6
f 196/2/6 197/2/6 214/2/6
f 214/2/6 198/2/6 215/2/6
f 198/2/6 126/2/6 216/2/6
f 215/2/6 198/2/6 216/2/6
f 199/1/6 200/1/6 217/1/6
f 125/2/6 199/2/6 217/2/6
f 200/2/6 201/2/6 218/2/6
f 217/1/6 200/1/6 218/1/6
f 202/3/6 203/3/6 219/3/6
f 218/2/6 201/2/6 219/2/6
f 203/3/6 204/3/6 219/3/6
f 201/3/6 202/3/6 219/3/6
f 204/3/6 205/3/6 219/3/6
f 209/1/6 210/1/6 220/1/6
f 219/3/6 205/3/6 220/3/6
f 207/1/6 208/1/6 220/1/6
f 208/1/6 209/1/6 220/1/6
f 205/1/6 206/1/6 220/1/6
f 206/1/6 207/1/6 220/1/6
f 212/3/6 213/3/6 221/3/6
f 220/1/6 210/1/6 221/1/6
f 211/3/6 212/3/6 221/3/6
f 213/3/6 214/3/6 221/3/6
f 210/3/6 211/3/6 221/3/6
f 214/2/6 215/2/6 222/2/6
f 221/3/6 214/3/6 222/3/6
f 215/1/6 216/1/6 223/1/6
f 222/2/6 215/2/6 223/2/6
f 216/2/6 126/2/6 224/2/6
f 223/1/6 216/1/6 224/1/6
f 123/3/6 125/3/6 225/3/6
f 220/2/6 221/2/6 225/2/6
f 223/2/6 224/2/6 225/2/6
f 221/2/6 222/2/6 225/2/6
f 219/2/6 220/2/6 225/2/6
f 217/2/6 218/2/6 225/2/6
f 218/2/6 219/2/6 225/2/6
f 222/2/6 223/2/6 225/2/6
f 125/2/6 217/2/6 225/2/6
f 224/2/6 126/2/6 226/2/6
f 225/2/6 224/2/6 226/2/6
f 126/3/6 124/3/6 226/3/6
f 123/3/6 225/3/6 227/3/6
f 225/3/6 226/3/6 227/3/6
f 226/3/6 124/3/6 228/3/6
f 227/3/6 226/3/6 228/3/6
