# MagicaVoxel @ Ephtracy

# group
o 

# material
mtllib Voxel Universe Objects-49.mtl
usemtl palette

# normals
vn 0 0 1
vn 0 0 -1
vn 1 0 0
vn -1 0 0
vn 0 -1 0
vn 0 1 0

# texcoords
vt 0.0332031 0.5
vt 0.0449219 0.5
vt 0.0644531 0.5
vt 0.548828 0.5
vt 0.767578 0.5
vt 0.908203 0.5
vt 0.939453 0.5
vt 0.986328 0.5

# verts
v -14.3 0 0.7
v -14.4 0 0.7
v -14.3 0.1 0.7
v -14.4 0.1 0.7
v -14.3 0.2 0.7
v -14.4 0.2 0.7
v -14.2 0 0.6
v -14.3 0 0.6
v -14.2 0.1 0.6
v -14.3 0.1 0.6
v -14.2 0.2 0.6
v -14.3 0.2 0.6
v -14.1 0 0.5
v -14.2 0 0.5
v -14.4 0 0.5
v -14.5 0 0.5
v -14.1 0.1 0.5
v -14.2 0.1 0.5
v -14.4 0.1 0.5
v -14.5 0.1 0.5
v -14.1 0.2 0.5
v -14.2 0.2 0.5
v -14.4 0.2 0.5
v -14.5 0.2 0.5
v -14.5 0 0.3
v -14.6 0 0.3
v -14.5 0.1 0.3
v -14.6 0.1 0.3
v -14.5 0.2 0.3
v -14.6 0.2 0.3
v -14 0 0.2
v -14.1 0 0.2
v -14 0.1 0.2
v -14.1 0.1 0.2
v -14 0.2 0.2
v -14.1 0.2 0.2
v -14.6 0 0
v -14.7 0 0
v -14.6 0.1 0
v -14.7 0.1 0
v -14.6 0.2 0
v -14.7 0.2 0
v -13.9 0 -0.2
v -14 0 -0.2
v -13.9 0.1 -0.2
v -14 0.1 -0.2
v -13.9 0.2 -0.2
v -14 0.2 -0.2
v -13.8 0 -0.4
v -13.9 0 -0.4
v -14.7 0 -0.4
v -14.8 0 -0.4
v -13.8 0.1 -0.4
v -13.9 0.1 -0.4
v -14.7 0.1 -0.4
v -14.8 0.1 -0.4
v -13.8 0.2 -0.4
v -13.9 0.2 -0.4
v -14.7 0.2 -0.4
v -14.8 0.2 -0.4
v -14.8 0 -0.5
v -14.9 0 -0.5
v -14.8 0.1 -0.5
v -13.8 0.2 -0.5
v -14.5 0.2 -0.5
v -14.7 0.2 -0.5
v -14.8 0.2 -0.5
v -13.8 0.3 -0.5
v -14.9 0.3 -0.5
v -13.8 0 -0.7
v -14.9 0 -0.7
v -13.8 0.3 -0.7
v -14.9 0.3 -0.7
v -13.8 0 -0.4
v -13.8 0.1 -0.4
v -13.8 0.2 -0.4
v -13.8 0 -0.5
v -13.8 0.1 -0.5
v -13.8 0.2 -0.5
v -13.8 0.3 -0.5
v -13.8 0 -0.7
v -13.8 0.3 -0.7
v -13.9 0 -0.2
v -13.9 0.1 -0.2
v -13.9 0.2 -0.2
v -13.9 0.1 -0.3
v -13.9 0.2 -0.3
v -13.9 0 -0.4
v -13.9 0.1 -0.4
v -13.9 0.2 -0.4
v -14 0 0.2
v -14 0.1 0.2
v -14 0.2 0.2
v -14 0.1 0.1
v -14 0.2 0.1
v -14 0.1 0
v -14 0.2 0
v -14 0 -0.2
v -14 0.1 -0.2
v -14 0.2 -0.2
v -14.1 0 0.5
v -14.1 0.1 0.5
v -14.1 0.2 0.5
v -14.1 0 0.2
v -14.1 0.1 0.2
v -14.1 0.2 0.2
v -14.2 0 0.6
v -14.2 0.1 0.6
v -14.2 0.2 0.6
v -14.2 0 0.5
v -14.2 0.1 0.5
v -14.2 0.2 0.5
v -14.3 0 0.7
v -14.3 0.1 0.7
v -14.3 0.2 0.7
v -14.3 0 0.6
v -14.3 0.1 0.6
v -14.3 0.2 0.6
v -14.4 0 0.7
v -14.4 0.1 0.7
v -14.4 0.2 0.7
v -14.4 0 0.5
v -14.4 0.1 0.5
v -14.4 0.2 0.5
v -14.5 0 0.5
v -14.5 0.1 0.5
v -14.5 0.2 0.5
v -14.5 0 0.3
v -14.5 0.1 0.3
v -14.5 0.2 0.3
v -14.6 0 0.3
v -14.6 0.1 0.3
v -14.6 0.2 0.3
v -14.6 0.1 0.2
v -14.6 0.2 0.2
v -14.6 0 0
v -14.6 0.1 0
v -14.6 0.2 0
v -14.7 0 0
v -14.7 0.1 0
v -14.7 0.2 0
v -14.7 0.1 -0.3
v -14.7 0.2 -0.3
v -14.7 0 -0.4
v -14.7 0.1 -0.4
v -14.7 0.2 -0.4
v -14.8 0 -0.4
v -14.8 0.1 -0.4
v -14.8 0.2 -0.4
v -14.8 0 -0.5
v -14.8 0.1 -0.5
v -14.8 0.2 -0.5
v -14.9 0 -0.5
v -14.9 0.3 -0.5
v -14.9 0 -0.7
v -14.9 0.3 -0.7
v -13.8 0 -0.4
v -13.8 0 -0.5
v -13.8 0 -0.7
v -13.9 0 -0.2
v -13.9 0 -0.4
v -14 0 0.2
v -14 0 -0.2
v -14.1 0 0.5
v -14.1 0 0.2
v -14.2 0 0.6
v -14.2 0 0.5
v -14.3 0 0.7
v -14.3 0 0.6
v -14.4 0 0.7
v -14.4 0 0.5
v -14.5 0 0.5
v -14.5 0 0.3
v -14.6 0 0.3
v -14.6 0 0
v -14.7 0 0
v -14.7 0 -0.4
v -14.8 0 -0.4
v -14.8 0 -0.5
v -14.9 0 -0.5
v -14.9 0 -0.7
v -13.8 0.2 -0.4
v -13.8 0.2 -0.5
v -13.9 0.2 -0.2
v -13.9 0.2 -0.3
v -13.9 0.2 -0.4
v -14 0.2 0.2
v -14 0.2 0.1
v -14 0.2 0
v -14 0.2 -0.2
v -14.1 0.2 0.5
v -14.1 0.2 0.2
v -14.1 0.2 0
v -14.1 0.2 -0.3
v -14.1 0.2 -0.4
v -14.2 0.2 0.6
v -14.2 0.2 0.5
v -14.2 0.2 0.4
v -14.2 0.2 0.2
v -14.2 0.2 0.1
v -14.2 0.2 0
v -14.2 0.2 -0.3
v -14.2 0.2 -0.4
v -14.3 0.2 0.7
v -14.3 0.2 0.6
v -14.3 0.2 0.1
v -14.3 0.2 0
v -14.3 0.2 -0.1
v -14.3 0.2 -0.2
v -14.3 0.2 -0.3
v -14.3 0.2 -0.4
v -14.4 0.2 0.7
v -14.4 0.2 0.5
v -14.4 0.2 0.4
v -14.4 0.2 0.3
v -14.4 0.2 0.2
v -14.4 0.2 0.1
v -14.4 0.2 -0.1
v -14.4 0.2 -0.2
v -14.4 0.2 -0.3
v -14.5 0.2 0.5
v -14.5 0.2 0.3
v -14.5 0.2 -0.1
v -14.5 0.2 -0.2
v -14.5 0.2 -0.3
v -14.5 0.2 -0.5
v -14.6 0.2 0.3
v -14.6 0.2 0.2
v -14.6 0.2 0
v -14.6 0.2 -0.1
v -14.6 0.2 -0.2
v -14.7 0.2 0
v -14.7 0.2 -0.3
v -14.7 0.2 -0.4
v -14.7 0.2 -0.5
v -14.8 0.2 -0.4
v -14.8 0.2 -0.5
v -13.8 0.3 -0.5
v -13.8 0.3 -0.7
v -14.9 0.3 -0.5
v -14.9 0.3 -0.7

# faces
f 3/1/1 2/1/1 1/1/1
f 4/1/1 2/1/1 3/1/1
f 5/3/1 4/3/1 3/3/1
f 6/3/1 4/3/1 5/3/1
f 9/1/1 8/1/1 7/1/1
f 10/1/1 8/1/1 9/1/1
f 11/3/1 10/3/1 9/3/1
f 12/3/1 10/3/1 11/3/1
f 17/1/1 14/1/1 13/1/1
f 18/1/1 14/1/1 17/1/1
f 19/1/1 16/1/1 15/1/1
f 20/1/1 16/1/1 19/1/1
f 21/3/1 18/3/1 17/3/1
f 22/3/1 18/3/1 21/3/1
f 23/3/1 20/3/1 19/3/1
f 24/3/1 20/3/1 23/3/1
f 27/1/1 26/1/1 25/1/1
f 28/1/1 26/1/1 27/1/1
f 29/7/1 28/7/1 27/7/1
f 30/7/1 28/7/1 29/7/1
f 33/1/1 32/1/1 31/1/1
f 34/1/1 32/1/1 33/1/1
f 35/3/1 34/3/1 33/3/1
f 36/3/1 34/3/1 35/3/1
f 39/1/1 38/1/1 37/1/1
f 40/1/1 38/1/1 39/1/1
f 41/3/1 40/3/1 39/3/1
f 42/3/1 40/3/1 41/3/1
f 45/1/1 44/1/1 43/1/1
f 46/1/1 44/1/1 45/1/1
f 47/3/1 46/3/1 45/3/1
f 48/3/1 46/3/1 47/3/1
f 53/1/1 50/1/1 49/1/1
f 54/1/1 50/1/1 53/1/1
f 55/1/1 52/1/1 51/1/1
f 56/1/1 52/1/1 55/1/1
f 57/3/1 54/3/1 53/3/1
f 58/3/1 54/3/1 57/3/1
f 59/3/1 56/3/1 55/3/1
f 60/3/1 56/3/1 59/3/1
f 63/4/1 62/4/1 61/4/1
f 67/4/1 62/4/1 63/4/1
f 68/4/1 66/4/1 65/4/1
f 68/4/1 67/4/1 66/4/1
f 68/4/1 65/4/1 64/4/1
f 69/4/1 62/4/1 67/4/1
f 69/4/1 67/4/1 68/4/1
f 70/4/2 71/4/2 72/4/2
f 72/4/2 71/4/2 73/4/2
f 77/1/3 75/1/3 74/1/3
f 78/3/3 76/3/3 75/3/3
f 78/1/3 75/1/3 77/1/3
f 79/3/3 76/3/3 78/3/3
f 81/4/3 78/4/3 77/4/3
f 81/4/3 80/4/3 79/4/3
f 81/4/3 79/4/3 78/4/3
f 82/4/3 80/4/3 81/4/3
f 86/1/3 84/1/3 83/1/3
f 86/3/3 85/3/3 84/3/3
f 87/3/3 85/3/3 86/3/3
f 88/1/3 86/1/3 83/1/3
f 89/5/3 87/5/3 86/5/3
f 89/1/3 86/1/3 88/1/3
f 90/5/3 87/5/3 89/5/3
f 94/1/3 92/1/3 91/1/3
f 94/3/3 93/3/3 92/3/3
f 95/3/3 93/3/3 94/3/3
f 96/1/3 94/1/3 91/1/3
f 96/7/3 95/7/3 94/7/3
f 97/7/3 95/7/3 96/7/3
f 98/1/3 96/1/3 91/1/3
f 99/3/3 97/3/3 96/3/3
f 99/1/3 96/1/3 98/1/3
f 100/3/3 97/3/3 99/3/3
f 104/1/3 102/1/3 101/1/3
f 105/3/3 103/3/3 102/3/3
f 105/1/3 102/1/3 104/1/3
f 106/3/3 103/3/3 105/3/3
f 110/1/3 108/1/3 107/1/3
f 111/3/3 109/3/3 108/3/3
f 111/1/3 108/1/3 110/1/3
f 112/3/3 109/3/3 111/3/3
f 116/1/3 114/1/3 113/1/3
f 117/3/3 115/3/3 114/3/3
f 117/1/3 114/1/3 116/1/3
f 118/3/3 115/3/3 117/3/3
f 119/1/4 120/1/4 122/1/4
f 120/3/4 121/3/4 123/3/4
f 122/1/4 120/1/4 123/1/4
f 123/3/4 121/3/4 124/3/4
f 125/1/4 126/1/4 128/1/4
f 126/3/4 127/3/4 129/3/4
f 128/1/4 126/1/4 129/1/4
f 129/3/4 127/3/4 130/3/4
f 131/1/4 132/1/4 134/1/4
f 132/7/4 133/7/4 134/7/4
f 134/7/4 133/7/4 135/7/4
f 131/1/4 134/1/4 136/1/4
f 134/3/4 135/3/4 137/3/4
f 136/1/4 134/1/4 137/1/4
f 137/3/4 135/3/4 138/3/4
f 139/1/4 140/1/4 142/1/4
f 140/3/4 141/3/4 142/3/4
f 142/3/4 141/3/4 143/3/4
f 139/1/4 142/1/4 144/1/4
f 142/6/4 143/6/4 145/6/4
f 144/1/4 142/1/4 145/1/4
f 145/6/4 143/6/4 146/6/4
f 147/1/4 148/1/4 150/1/4
f 148/3/4 149/3/4 151/3/4
f 150/1/4 148/1/4 151/1/4
f 151/3/4 149/3/4 152/3/4
f 153/4/4 154/4/4 155/4/4
f 155/4/4 154/4/4 156/4/4
f 161/1/5 158/1/5 157/1/5
f 163/1/5 161/1/5 160/1/5
f 165/1/5 163/1/5 162/1/5
f 167/1/5 165/1/5 164/1/5
f 169/1/5 167/1/5 166/1/5
f 170/1/5 169/1/5 168/1/5
f 171/1/5 165/1/5 167/1/5
f 171/1/5 169/1/5 170/1/5
f 171/1/5 167/1/5 169/1/5
f 172/1/5 165/1/5 171/1/5
f 173/1/5 165/1/5 172/1/5
f 174/1/5 165/1/5 173/1/5
f 175/1/5 163/1/5 165/1/5
f 175/1/5 165/1/5 174/1/5
f 176/1/5 163/1/5 175/1/5
f 177/1/5 158/1/5 161/1/5
f 177/1/5 163/1/5 176/1/5
f 177/1/5 161/1/5 163/1/5
f 178/1/5 158/1/5 177/1/5
f 179/4/5 159/4/5 158/4/5
f 179/1/5 158/1/5 178/1/5
f 180/4/5 159/4/5 179/4/5
f 181/4/5 159/4/5 180/4/5
f 182/3/6 183/3/6 186/3/6
f 184/3/6 185/3/6 190/3/6
f 187/3/6 188/3/6 192/3/6
f 188/7/6 189/7/6 193/7/6
f 189/3/6 190/3/6 193/3/6
f 185/5/6 186/5/6 194/5/6
f 193/3/6 190/3/6 194/3/6
f 190/3/6 185/3/6 194/3/6
f 186/3/6 183/3/6 195/3/6
f 194/5/6 186/5/6 195/5/6
f 191/3/6 192/3/6 197/3/6
f 197/3/6 192/3/6 198/3/6
f 192/3/6 188/3/6 199/3/6
f 198/3/6 192/3/6 199/3/6
f 188/7/6 193/7/6 200/7/6
f 199/3/6 188/3/6 200/3/6
f 193/6/6 194/6/6 201/6/6
f 200/7/6 193/7/6 201/7/6
f 194/3/6 195/3/6 202/3/6
f 201/6/6 194/6/6 202/6/6
f 195/3/6 183/3/6 203/3/6
f 202/3/6 195/3/6 203/3/6
f 197/3/6 198/3/6 205/3/6
f 196/3/6 197/3/6 205/3/6
f 199/3/6 200/3/6 206/3/6
f 200/3/6 201/3/6 206/3/6
f 201/6/6 202/6/6 207/6/6
f 206/3/6 201/3/6 207/3/6
f 207/6/6 202/6/6 208/6/6
f 208/6/6 202/6/6 209/6/6
f 202/7/6 203/7/6 210/7/6
f 209/6/6 202/6/6 210/6/6
f 203/3/6 183/3/6 211/3/6
f 210/7/6 203/7/6 211/7/6
f 204/3/6 205/3/6 212/3/6
f 205/3/6 198/3/6 213/3/6
f 212/3/6 205/3/6 213/3/6
f 198/6/6 199/6/6 214/6/6
f 213/3/6 198/3/6 214/3/6
f 214/6/6 199/6/6 215/6/6
f 199/3/6 206/3/6 216/3/6
f 215/6/6 199/6/6 216/6/6
f 206/5/6 207/5/6 217/5/6
f 216/3/6 206/3/6 217/3/6
f 207/5/6 208/5/6 217/5/6
f 208/2/6 209/2/6 218/2/6
f 217/5/6 208/5/6 218/5/6
f 209/7/6 210/7/6 219/7/6
f 218/2/6 209/2/6 219/2/6
f 210/3/6 211/3/6 220/3/6
f 219/7/6 210/7/6 220/7/6
f 214/3/6 215/3/6 221/3/6
f 213/3/6 214/3/6 221/3/6
f 215/7/6 216/7/6 222/7/6
f 221/3/6 215/3/6 222/3/6
f 217/3/6 218/3/6 223/3/6
f 216/3/6 217/3/6 223/3/6
f 218/3/6 219/3/6 223/3/6
f 219/8/6 220/8/6 224/8/6
f 223/3/6 219/3/6 224/3/6
f 220/3/6 211/3/6 225/3/6
f 224/8/6 220/8/6 225/8/6
f 211/3/6 183/3/6 226/3/6
f 225/3/6 211/3/6 226/3/6
f 222/7/6 216/7/6 227/7/6
f 216/3/6 223/3/6 228/3/6
f 227/7/6 216/7/6 228/7/6
f 228/3/6 223/3/6 229/3/6
f 223/2/6 224/2/6 230/2/6
f 229/3/6 223/3/6 230/3/6
f 224/3/6 225/3/6 231/3/6
f 230/2/6 224/2/6 231/2/6
f 229/3/6 230/3/6 232/3/6
f 230/3/6 231/3/6 232/3/6
f 231/3/6 225/3/6 233/3/6
f 232/3/6 231/3/6 233/3/6
f 225/6/6 226/6/6 233/6/6
f 233/6/6 226/6/6 234/6/6
f 234/6/6 226/6/6 235/6/6
f 234/3/6 235/3/6 236/3/6
f 236/3/6 235/3/6 237/3/6
f 238/4/6 239/4/6 240/4/6
f 240/4/6 239/4/6 241/4/6
