# MagicaVoxel @ Ephtracy

# group
o 

# material
mtllib Voxel Universe Objects-20.mtl
usemtl palette

# normals
vn 0 0 -1
vn 0 0 1
vn -1 0 0
vn 1 0 0
vn 0 -1 0
vn 0 1 0

# texcoords
vt 0.0917969 0.5
vt 0.798828 0.5
vt 0.845703 0.5
vt 0.943359 0.5
vt 0.947266 0.5
vt 0.951172 0.5
vt 0.982422 0.5

# verts
v -11.7 0 -15.7
v -10.2 0 -15.7
v -11.7 0.3 -15.7
v -10.2 0.3 -15.7
v -11.7 0.5 -15.7
v -10.2 0.5 -15.7
v -10.9 0.6 -15.7
v -10.6 0.6 -15.7
v -11 0.7 -15.7
v -10.9 0.7 -15.7
v -10.7 0.7 -15.7
v -10.6 0.7 -15.7
v -11.3 0.8 -15.7
v -11 0.8 -15.7
v -10.7 0.8 -15.7
v -10.6 0.8 -15.7
v -11.5 0.9 -15.7
v -11.3 0.9 -15.7
v -11.1 0.9 -15.7
v -10.8 0.9 -15.7
v -10.6 0.9 -15.7
v -10.4 0.9 -15.7
v -11.6 1 -15.7
v -11.5 1 -15.7
v -11.3 1 -15.7
v -11.2 1 -15.7
v -11.1 1 -15.7
v -11 1 -15.7
v -10.9 1 -15.7
v -10.8 1 -15.7
v -10.7 1 -15.7
v -10.6 1 -15.7
v -10.4 1 -15.7
v -10.3 1 -15.7
v -11.5 1.1 -15.7
v -11.3 1.1 -15.7
v -11.2 1.1 -15.7
v -11.1 1.1 -15.7
v -11 1.1 -15.7
v -10.9 1.1 -15.7
v -10.8 1.1 -15.7
v -10.7 1.1 -15.7
v -10.6 1.1 -15.7
v -10.4 1.1 -15.7
v -11.5 1.2 -15.7
v -11.3 1.2 -15.7
v -11.2 1.2 -15.7
v -11.1 1.2 -15.7
v -11 1.2 -15.7
v -10.9 1.2 -15.7
v -10.8 1.2 -15.7
v -10.7 1.2 -15.7
v -10.6 1.2 -15.7
v -10.4 1.2 -15.7
v -11.6 1.3 -15.7
v -11.5 1.3 -15.7
v -11.3 1.3 -15.7
v -11.2 1.3 -15.7
v -11.1 1.3 -15.7
v -11 1.3 -15.7
v -10.9 1.3 -15.7
v -10.8 1.3 -15.7
v -10.7 1.3 -15.7
v -10.6 1.3 -15.7
v -10.4 1.3 -15.7
v -10.3 1.3 -15.7
v -11.5 1.4 -15.7
v -11.4 1.4 -15.7
v -11.3 1.4 -15.7
v -11.1 1.4 -15.7
v -10.8 1.4 -15.7
v -10.6 1.4 -15.7
v -10.4 1.4 -15.7
v -11.3 1.5 -15.7
v -11.1 1.5 -15.7
v -10.6 1.5 -15.7
v -11.4 1.6 -15.7
v -11.1 1.6 -15.7
v -11.7 1.7 -15.7
v -10.2 1.7 -15.7
v -11.7 1.8 -15.7
v -10.2 1.8 -15.7
v -11 2 -15.7
v -10.2 2 -15.7
v -11.7 2.8 -15.7
v -11 2.8 -15.7
v -11.7 2.8 -15.3
v -11.2 2.8 -15.3
v -11.7 3 -15.3
v -11.2 3 -15.3
v -10.4 2 -15.2
v -10.2 2 -15.2
v -11 2.6 -15.2
v -10.4 2.6 -15.2
v -11 2.8 -15.2
v -10.2 2.8 -15.2
v -10.4 2 -14.9
v -10.2 2 -14.9
v -11 2.6 -14.9
v -10.4 2.6 -14.9
v -11 2.8 -14.9
v -10.2 2.8 -14.9
v -11.7 2.8 -14.8
v -11.2 2.8 -14.8
v -11.7 3 -14.8
v -11.2 3 -14.8
v -11.7 0 -14.4
v -10.2 0 -14.4
v -11.7 0.3 -14.4
v -10.2 0.3 -14.4
v -11.7 0.5 -14.4
v -10.2 0.5 -14.4
v -11.3 0.6 -14.4
v -11 0.6 -14.4
v -11.3 0.7 -14.4
v -11.2 0.7 -14.4
v -11 0.7 -14.4
v -10.9 0.7 -14.4
v -11.3 0.8 -14.4
v -11.2 0.8 -14.4
v -10.9 0.8 -14.4
v -10.6 0.8 -14.4
v -11.5 0.9 -14.4
v -11.3 0.9 -14.4
v -11.1 0.9 -14.4
v -10.8 0.9 -14.4
v -10.6 0.9 -14.4
v -10.4 0.9 -14.4
v -11.6 1 -14.4
v -11.5 1 -14.4
v -11.3 1 -14.4
v -11.2 1 -14.4
v -11.1 1 -14.4
v -11 1 -14.4
v -10.9 1 -14.4
v -10.8 1 -14.4
v -10.7 1 -14.4
v -10.6 1 -14.4
v -10.4 1 -14.4
v -10.3 1 -14.4
v -11.5 1.1 -14.4
v -11.3 1.1 -14.4
v -11.2 1.1 -14.4
v -11.1 1.1 -14.4
v -11 1.1 -14.4
v -10.9 1.1 -14.4
v -10.8 1.1 -14.4
v -10.7 1.1 -14.4
v -10.6 1.1 -14.4
v -10.4 1.1 -14.4
v -11.5 1.2 -14.4
v -11.3 1.2 -14.4
v -11.2 1.2 -14.4
v -11.1 1.2 -14.4
v -11 1.2 -14.4
v -10.9 1.2 -14.4
v -10.8 1.2 -14.4
v -10.7 1.2 -14.4
v -10.6 1.2 -14.4
v -10.4 1.2 -14.4
v -11.6 1.3 -14.4
v -11.5 1.3 -14.4
v -11.3 1.3 -14.4
v -11.2 1.3 -14.4
v -11.1 1.3 -14.4
v -11 1.3 -14.4
v -10.9 1.3 -14.4
v -10.8 1.3 -14.4
v -10.7 1.3 -14.4
v -10.6 1.3 -14.4
v -10.4 1.3 -14.4
v -10.3 1.3 -14.4
v -11.5 1.4 -14.4
v -11.3 1.4 -14.4
v -11.1 1.4 -14.4
v -10.8 1.4 -14.4
v -10.6 1.4 -14.4
v -10.5 1.4 -14.4
v -10.4 1.4 -14.4
v -11.3 1.5 -14.4
v -10.8 1.5 -14.4
v -10.6 1.5 -14.4
v -10.8 1.6 -14.4
v -10.5 1.6 -14.4
v -11.7 1.7 -14.4
v -10.2 1.7 -14.4
v -11.7 1.8 -14.4
v -10.2 1.8 -14.4
v -11 2 -14.4
v -10.2 2 -14.4
v -11.7 2.8 -14.4
v -11 2.8 -14.4
v -11.7 0 -15.7
v -11.7 0.3 -15.7
v -11.7 0.5 -15.7
v -11.7 1.7 -15.7
v -11.7 1.8 -15.7
v -11.7 2.8 -15.7
v -11.7 2.8 -15.3
v -11.7 3 -15.3
v -11.7 0.9 -15.1
v -11.7 1 -15.1
v -11.7 1.1 -15.1
v -11.7 1.2 -15.1
v -11.7 1.3 -15.1
v -11.7 1.4 -15.1
v -11.7 1.5 -15.1
v -11.7 1.6 -15.1
v -11.7 0.9 -14.9
v -11.7 1 -14.9
v -11.7 1.3 -14.9
v -11.7 1.4 -14.9
v -11.7 1.1 -14.8
v -11.7 1.2 -14.8
v -11.7 1.3 -14.8
v -11.7 1.4 -14.8
v -11.7 2.8 -14.8
v -11.7 3 -14.8
v -11.7 1.1 -14.7
v -11.7 1.2 -14.7
v -11.7 1.3 -14.7
v -11.7 1.4 -14.7
v -11.7 1.1 -14.6
v -11.7 1.2 -14.6
v -11.7 1.3 -14.6
v -11.7 1.4 -14.6
v -11.7 1.3 -14.5
v -11.7 1.4 -14.5
v -11.7 1.5 -14.5
v -11.7 1.6 -14.5
v -11.7 0 -14.4
v -11.7 0.3 -14.4
v -11.7 0.5 -14.4
v -11.7 1.7 -14.4
v -11.7 1.8 -14.4
v -11.7 2.8 -14.4
v -10.4 2 -15.2
v -10.4 2.6 -15.2
v -10.4 2 -14.9
v -10.4 2.6 -14.9
v -11.2 2.8 -15.3
v -11.2 3 -15.3
v -11.2 2.8 -14.8
v -11.2 3 -14.8
v -11 2 -15.7
v -11 2.8 -15.7
v -11 2.6 -15.2
v -11 2.8 -15.2
v -11 2.6 -14.9
v -11 2.8 -14.9
v -11 2 -14.4
v -11 2.8 -14.4
v -10.2 0 -15.7
v -10.2 0.3 -15.7
v -10.2 0.5 -15.7
v -10.2 1.7 -15.7
v -10.2 1.8 -15.7
v -10.2 2 -15.7
v -10.2 0.6 -15.6
v -10.2 0.9 -15.6
v -10.2 1.5 -15.6
v -10.2 0.6 -15.5
v -10.2 0.7 -15.5
v -10.2 0.8 -15.5
v -10.2 0.9 -15.5
v -10.2 1 -15.5
v -10.2 1.3 -15.5
v -10.2 1.4 -15.5
v -10.2 0.6 -15.4
v -10.2 0.7 -15.4
v -10.2 0.8 -15.4
v -10.2 0.9 -15.4
v -10.2 1.1 -15.4
v -10.2 1.2 -15.4
v -10.2 0.6 -15.3
v -10.2 0.7 -15.3
v -10.2 0.8 -15.3
v -10.2 0.9 -15.3
v -10.2 0.6 -15.2
v -10.2 0.7 -15.2
v -10.2 0.8 -15.2
v -10.2 0.9 -15.2
v -10.2 1 -15.2
v -10.2 1.1 -15.2
v -10.2 1.2 -15.2
v -10.2 1.3 -15.2
v -10.2 1.4 -15.2
v -10.2 2 -15.2
v -10.2 2.8 -15.2
v -10.2 0.6 -15.1
v -10.2 0.9 -15.1
v -10.2 1.5 -15.1
v -10.2 0.9 -14.9
v -10.2 1 -14.9
v -10.2 1.1 -14.9
v -10.2 1.2 -14.9
v -10.2 1.3 -14.9
v -10.2 1.4 -14.9
v -10.2 1.5 -14.9
v -10.2 1.6 -14.9
v -10.2 2 -14.9
v -10.2 2.8 -14.9
v -10.2 0.9 -14.8
v -10.2 1 -14.8
v -10.2 0.9 -14.7
v -10.2 1 -14.7
v -10.2 0.9 -14.5
v -10.2 1 -14.5
v -10.2 1.1 -14.5
v -10.2 1.2 -14.5
v -10.2 1.3 -14.5
v -10.2 1.4 -14.5
v -10.2 1.5 -14.5
v -10.2 1.6 -14.5
v -10.2 0 -14.4
v -10.2 0.3 -14.4
v -10.2 0.5 -14.4
v -10.2 1.7 -14.4
v -10.2 1.8 -14.4
v -10.2 2 -14.4
v -11.7 0 -15.7
v -11.7 0 -14.4
v -10.2 0 -15.7
v -10.2 0 -14.4
v -11 2.6 -15.2
v -11 2.6 -14.9
v -10.4 2.6 -15.2
v -10.4 2.6 -14.9
v -11 2 -15.7
v -11 2 -14.4
v -10.4 2 -15.2
v -10.4 2 -14.9
v -10.2 2 -15.7
v -10.2 2 -15.2
v -10.2 2 -14.9
v -10.2 2 -14.4
v -11.7 2.8 -15.7
v -11.7 2.8 -15.3
v -11.7 2.8 -14.8
v -11.7 2.8 -14.4
v -11.2 2.8 -15.3
v -11.2 2.8 -14.8
v -11 2.8 -15.7
v -11 2.8 -15.2
v -11 2.8 -14.9
v -11 2.8 -14.4
v -10.2 2.8 -15.2
v -10.2 2.8 -14.9
v -11.7 3 -15.3
v -11.7 3 -14.8
v -11.2 3 -15.3
v -11.2 3 -14.8

# faces
f 3/5/1 2/5/1 1/5/1
f 4/5/1 2/5/1 3/5/1
f 5/4/1 4/4/1 3/4/1
f 6/4/1 4/4/1 5/4/1
f 7/2/1 6/2/1 5/2/1
f 8/2/1 6/2/1 7/2/1
f 9/2/1 7/2/1 5/2/1
f 10/4/1 8/4/1 7/4/1
f 10/2/1 7/2/1 9/2/1
f 11/4/1 8/4/1 10/4/1
f 12/2/1 6/2/1 8/2/1
f 12/4/1 8/4/1 11/4/1
f 13/2/1 9/2/1 5/2/1
f 14/4/1 11/4/1 10/4/1
f 14/2/1 9/2/1 13/2/1
f 14/4/1 10/4/1 9/4/1
f 15/2/1 12/2/1 11/2/1
f 15/4/1 11/4/1 14/4/1
f 16/2/1 6/2/1 12/2/1
f 16/2/1 12/2/1 15/2/1
f 17/2/1 13/2/1 5/2/1
f 18/3/1 15/3/1 14/3/1
f 18/2/1 13/2/1 17/2/1
f 18/3/1 14/3/1 13/3/1
f 18/3/1 16/3/1 15/3/1
f 19/3/1 16/3/1 18/3/1
f 20/3/1 16/3/1 19/3/1
f 21/2/1 6/2/1 16/2/1
f 21/3/1 16/3/1 20/3/1
f 22/2/1 6/2/1 21/2/1
f 23/2/1 17/2/1 5/2/1
f 24/3/1 18/3/1 17/3/1
f 24/2/1 17/2/1 23/2/1
f 24/3/1 19/3/1 18/3/1
f 25/3/1 19/3/1 24/3/1
f 26/3/1 19/3/1 25/3/1
f 27/2/1 20/2/1 19/2/1
f 27/3/1 19/3/1 26/3/1
f 28/2/1 20/2/1 27/2/1
f 29/2/1 20/2/1 28/2/1
f 30/3/1 22/3/1 21/3/1
f 30/2/1 20/2/1 29/2/1
f 30/3/1 21/3/1 20/3/1
f 31/3/1 22/3/1 30/3/1
f 32/3/1 22/3/1 31/3/1
f 33/2/1 6/2/1 22/2/1
f 33/3/1 22/3/1 32/3/1
f 34/2/1 6/2/1 33/2/1
f 35/3/1 24/3/1 23/3/1
f 35/3/1 25/3/1 24/3/1
f 36/5/1 26/5/1 25/5/1
f 36/3/1 25/3/1 35/3/1
f 37/2/1 27/2/1 26/2/1
f 37/5/1 26/5/1 36/5/1
f 38/5/1 28/5/1 27/5/1
f 38/2/1 27/2/1 37/2/1
f 39/2/1 29/2/1 28/2/1
f 39/5/1 28/5/1 38/5/1
f 40/5/1 30/5/1 29/5/1
f 40/2/1 29/2/1 39/2/1
f 41/2/1 31/2/1 30/2/1
f 41/5/1 30/5/1 40/5/1
f 42/5/1 32/5/1 31/5/1
f 42/2/1 31/2/1 41/2/1
f 43/3/1 34/3/1 33/3/1
f 43/5/1 32/5/1 42/5/1
f 43/3/1 33/3/1 32/3/1
f 44/3/1 34/3/1 43/3/1
f 45/3/1 35/3/1 23/3/1
f 45/2/1 36/2/1 35/2/1
f 46/5/1 38/5/1 37/5/1
f 46/2/1 36/2/1 45/2/1
f 46/5/1 37/5/1 36/5/1
f 47/5/1 38/5/1 46/5/1
f 48/2/1 41/2/1 40/2/1
f 48/5/1 38/5/1 47/5/1
f 48/2/1 39/2/1 38/2/1
f 48/2/1 40/2/1 39/2/1
f 49/2/1 41/2/1 48/2/1
f 50/2/1 41/2/1 49/2/1
f 51/5/1 43/5/1 42/5/1
f 51/2/1 41/2/1 50/2/1
f 51/5/1 42/5/1 41/5/1
f 52/5/1 43/5/1 51/5/1
f 53/2/1 44/2/1 43/2/1
f 53/5/1 43/5/1 52/5/1
f 54/3/1 34/3/1 44/3/1
f 54/2/1 44/2/1 53/2/1
f 55/2/1 23/2/1 5/2/1
f 55/3/1 45/3/1 23/3/1
f 55/3/1 46/3/1 45/3/1
f 56/3/1 46/3/1 55/3/1
f 57/5/1 47/5/1 46/5/1
f 57/3/1 46/3/1 56/3/1
f 58/2/1 48/2/1 47/2/1
f 58/5/1 47/5/1 57/5/1
f 59/5/1 49/5/1 48/5/1
f 59/2/1 48/2/1 58/2/1
f 60/2/1 50/2/1 49/2/1
f 60/5/1 49/5/1 59/5/1
f 61/5/1 51/5/1 50/5/1
f 61/2/1 50/2/1 60/2/1
f 62/2/1 52/2/1 51/2/1
f 62/5/1 51/5/1 61/5/1
f 63/5/1 53/5/1 52/5/1
f 63/2/1 52/2/1 62/2/1
f 64/3/1 54/3/1 53/3/1
f 64/5/1 53/5/1 63/5/1
f 65/3/1 34/3/1 54/3/1
f 65/3/1 54/3/1 64/3/1
f 66/2/1 6/2/1 34/2/1
f 66/3/1 34/3/1 65/3/1
f 67/2/1 56/2/1 55/2/1
f 67/3/1 59/3/1 58/3/1
f 67/3/1 58/3/1 57/3/1
f 67/3/1 57/3/1 56/3/1
f 68/3/1 59/3/1 67/3/1
f 69/3/1 59/3/1 68/3/1
f 70/2/1 62/2/1 61/2/1
f 70/3/1 59/3/1 69/3/1
f 70/2/1 61/2/1 60/2/1
f 70/2/1 60/2/1 59/2/1
f 71/3/1 64/3/1 63/3/1
f 71/2/1 62/2/1 70/2/1
f 71/3/1 63/3/1 62/3/1
f 71/3/1 65/3/1 64/3/1
f 72/3/1 65/3/1 71/3/1
f 73/2/1 66/2/1 65/2/1
f 73/3/1 65/3/1 72/3/1
f 74/4/1 69/4/1 68/4/1
f 74/3/1 70/3/1 69/3/1
f 74/3/1 72/3/1 71/3/1
f 74/3/1 71/3/1 70/3/1
f 75/3/1 72/3/1 74/3/1
f 76/2/1 73/2/1 72/2/1
f 76/3/1 72/3/1 75/3/1
f 77/4/1 75/4/1 74/4/1
f 77/2/1 68/2/1 67/2/1
f 77/4/1 74/4/1 68/4/1
f 78/2/1 76/2/1 75/2/1
f 78/4/1 75/4/1 77/4/1
f 79/2/1 67/2/1 55/2/1
f 79/2/1 55/2/1 5/2/1
f 79/2/1 78/2/1 77/2/1
f 79/2/1 77/2/1 67/2/1
f 80/2/1 66/2/1 73/2/1
f 80/2/1 78/2/1 79/2/1
f 80/2/1 6/2/1 66/2/1
f 80/2/1 76/2/1 78/2/1
f 80/2/1 73/2/1 76/2/1
f 81/4/1 80/4/1 79/4/1
f 82/4/1 80/4/1 81/4/1
f 83/5/1 82/5/1 81/5/1
f 84/5/1 82/5/1 83/5/1
f 85/5/1 83/5/1 81/5/1
f 86/5/1 83/5/1 85/5/1
f 89/2/1 88/2/1 87/2/1
f 90/2/1 88/2/1 89/2/1
f 94/5/1 92/5/1 91/5/1
f 95/5/1 94/5/1 93/5/1
f 96/5/1 92/5/1 94/5/1
f 96/5/1 94/5/1 95/5/1
f 97/5/2 98/5/2 100/5/2
f 99/5/2 100/5/2 101/5/2
f 100/5/2 98/5/2 102/5/2
f 101/5/2 100/5/2 102/5/2
f 103/2/2 104/2/2 105/2/2
f 105/2/2 104/2/2 106/2/2
f 107/5/2 108/5/2 109/5/2
f 109/5/2 108/5/2 110/5/2
f 109/4/2 110/4/2 111/4/2
f 111/4/2 110/4/2 112/4/2
f 111/2/2 112/2/2 113/2/2
f 113/2/2 112/2/2 114/2/2
f 111/2/2 113/2/2 115/2/2
f 113/4/2 114/4/2 115/4/2
f 115/4/2 114/4/2 116/4/2
f 114/2/2 112/2/2 117/2/2
f 116/4/2 114/4/2 117/4/2
f 117/2/2 112/2/2 118/2/2
f 115/2/2 116/2/2 119/2/2
f 111/2/2 115/2/2 119/2/2
f 117/4/2 118/4/2 120/4/2
f 119/2/2 116/2/2 120/2/2
f 116/4/2 117/4/2 120/4/2
f 118/2/2 112/2/2 121/2/2
f 120/4/2 118/4/2 121/4/2
f 121/2/2 112/2/2 122/2/2
f 111/2/2 119/2/2 123/2/2
f 119/3/2 120/3/2 124/3/2
f 123/2/2 119/2/2 124/2/2
f 120/3/2 121/3/2 124/3/2
f 121/3/2 122/3/2 124/3/2
f 124/3/2 122/3/2 125/3/2
f 125/3/2 122/3/2 126/3/2
f 122/2/2 112/2/2 127/2/2
f 126/3/2 122/3/2 127/3/2
f 127/2/2 112/2/2 128/2/2
f 111/2/2 123/2/2 129/2/2
f 123/3/2 124/3/2 130/3/2
f 129/2/2 123/2/2 130/2/2
f 124/3/2 125/3/2 130/3/2
f 130/3/2 125/3/2 131/3/2
f 131/3/2 125/3/2 132/3/2
f 125/2/2 126/2/2 133/2/2
f 132/3/2 125/3/2 133/3/2
f 133/2/2 126/2/2 134/2/2
f 134/2/2 126/2/2 135/2/2
f 127/3/2 128/3/2 136/3/2
f 135/2/2 126/2/2 136/2/2
f 126/3/2 127/3/2 136/3/2
f 136/3/2 128/3/2 137/3/2
f 137/3/2 128/3/2 138/3/2
f 128/2/2 112/2/2 139/2/2
f 138/3/2 128/3/2 139/3/2
f 139/2/2 112/2/2 140/2/2
f 129/3/2 130/3/2 141/3/2
f 130/3/2 131/3/2 141/3/2
f 131/5/2 132/5/2 142/5/2
f 141/3/2 131/3/2 142/3/2
f 132/2/2 133/2/2 143/2/2
f 142/5/2 132/5/2 143/5/2
f 133/5/2 134/5/2 144/5/2
f 143/2/2 133/2/2 144/2/2
f 134/2/2 135/2/2 145/2/2
f 144/5/2 134/5/2 145/5/2
f 135/5/2 136/5/2 146/5/2
f 145/2/2 135/2/2 146/2/2
f 136/2/2 137/2/2 147/2/2
f 146/5/2 136/5/2 147/5/2
f 137/5/2 138/5/2 148/5/2
f 147/2/2 137/2/2 148/2/2
f 139/3/2 140/3/2 149/3/2
f 148/5/2 138/5/2 149/5/2
f 138/3/2 139/3/2 149/3/2
f 149/3/2 140/3/2 150/3/2
f 129/3/2 141/3/2 151/3/2
f 141/2/2 142/2/2 151/2/2
f 143/5/2 144/5/2 152/5/2
f 151/2/2 142/2/2 152/2/2
f 142/5/2 143/5/2 152/5/2
f 152/5/2 144/5/2 153/5/2
f 146/2/2 147/2/2 154/2/2
f 153/5/2 144/5/2 154/5/2
f 144/2/2 145/2/2 154/2/2
f 145/2/2 146/2/2 154/2/2
f 154/2/2 147/2/2 155/2/2
f 155/2/2 147/2/2 156/2/2
f 148/5/2 149/5/2 157/5/2
f 156/2/2 147/2/2 157/2/2
f 147/5/2 148/5/2 157/5/2
f 157/5/2 149/5/2 158/5/2
f 149/2/2 150/2/2 159/2/2
f 158/5/2 149/5/2 159/5/2
f 150/3/2 140/3/2 160/3/2
f 159/2/2 150/2/2 160/2/2
f 111/2/2 129/2/2 161/2/2
f 129/3/2 151/3/2 161/3/2
f 151/3/2 152/3/2 161/3/2
f 161/3/2 152/3/2 162/3/2
f 152/5/2 153/5/2 163/5/2
f 162/3/2 152/3/2 163/3/2
f 153/2/2 154/2/2 164/2/2
f 163/5/2 153/5/2 164/5/2
f 154/5/2 155/5/2 165/5/2
f 164/2/2 154/2/2 165/2/2
f 155/2/2 156/2/2 166/2/2
f 165/5/2 155/5/2 166/5/2
f 156/5/2 157/5/2 167/5/2
f 166/2/2 156/2/2 167/2/2
f 157/2/2 158/2/2 168/2/2
f 167/5/2 157/5/2 168/5/2
f 158/5/2 159/5/2 169/5/2
f 168/2/2 158/2/2 169/2/2
f 159/3/2 160/3/2 170/3/2
f 169/5/2 159/5/2 170/5/2
f 160/3/2 140/3/2 171/3/2
f 170/3/2 160/3/2 171/3/2
f 140/2/2 112/2/2 172/2/2
f 171/3/2 140/3/2 172/3/2
f 161/2/2 162/2/2 173/2/2
f 164/3/2 165/3/2 173/3/2
f 163/3/2 164/3/2 173/3/2
f 162/3/2 163/3/2 173/3/2
f 173/3/2 165/3/2 174/3/2
f 167/2/2 168/2/2 175/2/2
f 174/3/2 165/3/2 175/3/2
f 166/2/2 167/2/2 175/2/2
f 165/2/2 166/2/2 175/2/2
f 169/3/2 170/3/2 176/3/2
f 175/2/2 168/2/2 176/2/2
f 168/3/2 169/3/2 176/3/2
f 170/3/2 171/3/2 176/3/2
f 176/3/2 171/3/2 177/3/2
f 177/3/2 171/3/2 178/3/2
f 171/2/2 172/2/2 179/2/2
f 178/3/2 171/3/2 179/3/2
f 173/2/2 174/2/2 180/2/2
f 174/3/2 175/3/2 180/3/2
f 175/3/2 176/3/2 180/3/2
f 176/3/2 177/3/2 180/3/2
f 180/3/2 177/3/2 181/3/2
f 177/4/2 178/4/2 182/4/2
f 181/3/2 177/3/2 182/3/2
f 180/2/2 181/2/2 183/2/2
f 181/4/2 182/4/2 183/4/2
f 178/2/2 179/2/2 184/2/2
f 183/4/2 182/4/2 184/4/2
f 182/4/2 178/4/2 184/4/2
f 180/2/2 183/2/2 185/2/2
f 161/2/2 173/2/2 185/2/2
f 183/2/2 184/2/2 185/2/2
f 111/2/2 161/2/2 185/2/2
f 173/2/2 180/2/2 185/2/2
f 172/2/2 112/2/2 186/2/2
f 185/2/2 184/2/2 186/2/2
f 179/2/2 172/2/2 186/2/2
f 184/2/2 179/2/2 186/2/2
f 185/4/2 186/4/2 187/4/2
f 187/4/2 186/4/2 188/4/2
f 187/5/2 188/5/2 189/5/2
f 189/5/2 188/5/2 190/5/2
f 187/5/2 189/5/2 191/5/2
f 191/5/2 189/5/2 192/5/2
f 199/5/3 198/5/3 197/5/3
f 201/2/3 196/2/3 195/2/3
f 202/2/3 196/2/3 201/2/3
f 203/2/3 196/2/3 202/2/3
f 204/2/3 196/2/3 203/2/3
f 205/2/3 196/2/3 204/2/3
f 206/2/3 196/2/3 205/2/3
f 207/2/3 196/2/3 206/2/3
f 208/2/3 196/2/3 207/2/3
f 209/2/3 201/2/3 195/2/3
f 209/4/3 202/4/3 201/4/3
f 210/2/3 203/2/3 202/2/3
f 210/4/3 202/4/3 209/4/3
f 211/2/3 205/2/3 204/2/3
f 211/4/3 206/4/3 205/4/3
f 212/2/3 207/2/3 206/2/3
f 212/4/3 206/4/3 211/4/3
f 213/4/3 204/4/3 203/4/3
f 213/2/3 203/2/3 210/2/3
f 213/2/3 210/2/3 209/2/3
f 214/2/3 212/2/3 211/2/3
f 214/4/3 204/4/3 213/4/3
f 214/2/3 211/2/3 204/2/3
f 215/2/3 212/2/3 214/2/3
f 216/2/3 207/2/3 212/2/3
f 216/2/3 212/2/3 215/2/3
f 217/2/3 200/2/3 199/2/3
f 217/5/3 199/5/3 197/5/3
f 218/2/3 200/2/3 217/2/3
f 219/2/3 215/2/3 214/2/3
f 219/2/3 213/2/3 209/2/3
f 219/2/3 214/2/3 213/2/3
f 220/2/3 215/2/3 219/2/3
f 221/4/3 216/4/3 215/4/3
f 221/2/3 215/2/3 220/2/3
f 222/2/3 207/2/3 216/2/3
f 222/4/3 216/4/3 221/4/3
f 223/4/3 220/4/3 219/4/3
f 223/2/3 219/2/3 209/2/3
f 224/2/3 221/2/3 220/2/3
f 224/4/3 220/4/3 223/4/3
f 224/2/3 222/2/3 221/2/3
f 225/2/3 222/2/3 224/2/3
f 226/2/3 207/2/3 222/2/3
f 226/2/3 222/2/3 225/2/3
f 227/2/3 225/2/3 224/2/3
f 227/2/3 224/2/3 223/2/3
f 227/4/3 226/4/3 225/4/3
f 228/2/3 207/2/3 226/2/3
f 228/4/3 226/4/3 227/4/3
f 229/4/3 208/4/3 207/4/3
f 229/2/3 207/2/3 228/2/3
f 230/2/3 196/2/3 208/2/3
f 230/4/3 208/4/3 229/4/3
f 231/5/3 194/5/3 193/5/3
f 232/4/3 195/4/3 194/4/3
f 232/5/3 194/5/3 231/5/3
f 233/2/3 223/2/3 209/2/3
f 233/4/3 195/4/3 232/4/3
f 233/2/3 227/2/3 223/2/3
f 233/2/3 230/2/3 229/2/3
f 233/2/3 229/2/3 228/2/3
f 233/2/3 228/2/3 227/2/3
f 233/2/3 209/2/3 195/2/3
f 234/2/3 196/2/3 230/2/3
f 234/2/3 230/2/3 233/2/3
f 234/4/3 197/4/3 196/4/3
f 235/5/3 217/5/3 197/5/3
f 235/4/3 197/4/3 234/4/3
f 236/5/3 217/5/3 235/5/3
f 239/5/3 238/5/3 237/5/3
f 240/5/3 238/5/3 239/5/3
f 241/2/4 242/2/4 243/2/4
f 243/2/4 242/2/4 244/2/4
f 245/5/4 246/5/4 247/5/4
f 247/5/4 246/5/4 248/5/4
f 245/5/4 247/5/4 249/5/4
f 245/5/4 249/5/4 251/5/4
f 249/5/4 250/5/4 251/5/4
f 251/5/4 250/5/4 252/5/4
f 255/2/4 256/2/4 259/2/4
f 259/2/4 256/2/4 260/2/4
f 260/2/4 256/2/4 261/2/4
f 255/2/4 259/2/4 262/2/4
f 259/1/4 260/1/4 262/1/4
f 262/1/4 260/1/4 263/1/4
f 263/1/4 260/1/4 264/1/4
f 260/5/4 261/5/4 265/5/4
f 264/1/4 260/1/4 265/1/4
f 265/5/4 261/5/4 266/5/4
f 266/5/4 261/5/4 267/5/4
f 267/5/4 261/5/4 268/5/4
f 255/2/4 262/2/4 269/2/4
f 262/6/4 263/6/4 269/6/4
f 263/1/4 264/1/4 270/1/4
f 269/6/4 263/6/4 270/6/4
f 264/6/4 265/6/4 271/6/4
f 270/1/4 264/1/4 271/1/4
f 265/7/4 266/7/4 272/7/4
f 271/6/4 265/6/4 272/6/4
f 266/5/4 267/5/4 273/5/4
f 273/5/4 267/5/4 274/5/4
f 255/2/4 269/2/4 275/2/4
f 269/1/4 270/1/4 275/1/4
f 270/6/4 271/6/4 276/6/4
f 275/1/4 270/1/4 276/1/4
f 271/1/4 272/1/4 277/1/4
f 276/6/4 271/6/4 277/6/4
f 272/7/4 266/7/4 278/7/4
f 277/1/4 272/1/4 278/1/4
f 255/2/4 275/2/4 279/2/4
f 275/6/4 276/6/4 279/6/4
f 276/1/4 277/1/4 280/1/4
f 279/6/4 276/6/4 280/6/4
f 277/6/4 278/6/4 281/6/4
f 280/1/4 277/1/4 281/1/4
f 278/7/4 266/7/4 282/7/4
f 281/6/4 278/6/4 282/6/4
f 266/5/4 273/5/4 283/5/4
f 282/7/4 266/7/4 283/7/4
f 273/7/4 274/7/4 284/7/4
f 283/5/4 273/5/4 284/5/4
f 274/5/4 267/5/4 285/5/4
f 284/7/4 274/7/4 285/7/4
f 267/7/4 268/7/4 286/7/4
f 285/5/4 267/5/4 286/5/4
f 268/5/4 261/5/4 287/5/4
f 286/7/4 268/7/4 287/7/4
f 257/5/4 258/5/4 288/5/4
f 280/1/4 281/1/4 290/1/4
f 255/2/4 279/2/4 290/2/4
f 279/1/4 280/1/4 290/1/4
f 281/1/4 282/1/4 290/1/4
f 283/5/4 284/5/4 291/5/4
f 290/1/4 282/1/4 291/1/4
f 285/5/4 286/5/4 291/5/4
f 286/5/4 287/5/4 291/5/4
f 284/5/4 285/5/4 291/5/4
f 282/5/4 283/5/4 291/5/4
f 287/5/4 261/5/4 292/5/4
f 291/5/4 287/5/4 292/5/4
f 261/2/4 256/2/4 292/2/4
f 290/2/4 291/2/4 293/2/4
f 291/2/4 292/2/4 293/2/4
f 293/2/4 292/2/4 294/2/4
f 294/2/4 292/2/4 295/2/4
f 295/2/4 292/2/4 296/2/4
f 296/2/4 292/2/4 297/2/4
f 297/2/4 292/2/4 298/2/4
f 292/2/4 256/2/4 299/2/4
f 298/2/4 292/2/4 299/2/4
f 299/2/4 256/2/4 300/2/4
f 288/5/4 289/5/4 301/5/4
f 257/5/4 288/5/4 301/5/4
f 301/5/4 289/5/4 302/5/4
f 290/2/4 293/2/4 303/2/4
f 293/4/4 294/4/4 303/4/4
f 294/2/4 295/2/4 304/2/4
f 303/4/4 294/4/4 304/4/4
f 290/2/4 303/2/4 305/2/4
f 303/2/4 304/2/4 305/2/4
f 304/2/4 295/2/4 306/2/4
f 305/2/4 304/2/4 306/2/4
f 290/2/4 305/2/4 307/2/4
f 305/4/4 306/4/4 307/4/4
f 306/2/4 295/2/4 308/2/4
f 307/4/4 306/4/4 308/4/4
f 295/4/4 296/4/4 309/4/4
f 308/2/4 295/2/4 309/2/4
f 296/2/4 297/2/4 310/2/4
f 309/4/4 296/4/4 310/4/4
f 297/4/4 298/4/4 311/4/4
f 310/2/4 297/2/4 311/2/4
f 298/2/4 299/2/4 312/2/4
f 311/4/4 298/4/4 312/4/4
f 299/4/4 300/4/4 313/4/4
f 312/2/4 299/2/4 313/2/4
f 300/2/4 256/2/4 314/2/4
f 313/4/4 300/4/4 314/4/4
f 253/5/4 254/5/4 315/5/4
f 254/4/4 255/4/4 316/4/4
f 315/5/4 254/5/4 316/5/4
f 309/2/4 310/2/4 317/2/4
f 316/4/4 255/4/4 317/4/4
f 312/2/4 313/2/4 317/2/4
f 313/2/4 314/2/4 317/2/4
f 310/2/4 311/2/4 317/2/4
f 308/2/4 309/2/4 317/2/4
f 307/2/4 308/2/4 317/2/4
f 290/2/4 307/2/4 317/2/4
f 255/2/4 290/2/4 317/2/4
f 311/2/4 312/2/4 317/2/4
f 314/2/4 256/2/4 318/2/4
f 317/2/4 314/2/4 318/2/4
f 256/4/4 257/4/4 318/4/4
f 257/5/4 301/5/4 319/5/4
f 318/4/4 257/4/4 319/4/4
f 319/5/4 301/5/4 320/5/4
f 323/5/5 322/5/5 321/5/5
f 324/5/5 322/5/5 323/5/5
f 327/5/5 326/5/5 325/5/5
f 328/5/5 326/5/5 327/5/5
f 329/5/6 330/5/6 331/5/6
f 331/5/6 330/5/6 332/5/6
f 329/5/6 331/5/6 333/5/6
f 333/5/6 331/5/6 334/5/6
f 332/5/6 330/5/6 335/5/6
f 335/5/6 330/5/6 336/5/6
f 337/5/6 338/5/6 341/5/6
f 339/5/6 340/5/6 342/5/6
f 337/5/6 341/5/6 343/5/6
f 341/5/6 342/5/6 343/5/6
f 343/5/6 342/5/6 344/5/6
f 344/5/6 342/5/6 345/5/6
f 342/5/6 340/5/6 346/5/6
f 345/5/6 342/5/6 346/5/6
f 344/5/6 345/5/6 347/5/6
f 347/5/6 345/5/6 348/5/6
f 349/2/6 350/2/6 351/2/6
f 351/2/6 350/2/6 352/2/6
