# MagicaVoxel @ Ephtracy

# group
o 

# material
mtllib Voxel Universe Objects-29.mtl
usemtl palette

# normals
vn -1 0 0
vn 1 0 0
vn 0 0 1
vn 0 0 -1
vn 0 -1 0
vn 0 1 0

# texcoords
vt 0.728516 0.5
vt 0.779297 0.5
vt 0.791016 0.5
vt 0.810547 0.5
vt 0.837891 0.5
vt 0.951172 0.5
vt 0.958984 0.5

# verts
v -19.2 0.2 -8
v -19.2 0.2 -8.4
v -19.2 0.3 -7.3
v -19.2 0.3 -7.4
v -19.2 0.3 -8
v -19.2 0.3 -8.1
v -19.2 0.3 -8.3
v -19.2 0.4 -7.4
v -19.2 0.4 -8
v -19.2 0.5 -7.4
v -19.2 0.5 -8
v -19.2 0.6 -7.3
v -19.2 0.6 -7.4
v -19.2 0.6 -8
v -19.2 0.6 -8.1
v -19.2 0.6 -8.3
v -19.2 0.7 -8
v -19.2 0.7 -8.1
v -19.2 0.7 -8.3
v -19.2 0.7 -8.4
v -19.2 1.3 -8.1
v -19.2 1.3 -8.3
v -19.2 1.5 -8.1
v -19.2 1.5 -8.3
v -19.1 0 -7.8
v -19.1 0 -8.6
v -19.1 0.1 -7.9
v -19.1 0.1 -8.5
v -19.1 0.2 -8
v -19.1 0.2 -8.4
v -19.1 0.3 -7.2
v -19.1 0.3 -7.3
v -19.1 0.3 -7.8
v -19.1 0.3 -7.9
v -19.1 0.3 -8
v -19.1 0.6 -7.2
v -19.1 0.6 -7.3
v -19.1 0.6 -7.8
v -19.1 0.6 -7.9
v -19.1 0.6 -8
v -19.1 0.7 -8
v -19.1 0.7 -8.1
v -19.1 0.7 -8.3
v -19.1 0.7 -8.4
v -19.1 0.8 -7.9
v -19.1 0.8 -8
v -19.1 0.8 -8.1
v -19.1 0.8 -8.3
v -19.1 0.8 -8.4
v -19.1 0.8 -8.5
v -19.1 0.9 -7.8
v -19.1 0.9 -7.9
v -19.1 0.9 -8
v -19.1 0.9 -8.1
v -19.1 0.9 -8.3
v -19.1 0.9 -8.4
v -19.1 0.9 -8.5
v -19.1 0.9 -8.6
v -19 0.1 -7
v -19 0.1 -7.4
v -19 0.3 -7.1
v -19 0.3 -7.2
v -19 0.3 -7.4
v -19 0.6 -7.1
v -19 0.6 -7.2
v -19 0.6 -7.4
v -19 0.8 -7
v -19 0.8 -7.4
v -17.3 0 -7.8
v -17.3 0 -8.6
v -17.3 0.1 -7.9
v -17.3 0.1 -8.5
v -17.3 0.7 -7.9
v -17.3 0.7 -8.5
v -17.3 0.8 -7.9
v -17.3 0.8 -8
v -17.3 0.8 -8.1
v -17.3 0.8 -8.3
v -17.3 0.8 -8.4
v -17.3 0.8 -8.5
v -17.3 0.9 -7.8
v -17.3 0.9 -7.9
v -17.3 0.9 -8
v -17.3 0.9 -8.1
v -17.3 0.9 -8.3
v -17.3 0.9 -8.4
v -17.3 0.9 -8.5
v -17.3 0.9 -8.6
v -17.2 0.3 -7.4
v -17.2 0.3 -7.8
v -17.2 0.6 -7.4
v -17.2 0.6 -7.8
v -17.1 0.9 -8.1
v -17.1 0.9 -8.3
v -17.1 1.3 -8.1
v -17.1 1.3 -8.3
v -17.1 1.5 -8.1
v -17.1 1.5 -8.3
v -19.1 0.9 -8.1
v -19.1 0.9 -8.3
v -19.1 1.3 -8.1
v -19.1 1.3 -8.3
v -19.1 1.5 -8.1
v -19.1 1.5 -8.3
v -19 0.3 -7.4
v -19 0.3 -7.8
v -19 0.6 -7.4
v -19 0.6 -7.8
v -18.9 0 -7.8
v -18.9 0 -8.6
v -18.9 0.1 -7.9
v -18.9 0.1 -8.5
v -18.9 0.7 -7.9
v -18.9 0.7 -8.5
v -18.9 0.8 -7.9
v -18.9 0.8 -8
v -18.9 0.8 -8.1
v -18.9 0.8 -8.3
v -18.9 0.8 -8.4
v -18.9 0.8 -8.5
v -18.9 0.9 -7.8
v -18.9 0.9 -7.9
v -18.9 0.9 -8
v -18.9 0.9 -8.1
v -18.9 0.9 -8.3
v -18.9 0.9 -8.4
v -18.9 0.9 -8.5
v -18.9 0.9 -8.6
v -17.2 0.1 -7
v -17.2 0.1 -7.4
v -17.2 0.3 -7.1
v -17.2 0.3 -7.2
v -17.2 0.3 -7.4
v -17.2 0.6 -7.1
v -17.2 0.6 -7.2
v -17.2 0.6 -7.4
v -17.2 0.8 -7
v -17.2 0.8 -7.4
v -17.1 0 -7.8
v -17.1 0 -8.6
v -17.1 0.1 -7.9
v -17.1 0.1 -8.5
v -17.1 0.2 -8
v -17.1 0.2 -8.4
v -17.1 0.3 -7.2
v -17.1 0.3 -7.3
v -17.1 0.3 -7.8
v -17.1 0.3 -7.9
v -17.1 0.3 -8
v -17.1 0.6 -7.2
v -17.1 0.6 -7.3
v -17.1 0.6 -7.8
v -17.1 0.6 -7.9
v -17.1 0.6 -8
v -17.1 0.7 -8
v -17.1 0.7 -8.1
v -17.1 0.7 -8.3
v -17.1 0.7 -8.4
v -17.1 0.8 -7.9
v -17.1 0.8 -8
v -17.1 0.8 -8.1
v -17.1 0.8 -8.3
v -17.1 0.8 -8.4
v -17.1 0.8 -8.5
v -17.1 0.9 -7.8
v -17.1 0.9 -7.9
v -17.1 0.9 -8
v -17.1 0.9 -8.1
v -17.1 0.9 -8.3
v -17.1 0.9 -8.4
v -17.1 0.9 -8.5
v -17.1 0.9 -8.6
v -17 0.2 -8
v -17 0.2 -8.4
v -17 0.3 -7.3
v -17 0.3 -7.4
v -17 0.3 -8
v -17 0.3 -8.1
v -17 0.3 -8.3
v -17 0.4 -7.4
v -17 0.4 -8
v -17 0.5 -7.4
v -17 0.5 -8
v -17 0.6 -7.3
v -17 0.6 -7.4
v -17 0.6 -8
v -17 0.6 -8.1
v -17 0.6 -8.3
v -17 0.7 -8
v -17 0.7 -8.1
v -17 0.7 -8.3
v -17 0.7 -8.4
v -17 1.3 -8.1
v -17 1.3 -8.3
v -17 1.5 -8.1
v -17 1.5 -8.3
v -19 0.1 -7
v -19 0.8 -7
v -18.9 0.2 -7
v -18.9 0.7 -7
v -18.8 0.3 -7
v -18.8 0.6 -7
v -17.4 0.3 -7
v -17.4 0.6 -7
v -17.3 0.2 -7
v -17.3 0.7 -7
v -17.2 0.1 -7
v -17.2 0.8 -7
v -19.1 0.3 -7.2
v -19.1 0.6 -7.2
v -19 0.3 -7.2
v -19 0.6 -7.2
v -17.2 0.3 -7.2
v -17.2 0.6 -7.2
v -17.1 0.3 -7.2
v -17.1 0.6 -7.2
v -19.2 0.3 -7.3
v -19.2 0.6 -7.3
v -19.1 0.3 -7.3
v -19.1 0.6 -7.3
v -17.1 0.3 -7.3
v -17.1 0.6 -7.3
v -17 0.3 -7.3
v -17 0.6 -7.3
v -19.1 0 -7.8
v -19.1 0.3 -7.8
v -19.1 0.6 -7.8
v -19.1 0.9 -7.8
v -19 0.3 -7.8
v -19 0.6 -7.8
v -18.9 0 -7.8
v -18.9 0.9 -7.8
v -17.3 0 -7.8
v -17.3 0.9 -7.8
v -17.2 0.3 -7.8
v -17.2 0.6 -7.8
v -17.1 0 -7.8
v -17.1 0.3 -7.8
v -17.1 0.6 -7.8
v -17.1 0.9 -7.8
v -19.2 0.2 -8
v -19.2 0.3 -8
v -19.2 0.6 -8
v -19.2 0.7 -8
v -19.1 0.2 -8
v -19.1 0.3 -8
v -19.1 0.6 -8
v -19.1 0.7 -8
v -17.1 0.2 -8
v -17.1 0.3 -8
v -17.1 0.6 -8
v -17.1 0.7 -8
v -17 0.2 -8
v -17 0.3 -8
v -17 0.6 -8
v -17 0.7 -8
v -19.2 0.7 -8.1
v -19.2 1.3 -8.1
v -19.2 1.5 -8.1
v -19.1 0.7 -8.1
v -19.1 0.8 -8.1
v -19.1 0.9 -8.1
v -19.1 1.3 -8.1
v -19.1 1.5 -8.1
v -17.1 0.7 -8.1
v -17.1 0.8 -8.1
v -17.1 0.9 -8.1
v -17.1 1.3 -8.1
v -17.1 1.5 -8.1
v -17 0.7 -8.1
v -17 1.3 -8.1
v -17 1.5 -8.1
v -19 0.1 -7.4
v -19 0.3 -7.4
v -19 0.6 -7.4
v -19 0.8 -7.4
v -17.2 0.1 -7.4
v -17.2 0.3 -7.4
v -17.2 0.6 -7.4
v -17.2 0.8 -7.4
v -19.2 0.7 -8.3
v -19.2 1.3 -8.3
v -19.2 1.5 -8.3
v -19.1 0.7 -8.3
v -19.1 0.8 -8.3
v -19.1 0.9 -8.3
v -19.1 1.3 -8.3
v -19.1 1.5 -8.3
v -17.1 0.7 -8.3
v -17.1 0.8 -8.3
v -17.1 0.9 -8.3
v -17.1 1.3 -8.3
v -17.1 1.5 -8.3
v -17 0.7 -8.3
v -17 1.3 -8.3
v -17 1.5 -8.3
v -19.2 0.2 -8.4
v -19.2 0.7 -8.4
v -19.1 0.2 -8.4
v -19.1 0.7 -8.4
v -17.1 0.2 -8.4
v -17.1 0.7 -8.4
v -17 0.2 -8.4
v -17 0.7 -8.4
v -19.1 0 -8.6
v -19.1 0.9 -8.6
v -18.9 0 -8.6
v -18.9 0.9 -8.6
v -17.3 0 -8.6
v -17.3 0.9 -8.6
v -17.1 0 -8.6
v -17.1 0.9 -8.6
v -19.1 0 -7.8
v -18.9 0 -7.8
v -17.3 0 -7.8
v -17.1 0 -7.8
v -19.1 0 -8.6
v -18.9 0 -8.6
v -17.3 0 -8.6
v -17.1 0 -8.6
v -19 0.1 -7
v -17.2 0.1 -7
v -19 0.1 -7.4
v -17.2 0.1 -7.4
v -19.2 0.2 -8
v -19.1 0.2 -8
v -17.1 0.2 -8
v -17 0.2 -8
v -19.2 0.2 -8.4
v -19.1 0.2 -8.4
v -17.1 0.2 -8.4
v -17 0.2 -8.4
v -19.1 0.3 -7.2
v -19 0.3 -7.2
v -17.2 0.3 -7.2
v -17.1 0.3 -7.2
v -19.2 0.3 -7.3
v -19.1 0.3 -7.3
v -17.1 0.3 -7.3
v -17 0.3 -7.3
v -19.2 0.3 -7.4
v -19.1 0.3 -7.4
v -19 0.3 -7.4
v -17.2 0.3 -7.4
v -17.1 0.3 -7.4
v -17 0.3 -7.4
v -19.1 0.3 -7.8
v -19 0.3 -7.8
v -17.2 0.3 -7.8
v -17.1 0.3 -7.8
v -19.1 0.3 -7.9
v -17.1 0.3 -7.9
v -19.2 0.3 -8
v -19.1 0.3 -8
v -17.1 0.3 -8
v -17 0.3 -8
v -19.1 0.6 -7.2
v -19 0.6 -7.2
v -17.2 0.6 -7.2
v -17.1 0.6 -7.2
v -19.2 0.6 -7.3
v -19.1 0.6 -7.3
v -17.1 0.6 -7.3
v -17 0.6 -7.3
v -19.2 0.6 -7.4
v -19.1 0.6 -7.4
v -19 0.6 -7.4
v -17.2 0.6 -7.4
v -17.1 0.6 -7.4
v -17 0.6 -7.4
v -19.1 0.6 -7.8
v -19 0.6 -7.8
v -17.2 0.6 -7.8
v -17.1 0.6 -7.8
v -19.1 0.6 -7.9
v -17.1 0.6 -7.9
v -19.2 0.6 -8
v -19.1 0.6 -8
v -17.1 0.6 -8
v -17 0.6 -8
v -19.2 0.7 -8
v -19.1 0.7 -8
v -17.1 0.7 -8
v -17 0.7 -8
v -19.2 0.7 -8.1
v -19.1 0.7 -8.1
v -17.1 0.7 -8.1
v -17 0.7 -8.1
v -19.2 0.7 -8.3
v -19.1 0.7 -8.3
v -17.1 0.7 -8.3
v -17 0.7 -8.3
v -19.2 0.7 -8.4
v -19.1 0.7 -8.4
v -17.1 0.7 -8.4
v -17 0.7 -8.4
v -19 0.8 -7
v -17.2 0.8 -7
v -18.9 0.8 -7.1
v -18.5 0.8 -7.1
v -17.7 0.8 -7.1
v -17.3 0.8 -7.1
v -18.9 0.8 -7.3
v -18.5 0.8 -7.3
v -17.7 0.8 -7.3
v -17.3 0.8 -7.3
v -19 0.8 -7.4
v -17.2 0.8 -7.4
v -19.1 0.9 -7.8
v -18.9 0.9 -7.8
v -17.3 0.9 -7.8
v -17.1 0.9 -7.8
v -19.1 0.9 -7.9
v -18.9 0.9 -7.9
v -17.3 0.9 -7.9
v -17.1 0.9 -7.9
v -19.1 0.9 -8
v -18.9 0.9 -8
v -17.3 0.9 -8
v -17.1 0.9 -8
v -19.1 0.9 -8.1
v -18.9 0.9 -8.1
v -17.3 0.9 -8.1
v -17.1 0.9 -8.1
v -19.1 0.9 -8.3
v -18.9 0.9 -8.3
v -17.3 0.9 -8.3
v -17.1 0.9 -8.3
v -19.1 0.9 -8.4
v -18.9 0.9 -8.4
v -17.3 0.9 -8.4
v -17.1 0.9 -8.4
v -19.1 0.9 -8.5
v -18.9 0.9 -8.5
v -17.3 0.9 -8.5
v -17.1 0.9 -8.5
v -19.1 0.9 -8.6
v -18.9 0.9 -8.6
v -17.3 0.9 -8.6
v -17.1 0.9 -8.6
v -19.2 1.5 -8.1
v -19.1 1.5 -8.1
v -17.1 1.5 -8.1
v -17 1.5 -8.1
v -19.2 1.5 -8.3
v -19.1 1.5 -8.3
v -17.1 1.5 -8.3
v -17 1.5 -8.3

# faces
f 5/7/1 2/7/1 1/7/1
f 6/7/1 2/7/1 5/7/1
f 7/7/1 2/7/1 6/7/1
f 8/2/1 4/2/1 3/2/1
f 8/7/1 5/7/1 4/7/1
f 8/7/1 6/7/1 5/7/1
f 9/7/1 6/7/1 8/7/1
f 10/2/1 8/2/1 3/2/1
f 10/2/1 9/2/1 8/2/1
f 11/7/1 6/7/1 9/7/1
f 11/2/1 9/2/1 10/2/1
f 12/2/1 10/2/1 3/2/1
f 13/7/1 11/7/1 10/7/1
f 13/2/1 10/2/1 12/2/1
f 14/7/1 6/7/1 11/7/1
f 14/7/1 11/7/1 13/7/1
f 15/2/1 7/2/1 6/2/1
f 15/7/1 6/7/1 14/7/1
f 16/7/1 2/7/1 7/7/1
f 16/2/1 7/2/1 15/2/1
f 17/7/1 15/7/1 14/7/1
f 17/7/1 16/7/1 15/7/1
f 18/7/1 16/7/1 17/7/1
f 19/7/1 2/7/1 16/7/1
f 19/7/1 16/7/1 18/7/1
f 20/7/1 2/7/1 19/7/1
f 21/2/1 19/2/1 18/2/1
f 22/2/1 19/2/1 21/2/1
f 23/4/1 22/4/1 21/4/1
f 24/4/1 22/4/1 23/4/1
f 27/5/1 26/5/1 25/5/1
f 28/5/1 26/5/1 27/5/1
f 29/7/1 28/7/1 27/7/1
f 30/7/1 28/7/1 29/7/1
f 33/5/1 27/5/1 25/5/1
f 34/7/1 29/7/1 27/7/1
f 34/5/1 27/5/1 33/5/1
f 35/7/1 29/7/1 34/7/1
f 36/2/1 32/2/1 31/2/1
f 37/2/1 32/2/1 36/2/1
f 41/7/1 40/7/1 39/7/1
f 44/7/1 28/7/1 30/7/1
f 45/7/1 41/7/1 39/7/1
f 45/7/1 42/7/1 41/7/1
f 45/5/1 39/5/1 38/5/1
f 46/7/1 42/7/1 45/7/1
f 47/7/1 42/7/1 46/7/1
f 48/7/1 44/7/1 43/7/1
f 49/7/1 28/7/1 44/7/1
f 49/7/1 44/7/1 48/7/1
f 50/5/1 26/5/1 28/5/1
f 50/7/1 28/7/1 49/7/1
f 51/5/1 45/5/1 38/5/1
f 52/4/1 46/4/1 45/4/1
f 52/5/1 45/5/1 51/5/1
f 53/5/1 47/5/1 46/5/1
f 53/4/1 46/4/1 52/4/1
f 54/5/1 47/5/1 53/5/1
f 55/5/1 49/5/1 48/5/1
f 56/4/1 50/4/1 49/4/1
f 56/5/1 49/5/1 55/5/1
f 57/5/1 26/5/1 50/5/1
f 57/4/1 50/4/1 56/4/1
f 58/5/1 26/5/1 57/5/1
f 61/5/1 60/5/1 59/5/1
f 62/5/1 60/5/1 61/5/1
f 63/5/1 60/5/1 62/5/1
f 64/5/1 61/5/1 59/5/1
f 64/4/1 62/4/1 61/4/1
f 65/4/1 62/4/1 64/4/1
f 67/5/1 64/5/1 59/5/1
f 67/5/1 66/5/1 65/5/1
f 67/5/1 65/5/1 64/5/1
f 68/5/1 66/5/1 67/5/1
f 71/5/1 70/5/1 69/5/1
f 72/5/1 70/5/1 71/5/1
f 73/5/1 71/5/1 69/5/1
f 73/6/1 72/6/1 71/6/1
f 74/5/1 70/5/1 72/5/1
f 74/6/1 72/6/1 73/6/1
f 75/5/1 73/5/1 69/5/1
f 75/5/1 74/5/1 73/5/1
f 76/5/1 74/5/1 75/5/1
f 77/5/1 74/5/1 76/5/1
f 78/5/1 74/5/1 77/5/1
f 79/5/1 74/5/1 78/5/1
f 80/5/1 70/5/1 74/5/1
f 80/5/1 74/5/1 79/5/1
f 81/5/1 75/5/1 69/5/1
f 82/4/1 76/4/1 75/4/1
f 82/5/1 75/5/1 81/5/1
f 83/5/1 77/5/1 76/5/1
f 83/4/1 76/4/1 82/4/1
f 84/4/1 78/4/1 77/4/1
f 84/5/1 77/5/1 83/5/1
f 85/5/1 79/5/1 78/5/1
f 85/4/1 78/4/1 84/4/1
f 86/4/1 80/4/1 79/4/1
f 86/5/1 79/5/1 85/5/1
f 87/5/1 70/5/1 80/5/1
f 87/4/1 80/4/1 86/4/1
f 88/5/1 70/5/1 87/5/1
f 91/2/1 90/2/1 89/2/1
f 92/2/1 90/2/1 91/2/1
f 95/2/1 94/2/1 93/2/1
f 96/2/1 94/2/1 95/2/1
f 97/4/1 96/4/1 95/4/1
f 98/4/1 96/4/1 97/4/1
f 99/2/2 100/2/2 101/2/2
f 101/2/2 100/2/2 102/2/2
f 101/4/2 102/4/2 103/4/2
f 103/4/2 102/4/2 104/4/2
f 105/2/2 106/2/2 107/2/2
f 107/2/2 106/2/2 108/2/2
f 109/5/2 110/5/2 111/5/2
f 111/5/2 110/5/2 112/5/2
f 109/5/2 111/5/2 113/5/2
f 111/6/2 112/6/2 113/6/2
f 112/5/2 110/5/2 114/5/2
f 113/6/2 112/6/2 114/6/2
f 109/5/2 113/5/2 115/5/2
f 113/5/2 114/5/2 115/5/2
f 115/5/2 114/5/2 116/5/2
f 116/5/2 114/5/2 117/5/2
f 117/5/2 114/5/2 118/5/2
f 118/5/2 114/5/2 119/5/2
f 114/5/2 110/5/2 120/5/2
f 119/5/2 114/5/2 120/5/2
f 109/5/2 115/5/2 121/5/2
f 115/4/2 116/4/2 122/4/2
f 121/5/2 115/5/2 122/5/2
f 116/5/2 117/5/2 123/5/2
f 122/4/2 116/4/2 123/4/2
f 117/4/2 118/4/2 124/4/2
f 123/5/2 117/5/2 124/5/2
f 118/5/2 119/5/2 125/5/2
f 124/4/2 118/4/2 125/4/2
f 119/4/2 120/4/2 126/4/2
f 125/5/2 119/5/2 126/5/2
f 120/5/2 110/5/2 127/5/2
f 126/4/2 120/4/2 127/4/2
f 127/5/2 110/5/2 128/5/2
f 129/5/2 130/5/2 131/5/2
f 131/5/2 130/5/2 132/5/2
f 132/5/2 130/5/2 133/5/2
f 129/5/2 131/5/2 134/5/2
f 131/4/2 132/4/2 134/4/2
f 134/4/2 132/4/2 135/4/2
f 129/5/2 134/5/2 137/5/2
f 135/5/2 136/5/2 137/5/2
f 134/5/2 135/5/2 137/5/2
f 137/5/2 136/5/2 138/5/2
f 139/5/2 140/5/2 141/5/2
f 141/5/2 140/5/2 142/5/2
f 141/7/2 142/7/2 143/7/2
f 143/7/2 142/7/2 144/7/2
f 139/5/2 141/5/2 147/5/2
f 141/7/2 143/7/2 148/7/2
f 147/5/2 141/5/2 148/5/2
f 148/7/2 143/7/2 149/7/2
f 145/2/2 146/2/2 150/2/2
f 150/2/2 146/2/2 151/2/2
f 153/7/2 154/7/2 155/7/2
f 144/7/2 142/7/2 158/7/2
f 153/7/2 155/7/2 159/7/2
f 155/7/2 156/7/2 159/7/2
f 152/5/2 153/5/2 159/5/2
f 159/7/2 156/7/2 160/7/2
f 160/7/2 156/7/2 161/7/2
f 157/7/2 158/7/2 162/7/2
f 158/7/2 142/7/2 163/7/2
f 162/7/2 158/7/2 163/7/2
f 142/5/2 140/5/2 164/5/2
f 163/7/2 142/7/2 164/7/2
f 152/5/2 159/5/2 165/5/2
f 159/4/2 160/4/2 166/4/2
f 165/5/2 159/5/2 166/5/2
f 160/5/2 161/5/2 167/5/2
f 166/4/2 160/4/2 167/4/2
f 167/5/2 161/5/2 168/5/2
f 162/5/2 163/5/2 169/5/2
f 163/4/2 164/4/2 170/4/2
f 169/5/2 163/5/2 170/5/2
f 164/5/2 140/5/2 171/5/2
f 170/4/2 164/4/2 171/4/2
f 171/5/2 140/5/2 172/5/2
f 173/7/2 174/7/2 177/7/2
f 177/7/2 174/7/2 178/7/2
f 178/7/2 174/7/2 179/7/2
f 175/2/2 176/2/2 180/2/2
f 176/7/2 177/7/2 180/7/2
f 177/7/2 178/7/2 180/7/2
f 180/7/2 178/7/2 181/7/2
f 175/2/2 180/2/2 182/2/2
f 180/2/2 181/2/2 182/2/2
f 181/7/2 178/7/2 183/7/2
f 182/2/2 181/2/2 183/2/2
f 175/2/2 182/2/2 184/2/2
f 182/7/2 183/7/2 185/7/2
f 184/2/2 182/2/2 185/2/2
f 183/7/2 178/7/2 186/7/2
f 185/7/2 183/7/2 186/7/2
f 178/2/2 179/2/2 187/2/2
f 186/7/2 178/7/2 187/7/2
f 179/7/2 174/7/2 188/7/2
f 187/2/2 179/2/2 188/2/2
f 186/7/2 187/7/2 189/7/2
f 187/7/2 188/7/2 189/7/2
f 189/7/2 188/7/2 190/7/2
f 188/7/2 174/7/2 191/7/2
f 190/7/2 188/7/2 191/7/2
f 191/7/2 174/7/2 192/7/2
f 190/2/2 191/2/2 193/2/2
f 193/2/2 191/2/2 194/2/2
f 193/4/2 194/4/2 195/4/2
f 195/4/2 194/4/2 196/4/2
f 199/5/3 198/5/3 197/5/3
f 200/5/3 198/5/3 199/5/3
f 201/1/3 200/1/3 199/1/3
f 202/1/3 200/1/3 201/1/3
f 203/1/3 201/1/3 199/1/3
f 203/2/3 202/2/3 201/2/3
f 204/1/3 200/1/3 202/1/3
f 204/2/3 202/2/3 203/2/3
f 205/5/3 199/5/3 197/5/3
f 205/1/3 203/1/3 199/1/3
f 205/1/3 204/1/3 203/1/3
f 206/1/3 200/1/3 204/1/3
f 206/1/3 204/1/3 205/1/3
f 206/5/3 198/5/3 200/5/3
f 207/5/3 205/5/3 197/5/3
f 207/5/3 206/5/3 205/5/3
f 208/5/3 198/5/3 206/5/3
f 208/5/3 206/5/3 207/5/3
f 211/2/3 210/2/3 209/2/3
f 212/2/3 210/2/3 211/2/3
f 215/2/3 214/2/3 213/2/3
f 216/2/3 214/2/3 215/2/3
f 219/2/3 218/2/3 217/2/3
f 220/2/3 218/2/3 219/2/3
f 223/2/3 222/2/3 221/2/3
f 224/2/3 222/2/3 223/2/3
f 229/5/3 226/5/3 225/5/3
f 230/5/3 228/5/3 227/5/3
f 231/5/3 229/5/3 225/5/3
f 231/5/3 230/5/3 229/5/3
f 232/5/3 228/5/3 230/5/3
f 232/5/3 230/5/3 231/5/3
f 235/5/3 234/5/3 233/5/3
f 236/5/3 234/5/3 235/5/3
f 237/5/3 235/5/3 233/5/3
f 238/5/3 235/5/3 237/5/3
f 239/5/3 234/5/3 236/5/3
f 240/5/3 234/5/3 239/5/3
f 245/7/3 242/7/3 241/7/3
f 246/7/3 242/7/3 245/7/3
f 247/7/3 244/7/3 243/7/3
f 248/7/3 244/7/3 247/7/3
f 253/7/3 250/7/3 249/7/3
f 254/7/3 250/7/3 253/7/3
f 255/7/3 252/7/3 251/7/3
f 256/7/3 252/7/3 255/7/3
f 260/2/3 258/2/3 257/2/3
f 261/2/3 258/2/3 260/2/3
f 262/2/3 258/2/3 261/2/3
f 263/4/3 259/4/3 258/4/3
f 263/2/3 258/2/3 262/2/3
f 264/4/3 259/4/3 263/4/3
f 270/2/3 266/2/3 265/2/3
f 270/2/3 267/2/3 266/2/3
f 270/2/3 268/2/3 267/2/3
f 271/4/3 269/4/3 268/4/3
f 271/2/3 268/2/3 270/2/3
f 272/4/3 269/4/3 271/4/3
f 273/5/4 274/5/4 277/5/4
f 275/5/4 276/5/4 277/5/4
f 274/5/4 275/5/4 277/5/4
f 277/5/4 276/5/4 278/5/4
f 278/5/4 276/5/4 279/5/4
f 279/5/4 276/5/4 280/5/4
f 281/2/4 282/2/4 284/2/4
f 284/2/4 282/2/4 285/2/4
f 285/2/4 282/2/4 286/2/4
f 282/4/4 283/4/4 287/4/4
f 286/2/4 282/2/4 287/2/4
f 287/4/4 283/4/4 288/4/4
f 289/2/4 290/2/4 294/2/4
f 290/2/4 291/2/4 294/2/4
f 291/2/4 292/2/4 294/2/4
f 292/4/4 293/4/4 295/4/4
f 294/2/4 292/2/4 295/2/4
f 295/4/4 293/4/4 296/4/4
f 297/7/4 298/7/4 299/7/4
f 299/7/4 298/7/4 300/7/4
f 301/7/4 302/7/4 303/7/4
f 303/7/4 302/7/4 304/7/4
f 305/5/4 306/5/4 307/5/4
f 307/5/4 306/5/4 308/5/4
f 309/5/4 310/5/4 311/5/4
f 311/5/4 310/5/4 312/5/4
f 317/5/5 314/5/5 313/5/5
f 318/5/5 314/5/5 317/5/5
f 319/5/5 316/5/5 315/5/5
f 320/5/5 316/5/5 319/5/5
f 323/5/5 322/5/5 321/5/5
f 324/5/5 322/5/5 323/5/5
f 329/7/5 326/7/5 325/7/5
f 330/7/5 326/7/5 329/7/5
f 331/7/5 328/7/5 327/7/5
f 332/7/5 328/7/5 331/7/5
f 338/2/5 334/2/5 333/2/5
f 339/2/5 336/2/5 335/2/5
f 341/2/5 338/2/5 337/2/5
f 342/2/5 334/2/5 338/2/5
f 342/2/5 338/2/5 341/2/5
f 343/2/5 334/2/5 342/2/5
f 344/2/5 340/2/5 339/2/5
f 344/2/5 339/2/5 335/2/5
f 345/2/5 340/2/5 344/2/5
f 346/2/5 340/2/5 345/2/5
f 347/2/5 343/2/5 342/2/5
f 347/7/5 342/7/5 341/7/5
f 348/2/5 343/2/5 347/2/5
f 349/2/5 345/2/5 344/2/5
f 350/7/5 346/7/5 345/7/5
f 350/2/5 345/2/5 349/2/5
f 351/7/5 347/7/5 341/7/5
f 352/7/5 346/7/5 350/7/5
f 353/7/5 351/7/5 341/7/5
f 354/7/5 351/7/5 353/7/5
f 355/7/5 346/7/5 352/7/5
f 356/7/5 346/7/5 355/7/5
f 357/2/6 358/2/6 362/2/6
f 359/2/6 360/2/6 363/2/6
f 361/2/6 362/2/6 365/2/6
f 362/2/6 358/2/6 366/2/6
f 365/2/6 362/2/6 366/2/6
f 366/2/6 358/2/6 367/2/6
f 363/2/6 364/2/6 368/2/6
f 359/2/6 363/2/6 368/2/6
f 368/2/6 364/2/6 369/2/6
f 369/2/6 364/2/6 370/2/6
f 366/2/6 367/2/6 371/2/6
f 365/7/6 366/7/6 371/7/6
f 371/2/6 367/2/6 372/2/6
f 368/2/6 369/2/6 373/2/6
f 369/7/6 370/7/6 374/7/6
f 373/2/6 369/2/6 374/2/6
f 365/7/6 371/7/6 375/7/6
f 374/7/6 370/7/6 376/7/6
f 365/7/6 375/7/6 377/7/6
f 377/7/6 375/7/6 378/7/6
f 376/7/6 370/7/6 379/7/6
f 379/7/6 370/7/6 380/7/6
f 381/7/6 382/7/6 385/7/6
f 385/7/6 382/7/6 386/7/6
f 383/7/6 384/7/6 387/7/6
f 387/7/6 384/7/6 388/7/6
f 389/7/6 390/7/6 393/7/6
f 393/7/6 390/7/6 394/7/6
f 391/7/6 392/7/6 395/7/6
f 395/7/6 392/7/6 396/7/6
f 397/5/6 398/5/6 399/5/6
f 399/5/6 398/5/6 400/5/6
f 400/5/6 398/5/6 401/5/6
f 401/5/6 398/5/6 402/5/6
f 397/5/6 399/5/6 403/5/6
f 399/4/6 400/4/6 403/4/6
f 400/5/6 401/5/6 404/5/6
f 403/4/6 400/4/6 404/4/6
f 401/4/6 402/4/6 405/4/6
f 404/5/6 401/5/6 405/5/6
f 402/5/6 398/5/6 406/5/6
f 405/4/6 402/4/6 406/4/6
f 404/5/6 405/5/6 407/5/6
f 403/5/6 404/5/6 407/5/6
f 405/5/6 406/5/6 407/5/6
f 397/5/6 403/5/6 407/5/6
f 406/5/6 398/5/6 408/5/6
f 407/5/6 406/5/6 408/5/6
f 409/5/6 410/5/6 413/5/6
f 413/5/6 410/5/6 414/5/6
f 411/5/6 412/5/6 415/5/6
f 415/5/6 412/5/6 416/5/6
f 413/4/6 414/4/6 417/4/6
f 417/4/6 414/4/6 418/4/6
f 415/4/6 416/4/6 419/4/6
f 419/4/6 416/4/6 420/4/6
f 417/5/6 418/5/6 421/5/6
f 421/5/6 418/5/6 422/5/6
f 419/5/6 420/5/6 423/5/6
f 423/5/6 420/5/6 424/5/6
f 421/4/6 422/4/6 425/4/6
f 425/4/6 422/4/6 426/4/6
f 423/4/6 424/4/6 427/4/6
f 427/4/6 424/4/6 428/4/6
f 425/5/6 426/5/6 429/5/6
f 429/5/6 426/5/6 430/5/6
f 427/5/6 428/5/6 431/5/6
f 431/5/6 428/5/6 432/5/6
f 429/4/6 430/4/6 433/4/6
f 433/4/6 430/4/6 434/4/6
f 431/4/6 432/4/6 435/4/6
f 435/4/6 432/4/6 436/4/6
f 433/5/6 434/5/6 437/5/6
f 437/5/6 434/5/6 438/5/6
f 435/5/6 436/5/6 439/5/6
f 439/5/6 436/5/6 440/5/6
f 441/4/6 442/4/6 445/4/6
f 445/4/6 442/4/6 446/4/6
f 443/4/6 444/4/6 447/4/6
f 447/4/6 444/4/6 448/4/6
