# MagicaVoxel @ Ephtracy

# group
o 

# material
mtllib Voxel Universe Objects-15.mtl
usemtl palette

# normals
vn 1 0 0
vn -1 0 0
vn 0 0 -1
vn 0 0 1
vn 0 -1 0
vn 0 1 0

# texcoords
vt 0.869141 0.5
vt 0.970703 0.5
vt 0.990234 0.5
vt 0.994141 0.5

# verts
v -14.4 0 -7.4
v -14.4 0 -7.2
v -14.4 0.1 -7.4
v -14.4 0.1 -7.2
v -14.6 0 -7.5
v -14.6 0 -7.4
v -14.6 0 -7.2
v -14.6 0 -7.1
v -14.6 0.1 -7.4
v -14.6 0.1 -7.2
v -14.6 0.2 -7.5
v -14.6 0.2 -7.1
v -15.4 0 -7.4
v -15.4 0 -7.2
v -15.4 0.2 -7.4
v -15.4 0.2 -7.2
v -15.3 0 -7.4
v -15.3 0 -7.2
v -15.3 0.2 -7.4
v -15.3 0.2 -7.2
v -15.5 0 -7.5
v -15.5 0 -7.1
v -15.5 0.2 -7.5
v -15.5 0.2 -7.1
v -14.6 0 -7.5
v -14.6 0.2 -7.5
v -15.5 0 -7.5
v -15.5 0.2 -7.5
v -14.4 0 -7.4
v -14.4 0.1 -7.4
v -14.6 0 -7.4
v -14.6 0.1 -7.4
v -15.3 0 -7.2
v -15.3 0.2 -7.2
v -15.4 0 -7.2
v -15.4 0.2 -7.2
v -15.3 0 -7.4
v -15.3 0.2 -7.4
v -15.4 0 -7.4
v -15.4 0.2 -7.4
v -14.4 0 -7.2
v -14.4 0.1 -7.2
v -14.6 0 -7.2
v -14.6 0.1 -7.2
v -14.6 0 -7.1
v -14.6 0.2 -7.1
v -15.5 0 -7.1
v -15.5 0.2 -7.1
v -14.6 0 -7.5
v -15.5 0 -7.5
v -14.4 0 -7.4
v -14.6 0 -7.4
v -15.3 0 -7.4
v -15.4 0 -7.4
v -14.4 0 -7.2
v -14.6 0 -7.2
v -15.3 0 -7.2
v -15.4 0 -7.2
v -14.6 0 -7.1
v -15.5 0 -7.1
v -14.4 0.1 -7.4
v -14.6 0.1 -7.4
v -14.4 0.1 -7.2
v -14.6 0.1 -7.2
v -14.6 0.2 -7.5
v -15.5 0.2 -7.5
v -14.7 0.2 -7.4
v -14.9 0.2 -7.4
v -15.2 0.2 -7.4
v -15.3 0.2 -7.4
v -15.4 0.2 -7.4
v -14.7 0.2 -7.2
v -14.9 0.2 -7.2
v -15.2 0.2 -7.2
v -15.3 0.2 -7.2
v -15.4 0.2 -7.2
v -14.6 0.2 -7.1
v -15.5 0.2 -7.1

# faces
f 3/2/1 2/2/1 1/2/1
f 4/2/1 2/2/1 3/2/1
f 9/3/1 6/3/1 5/3/1
f 10/3/1 8/3/1 7/3/1
f 11/3/1 9/3/1 5/3/1
f 11/3/1 10/3/1 9/3/1
f 12/3/1 8/3/1 10/3/1
f 12/3/1 10/3/1 11/3/1
f 15/3/1 14/3/1 13/3/1
f 16/3/1 14/3/1 15/3/1
f 17/3/2 18/3/2 19/3/2
f 19/3/2 18/3/2 20/3/2
f 21/3/2 22/3/2 23/3/2
f 23/3/2 22/3/2 24/3/2
f 27/3/3 26/3/3 25/3/3
f 28/3/3 26/3/3 27/3/3
f 31/2/3 30/2/3 29/2/3
f 32/2/3 30/2/3 31/2/3
f 35/3/3 34/3/3 33/3/3
f 36/3/3 34/3/3 35/3/3
f 37/3/4 38/3/4 39/3/4
f 39/3/4 38/3/4 40/3/4
f 41/2/4 42/2/4 43/2/4
f 43/2/4 42/2/4 44/2/4
f 45/3/4 46/3/4 47/3/4
f 47/3/4 46/3/4 48/3/4
f 52/3/5 50/3/5 49/3/5
f 53/3/5 50/3/5 52/3/5
f 54/3/5 50/3/5 53/3/5
f 55/2/5 52/2/5 51/2/5
f 56/3/5 53/3/5 52/3/5
f 56/2/5 52/2/5 55/2/5
f 57/3/5 53/3/5 56/3/5
f 58/3/5 50/3/5 54/3/5
f 59/3/5 57/3/5 56/3/5
f 59/3/5 58/3/5 57/3/5
f 60/3/5 50/3/5 58/3/5
f 60/3/5 58/3/5 59/3/5
f 61/2/6 62/2/6 63/2/6
f 63/2/6 62/2/6 64/2/6
f 65/3/6 66/3/6 67/3/6
f 67/3/6 66/3/6 68/3/6
f 68/3/6 66/3/6 69/3/6
f 69/3/6 66/3/6 70/3/6
f 70/3/6 66/3/6 71/3/6
f 65/3/6 67/3/6 72/3/6
f 67/1/6 68/1/6 72/1/6
f 68/4/6 69/4/6 73/4/6
f 72/1/6 68/1/6 73/1/6
f 69/3/6 70/3/6 74/3/6
f 73/4/6 69/4/6 74/4/6
f 74/3/6 70/3/6 75/3/6
f 71/3/6 66/3/6 76/3/6
f 74/3/6 75/3/6 77/3/6
f 75/3/6 76/3/6 77/3/6
f 72/3/6 73/3/6 77/3/6
f 65/3/6 72/3/6 77/3/6
f 73/3/6 74/3/6 77/3/6
f 76/3/6 66/3/6 78/3/6
f 77/3/6 76/3/6 78/3/6
