# MagicaVoxel @ Ephtracy

# group
o 

# material
mtllib Voxel Universe Objects-37.mtl
usemtl palette

# normals
vn -1 0 0
vn 1 0 0
vn 0 0 1
vn 0 0 -1
vn 0 -1 0
vn 0 1 0

# texcoords
vt 0.908203 0.5
vt 0.939453 0.5
vt 0.947266 0.5

# verts
v -13.8 0 -4.9
v -13.8 0 -6.8
v -13.8 0.1 -4.9
v -13.8 0.1 -6.8
v -13.8 0.2 -4.9
v -13.8 0.2 -6.8
v -12.7 0 -4.9
v -12.7 0 -6.8
v -12.7 0.1 -4.9
v -12.7 0.1 -6.8
v -12.7 0.2 -4.9
v -12.7 0.2 -6.8
v -13.8 0 -4.9
v -13.8 0.1 -4.9
v -13.8 0.2 -4.9
v -12.7 0 -4.9
v -12.7 0.1 -4.9
v -12.7 0.2 -4.9
v -13.8 0 -6.8
v -13.8 0.1 -6.8
v -13.8 0.2 -6.8
v -12.7 0 -6.8
v -12.7 0.1 -6.8
v -12.7 0.2 -6.8
v -13.8 0 -4.9
v -12.7 0 -4.9
v -13.7 0 -5
v -13.6 0 -5
v -13.5 0 -5
v -13.4 0 -5
v -13.3 0 -5
v -13.2 0 -5
v -13.1 0 -5
v -13 0 -5
v -12.9 0 -5
v -12.8 0 -5
v -13.7 0 -5.1
v -13.6 0 -5.1
v -13.5 0 -5.1
v -13.4 0 -5.1
v -13.1 0 -5.1
v -13 0 -5.1
v -12.9 0 -5.1
v -12.8 0 -5.1
v -13.7 0 -5.2
v -13.6 0 -5.2
v -13.5 0 -5.2
v -13.4 0 -5.2
v -13.3 0 -5.2
v -13.2 0 -5.2
v -13.1 0 -5.2
v -13 0 -5.2
v -12.9 0 -5.2
v -12.8 0 -5.2
v -13.7 0 -5.3
v -13.6 0 -5.3
v -13.5 0 -5.3
v -13.4 0 -5.3
v -13.3 0 -5.3
v -13.2 0 -5.3
v -13.1 0 -5.3
v -13 0 -5.3
v -12.9 0 -5.3
v -12.8 0 -5.3
v -13.7 0 -5.4
v -13.6 0 -5.4
v -13.5 0 -5.4
v -13.4 0 -5.4
v -13.1 0 -5.4
v -13 0 -5.4
v -12.9 0 -5.4
v -12.8 0 -5.4
v -13.6 0 -5.5
v -13.5 0 -5.5
v -13.4 0 -5.5
v -13.3 0 -5.5
v -13.2 0 -5.5
v -13.1 0 -5.5
v -13 0 -5.5
v -12.9 0 -5.5
v -13.7 0 -5.6
v -13.6 0 -5.6
v -13.5 0 -5.6
v -13.4 0 -5.6
v -13.1 0 -5.6
v -13 0 -5.6
v -12.9 0 -5.6
v -12.8 0 -5.6
v -13.6 0 -5.7
v -13.5 0 -5.7
v -13.4 0 -5.7
v -13.3 0 -5.7
v -13.2 0 -5.7
v -13.1 0 -5.7
v -13 0 -5.7
v -12.9 0 -5.7
v -13.7 0 -5.8
v -13.6 0 -5.8
v -13.5 0 -5.8
v -13.4 0 -5.8
v -13.3 0 -5.8
v -13.2 0 -5.8
v -13.1 0 -5.8
v -13 0 -5.8
v -12.9 0 -5.8
v -12.8 0 -5.8
v -13.7 0 -5.9
v -13.6 0 -5.9
v -13.5 0 -5.9
v -13.4 0 -5.9
v -13.3 0 -5.9
v -13.2 0 -5.9
v -13.1 0 -5.9
v -13 0 -5.9
v -12.9 0 -5.9
v -12.8 0 -5.9
v -13.6 0 -6
v -13.5 0 -6
v -13.4 0 -6
v -13.3 0 -6
v -13.2 0 -6
v -13.1 0 -6
v -13 0 -6
v -12.9 0 -6
v -13.7 0 -6.1
v -13.6 0 -6.1
v -13.5 0 -6.1
v -13.4 0 -6.1
v -13.1 0 -6.1
v -13 0 -6.1
v -12.9 0 -6.1
v -12.8 0 -6.1
v -13.6 0 -6.2
v -13.5 0 -6.2
v -13.4 0 -6.2
v -13.3 0 -6.2
v -13.2 0 -6.2
v -13.1 0 -6.2
v -13 0 -6.2
v -12.9 0 -6.2
v -13.7 0 -6.3
v -13.6 0 -6.3
v -13.5 0 -6.3
v -13.4 0 -6.3
v -13.1 0 -6.3
v -13 0 -6.3
v -12.9 0 -6.3
v -12.8 0 -6.3
v -13.7 0 -6.4
v -13.6 0 -6.4
v -13.5 0 -6.4
v -13.4 0 -6.4
v -13.3 0 -6.4
v -13.2 0 -6.4
v -13.1 0 -6.4
v -13 0 -6.4
v -12.9 0 -6.4
v -12.8 0 -6.4
v -13.7 0 -6.5
v -13.6 0 -6.5
v -13.5 0 -6.5
v -13.4 0 -6.5
v -13.3 0 -6.5
v -13.2 0 -6.5
v -13.1 0 -6.5
v -13 0 -6.5
v -12.9 0 -6.5
v -12.8 0 -6.5
v -13.7 0 -6.6
v -13.6 0 -6.6
v -13.5 0 -6.6
v -13.4 0 -6.6
v -13.1 0 -6.6
v -13 0 -6.6
v -12.9 0 -6.6
v -12.8 0 -6.6
v -13.7 0 -6.7
v -13.6 0 -6.7
v -13.5 0 -6.7
v -13.4 0 -6.7
v -13.3 0 -6.7
v -13.2 0 -6.7
v -13.1 0 -6.7
v -13 0 -6.7
v -12.9 0 -6.7
v -12.8 0 -6.7
v -13.8 0 -6.8
v -12.7 0 -6.8
v -13.8 0.2 -4.9
v -12.7 0.2 -4.9
v -12.9 0.2 -5
v -12.8 0.2 -5
v -12.9 0.2 -5.1
v -12.8 0.2 -5.1
v -12.9 0.2 -5.2
v -12.8 0.2 -5.2
v -12.9 0.2 -5.3
v -12.8 0.2 -5.3
v -13.3 0.2 -5.5
v -13.2 0.2 -5.5
v -13.4 0.2 -5.7
v -13.3 0.2 -5.7
v -13.2 0.2 -5.7
v -13.1 0.2 -5.7
v -13.5 0.2 -5.8
v -13.4 0.2 -5.8
v -13.1 0.2 -5.8
v -13 0.2 -5.8
v -13.5 0.2 -5.9
v -13.4 0.2 -5.9
v -13.1 0.2 -5.9
v -13 0.2 -5.9
v -13.4 0.2 -6
v -13.3 0.2 -6
v -13.2 0.2 -6
v -13.1 0.2 -6
v -13.3 0.2 -6.2
v -13.2 0.2 -6.2
v -13.7 0.2 -6.4
v -13.6 0.2 -6.4
v -13.7 0.2 -6.5
v -13.6 0.2 -6.5
v -13.7 0.2 -6.6
v -13.6 0.2 -6.6
v -13.7 0.2 -6.7
v -13.6 0.2 -6.7
v -13.8 0.2 -6.8
v -12.7 0.2 -6.8

# faces
f 3/1/1 2/1/1 1/1/1
f 4/1/1 2/1/1 3/1/1
f 5/3/1 4/3/1 3/3/1
f 6/3/1 4/3/1 5/3/1
f 7/1/2 8/1/2 9/1/2
f 9/1/2 8/1/2 10/1/2
f 9/3/2 10/3/2 11/3/2
f 11/3/2 10/3/2 12/3/2
f 16/1/3 14/1/3 13/1/3
f 17/3/3 15/3/3 14/3/3
f 17/1/3 14/1/3 16/1/3
f 18/3/3 15/3/3 17/3/3
f 19/1/4 20/1/4 22/1/4
f 20/3/4 21/3/4 23/3/4
f 22/1/4 20/1/4 23/1/4
f 23/3/4 21/3/4 24/3/4
f 27/1/5 26/1/5 25/1/5
f 28/1/5 26/1/5 27/1/5
f 29/1/5 26/1/5 28/1/5
f 30/1/5 26/1/5 29/1/5
f 31/1/5 26/1/5 30/1/5
f 32/1/5 26/1/5 31/1/5
f 33/1/5 26/1/5 32/1/5
f 34/1/5 26/1/5 33/1/5
f 35/1/5 26/1/5 34/1/5
f 36/1/5 26/1/5 35/1/5
f 37/1/5 27/1/5 25/1/5
f 37/2/5 28/2/5 27/2/5
f 38/3/5 29/3/5 28/3/5
f 38/2/5 28/2/5 37/2/5
f 39/2/5 30/2/5 29/2/5
f 39/3/5 29/3/5 38/3/5
f 40/1/5 31/1/5 30/1/5
f 40/2/5 30/2/5 39/2/5
f 41/1/5 33/1/5 32/1/5
f 41/2/5 34/2/5 33/2/5
f 42/3/5 35/3/5 34/3/5
f 42/2/5 34/2/5 41/2/5
f 43/2/5 36/2/5 35/2/5
f 43/3/5 35/3/5 42/3/5
f 44/1/5 26/1/5 36/1/5
f 44/2/5 36/2/5 43/2/5
f 45/1/5 37/1/5 25/1/5
f 45/3/5 38/3/5 37/3/5
f 46/2/5 39/2/5 38/2/5
f 46/3/5 38/3/5 45/3/5
f 47/1/5 40/1/5 39/1/5
f 47/2/5 39/2/5 46/2/5
f 48/1/5 31/1/5 40/1/5
f 48/1/5 40/1/5 47/1/5
f 49/3/5 32/3/5 31/3/5
f 49/1/5 31/1/5 48/1/5
f 50/1/5 42/1/5 41/1/5
f 50/3/5 32/3/5 49/3/5
f 50/1/5 41/1/5 32/1/5
f 51/1/5 42/1/5 50/1/5
f 52/2/5 43/2/5 42/2/5
f 52/1/5 42/1/5 51/1/5
f 53/3/5 44/3/5 43/3/5
f 53/2/5 43/2/5 52/2/5
f 54/1/5 26/1/5 44/1/5
f 54/3/5 44/3/5 53/3/5
f 55/1/5 45/1/5 25/1/5
f 55/2/5 46/2/5 45/2/5
f 56/1/5 47/1/5 46/1/5
f 56/2/5 46/2/5 55/2/5
f 57/3/5 48/3/5 47/3/5
f 57/1/5 47/1/5 56/1/5
f 58/2/5 49/2/5 48/2/5
f 58/3/5 48/3/5 57/3/5
f 59/1/5 50/1/5 49/1/5
f 59/2/5 49/2/5 58/2/5
f 60/2/5 51/2/5 50/2/5
f 60/1/5 50/1/5 59/1/5
f 61/3/5 52/3/5 51/3/5
f 61/2/5 51/2/5 60/2/5
f 62/1/5 53/1/5 52/1/5
f 62/3/5 52/3/5 61/3/5
f 63/2/5 54/2/5 53/2/5
f 63/1/5 53/1/5 62/1/5
f 64/1/5 26/1/5 54/1/5
f 64/2/5 54/2/5 63/2/5
f 65/1/5 56/1/5 55/1/5
f 65/1/5 55/1/5 25/1/5
f 66/3/5 57/3/5 56/3/5
f 66/1/5 56/1/5 65/1/5
f 67/1/5 58/1/5 57/1/5
f 67/3/5 57/3/5 66/3/5
f 68/3/5 59/3/5 58/3/5
f 68/1/5 58/1/5 67/1/5
f 69/3/5 61/3/5 60/3/5
f 69/1/5 62/1/5 61/1/5
f 70/3/5 63/3/5 62/3/5
f 70/1/5 62/1/5 69/1/5
f 71/1/5 64/1/5 63/1/5
f 71/3/5 63/3/5 70/3/5
f 72/1/5 26/1/5 64/1/5
f 72/1/5 64/1/5 71/1/5
f 73/1/5 67/1/5 66/1/5
f 73/2/5 66/2/5 65/2/5
f 74/2/5 68/2/5 67/2/5
f 74/1/5 67/1/5 73/1/5
f 75/3/5 59/3/5 68/3/5
f 75/2/5 68/2/5 74/2/5
f 76/1/5 60/1/5 59/1/5
f 76/3/5 59/3/5 75/3/5
f 77/3/5 69/3/5 60/3/5
f 77/1/5 60/1/5 76/1/5
f 78/2/5 70/2/5 69/2/5
f 78/3/5 69/3/5 77/3/5
f 79/1/5 71/1/5 70/1/5
f 79/2/5 70/2/5 78/2/5
f 80/2/5 72/2/5 71/2/5
f 80/1/5 71/1/5 79/1/5
f 81/1/5 65/1/5 25/1/5
f 81/2/5 73/2/5 65/2/5
f 82/3/5 74/3/5 73/3/5
f 82/2/5 73/2/5 81/2/5
f 83/2/5 75/2/5 74/2/5
f 83/3/5 74/3/5 82/3/5
f 84/1/5 76/1/5 75/1/5
f 84/2/5 75/2/5 83/2/5
f 85/1/5 78/1/5 77/1/5
f 85/2/5 79/2/5 78/2/5
f 86/3/5 80/3/5 79/3/5
f 86/2/5 79/2/5 85/2/5
f 87/2/5 72/2/5 80/2/5
f 87/3/5 80/3/5 86/3/5
f 88/1/5 26/1/5 72/1/5
f 88/2/5 72/2/5 87/2/5
f 89/3/5 82/3/5 81/3/5
f 89/1/5 83/1/5 82/1/5
f 90/3/5 84/3/5 83/3/5
f 90/1/5 83/1/5 89/1/5
f 91/1/5 76/1/5 84/1/5
f 91/3/5 84/3/5 90/3/5
f 92/2/5 77/2/5 76/2/5
f 92/1/5 76/1/5 91/1/5
f 93/1/5 85/1/5 77/1/5
f 93/2/5 77/2/5 92/2/5
f 94/3/5 86/3/5 85/3/5
f 94/1/5 85/1/5 93/1/5
f 95/1/5 87/1/5 86/1/5
f 95/3/5 86/3/5 94/3/5
f 96/3/5 88/3/5 87/3/5
f 96/1/5 87/1/5 95/1/5
f 97/1/5 81/1/5 25/1/5
f 97/3/5 89/3/5 81/3/5
f 98/2/5 90/2/5 89/2/5
f 98/3/5 89/3/5 97/3/5
f 99/1/5 91/1/5 90/1/5
f 99/2/5 90/2/5 98/2/5
f 100/2/5 92/2/5 91/2/5
f 100/1/5 91/1/5 99/1/5
f 101/3/5 93/3/5 92/3/5
f 101/2/5 92/2/5 100/2/5
f 102/2/5 94/2/5 93/2/5
f 102/3/5 93/3/5 101/3/5
f 103/1/5 95/1/5 94/1/5
f 103/2/5 94/2/5 102/2/5
f 104/2/5 96/2/5 95/2/5
f 104/1/5 95/1/5 103/1/5
f 105/3/5 88/3/5 96/3/5
f 105/2/5 96/2/5 104/2/5
f 106/1/5 26/1/5 88/1/5
f 106/3/5 88/3/5 105/3/5
f 107/1/5 97/1/5 25/1/5
f 107/2/5 98/2/5 97/2/5
f 108/3/5 99/3/5 98/3/5
f 108/2/5 98/2/5 107/2/5
f 109/2/5 100/2/5 99/2/5
f 109/3/5 99/3/5 108/3/5
f 110/3/5 101/3/5 100/3/5
f 110/2/5 100/2/5 109/2/5
f 111/2/5 102/2/5 101/2/5
f 111/3/5 101/3/5 110/3/5
f 112/3/5 103/3/5 102/3/5
f 112/2/5 102/2/5 111/2/5
f 113/2/5 104/2/5 103/2/5
f 113/3/5 103/3/5 112/3/5
f 114/3/5 105/3/5 104/3/5
f 114/2/5 104/2/5 113/2/5
f 115/2/5 106/2/5 105/2/5
f 115/3/5 105/3/5 114/3/5
f 116/1/5 26/1/5 106/1/5
f 116/2/5 106/2/5 115/2/5
f 117/2/5 109/2/5 108/2/5
f 117/3/5 108/3/5 107/3/5
f 118/1/5 110/1/5 109/1/5
f 118/2/5 109/2/5 117/2/5
f 119/2/5 111/2/5 110/2/5
f 119/1/5 110/1/5 118/1/5
f 120/3/5 112/3/5 111/3/5
f 120/2/5 111/2/5 119/2/5
f 121/2/5 113/2/5 112/2/5
f 121/3/5 112/3/5 120/3/5
f 122/1/5 114/1/5 113/1/5
f 122/2/5 113/2/5 121/2/5
f 123/2/5 115/2/5 114/2/5
f 123/1/5 114/1/5 122/1/5
f 124/3/5 116/3/5 115/3/5
f 124/2/5 115/2/5 123/2/5
f 125/3/5 117/3/5 107/3/5
f 125/1/5 107/1/5 25/1/5
f 126/1/5 118/1/5 117/1/5
f 126/3/5 117/3/5 125/3/5
f 127/3/5 119/3/5 118/3/5
f 127/1/5 118/1/5 126/1/5
f 128/1/5 120/1/5 119/1/5
f 128/3/5 119/3/5 127/3/5
f 129/3/5 123/3/5 122/3/5
f 129/1/5 122/1/5 121/1/5
f 130/1/5 124/1/5 123/1/5
f 130/3/5 123/3/5 129/3/5
f 131/3/5 116/3/5 124/3/5
f 131/1/5 124/1/5 130/1/5
f 132/1/5 26/1/5 116/1/5
f 132/3/5 116/3/5 131/3/5
f 133/2/5 126/2/5 125/2/5
f 133/3/5 127/3/5 126/3/5
f 134/2/5 128/2/5 127/2/5
f 134/3/5 127/3/5 133/3/5
f 135/1/5 120/1/5 128/1/5
f 135/2/5 128/2/5 134/2/5
f 136/2/5 121/2/5 120/2/5
f 136/1/5 120/1/5 135/1/5
f 137/1/5 129/1/5 121/1/5
f 137/2/5 121/2/5 136/2/5
f 138/2/5 130/2/5 129/2/5
f 138/1/5 129/1/5 137/1/5
f 139/3/5 131/3/5 130/3/5
f 139/2/5 130/2/5 138/2/5
f 140/2/5 132/2/5 131/2/5
f 140/3/5 131/3/5 139/3/5
f 141/2/5 133/2/5 125/2/5
f 141/1/5 125/1/5 25/1/5
f 142/1/5 134/1/5 133/1/5
f 142/2/5 133/2/5 141/2/5
f 143/2/5 135/2/5 134/2/5
f 143/1/5 134/1/5 142/1/5
f 144/3/5 136/3/5 135/3/5
f 144/2/5 135/2/5 143/2/5
f 145/3/5 138/3/5 137/3/5
f 145/2/5 139/2/5 138/2/5
f 146/1/5 140/1/5 139/1/5
f 146/2/5 139/2/5 145/2/5
f 147/2/5 132/2/5 140/2/5
f 147/1/5 140/1/5 146/1/5
f 148/1/5 26/1/5 132/1/5
f 148/2/5 132/2/5 147/2/5
f 149/1/5 141/1/5 25/1/5
f 149/1/5 142/1/5 141/1/5
f 150/3/5 143/3/5 142/3/5
f 150/1/5 142/1/5 149/1/5
f 151/1/5 144/1/5 143/1/5
f 151/3/5 143/3/5 150/3/5
f 152/3/5 136/3/5 144/3/5
f 152/1/5 144/1/5 151/1/5
f 153/1/5 137/1/5 136/1/5
f 153/3/5 136/3/5 152/3/5
f 154/3/5 145/3/5 137/3/5
f 154/1/5 137/1/5 153/1/5
f 155/1/5 146/1/5 145/1/5
f 155/3/5 145/3/5 154/3/5
f 156/3/5 147/3/5 146/3/5
f 156/1/5 146/1/5 155/1/5
f 157/1/5 148/1/5 147/1/5
f 157/3/5 147/3/5 156/3/5
f 158/1/5 26/1/5 148/1/5
f 158/1/5 148/1/5 157/1/5
f 159/2/5 150/2/5 149/2/5
f 159/1/5 149/1/5 25/1/5
f 160/1/5 151/1/5 150/1/5
f 160/2/5 150/2/5 159/2/5
f 161/3/5 152/3/5 151/3/5
f 161/1/5 151/1/5 160/1/5
f 162/2/5 153/2/5 152/2/5
f 162/3/5 152/3/5 161/3/5
f 163/1/5 154/1/5 153/1/5
f 163/2/5 153/2/5 162/2/5
f 164/2/5 155/2/5 154/2/5
f 164/1/5 154/1/5 163/1/5
f 165/3/5 156/3/5 155/3/5
f 165/2/5 155/2/5 164/2/5
f 166/1/5 157/1/5 156/1/5
f 166/3/5 156/3/5 165/3/5
f 167/2/5 158/2/5 157/2/5
f 167/1/5 157/1/5 166/1/5
f 168/1/5 26/1/5 158/1/5
f 168/2/5 158/2/5 167/2/5
f 169/1/5 159/1/5 25/1/5
f 169/3/5 160/3/5 159/3/5
f 170/2/5 161/2/5 160/2/5
f 170/3/5 160/3/5 169/3/5
f 171/1/5 163/1/5 162/1/5
f 171/2/5 161/2/5 170/2/5
f 171/1/5 162/1/5 161/1/5
f 172/1/5 163/1/5 171/1/5
f 173/1/5 165/1/5 164/1/5
f 173/1/5 166/1/5 165/1/5
f 174/2/5 167/2/5 166/2/5
f 174/1/5 166/1/5 173/1/5
f 175/3/5 168/3/5 167/3/5
f 175/2/5 167/2/5 174/2/5
f 176/1/5 26/1/5 168/1/5
f 176/3/5 168/3/5 175/3/5
f 177/2/5 170/2/5 169/2/5
f 177/1/5 169/1/5 25/1/5
f 178/3/5 171/3/5 170/3/5
f 178/2/5 170/2/5 177/2/5
f 179/2/5 172/2/5 171/2/5
f 179/3/5 171/3/5 178/3/5
f 180/1/5 163/1/5 172/1/5
f 180/2/5 172/2/5 179/2/5
f 181/3/5 164/3/5 163/3/5
f 181/1/5 163/1/5 180/1/5
f 182/1/5 173/1/5 164/1/5
f 182/3/5 164/3/5 181/3/5
f 183/2/5 174/2/5 173/2/5
f 183/1/5 173/1/5 182/1/5
f 184/3/5 175/3/5 174/3/5
f 184/2/5 174/2/5 183/2/5
f 185/2/5 176/2/5 175/2/5
f 185/3/5 175/3/5 184/3/5
f 186/1/5 26/1/5 176/1/5
f 186/2/5 176/2/5 185/2/5
f 187/1/5 183/1/5 182/1/5
f 187/1/5 179/1/5 178/1/5
f 187/1/5 186/1/5 185/1/5
f 187/1/5 177/1/5 25/1/5
f 187/1/5 178/1/5 177/1/5
f 187/1/5 180/1/5 179/1/5
f 187/1/5 184/1/5 183/1/5
f 187/1/5 182/1/5 181/1/5
f 187/1/5 181/1/5 180/1/5
f 187/1/5 185/1/5 184/1/5
f 188/1/5 26/1/5 186/1/5
f 188/1/5 186/1/5 187/1/5
f 189/3/6 190/3/6 191/3/6
f 191/3/6 190/3/6 192/3/6
f 189/3/6 191/3/6 193/3/6
f 191/1/6 192/1/6 193/1/6
f 192/3/6 190/3/6 194/3/6
f 193/1/6 192/1/6 194/1/6
f 189/3/6 193/3/6 195/3/6
f 193/3/6 194/3/6 195/3/6
f 194/3/6 190/3/6 196/3/6
f 195/3/6 194/3/6 196/3/6
f 189/3/6 195/3/6 197/3/6
f 195/1/6 196/1/6 197/1/6
f 196/3/6 190/3/6 198/3/6
f 197/1/6 196/1/6 198/1/6
f 189/3/6 197/3/6 199/3/6
f 197/3/6 198/3/6 199/3/6
f 199/3/6 198/3/6 200/3/6
f 189/3/6 199/3/6 201/3/6
f 199/1/6 200/1/6 202/1/6
f 201/3/6 199/3/6 202/3/6
f 200/3/6 198/3/6 203/3/6
f 202/1/6 200/1/6 203/1/6
f 203/3/6 198/3/6 204/3/6
f 189/3/6 201/3/6 205/3/6
f 201/1/6 202/1/6 206/1/6
f 205/3/6 201/3/6 206/3/6
f 202/1/6 203/1/6 206/1/6
f 203/1/6 204/1/6 206/1/6
f 204/3/6 198/3/6 207/3/6
f 206/1/6 204/1/6 207/1/6
f 207/3/6 198/3/6 208/3/6
f 189/3/6 205/3/6 209/3/6
f 205/1/6 206/1/6 209/1/6
f 207/1/6 208/1/6 209/1/6
f 206/1/6 207/1/6 209/1/6
f 209/1/6 208/1/6 210/1/6
f 210/1/6 208/1/6 211/1/6
f 208/3/6 198/3/6 212/3/6
f 211/1/6 208/1/6 212/1/6
f 210/1/6 211/1/6 213/1/6
f 209/3/6 210/3/6 213/3/6
f 213/1/6 211/1/6 214/1/6
f 214/1/6 211/1/6 215/1/6
f 211/3/6 212/3/6 216/3/6
f 215/1/6 211/1/6 216/1/6
f 214/1/6 215/1/6 217/1/6
f 213/3/6 214/3/6 217/3/6
f 215/3/6 216/3/6 218/3/6
f 217/1/6 215/1/6 218/1/6
f 189/3/6 209/3/6 219/3/6
f 209/3/6 213/3/6 219/3/6
f 217/3/6 218/3/6 219/3/6
f 213/3/6 217/3/6 219/3/6
f 219/3/6 218/3/6 220/3/6
f 189/3/6 219/3/6 221/3/6
f 219/1/6 220/1/6 221/1/6
f 220/3/6 218/3/6 222/3/6
f 221/1/6 220/1/6 222/1/6
f 189/3/6 221/3/6 223/3/6
f 221/3/6 222/3/6 223/3/6
f 222/3/6 218/3/6 224/3/6
f 223/3/6 222/3/6 224/3/6
f 189/3/6 223/3/6 225/3/6
f 223/1/6 224/1/6 225/1/6
f 224/3/6 218/3/6 226/3/6
f 225/1/6 224/1/6 226/1/6
f 189/3/6 225/3/6 227/3/6
f 225/3/6 226/3/6 227/3/6
f 198/3/6 190/3/6 228/3/6
f 227/3/6 226/3/6 228/3/6
f 212/3/6 198/3/6 228/3/6
f 226/3/6 218/3/6 228/3/6
f 216/3/6 212/3/6 228/3/6
f 218/3/6 216/3/6 228/3/6
