# MagicaVoxel @ Ephtracy

# group
o 

# material
mtllib Voxel Universe Objects-24.mtl
usemtl palette

# normals
vn 0 0 1
vn 0 0 -1
vn 1 0 0
vn -1 0 0
vn 0 -1 0
vn 0 1 0

# texcoords
vt 0.279297 0.5
vt 0.939453 0.5
vt 0.994141 0.5

# verts
v -13.7 0 1.8
v -13.9 0 1.8
v -14 0 1.8
v -14.1 0 1.8
v -14.9 0 1.8
v -15 0 1.8
v -15.1 0 1.8
v -15.2 0 1.8
v -13.7 0.3 1.8
v -13.9 0.3 1.8
v -14 0.3 1.8
v -14.1 0.3 1.8
v -14.9 0.3 1.8
v -15 0.3 1.8
v -15.1 0.3 1.8
v -15.2 0.3 1.8
v -13.6 0.1 1.7
v -13.7 0.1 1.7
v -13.6 0.2 1.7
v -13.7 0.2 1.7
v -13.6 0.1 1.6
v -13.7 0.1 1.6
v -13.6 0.2 1.6
v -13.7 0.2 1.6
v -13.7 0 1.5
v -13.9 0 1.5
v -14 0 1.5
v -14.1 0 1.5
v -14.9 0 1.5
v -15 0 1.5
v -15.1 0 1.5
v -15.2 0 1.5
v -13.7 0.3 1.5
v -13.9 0.3 1.5
v -14 0.3 1.5
v -14.1 0.3 1.5
v -14.9 0.3 1.5
v -15 0.3 1.5
v -15.1 0.3 1.5
v -15.2 0.3 1.5
v -13.6 0.1 1.7
v -13.6 0.2 1.7
v -13.6 0.1 1.6
v -13.6 0.2 1.6
v -13.7 0 1.8
v -13.7 0.3 1.8
v -13.7 0.1 1.7
v -13.7 0.2 1.7
v -13.7 0.1 1.6
v -13.7 0.2 1.6
v -13.7 0 1.5
v -13.7 0.3 1.5
v -15.2 0 1.8
v -15.2 0.3 1.8
v -15.2 0 1.5
v -15.2 0.3 1.5
v -13.7 0 1.8
v -13.7 0 1.5
v -13.9 0 1.8
v -13.9 0 1.5
v -14 0 1.8
v -14 0 1.5
v -14.1 0 1.8
v -14.1 0 1.5
v -14.9 0 1.8
v -14.9 0 1.5
v -15 0 1.8
v -15 0 1.5
v -15.1 0 1.8
v -15.1 0 1.5
v -15.2 0 1.8
v -15.2 0 1.5
v -13.6 0.1 1.7
v -13.6 0.1 1.6
v -13.7 0.1 1.7
v -13.7 0.1 1.6
v -13.6 0.2 1.7
v -13.6 0.2 1.6
v -13.7 0.2 1.7
v -13.7 0.2 1.6
v -13.7 0.3 1.8
v -13.7 0.3 1.5
v -13.9 0.3 1.8
v -13.9 0.3 1.5
v -14 0.3 1.8
v -14 0.3 1.5
v -14.1 0.3 1.8
v -14.1 0.3 1.5
v -14.2 0.3 1.7
v -14.2 0.3 1.6
v -14.8 0.3 1.7
v -14.8 0.3 1.6
v -14.9 0.3 1.8
v -14.9 0.3 1.5
v -15 0.3 1.8
v -15 0.3 1.5
v -15.1 0.3 1.8
v -15.1 0.3 1.5
v -15.2 0.3 1.8
v -15.2 0.3 1.5

# faces
f 9/1/1 2/1/1 1/1/1
f 10/2/1 3/2/1 2/2/1
f 10/1/1 2/1/1 9/1/1
f 11/3/1 4/3/1 3/3/1
f 11/2/1 3/2/1 10/2/1
f 12/2/1 5/2/1 4/2/1
f 12/3/1 4/3/1 11/3/1
f 13/3/1 6/3/1 5/3/1
f 13/2/1 5/2/1 12/2/1
f 14/2/1 7/2/1 6/2/1
f 14/3/1 6/3/1 13/3/1
f 15/1/1 8/1/1 7/1/1
f 15/2/1 7/2/1 14/2/1
f 16/1/1 8/1/1 15/1/1
f 19/1/1 18/1/1 17/1/1
f 20/1/1 18/1/1 19/1/1
f 21/1/2 22/1/2 23/1/2
f 23/1/2 22/1/2 24/1/2
f 25/1/2 26/1/2 33/1/2
f 26/2/2 27/2/2 34/2/2
f 33/1/2 26/1/2 34/1/2
f 27/3/2 28/3/2 35/3/2
f 34/2/2 27/2/2 35/2/2
f 28/2/2 29/2/2 36/2/2
f 35/3/2 28/3/2 36/3/2
f 29/3/2 30/3/2 37/3/2
f 36/2/2 29/2/2 37/2/2
f 30/2/2 31/2/2 38/2/2
f 37/3/2 30/3/2 38/3/2
f 31/1/2 32/1/2 39/1/2
f 38/2/2 31/2/2 39/2/2
f 39/1/2 32/1/2 40/1/2
f 43/1/3 42/1/3 41/1/3
f 44/1/3 42/1/3 43/1/3
f 47/1/3 46/1/3 45/1/3
f 48/1/3 46/1/3 47/1/3
f 49/1/3 47/1/3 45/1/3
f 50/1/3 46/1/3 48/1/3
f 51/1/3 49/1/3 45/1/3
f 51/1/3 50/1/3 49/1/3
f 52/1/3 46/1/3 50/1/3
f 52/1/3 50/1/3 51/1/3
f 53/1/4 54/1/4 55/1/4
f 55/1/4 54/1/4 56/1/4
f 59/1/5 58/1/5 57/1/5
f 60/1/5 58/1/5 59/1/5
f 61/2/5 60/2/5 59/2/5
f 62/2/5 60/2/5 61/2/5
f 63/3/5 62/3/5 61/3/5
f 64/3/5 62/3/5 63/3/5
f 65/2/5 64/2/5 63/2/5
f 66/2/5 64/2/5 65/2/5
f 67/3/5 66/3/5 65/3/5
f 68/3/5 66/3/5 67/3/5
f 69/2/5 68/2/5 67/2/5
f 70/2/5 68/2/5 69/2/5
f 71/1/5 70/1/5 69/1/5
f 72/1/5 70/1/5 71/1/5
f 75/1/5 74/1/5 73/1/5
f 76/1/5 74/1/5 75/1/5
f 77/1/6 78/1/6 79/1/6
f 79/1/6 78/1/6 80/1/6
f 81/1/6 82/1/6 83/1/6
f 83/1/6 82/1/6 84/1/6
f 83/2/6 84/2/6 85/2/6
f 85/2/6 84/2/6 86/2/6
f 85/3/6 86/3/6 87/3/6
f 87/3/6 86/3/6 88/3/6
f 87/2/6 88/2/6 89/2/6
f 89/2/6 88/2/6 90/2/6
f 87/2/6 89/2/6 91/2/6
f 89/3/6 90/3/6 91/3/6
f 90/2/6 88/2/6 92/2/6
f 91/3/6 90/3/6 92/3/6
f 87/2/6 91/2/6 93/2/6
f 91/2/6 92/2/6 93/2/6
f 92/2/6 88/2/6 94/2/6
f 93/2/6 92/2/6 94/2/6
f 93/3/6 94/3/6 95/3/6
f 95/3/6 94/3/6 96/3/6
f 95/2/6 96/2/6 97/2/6
f 97/2/6 96/2/6 98/2/6
f 97/1/6 98/1/6 99/1/6
f 99/1/6 98/1/6 100/1/6
