# MagicaVoxel @ Ephtracy

# group
o Glasses

# material
mtllib Voxel Universe-36-Glasses.mtl
usemtl palette

# normals
vn -1 0 0
vn 1 0 0
vn 0 0 1
vn 0 0 -1
vn 0 -1 0
vn 0 1 0

# texcoords
vt 0.0917969 0.5
vt 0.138672 0.5
vt 0.916016 0.5
vt 0.974609 0.5

# verts
v 4.4 0 9.7
v 4.4 0 9.3
v 4.4 0 8.9
v 4.4 0 8.5
v 4.4 0.1 9.8
v 4.4 0.1 9.7
v 4.4 0.1 9.4
v 4.4 0.1 9.3
v 4.4 0.1 9.2
v 4.4 0.1 9
v 4.4 0.1 8.9
v 4.4 0.1 8.6
v 4.4 0.1 8.5
v 4.4 0.1 8.4
v 4.4 0.2 9.5
v 4.4 0.2 9.4
v 4.4 0.2 8.7
v 4.4 0.2 8.6
v 4.4 0.3 9.9
v 4.4 0.3 9.8
v 4.4 0.3 9.2
v 4.4 0.3 9
v 4.4 0.3 8.4
v 4.4 0.3 8.3
v 4.4 0.4 9.7
v 4.4 0.4 9.5
v 4.4 0.4 9.3
v 4.4 0.4 8.9
v 4.4 0.4 8.7
v 4.4 0.4 8.5
v 4.4 0.5 9.9
v 4.4 0.5 8.3
v 5.1 0.2 9.9
v 5.1 0.2 9.8
v 5.1 0.2 8.4
v 5.1 0.2 8.3
v 5.1 0.3 9.9
v 5.1 0.3 9.8
v 5.1 0.3 8.4
v 5.1 0.3 8.3
v 4.5 0 9.7
v 4.5 0 9.3
v 4.5 0 8.9
v 4.5 0 8.5
v 4.5 0.1 9.8
v 4.5 0.1 9.7
v 4.5 0.1 9.4
v 4.5 0.1 9.3
v 4.5 0.1 9.2
v 4.5 0.1 9
v 4.5 0.1 8.9
v 4.5 0.1 8.6
v 4.5 0.1 8.5
v 4.5 0.1 8.4
v 4.5 0.2 9.5
v 4.5 0.2 9.4
v 4.5 0.2 8.7
v 4.5 0.2 8.6
v 4.5 0.3 9.8
v 4.5 0.3 9.2
v 4.5 0.3 9
v 4.5 0.3 8.4
v 4.5 0.4 9.8
v 4.5 0.4 9.7
v 4.5 0.4 9.5
v 4.5 0.4 9.3
v 4.5 0.4 8.9
v 4.5 0.4 8.7
v 4.5 0.4 8.5
v 4.5 0.4 8.4
v 4.5 0.5 9.8
v 4.5 0.5 8.4
v 5 0.4 9.9
v 5 0.4 9.8
v 5 0.4 8.4
v 5 0.4 8.3
v 5 0.5 9.9
v 5 0.5 9.8
v 5 0.5 8.4
v 5 0.5 8.3
v 5.1 0.3 9.9
v 5.1 0.3 9.8
v 5.1 0.3 8.4
v 5.1 0.3 8.3
v 5.1 0.4 9.9
v 5.1 0.4 9.8
v 5.1 0.4 8.4
v 5.1 0.4 8.3
v 5.2 0.2 9.9
v 5.2 0.2 9.8
v 5.2 0.2 8.4
v 5.2 0.2 8.3
v 5.2 0.3 9.9
v 5.2 0.3 9.8
v 5.2 0.3 8.4
v 5.2 0.3 8.3
v 4.4 0.3 9.9
v 4.4 0.5 9.9
v 4.5 0.3 9.9
v 4.5 0.4 9.9
v 4.7 0.3 9.9
v 4.7 0.4 9.9
v 5 0.4 9.9
v 5 0.5 9.9
v 5.1 0.2 9.9
v 5.1 0.3 9.9
v 5.1 0.4 9.9
v 5.2 0.2 9.9
v 5.2 0.3 9.9
v 4.4 0.1 9.8
v 4.4 0.3 9.8
v 4.5 0.1 9.8
v 4.5 0.3 9.8
v 4.4 0 9.7
v 4.4 0.1 9.7
v 4.5 0 9.7
v 4.5 0.1 9.7
v 4.4 0.1 9
v 4.4 0.3 9
v 4.5 0.1 9
v 4.5 0.3 9
v 4.4 0 8.9
v 4.4 0.1 8.9
v 4.5 0 8.9
v 4.5 0.1 8.9
v 4.5 0.3 8.4
v 4.5 0.4 8.4
v 4.5 0.5 8.4
v 4.7 0.3 8.4
v 4.7 0.4 8.4
v 5 0.4 8.4
v 5 0.5 8.4
v 5.1 0.2 8.4
v 5.1 0.3 8.4
v 5.1 0.4 8.4
v 5.2 0.2 8.4
v 5.2 0.3 8.4
v 4.5 0.3 9.8
v 4.5 0.4 9.8
v 4.5 0.5 9.8
v 4.7 0.3 9.8
v 4.7 0.4 9.8
v 5 0.4 9.8
v 5 0.5 9.8
v 5.1 0.2 9.8
v 5.1 0.3 9.8
v 5.1 0.4 9.8
v 5.2 0.2 9.8
v 5.2 0.3 9.8
v 4.4 0 9.3
v 4.4 0.1 9.3
v 4.5 0 9.3
v 4.5 0.1 9.3
v 4.4 0.1 9.2
v 4.4 0.3 9.2
v 4.5 0.1 9.2
v 4.5 0.3 9.2
v 4.4 0 8.5
v 4.4 0.1 8.5
v 4.5 0 8.5
v 4.5 0.1 8.5
v 4.4 0.1 8.4
v 4.4 0.3 8.4
v 4.5 0.1 8.4
v 4.5 0.3 8.4
v 4.4 0.3 8.3
v 4.4 0.5 8.3
v 4.5 0.3 8.3
v 4.5 0.4 8.3
v 4.7 0.3 8.3
v 4.7 0.4 8.3
v 5 0.4 8.3
v 5 0.5 8.3
v 5.1 0.2 8.3
v 5.1 0.3 8.3
v 5.1 0.4 8.3
v 5.2 0.2 8.3
v 5.2 0.3 8.3
v 4.4 0 9.7
v 4.5 0 9.7
v 4.4 0 9.3
v 4.5 0 9.3
v 4.4 0 8.9
v 4.5 0 8.9
v 4.4 0 8.5
v 4.5 0 8.5
v 4.4 0.1 9.8
v 4.5 0.1 9.8
v 4.4 0.1 9.7
v 4.5 0.1 9.7
v 4.4 0.1 9.3
v 4.5 0.1 9.3
v 4.4 0.1 9.2
v 4.5 0.1 9.2
v 4.4 0.1 9
v 4.5 0.1 9
v 4.4 0.1 8.9
v 4.5 0.1 8.9
v 4.4 0.1 8.5
v 4.5 0.1 8.5
v 4.4 0.1 8.4
v 4.5 0.1 8.4
v 5.1 0.2 9.9
v 5.2 0.2 9.9
v 5.1 0.2 9.8
v 5.2 0.2 9.8
v 5.1 0.2 8.4
v 5.2 0.2 8.4
v 5.1 0.2 8.3
v 5.2 0.2 8.3
v 4.4 0.3 9.9
v 4.5 0.3 9.9
v 4.7 0.3 9.9
v 5.1 0.3 9.9
v 4.4 0.3 9.8
v 4.5 0.3 9.8
v 4.7 0.3 9.8
v 5.1 0.3 9.8
v 4.4 0.3 9.2
v 4.5 0.3 9.2
v 4.4 0.3 9
v 4.5 0.3 9
v 4.4 0.3 8.4
v 4.5 0.3 8.4
v 4.7 0.3 8.4
v 5.1 0.3 8.4
v 4.4 0.3 8.3
v 4.5 0.3 8.3
v 4.7 0.3 8.3
v 5.1 0.3 8.3
v 5.1 0.3 9.9
v 5.2 0.3 9.9
v 5.1 0.3 9.8
v 5.2 0.3 9.8
v 5.1 0.3 8.4
v 5.2 0.3 8.4
v 5.1 0.3 8.3
v 5.2 0.3 8.3
v 5 0.4 9.9
v 5.1 0.4 9.9
v 5 0.4 9.8
v 5.1 0.4 9.8
v 5 0.4 8.4
v 5.1 0.4 8.4
v 5 0.4 8.3
v 5.1 0.4 8.3
v 4.4 0.5 9.9
v 5 0.5 9.9
v 4.5 0.5 9.8
v 5 0.5 9.8
v 4.5 0.5 8.4
v 5 0.5 8.4
v 4.4 0.5 8.3
v 5 0.5 8.3

# faces
f 6/3/1 2/3/1 1/3/1
f 7/3/1 2/3/1 6/3/1
f 8/3/1 2/3/1 7/3/1
f 11/3/1 4/3/1 3/3/1
f 12/3/1 4/3/1 11/3/1
f 13/3/1 4/3/1 12/3/1
f 15/2/1 7/2/1 6/2/1
f 16/1/1 8/1/1 7/1/1
f 16/2/1 7/2/1 15/2/1
f 17/2/1 12/2/1 11/2/1
f 18/1/1 13/1/1 12/1/1
f 18/2/1 12/2/1 17/2/1
f 20/3/1 6/3/1 5/3/1
f 21/3/1 9/3/1 8/3/1
f 22/3/1 11/3/1 10/3/1
f 23/3/1 14/3/1 13/3/1
f 25/3/1 20/3/1 19/3/1
f 25/2/1 15/2/1 6/2/1
f 25/3/1 6/3/1 20/3/1
f 26/1/1 16/1/1 15/1/1
f 26/2/1 15/2/1 25/2/1
f 27/3/1 22/3/1 21/3/1
f 27/1/1 16/1/1 26/1/1
f 27/3/1 21/3/1 8/3/1
f 27/1/1 8/1/1 16/1/1
f 28/3/1 11/3/1 22/3/1
f 28/3/1 22/3/1 27/3/1
f 28/2/1 17/2/1 11/2/1
f 29/1/1 18/1/1 17/1/1
f 29/2/1 17/2/1 28/2/1
f 30/3/1 24/3/1 23/3/1
f 30/1/1 18/1/1 29/1/1
f 30/1/1 13/1/1 18/1/1
f 30/3/1 23/3/1 13/3/1
f 31/3/1 29/3/1 28/3/1
f 31/3/1 28/3/1 27/3/1
f 31/3/1 30/3/1 29/3/1
f 31/3/1 26/3/1 25/3/1
f 31/3/1 27/3/1 26/3/1
f 31/3/1 25/3/1 19/3/1
f 32/3/1 24/3/1 30/3/1
f 32/3/1 30/3/1 31/3/1
f 37/3/1 34/3/1 33/3/1
f 38/3/1 34/3/1 37/3/1
f 39/3/1 36/3/1 35/3/1
f 40/3/1 36/3/1 39/3/1
f 41/3/2 42/3/2 46/3/2
f 46/3/2 42/3/2 47/3/2
f 47/3/2 42/3/2 48/3/2
f 43/3/2 44/3/2 51/3/2
f 51/3/2 44/3/2 52/3/2
f 52/3/2 44/3/2 53/3/2
f 46/2/2 47/2/2 55/2/2
f 47/1/2 48/1/2 56/1/2
f 55/2/2 47/2/2 56/2/2
f 51/2/2 52/2/2 57/2/2
f 52/1/2 53/1/2 58/1/2
f 57/2/2 52/2/2 58/2/2
f 45/3/2 46/3/2 59/3/2
f 48/3/2 49/3/2 60/3/2
f 50/3/2 51/3/2 61/3/2
f 53/3/2 54/3/2 62/3/2
f 59/3/2 46/3/2 63/3/2
f 46/2/2 55/2/2 64/2/2
f 63/3/2 46/3/2 64/3/2
f 55/1/2 56/1/2 65/1/2
f 64/2/2 55/2/2 65/2/2
f 60/3/2 61/3/2 66/3/2
f 65/1/2 56/1/2 66/1/2
f 48/3/2 60/3/2 66/3/2
f 56/1/2 48/1/2 66/1/2
f 61/3/2 51/3/2 67/3/2
f 66/3/2 61/3/2 67/3/2
f 51/2/2 57/2/2 67/2/2
f 57/1/2 58/1/2 68/1/2
f 67/2/2 57/2/2 68/2/2
f 58/1/2 53/1/2 69/1/2
f 68/1/2 58/1/2 69/1/2
f 53/3/2 62/3/2 69/3/2
f 69/3/2 62/3/2 70/3/2
f 67/3/2 68/3/2 71/3/2
f 64/3/2 65/3/2 71/3/2
f 69/3/2 70/3/2 71/3/2
f 68/3/2 69/3/2 71/3/2
f 66/3/2 67/3/2 71/3/2
f 63/3/2 64/3/2 71/3/2
f 65/3/2 66/3/2 71/3/2
f 71/3/2 70/3/2 72/3/2
f 73/3/2 74/3/2 77/3/2
f 77/3/2 74/3/2 78/3/2
f 75/3/2 76/3/2 79/3/2
f 79/3/2 76/3/2 80/3/2
f 81/3/2 82/3/2 85/3/2
f 85/3/2 82/3/2 86/3/2
f 83/3/2 84/3/2 87/3/2
f 87/3/2 84/3/2 88/3/2
f 89/3/2 90/3/2 93/3/2
f 93/3/2 90/3/2 94/3/2
f 91/3/2 92/3/2 95/3/2
f 95/3/2 92/3/2 96/3/2
f 99/3/3 98/3/3 97/3/3
f 100/3/3 98/3/3 99/3/3
f 101/4/3 100/4/3 99/4/3
f 102/3/3 98/3/3 100/3/3
f 102/4/3 100/4/3 101/4/3
f 103/3/3 102/3/3 101/3/3
f 103/3/3 98/3/3 102/3/3
f 104/3/3 98/3/3 103/3/3
f 106/3/3 103/3/3 101/3/3
f 107/3/3 103/3/3 106/3/3
f 108/3/3 106/3/3 105/3/3
f 109/3/3 106/3/3 108/3/3
f 112/3/3 111/3/3 110/3/3
f 113/3/3 111/3/3 112/3/3
f 116/3/3 115/3/3 114/3/3
f 117/3/3 115/3/3 116/3/3
f 120/3/3 119/3/3 118/3/3
f 121/3/3 119/3/3 120/3/3
f 124/3/3 123/3/3 122/3/3
f 125/3/3 123/3/3 124/3/3
f 129/4/3 127/4/3 126/4/3
f 130/3/3 128/3/3 127/3/3
f 130/4/3 127/4/3 129/4/3
f 131/3/3 130/3/3 129/3/3
f 131/3/3 128/3/3 130/3/3
f 132/3/3 128/3/3 131/3/3
f 134/3/3 131/3/3 129/3/3
f 135/3/3 131/3/3 134/3/3
f 136/3/3 134/3/3 133/3/3
f 137/3/3 134/3/3 136/3/3
f 138/4/4 139/4/4 141/4/4
f 139/3/4 140/3/4 142/3/4
f 141/4/4 139/4/4 142/4/4
f 141/3/4 142/3/4 143/3/4
f 142/3/4 140/3/4 143/3/4
f 143/3/4 140/3/4 144/3/4
f 141/3/4 143/3/4 146/3/4
f 146/3/4 143/3/4 147/3/4
f 145/3/4 146/3/4 148/3/4
f 148/3/4 146/3/4 149/3/4
f 150/3/4 151/3/4 152/3/4
f 152/3/4 151/3/4 153/3/4
f 154/3/4 155/3/4 156/3/4
f 156/3/4 155/3/4 157/3/4
f 158/3/4 159/3/4 160/3/4
f 160/3/4 159/3/4 161/3/4
f 162/3/4 163/3/4 164/3/4
f 164/3/4 163/3/4 165/3/4
f 166/3/4 167/3/4 168/3/4
f 168/3/4 167/3/4 169/3/4
f 168/4/4 169/4/4 170/4/4
f 169/3/4 167/3/4 171/3/4
f 170/4/4 169/4/4 171/4/4
f 170/3/4 171/3/4 172/3/4
f 171/3/4 167/3/4 172/3/4
f 172/3/4 167/3/4 173/3/4
f 170/3/4 172/3/4 175/3/4
f 175/3/4 172/3/4 176/3/4
f 174/3/4 175/3/4 177/3/4
f 177/3/4 175/3/4 178/3/4
f 181/3/5 180/3/5 179/3/5
f 182/3/5 180/3/5 181/3/5
f 185/3/5 184/3/5 183/3/5
f 186/3/5 184/3/5 185/3/5
f 189/3/5 188/3/5 187/3/5
f 190/3/5 188/3/5 189/3/5
f 193/3/5 192/3/5 191/3/5
f 194/3/5 192/3/5 193/3/5
f 197/3/5 196/3/5 195/3/5
f 198/3/5 196/3/5 197/3/5
f 201/3/5 200/3/5 199/3/5
f 202/3/5 200/3/5 201/3/5
f 205/3/5 204/3/5 203/3/5
f 206/3/5 204/3/5 205/3/5
f 209/3/5 208/3/5 207/3/5
f 210/3/5 208/3/5 209/3/5
f 215/3/5 212/3/5 211/3/5
f 216/4/5 213/4/5 212/4/5
f 216/3/5 212/3/5 215/3/5
f 217/3/5 214/3/5 213/3/5
f 217/4/5 213/4/5 216/4/5
f 218/3/5 214/3/5 217/3/5
f 221/3/5 220/3/5 219/3/5
f 222/3/5 220/3/5 221/3/5
f 227/3/5 224/3/5 223/3/5
f 228/4/5 225/4/5 224/4/5
f 228/3/5 224/3/5 227/3/5
f 229/3/5 226/3/5 225/3/5
f 229/4/5 225/4/5 228/4/5
f 230/3/5 226/3/5 229/3/5
f 231/3/6 232/3/6 233/3/6
f 233/3/6 232/3/6 234/3/6
f 235/3/6 236/3/6 237/3/6
f 237/3/6 236/3/6 238/3/6
f 239/3/6 240/3/6 241/3/6
f 241/3/6 240/3/6 242/3/6
f 243/3/6 244/3/6 245/3/6
f 245/3/6 244/3/6 246/3/6
f 247/3/6 248/3/6 249/3/6
f 249/3/6 248/3/6 250/3/6
f 247/3/6 249/3/6 251/3/6
f 247/3/6 251/3/6 253/3/6
f 251/3/6 252/3/6 253/3/6
f 253/3/6 252/3/6 254/3/6
