# MagicaVoxel @ Ephtracy

# group
o 

# material
mtllib Voxel Universe Objects-54.mtl
usemtl palette

# normals
vn 0 0 1
vn 0 0 -1
vn 1 0 0
vn -1 0 0
vn 0 -1 0
vn 0 1 0

# texcoords
vt 0.916016 0.5
vt 0.939453 0.5
vt 0.947266 0.5

# verts
v -6 0 6.8
v -9 0 6.8
v -6.1 0.1 6.8
v -6.2 0.1 6.8
v -8.8 0.1 6.8
v -8.9 0.1 6.8
v -6.5 0.2 6.8
v -6.7 0.2 6.8
v -8.3 0.2 6.8
v -8.5 0.2 6.8
v -6.5 0.4 6.8
v -6.7 0.4 6.8
v -8.3 0.4 6.8
v -8.5 0.4 6.8
v -6.1 0.5 6.8
v -6.2 0.5 6.8
v -8.8 0.5 6.8
v -8.9 0.5 6.8
v -6 0.6 6.8
v -9 0.6 6.8
v -6 0 3.8
v -9 0 3.8
v -6.1 0.1 3.8
v -6.2 0.1 3.8
v -8.8 0.1 3.8
v -8.9 0.1 3.8
v -6.5 0.2 3.8
v -6.7 0.2 3.8
v -8.3 0.2 3.8
v -8.5 0.2 3.8
v -6.5 0.4 3.8
v -6.7 0.4 3.8
v -8.3 0.4 3.8
v -8.5 0.4 3.8
v -6.1 0.5 3.8
v -6.2 0.5 3.8
v -8.8 0.5 3.8
v -8.9 0.5 3.8
v -6 0.6 3.8
v -9 0.6 3.8
v -6 0 6.8
v -6 0.6 6.8
v -6 0 6.4
v -6 0.1 6.4
v -6 0 6.1
v -6 0.1 6.1
v -6 0 4.5
v -6 0.1 4.5
v -6 0 4.2
v -6 0.1 4.2
v -6 0 3.8
v -6 0.6 3.8
v -9 0 6.8
v -9 0.6 6.8
v -9 0 6.4
v -9 0.1 6.4
v -9 0 6.1
v -9 0.1 6.1
v -9 0 4.5
v -9 0.1 4.5
v -9 0 4.2
v -9 0.1 4.2
v -9 0 3.8
v -9 0.6 3.8
v -6 0 6.8
v -6 0 6.4
v -6 0 6.1
v -6 0 4.5
v -6 0 4.2
v -6 0 3.8
v -6.1 0 6.4
v -6.1 0 6.1
v -6.1 0 4.5
v -6.1 0 4.2
v -8.9 0 6.4
v -8.9 0 6.1
v -8.9 0 4.5
v -8.9 0 4.2
v -9 0 6.8
v -9 0 6.4
v -9 0 6.1
v -9 0 4.5
v -9 0 4.2
v -9 0 3.8
v -6 0.6 6.8
v -6 0.6 3.8
v -6.1 0.6 6.7
v -6.1 0.6 3.9
v -6.2 0.6 6.6
v -6.2 0.6 6.4
v -6.2 0.6 6
v -6.2 0.6 4.6
v -6.2 0.6 4.2
v -6.2 0.6 4
v -6.3 0.6 6
v -6.3 0.6 4.6
v -6.4 0.6 6.6
v -6.4 0.6 6.4
v -6.4 0.6 6.2
v -6.4 0.6 4.4
v -6.4 0.6 4.2
v -6.4 0.6 4
v -6.5 0.6 5.7
v -6.5 0.6 5.6
v -6.5 0.6 5.3
v -6.5 0.6 4.8
v -6.6 0.6 6.6
v -6.6 0.6 6.4
v -6.6 0.6 6.2
v -6.6 0.6 5.8
v -6.6 0.6 5.7
v -6.6 0.6 5.6
v -6.6 0.6 4.8
v -6.6 0.6 4.7
v -6.6 0.6 4.4
v -6.6 0.6 4.2
v -6.6 0.6 4
v -6.7 0.6 5.9
v -6.7 0.6 5.8
v -6.7 0.6 5.7
v -6.7 0.6 5.3
v -6.7 0.6 5.1
v -6.7 0.6 5
v -6.7 0.6 4.8
v -6.8 0.6 6.6
v -6.8 0.6 6.4
v -6.8 0.6 6.2
v -6.8 0.6 5.6
v -6.8 0.6 5.5
v -6.8 0.6 5.3
v -6.8 0.6 5.1
v -6.8 0.6 5
v -6.8 0.6 4.8
v -6.8 0.6 4.7
v -6.8 0.6 4.4
v -6.8 0.6 4.2
v -6.8 0.6 4
v -6.9 0.6 5.3
v -6.9 0.6 4.8
v -7 0.6 6.6
v -7 0.6 6.4
v -7 0.6 6.2
v -7 0.6 5.3
v -7 0.6 5.1
v -7 0.6 5
v -7 0.6 4.7
v -7 0.6 4.4
v -7 0.6 4.2
v -7 0.6 4
v -7.1 0.6 5.6
v -7.1 0.6 5.5
v -7.1 0.6 5.1
v -7.1 0.6 5
v -7.1 0.6 4.9
v -7.2 0.6 6.6
v -7.2 0.6 6.4
v -7.2 0.6 6.2
v -7.2 0.6 5.9
v -7.2 0.6 5.8
v -7.2 0.6 5.7
v -7.2 0.6 4.4
v -7.2 0.6 4.2
v -7.2 0.6 4
v -7.3 0.6 5.3
v -7.3 0.6 5
v -7.3 0.6 4.9
v -7.3 0.6 4.7
v -7.4 0.6 6.6
v -7.4 0.6 6.4
v -7.4 0.6 6.2
v -7.4 0.6 5.3
v -7.4 0.6 5.1
v -7.4 0.6 5
v -7.4 0.6 4.7
v -7.4 0.6 4.4
v -7.4 0.6 4.2
v -7.4 0.6 4
v -7.5 0.6 5.8
v -7.5 0.6 5.7
v -7.5 0.6 5.6
v -7.5 0.6 5.1
v -7.5 0.6 5
v -7.5 0.6 4.9
v -7.6 0.6 6.6
v -7.6 0.6 6.4
v -7.6 0.6 6.2
v -7.6 0.6 4.4
v -7.6 0.6 4.2
v -7.6 0.6 4
v -7.7 0.6 5.7
v -7.7 0.6 5.6
v -7.7 0.6 5.5
v -7.7 0.6 5.3
v -7.7 0.6 5
v -7.7 0.6 4.9
v -7.7 0.6 4.7
v -7.8 0.6 6.6
v -7.8 0.6 6.4
v -7.8 0.6 6.2
v -7.8 0.6 5.9
v -7.8 0.6 5.8
v -7.8 0.6 5.3
v -7.8 0.6 4.9
v -7.8 0.6 4.8
v -7.8 0.6 4.7
v -7.8 0.6 4.4
v -7.8 0.6 4.2
v -7.8 0.6 4
v -8 0.6 6.6
v -8 0.6 6.4
v -8 0.6 6.2
v -8 0.6 5.9
v -8 0.6 5.8
v -8 0.6 5.3
v -8 0.6 4.9
v -8 0.6 4.8
v -8 0.6 4.7
v -8 0.6 4.4
v -8 0.6 4.2
v -8 0.6 4
v -8.1 0.6 5.7
v -8.1 0.6 5.6
v -8.1 0.6 5.5
v -8.1 0.6 5
v -8.1 0.6 4.8
v -8.2 0.6 6.6
v -8.2 0.6 6.4
v -8.2 0.6 6.2
v -8.2 0.6 5.1
v -8.2 0.6 5
v -8.2 0.6 4.8
v -8.2 0.6 4.7
v -8.2 0.6 4.4
v -8.2 0.6 4.2
v -8.2 0.6 4
v -8.3 0.6 5.8
v -8.3 0.6 5.7
v -8.3 0.6 5.6
v -8.3 0.6 5.3
v -8.3 0.6 5.1
v -8.3 0.6 5
v -8.3 0.6 4.8
v -8.4 0.6 6.6
v -8.4 0.6 6.4
v -8.4 0.6 6.2
v -8.4 0.6 5.9
v -8.4 0.6 5.8
v -8.4 0.6 5.7
v -8.4 0.6 5
v -8.4 0.6 4.8
v -8.4 0.6 4.4
v -8.4 0.6 4.2
v -8.4 0.6 4
v -8.5 0.6 5.9
v -8.5 0.6 5.8
v -8.5 0.6 5.3
v -8.5 0.6 4.7
v -8.6 0.6 6.6
v -8.6 0.6 6.4
v -8.6 0.6 6.2
v -8.6 0.6 4.4
v -8.6 0.6 4.2
v -8.6 0.6 4
v -8.7 0.6 6
v -8.7 0.6 4.6
v -8.8 0.6 6.6
v -8.8 0.6 6.4
v -8.8 0.6 6
v -8.8 0.6 4.6
v -8.8 0.6 4.2
v -8.8 0.6 4
v -8.9 0.6 6.7
v -8.9 0.6 3.9
v -9 0.6 6.8
v -9 0.6 3.8

# faces
f 3/3/1 2/3/1 1/3/1
f 4/3/1 2/3/1 3/3/1
f 5/3/1 2/3/1 4/3/1
f 6/3/1 2/3/1 5/3/1
f 7/3/1 5/3/1 4/3/1
f 8/3/1 5/3/1 7/3/1
f 9/3/1 5/3/1 8/3/1
f 10/3/1 5/3/1 9/3/1
f 11/3/1 7/3/1 4/3/1
f 11/1/1 8/1/1 7/1/1
f 12/3/1 9/3/1 8/3/1
f 12/1/1 8/1/1 11/1/1
f 13/1/1 10/1/1 9/1/1
f 13/3/1 9/3/1 12/3/1
f 14/3/1 5/3/1 10/3/1
f 14/1/1 10/1/1 13/1/1
f 15/3/1 3/3/1 1/3/1
f 15/1/1 4/1/1 3/1/1
f 16/3/1 14/3/1 13/3/1
f 16/1/1 4/1/1 15/1/1
f 16/3/1 13/3/1 12/3/1
f 16/3/1 11/3/1 4/3/1
f 16/3/1 12/3/1 11/3/1
f 17/3/1 5/3/1 14/3/1
f 17/3/1 14/3/1 16/3/1
f 17/1/1 6/1/1 5/1/1
f 18/3/1 2/3/1 6/3/1
f 18/1/1 6/1/1 17/1/1
f 19/3/1 16/3/1 15/3/1
f 19/3/1 15/3/1 1/3/1
f 19/3/1 18/3/1 17/3/1
f 19/3/1 17/3/1 16/3/1
f 20/3/1 2/3/1 18/3/1
f 20/3/1 18/3/1 19/3/1
f 21/3/2 22/3/2 23/3/2
f 23/3/2 22/3/2 24/3/2
f 24/3/2 22/3/2 25/3/2
f 25/3/2 22/3/2 26/3/2
f 24/3/2 25/3/2 27/3/2
f 27/3/2 25/3/2 28/3/2
f 28/3/2 25/3/2 29/3/2
f 29/3/2 25/3/2 30/3/2
f 24/3/2 27/3/2 31/3/2
f 27/1/2 28/1/2 31/1/2
f 28/3/2 29/3/2 32/3/2
f 31/1/2 28/1/2 32/1/2
f 29/1/2 30/1/2 33/1/2
f 32/3/2 29/3/2 33/3/2
f 30/3/2 25/3/2 34/3/2
f 33/1/2 30/1/2 34/1/2
f 21/3/2 23/3/2 35/3/2
f 23/1/2 24/1/2 35/1/2
f 33/3/2 34/3/2 36/3/2
f 35/1/2 24/1/2 36/1/2
f 32/3/2 33/3/2 36/3/2
f 24/3/2 31/3/2 36/3/2
f 31/3/2 32/3/2 36/3/2
f 34/3/2 25/3/2 37/3/2
f 36/3/2 34/3/2 37/3/2
f 25/1/2 26/1/2 37/1/2
f 26/3/2 22/3/2 38/3/2
f 37/1/2 26/1/2 38/1/2
f 35/3/2 36/3/2 39/3/2
f 21/3/2 35/3/2 39/3/2
f 37/3/2 38/3/2 39/3/2
f 36/3/2 37/3/2 39/3/2
f 38/3/2 22/3/2 40/3/2
f 39/3/2 38/3/2 40/3/2
f 43/3/3 42/3/3 41/3/3
f 44/3/3 42/3/3 43/3/3
f 45/1/3 44/1/3 43/1/3
f 46/3/3 42/3/3 44/3/3
f 46/1/3 44/1/3 45/1/3
f 47/3/3 46/3/3 45/3/3
f 48/3/3 42/3/3 46/3/3
f 48/3/3 46/3/3 47/3/3
f 49/1/3 48/1/3 47/1/3
f 50/3/3 42/3/3 48/3/3
f 50/1/3 48/1/3 49/1/3
f 51/3/3 50/3/3 49/3/3
f 52/3/3 42/3/3 50/3/3
f 52/3/3 50/3/3 51/3/3
f 53/3/4 54/3/4 55/3/4
f 55/3/4 54/3/4 56/3/4
f 55/1/4 56/1/4 57/1/4
f 56/3/4 54/3/4 58/3/4
f 57/1/4 56/1/4 58/1/4
f 57/3/4 58/3/4 59/3/4
f 58/3/4 54/3/4 60/3/4
f 59/3/4 58/3/4 60/3/4
f 59/1/4 60/1/4 61/1/4
f 60/3/4 54/3/4 62/3/4
f 61/1/4 60/1/4 62/1/4
f 61/3/4 62/3/4 63/3/4
f 62/3/4 54/3/4 64/3/4
f 63/3/4 62/3/4 64/3/4
f 71/3/5 66/3/5 65/3/5
f 71/1/5 67/1/5 66/1/5
f 72/3/5 68/3/5 67/3/5
f 72/1/5 67/1/5 71/1/5
f 73/1/5 69/1/5 68/1/5
f 73/3/5 68/3/5 72/3/5
f 74/3/5 70/3/5 69/3/5
f 74/1/5 69/1/5 73/1/5
f 75/3/5 73/3/5 72/3/5
f 75/3/5 72/3/5 71/3/5
f 75/3/5 74/3/5 73/3/5
f 75/3/5 71/3/5 65/3/5
f 76/3/5 74/3/5 75/3/5
f 77/3/5 74/3/5 76/3/5
f 78/3/5 70/3/5 74/3/5
f 78/3/5 74/3/5 77/3/5
f 79/3/5 75/3/5 65/3/5
f 80/1/5 76/1/5 75/1/5
f 80/3/5 75/3/5 79/3/5
f 81/3/5 77/3/5 76/3/5
f 81/1/5 76/1/5 80/1/5
f 82/1/5 78/1/5 77/1/5
f 82/3/5 77/3/5 81/3/5
f 83/3/5 70/3/5 78/3/5
f 83/1/5 78/1/5 82/1/5
f 84/3/5 70/3/5 83/3/5
f 85/3/6 86/3/6 87/3/6
f 87/3/6 86/3/6 88/3/6
f 87/1/6 88/1/6 89/1/6
f 89/1/6 88/1/6 90/1/6
f 90/1/6 88/1/6 91/1/6
f 91/1/6 88/1/6 92/1/6
f 92/1/6 88/1/6 93/1/6
f 93/1/6 88/1/6 94/1/6
f 90/3/6 91/3/6 95/3/6
f 91/2/6 92/2/6 95/2/6
f 92/3/6 93/3/6 96/3/6
f 95/2/6 92/2/6 96/2/6
f 87/1/6 89/1/6 97/1/6
f 89/2/6 90/2/6 97/2/6
f 95/3/6 96/3/6 98/3/6
f 97/2/6 90/2/6 98/2/6
f 90/3/6 95/3/6 98/3/6
f 98/3/6 96/3/6 99/3/6
f 96/3/6 93/3/6 100/3/6
f 99/3/6 96/3/6 100/3/6
f 93/2/6 94/2/6 101/2/6
f 100/3/6 93/3/6 101/3/6
f 94/1/6 88/1/6 102/1/6
f 101/2/6 94/2/6 102/2/6
f 99/3/6 100/3/6 103/3/6
f 103/3/6 100/3/6 104/3/6
f 104/3/6 100/3/6 105/3/6
f 105/3/6 100/3/6 106/3/6
f 87/1/6 97/1/6 107/1/6
f 97/3/6 98/3/6 107/3/6
f 98/2/6 99/2/6 108/2/6
f 107/3/6 98/3/6 108/3/6
f 99/3/6 103/3/6 109/3/6
f 108/2/6 99/2/6 109/2/6
f 109/3/6 103/3/6 110/3/6
f 103/2/6 104/2/6 111/2/6
f 110/3/6 103/3/6 111/3/6
f 104/3/6 105/3/6 112/3/6
f 111/2/6 104/2/6 112/2/6
f 106/3/6 100/3/6 113/3/6
f 105/2/6 106/2/6 113/2/6
f 113/3/6 100/3/6 114/3/6
f 100/2/6 101/2/6 115/2/6
f 114/3/6 100/3/6 115/3/6
f 101/3/6 102/3/6 116/3/6
f 115/2/6 101/2/6 116/2/6
f 102/1/6 88/1/6 117/1/6
f 116/3/6 102/3/6 117/3/6
f 109/3/6 110/3/6 118/3/6
f 108/3/6 109/3/6 118/3/6
f 110/2/6 111/2/6 119/2/6
f 118/3/6 110/3/6 119/3/6
f 111/3/6 112/3/6 120/3/6
f 119/2/6 111/2/6 120/2/6
f 112/3/6 105/3/6 121/3/6
f 120/3/6 112/3/6 121/3/6
f 113/2/6 114/2/6 121/2/6
f 105/2/6 113/2/6 121/2/6
f 121/2/6 114/2/6 122/2/6
f 122/2/6 114/2/6 123/2/6
f 123/2/6 114/2/6 124/2/6
f 87/1/6 107/1/6 125/1/6
f 107/2/6 108/2/6 125/2/6
f 108/3/6 118/3/6 126/3/6
f 125/2/6 108/2/6 126/2/6
f 126/3/6 118/3/6 127/3/6
f 119/3/6 120/3/6 128/3/6
f 120/3/6 121/3/6 128/3/6
f 121/3/6 122/3/6 128/3/6
f 128/3/6 122/3/6 129/3/6
f 129/3/6 122/3/6 130/3/6
f 122/2/6 123/2/6 131/2/6
f 130/3/6 122/3/6 131/3/6
f 123/3/6 124/3/6 132/3/6
f 131/2/6 123/2/6 132/2/6
f 124/2/6 114/2/6 133/2/6
f 132/3/6 124/3/6 133/3/6
f 115/3/6 116/3/6 134/3/6
f 133/2/6 114/2/6 134/2/6
f 114/3/6 115/3/6 134/3/6
f 134/3/6 116/3/6 135/3/6
f 116/2/6 117/2/6 136/2/6
f 135/3/6 116/3/6 136/3/6
f 117/1/6 88/1/6 137/1/6
f 136/2/6 117/2/6 137/2/6
f 131/2/6 132/2/6 138/2/6
f 132/2/6 133/2/6 138/2/6
f 130/2/6 131/2/6 138/2/6
f 129/3/6 130/3/6 138/3/6
f 134/3/6 135/3/6 139/3/6
f 138/2/6 133/2/6 139/2/6
f 133/3/6 134/3/6 139/3/6
f 87/1/6 125/1/6 140/1/6
f 125/3/6 126/3/6 140/3/6
f 126/2/6 127/2/6 141/2/6
f 140/3/6 126/3/6 141/3/6
f 127/3/6 118/3/6 142/3/6
f 141/2/6 127/2/6 142/2/6
f 129/3/6 138/3/6 143/3/6
f 138/3/6 139/3/6 143/3/6
f 143/3/6 139/3/6 144/3/6
f 144/3/6 139/3/6 145/3/6
f 139/3/6 135/3/6 146/3/6
f 145/3/6 139/3/6 146/3/6
f 135/2/6 136/2/6 147/2/6
f 146/3/6 135/3/6 147/3/6
f 136/3/6 137/3/6 148/3/6
f 147/2/6 136/2/6 148/2/6
f 137/1/6 88/1/6 149/1/6
f 148/3/6 137/3/6 149/3/6
f 128/2/6 129/2/6 150/2/6
f 119/3/6 128/3/6 150/3/6
f 129/3/6 143/3/6 151/3/6
f 150/2/6 129/2/6 151/2/6
f 144/3/6 145/3/6 152/3/6
f 143/2/6 144/2/6 152/2/6
f 145/2/6 146/2/6 153/2/6
f 152/3/6 145/3/6 153/3/6
f 153/2/6 146/2/6 154/2/6
f 140/2/6 141/2/6 155/2/6
f 87/1/6 140/1/6 155/1/6
f 141/3/6 142/3/6 156/3/6
f 155/2/6 141/2/6 156/2/6
f 142/3/6 118/3/6 157/3/6
f 156/3/6 142/3/6 157/3/6
f 118/2/6 119/2/6 158/2/6
f 157/3/6 118/3/6 158/3/6
f 119/3/6 150/3/6 159/3/6
f 158/2/6 119/2/6 159/2/6
f 150/3/6 151/3/6 159/3/6
f 159/3/6 151/3/6 160/3/6
f 147/3/6 148/3/6 161/3/6
f 146/3/6 147/3/6 161/3/6
f 148/2/6 149/2/6 162/2/6
f 161/3/6 148/3/6 162/3/6
f 149/1/6 88/1/6 163/1/6
f 162/2/6 149/2/6 163/2/6
f 160/3/6 151/3/6 164/3/6
f 143/2/6 152/2/6 164/2/6
f 151/3/6 143/3/6 164/3/6
f 152/2/6 153/2/6 164/2/6
f 153/3/6 154/3/6 165/3/6
f 164/2/6 153/2/6 165/2/6
f 154/2/6 146/2/6 166/2/6
f 165/3/6 154/3/6 166/3/6
f 146/3/6 161/3/6 167/3/6
f 166/2/6 146/2/6 167/2/6
f 155/3/6 156/3/6 168/3/6
f 87/1/6 155/1/6 168/1/6
f 156/2/6 157/2/6 169/2/6
f 168/3/6 156/3/6 169/3/6
f 158/3/6 159/3/6 170/3/6
f 169/2/6 157/2/6 170/2/6
f 157/3/6 158/3/6 170/3/6
f 164/3/6 165/3/6 171/3/6
f 165/3/6 166/3/6 171/3/6
f 160/3/6 164/3/6 171/3/6
f 166/3/6 167/3/6 171/3/6
f 171/3/6 167/3/6 172/3/6
f 172/3/6 167/3/6 173/3/6
f 167/3/6 161/3/6 174/3/6
f 173/3/6 167/3/6 174/3/6
f 161/2/6 162/2/6 175/2/6
f 174/3/6 161/3/6 175/3/6
f 162/3/6 163/3/6 176/3/6
f 175/2/6 162/2/6 176/2/6
f 163/1/6 88/1/6 177/1/6
f 176/3/6 163/3/6 177/3/6
f 170/3/6 159/3/6 178/3/6
f 159/2/6 160/2/6 178/2/6
f 169/3/6 170/3/6 178/3/6
f 160/3/6 171/3/6 179/3/6
f 178/2/6 160/2/6 179/2/6
f 179/3/6 171/3/6 180/3/6
f 172/3/6 173/3/6 181/3/6
f 171/2/6 172/2/6 181/2/6
f 173/2/6 174/2/6 182/2/6
f 181/3/6 173/3/6 182/3/6
f 182/2/6 174/2/6 183/2/6
f 87/1/6 168/1/6 184/1/6
f 168/2/6 169/2/6 184/2/6
f 169/3/6 178/3/6 185/3/6
f 184/2/6 169/2/6 185/2/6
f 178/3/6 179/3/6 185/3/6
f 185/3/6 179/3/6 186/3/6
f 175/3/6 176/3/6 187/3/6
f 174/3/6 175/3/6 187/3/6
f 176/2/6 177/2/6 188/2/6
f 187/3/6 176/3/6 188/3/6
f 177/1/6 88/1/6 189/1/6
f 188/2/6 177/2/6 189/2/6
f 186/3/6 179/3/6 190/3/6
f 179/2/6 180/2/6 190/2/6
f 180/3/6 171/3/6 191/3/6
f 190/2/6 180/2/6 191/2/6
f 191/3/6 171/3/6 192/3/6
f 171/2/6 181/2/6 193/2/6
f 192/3/6 171/3/6 193/3/6
f 181/2/6 182/2/6 193/2/6
f 182/3/6 183/3/6 194/3/6
f 193/2/6 182/2/6 194/2/6
f 183/2/6 174/2/6 195/2/6
f 194/3/6 183/3/6 195/3/6
f 174/3/6 187/3/6 196/3/6
f 195/2/6 174/2/6 196/2/6
f 87/1/6 184/1/6 197/1/6
f 184/3/6 185/3/6 197/3/6
f 185/2/6 186/2/6 198/2/6
f 197/3/6 185/3/6 198/3/6
f 186/3/6 190/3/6 199/3/6
f 198/2/6 186/2/6 199/2/6
f 190/3/6 191/3/6 199/3/6
f 199/3/6 191/3/6 200/3/6
f 200/3/6 191/3/6 201/3/6
f 194/3/6 195/3/6 202/3/6
f 193/3/6 194/3/6 202/3/6
f 192/3/6 193/3/6 202/3/6
f 195/3/6 196/3/6 202/3/6
f 202/3/6 196/3/6 203/3/6
f 203/3/6 196/3/6 204/3/6
f 196/3/6 187/3/6 205/3/6
f 204/3/6 196/3/6 205/3/6
f 187/2/6 188/2/6 206/2/6
f 205/3/6 187/3/6 206/3/6
f 188/3/6 189/3/6 207/3/6
f 206/2/6 188/2/6 207/2/6
f 189/1/6 88/1/6 208/1/6
f 207/3/6 189/3/6 208/3/6
f 197/2/6 198/2/6 209/2/6
f 87/1/6 197/1/6 209/1/6
f 199/3/6 200/3/6 210/3/6
f 209/2/6 198/2/6 210/2/6
f 198/3/6 199/3/6 210/3/6
f 210/3/6 200/3/6 211/3/6
f 200/2/6 201/2/6 212/2/6
f 211/3/6 200/3/6 212/3/6
f 201/3/6 191/3/6 213/3/6
f 212/2/6 201/2/6 213/2/6
f 202/2/6 203/2/6 214/2/6
f 192/3/6 202/3/6 214/3/6
f 203/3/6 204/3/6 215/3/6
f 214/2/6 203/2/6 215/2/6
f 204/2/6 205/2/6 216/2/6
f 215/3/6 204/3/6 216/3/6
f 206/3/6 207/3/6 217/3/6
f 216/2/6 205/2/6 217/2/6
f 205/3/6 206/3/6 217/3/6
f 217/3/6 207/3/6 218/3/6
f 207/2/6 208/2/6 219/2/6
f 218/3/6 207/3/6 219/3/6
f 208/1/6 88/1/6 220/1/6
f 219/2/6 208/2/6 220/2/6
f 211/3/6 212/3/6 221/3/6
f 213/3/6 191/3/6 221/3/6
f 212/3/6 213/3/6 221/3/6
f 191/2/6 192/2/6 222/2/6
f 221/3/6 191/3/6 222/3/6
f 215/3/6 216/3/6 223/3/6
f 222/2/6 192/2/6 223/2/6
f 214/3/6 215/3/6 223/3/6
f 216/3/6 217/3/6 223/3/6
f 217/3/6 218/3/6 223/3/6
f 192/3/6 214/3/6 223/3/6
f 223/3/6 218/3/6 224/3/6
f 224/3/6 218/3/6 225/3/6
f 209/3/6 210/3/6 226/3/6
f 87/1/6 209/1/6 226/1/6
f 210/2/6 211/2/6 227/2/6
f 226/3/6 210/3/6 227/3/6
f 211/3/6 221/3/6 228/3/6
f 227/2/6 211/2/6 228/2/6
f 222/3/6 223/3/6 229/3/6
f 223/3/6 224/3/6 229/3/6
f 224/2/6 225/2/6 230/2/6
f 229/3/6 224/3/6 230/3/6
f 225/3/6 218/3/6 231/3/6
f 230/2/6 225/2/6 231/2/6
f 231/3/6 218/3/6 232/3/6
f 218/2/6 219/2/6 233/2/6
f 232/3/6 218/3/6 233/3/6
f 219/3/6 220/3/6 234/3/6
f 233/2/6 219/2/6 234/2/6
f 220/1/6 88/1/6 235/1/6
f 234/3/6 220/3/6 235/3/6
f 228/3/6 221/3/6 236/3/6
f 227/3/6 228/3/6 236/3/6
f 221/2/6 222/2/6 237/2/6
f 236/3/6 221/3/6 237/3/6
f 222/3/6 229/3/6 238/3/6
f 237/2/6 222/2/6 238/2/6
f 238/3/6 229/3/6 239/3/6
f 231/2/6 232/2/6 240/2/6
f 239/3/6 229/3/6 240/3/6
f 229/2/6 230/2/6 240/2/6
f 230/2/6 231/2/6 240/2/6
f 240/2/6 232/2/6 241/2/6
f 241/2/6 232/2/6 242/2/6
f 87/1/6 226/1/6 243/1/6
f 226/2/6 227/2/6 243/2/6
f 227/3/6 236/3/6 244/3/6
f 243/2/6 227/2/6 244/2/6
f 244/3/6 236/3/6 245/3/6
f 245/3/6 236/3/6 246/3/6
f 236/2/6 237/2/6 247/2/6
f 246/3/6 236/3/6 247/3/6
f 238/3/6 239/3/6 248/3/6
f 247/2/6 237/2/6 248/2/6
f 237/3/6 238/3/6 248/3/6
f 241/3/6 242/3/6 249/3/6
f 239/2/6 240/2/6 249/2/6
f 240/2/6 241/2/6 249/2/6
f 242/2/6 232/2/6 250/2/6
f 249/3/6 242/3/6 250/3/6
f 232/3/6 233/3/6 251/3/6
f 233/3/6 234/3/6 251/3/6
f 234/2/6 235/2/6 252/2/6
f 251/3/6 234/3/6 252/3/6
f 235/1/6 88/1/6 253/1/6
f 252/2/6 235/2/6 253/2/6
f 246/2/6 247/2/6 254/2/6
f 245/3/6 246/3/6 254/3/6
f 247/3/6 248/3/6 255/3/6
f 254/2/6 247/2/6 255/2/6
f 249/2/6 250/2/6 256/2/6
f 255/3/6 248/3/6 256/3/6
f 239/2/6 249/2/6 256/2/6
f 248/3/6 239/3/6 256/3/6
f 250/2/6 232/2/6 257/2/6
f 256/2/6 250/2/6 257/2/6
f 232/3/6 251/3/6 257/3/6
f 87/1/6 243/1/6 258/1/6
f 243/3/6 244/3/6 258/3/6
f 244/2/6 245/2/6 259/2/6
f 258/3/6 244/3/6 259/3/6
f 255/3/6 256/3/6 260/3/6
f 259/2/6 245/2/6 260/2/6
f 254/3/6 255/3/6 260/3/6
f 256/3/6 257/3/6 260/3/6
f 245/3/6 254/3/6 260/3/6
f 257/3/6 251/3/6 261/3/6
f 260/3/6 257/3/6 261/3/6
f 251/2/6 252/2/6 261/2/6
f 252/3/6 253/3/6 262/3/6
f 261/2/6 252/2/6 262/2/6
f 253/1/6 88/1/6 263/1/6
f 262/3/6 253/3/6 263/3/6
f 259/3/6 260/3/6 264/3/6
f 261/3/6 262/3/6 264/3/6
f 260/3/6 261/3/6 264/3/6
f 264/3/6 262/3/6 265/3/6
f 258/2/6 259/2/6 266/2/6
f 87/1/6 258/1/6 266/1/6
f 259/3/6 264/3/6 267/3/6
f 266/2/6 259/2/6 267/2/6
f 264/2/6 265/2/6 268/2/6
f 267/3/6 264/3/6 268/3/6
f 265/3/6 262/3/6 269/3/6
f 268/2/6 265/2/6 269/2/6
f 262/2/6 263/2/6 270/2/6
f 269/3/6 262/3/6 270/3/6
f 263/1/6 88/1/6 271/1/6
f 270/2/6 263/2/6 271/2/6
f 85/3/6 87/3/6 272/3/6
f 269/1/6 270/1/6 272/1/6
f 270/1/6 271/1/6 272/1/6
f 87/1/6 266/1/6 272/1/6
f 266/1/6 267/1/6 272/1/6
f 268/1/6 269/1/6 272/1/6
f 267/1/6 268/1/6 272/1/6
f 271/1/6 88/1/6 273/1/6
f 272/1/6 271/1/6 273/1/6
f 88/3/6 86/3/6 273/3/6
f 85/3/6 272/3/6 274/3/6
f 272/3/6 273/3/6 274/3/6
f 273/3/6 86/3/6 275/3/6
f 274/3/6 273/3/6 275/3/6
