# MagicaVoxel @ Ephtracy

# group
o 

# material
mtllib Voxel Universe Objects-21.mtl
usemtl palette

# normals
vn -1 0 0
vn 1 0 0
vn 0 0 1
vn 0 0 -1
vn 0 -1 0
vn 0 1 0

# texcoords
vt 0.962891 0.5
vt 0.990234 0.5
vt 0.994141 0.5

# verts
v -3.4 0.1 -4.4
v -3.4 0.1 -4.6
v -3.4 0.4 -4.4
v -3.4 0.4 -4.6
v -3.3 0 -3.1
v -3.3 0 -3.3
v -3.3 0.1 -3.3
v -3.3 0.1 -3.4
v -3.3 0.1 -3.5
v -3.3 0.1 -3.6
v -3.3 0.1 -3.7
v -3.3 0.1 -3.8
v -3.3 0.1 -3.9
v -3.3 0.1 -4
v -3.3 0.1 -4.1
v -3.3 0.1 -4.2
v -3.3 0.1 -4.3
v -3.3 0.1 -4.4
v -3.3 0.2 -4.6
v -3.3 0.2 -6.7
v -3.3 0.3 -4.6
v -3.3 0.3 -6.7
v -3.3 0.4 -3.3
v -3.3 0.4 -3.4
v -3.3 0.4 -3.5
v -3.3 0.4 -3.6
v -3.3 0.4 -3.7
v -3.3 0.4 -3.8
v -3.3 0.4 -3.9
v -3.3 0.4 -4
v -3.3 0.4 -4.1
v -3.3 0.4 -4.2
v -3.3 0.4 -4.3
v -3.3 0.4 -4.4
v -3.3 0.5 -3.1
v -3.3 0.5 -3.3
v -3.2 0.2 -6.7
v -3.2 0.2 -6.9
v -3.2 0.3 -6.7
v -3.2 0.3 -6.9
v -2.9 0.2 -4.4
v -2.9 0.2 -4.5
v -2.9 0.3 -4.4
v -2.9 0.3 -4.5
v -3.3 0.2 -4.4
v -3.3 0.2 -4.5
v -3.3 0.3 -4.4
v -3.3 0.3 -4.5
v -3 0.2 -6.7
v -3 0.2 -6.9
v -3 0.3 -6.7
v -3 0.3 -6.9
v -2.9 0 -3.1
v -2.9 0 -3.3
v -2.9 0.1 -3.3
v -2.9 0.1 -3.4
v -2.9 0.1 -3.5
v -2.9 0.1 -3.6
v -2.9 0.1 -3.7
v -2.9 0.1 -3.8
v -2.9 0.1 -3.9
v -2.9 0.1 -4
v -2.9 0.1 -4.1
v -2.9 0.1 -4.2
v -2.9 0.1 -4.3
v -2.9 0.1 -4.4
v -2.9 0.2 -4.6
v -2.9 0.2 -6.7
v -2.9 0.3 -4.6
v -2.9 0.3 -6.7
v -2.9 0.4 -3.3
v -2.9 0.4 -3.4
v -2.9 0.4 -3.5
v -2.9 0.4 -3.6
v -2.9 0.4 -3.7
v -2.9 0.4 -3.8
v -2.9 0.4 -3.9
v -2.9 0.4 -4
v -2.9 0.4 -4.1
v -2.9 0.4 -4.2
v -2.9 0.4 -4.3
v -2.9 0.4 -4.4
v -2.9 0.5 -3.1
v -2.9 0.5 -3.3
v -2.8 0.1 -4.4
v -2.8 0.1 -4.6
v -2.8 0.4 -4.4
v -2.8 0.4 -4.6
v -3.3 0 -3.1
v -3.3 0.5 -3.1
v -2.9 0 -3.1
v -2.9 0.5 -3.1
v -3.4 0.1 -4.4
v -3.4 0.4 -4.4
v -3.3 0.1 -4.4
v -3.3 0.4 -4.4
v -2.9 0.1 -4.4
v -2.9 0.4 -4.4
v -2.8 0.1 -4.4
v -2.8 0.4 -4.4
v -3.3 0.2 -4.5
v -3.3 0.3 -4.5
v -2.9 0.2 -4.5
v -2.9 0.3 -4.5
v -3.3 0 -3.3
v -3.3 0.1 -3.3
v -3.3 0.4 -3.3
v -3.3 0.5 -3.3
v -2.9 0 -3.3
v -2.9 0.1 -3.3
v -2.9 0.4 -3.3
v -2.9 0.5 -3.3
v -3.3 0.2 -4.4
v -3.3 0.3 -4.4
v -2.9 0.2 -4.4
v -2.9 0.3 -4.4
v -3.4 0.1 -4.6
v -3.4 0.4 -4.6
v -3.3 0.2 -4.6
v -3.3 0.3 -4.6
v -2.9 0.2 -4.6
v -2.9 0.3 -4.6
v -2.8 0.1 -4.6
v -2.8 0.4 -4.6
v -3.3 0.2 -6.7
v -3.3 0.3 -6.7
v -3.2 0.2 -6.7
v -3.2 0.3 -6.7
v -3 0.2 -6.7
v -3 0.3 -6.7
v -2.9 0.2 -6.7
v -2.9 0.3 -6.7
v -3.2 0.2 -6.9
v -3.2 0.3 -6.9
v -3 0.2 -6.9
v -3 0.3 -6.9
v -3.3 0 -3.1
v -2.9 0 -3.1
v -3.3 0 -3.3
v -2.9 0 -3.3
v -3.3 0.1 -3.3
v -2.9 0.1 -3.3
v -3.3 0.1 -3.4
v -2.9 0.1 -3.4
v -3.3 0.1 -3.5
v -2.9 0.1 -3.5
v -3.3 0.1 -3.6
v -2.9 0.1 -3.6
v -3.3 0.1 -3.7
v -2.9 0.1 -3.7
v -3.3 0.1 -3.8
v -2.9 0.1 -3.8
v -3.3 0.1 -3.9
v -2.9 0.1 -3.9
v -3.3 0.1 -4
v -2.9 0.1 -4
v -3.3 0.1 -4.1
v -2.9 0.1 -4.1
v -3.3 0.1 -4.2
v -2.9 0.1 -4.2
v -3.3 0.1 -4.3
v -2.9 0.1 -4.3
v -3.4 0.1 -4.4
v -3.3 0.1 -4.4
v -2.9 0.1 -4.4
v -2.8 0.1 -4.4
v -3.4 0.1 -4.6
v -2.8 0.1 -4.6
v -3.3 0.2 -4.6
v -2.9 0.2 -4.6
v -3.3 0.2 -6.7
v -3.2 0.2 -6.7
v -3 0.2 -6.7
v -2.9 0.2 -6.7
v -3.2 0.2 -6.9
v -3 0.2 -6.9
v -3.3 0.3 -4.4
v -2.9 0.3 -4.4
v -3.3 0.3 -4.5
v -2.9 0.3 -4.5
v -3.3 0.2 -4.4
v -2.9 0.2 -4.4
v -3.3 0.2 -4.5
v -2.9 0.2 -4.5
v -3.3 0.3 -4.6
v -2.9 0.3 -4.6
v -3.3 0.3 -6.7
v -3.2 0.3 -6.7
v -3 0.3 -6.7
v -2.9 0.3 -6.7
v -3.2 0.3 -6.9
v -3 0.3 -6.9
v -3.3 0.4 -3.3
v -2.9 0.4 -3.3
v -3.3 0.4 -3.4
v -2.9 0.4 -3.4
v -3.3 0.4 -3.5
v -2.9 0.4 -3.5
v -3.3 0.4 -3.6
v -2.9 0.4 -3.6
v -3.3 0.4 -3.7
v -2.9 0.4 -3.7
v -3.3 0.4 -3.8
v -2.9 0.4 -3.8
v -3.3 0.4 -3.9
v -2.9 0.4 -3.9
v -3.3 0.4 -4
v -2.9 0.4 -4
v -3.3 0.4 -4.1
v -2.9 0.4 -4.1
v -3.3 0.4 -4.2
v -2.9 0.4 -4.2
v -3.3 0.4 -4.3
v -2.9 0.4 -4.3
v -3.4 0.4 -4.4
v -3.3 0.4 -4.4
v -2.9 0.4 -4.4
v -2.8 0.4 -4.4
v -3.4 0.4 -4.6
v -2.8 0.4 -4.6
v -3.3 0.5 -3.1
v -2.9 0.5 -3.1
v -3.3 0.5 -3.3
v -2.9 0.5 -3.3

# faces
f 3/3/1 2/3/1 1/3/1
f 4/3/1 2/3/1 3/3/1
f 7/3/1 6/3/1 5/3/1
f 21/1/1 20/1/1 19/1/1
f 22/1/1 20/1/1 21/1/1
f 23/3/1 7/3/1 5/3/1
f 23/3/1 8/3/1 7/3/1
f 24/2/1 9/2/1 8/2/1
f 24/3/1 8/3/1 23/3/1
f 25/3/1 10/3/1 9/3/1
f 25/2/1 9/2/1 24/2/1
f 26/2/1 11/2/1 10/2/1
f 26/3/1 10/3/1 25/3/1
f 27/3/1 12/3/1 11/3/1
f 27/2/1 11/2/1 26/2/1
f 28/2/1 13/2/1 12/2/1
f 28/3/1 12/3/1 27/3/1
f 29/3/1 14/3/1 13/3/1
f 29/2/1 13/2/1 28/2/1
f 30/2/1 15/2/1 14/2/1
f 30/3/1 14/3/1 29/3/1
f 31/3/1 16/3/1 15/3/1
f 31/2/1 15/2/1 30/2/1
f 32/2/1 17/2/1 16/2/1
f 32/3/1 16/3/1 31/3/1
f 33/3/1 18/3/1 17/3/1
f 33/2/1 17/2/1 32/2/1
f 34/3/1 18/3/1 33/3/1
f 35/3/1 23/3/1 5/3/1
f 36/3/1 23/3/1 35/3/1
f 39/1/1 38/1/1 37/1/1
f 40/1/1 38/1/1 39/1/1
f 43/3/1 42/3/1 41/3/1
f 44/3/1 42/3/1 43/3/1
f 45/3/2 46/3/2 47/3/2
f 47/3/2 46/3/2 48/3/2
f 49/1/2 50/1/2 51/1/2
f 51/1/2 50/1/2 52/1/2
f 53/3/2 54/3/2 55/3/2
f 67/1/2 68/1/2 69/1/2
f 69/1/2 68/1/2 70/1/2
f 53/3/2 55/3/2 71/3/2
f 55/3/2 56/3/2 71/3/2
f 56/2/2 57/2/2 72/2/2
f 71/3/2 56/3/2 72/3/2
f 57/3/2 58/3/2 73/3/2
f 72/2/2 57/2/2 73/2/2
f 58/2/2 59/2/2 74/2/2
f 73/3/2 58/3/2 74/3/2
f 59/3/2 60/3/2 75/3/2
f 74/2/2 59/2/2 75/2/2
f 60/2/2 61/2/2 76/2/2
f 75/3/2 60/3/2 76/3/2
f 61/3/2 62/3/2 77/3/2
f 76/2/2 61/2/2 77/2/2
f 62/2/2 63/2/2 78/2/2
f 77/3/2 62/3/2 78/3/2
f 63/3/2 64/3/2 79/3/2
f 78/2/2 63/2/2 79/2/2
f 64/2/2 65/2/2 80/2/2
f 79/3/2 64/3/2 80/3/2
f 65/3/2 66/3/2 81/3/2
f 80/2/2 65/2/2 81/2/2
f 81/3/2 66/3/2 82/3/2
f 53/3/2 71/3/2 83/3/2
f 83/3/2 71/3/2 84/3/2
f 85/3/2 86/3/2 87/3/2
f 87/3/2 86/3/2 88/3/2
f 91/3/3 90/3/3 89/3/3
f 92/3/3 90/3/3 91/3/3
f 95/3/3 94/3/3 93/3/3
f 96/3/3 94/3/3 95/3/3
f 99/3/3 98/3/3 97/3/3
f 100/3/3 98/3/3 99/3/3
f 103/3/3 102/3/3 101/3/3
f 104/3/3 102/3/3 103/3/3
f 105/3/4 106/3/4 109/3/4
f 109/3/4 106/3/4 110/3/4
f 107/3/4 108/3/4 111/3/4
f 111/3/4 108/3/4 112/3/4
f 113/3/4 114/3/4 115/3/4
f 115/3/4 114/3/4 116/3/4
f 117/3/4 118/3/4 119/3/4
f 119/3/4 118/3/4 120/3/4
f 117/3/4 119/3/4 121/3/4
f 120/3/4 118/3/4 122/3/4
f 117/3/4 121/3/4 123/3/4
f 121/3/4 122/3/4 123/3/4
f 122/3/4 118/3/4 124/3/4
f 123/3/4 122/3/4 124/3/4
f 125/1/4 126/1/4 127/1/4
f 127/1/4 126/1/4 128/1/4
f 129/1/4 130/1/4 131/1/4
f 131/1/4 130/1/4 132/1/4
f 133/1/4 134/1/4 135/1/4
f 135/1/4 134/1/4 136/1/4
f 139/3/5 138/3/5 137/3/5
f 140/3/5 138/3/5 139/3/5
f 143/3/5 142/3/5 141/3/5
f 144/3/5 142/3/5 143/3/5
f 145/2/5 144/2/5 143/2/5
f 146/2/5 144/2/5 145/2/5
f 147/3/5 146/3/5 145/3/5
f 148/3/5 146/3/5 147/3/5
f 149/2/5 148/2/5 147/2/5
f 150/2/5 148/2/5 149/2/5
f 151/3/5 150/3/5 149/3/5
f 152/3/5 150/3/5 151/3/5
f 153/2/5 152/2/5 151/2/5
f 154/2/5 152/2/5 153/2/5
f 155/3/5 154/3/5 153/3/5
f 156/3/5 154/3/5 155/3/5
f 157/2/5 156/2/5 155/2/5
f 158/2/5 156/2/5 157/2/5
f 159/3/5 158/3/5 157/3/5
f 160/3/5 158/3/5 159/3/5
f 161/2/5 160/2/5 159/2/5
f 162/2/5 160/2/5 161/2/5
f 164/3/5 162/3/5 161/3/5
f 165/3/5 162/3/5 164/3/5
f 167/3/5 165/3/5 164/3/5
f 167/3/5 166/3/5 165/3/5
f 167/3/5 164/3/5 163/3/5
f 168/3/5 166/3/5 167/3/5
f 171/1/5 170/1/5 169/1/5
f 172/1/5 170/1/5 171/1/5
f 173/1/5 170/1/5 172/1/5
f 174/1/5 170/1/5 173/1/5
f 175/1/5 173/1/5 172/1/5
f 176/1/5 173/1/5 175/1/5
f 179/3/5 178/3/5 177/3/5
f 180/3/5 178/3/5 179/3/5
f 181/3/6 182/3/6 183/3/6
f 183/3/6 182/3/6 184/3/6
f 185/1/6 186/1/6 187/1/6
f 187/1/6 186/1/6 188/1/6
f 188/1/6 186/1/6 189/1/6
f 189/1/6 186/1/6 190/1/6
f 188/1/6 189/1/6 191/1/6
f 191/1/6 189/1/6 192/1/6
f 193/3/6 194/3/6 195/3/6
f 195/3/6 194/3/6 196/3/6
f 195/2/6 196/2/6 197/2/6
f 197/2/6 196/2/6 198/2/6
f 197/3/6 198/3/6 199/3/6
f 199/3/6 198/3/6 200/3/6
f 199/2/6 200/2/6 201/2/6
f 201/2/6 200/2/6 202/2/6
f 201/3/6 202/3/6 203/3/6
f 203/3/6 202/3/6 204/3/6
f 203/2/6 204/2/6 205/2/6
f 205/2/6 204/2/6 206/2/6
f 205/3/6 206/3/6 207/3/6
f 207/3/6 206/3/6 208/3/6
f 207/2/6 208/2/6 209/2/6
f 209/2/6 208/2/6 210/2/6
f 209/3/6 210/3/6 211/3/6
f 211/3/6 210/3/6 212/3/6
f 211/2/6 212/2/6 213/2/6
f 213/2/6 212/2/6 214/2/6
f 213/3/6 214/3/6 216/3/6
f 216/3/6 214/3/6 217/3/6
f 216/3/6 217/3/6 219/3/6
f 217/3/6 218/3/6 219/3/6
f 215/3/6 216/3/6 219/3/6
f 219/3/6 218/3/6 220/3/6
f 221/3/6 222/3/6 223/3/6
f 223/3/6 222/3/6 224/3/6
