# MagicaVoxel @ Ephtracy

# group
o 

# material
mtllib Voxel Universe Objects-6.mtl
usemtl palette

# normals
vn 0 0 -1
vn 0 0 1
vn -1 0 0
vn 1 0 0
vn 0 -1 0
vn 0 1 0

# texcoords
vt 0.134766 0.5
vt 0.552734 0.5
vt 0.947266 0.5
vt 0.958984 0.5
vt 0.970703 0.5
vt 0.974609 0.5

# verts
v -9.2 0 -16.9
v -8.1 0 -16.9
v -9.2 0.1 -16.9
v -8.1 0.1 -16.9
v -9.1 0.2 -16.9
v -8.8 0.2 -16.9
v -8.7 0.2 -16.9
v -8.5 0.2 -16.9
v -8.4 0.2 -16.9
v -8.2 0.2 -16.9
v -9.1 0.3 -16.9
v -8.8 0.3 -16.9
v -8.7 0.3 -16.9
v -8.5 0.3 -16.9
v -8.4 0.3 -16.9
v -8.2 0.3 -16.9
v -9 0.4 -16.9
v -8.9 0.4 -16.9
v -8.7 0.4 -16.9
v -8.6 0.4 -16.9
v -8.4 0.4 -16.9
v -8.3 0.4 -16.9
v -8.8 0.5 -16.9
v -8.7 0.5 -16.9
v -8.6 0.5 -16.9
v -8.5 0.5 -16.9
v -9.1 0.6 -16.9
v -9 0.6 -16.9
v -8.9 0.6 -16.9
v -8.8 0.6 -16.9
v -8.7 0.6 -16.9
v -8.6 0.6 -16.9
v -8.5 0.6 -16.9
v -8.4 0.6 -16.9
v -8.3 0.6 -16.9
v -8.2 0.6 -16.9
v -9.1 0.7 -16.9
v -8.8 0.7 -16.9
v -8.7 0.7 -16.9
v -8.6 0.7 -16.9
v -8.5 0.7 -16.9
v -8.2 0.7 -16.9
v -8.8 0.8 -16.9
v -8.5 0.8 -16.9
v -9.2 1 -16.9
v -8.8 1 -16.9
v -8.5 1 -16.9
v -8.1 1 -16.9
v -8.8 1.1 -16.9
v -8.5 1.1 -16.9
v -9.1 1.2 -16.9
v -8.9 1.2 -16.9
v -8.8 1.2 -16.9
v -8.6 1.2 -16.9
v -8.5 1.2 -16.9
v -8.4 1.2 -16.9
v -8.3 1.2 -16.9
v -8.2 1.2 -16.9
v -9.1 1.3 -16.9
v -8.9 1.3 -16.9
v -8.8 1.3 -16.9
v -8.6 1.3 -16.9
v -8.5 1.3 -16.9
v -8.4 1.3 -16.9
v -8.3 1.3 -16.9
v -8.2 1.3 -16.9
v -9 1.4 -16.9
v -8.8 1.4 -16.9
v -8.6 1.4 -16.9
v -8.5 1.4 -16.9
v -8.4 1.4 -16.9
v -9.1 1.5 -16.9
v -9 1.5 -16.9
v -8.9 1.5 -16.9
v -8.7 1.5 -16.9
v -8.6 1.5 -16.9
v -8.5 1.5 -16.9
v -9 1.6 -16.9
v -8.9 1.6 -16.9
v -8.8 1.6 -16.9
v -8.7 1.6 -16.9
v -8.6 1.6 -16.9
v -8.5 1.6 -16.9
v -8.4 1.6 -16.9
v -8.3 1.6 -16.9
v -8.2 1.6 -16.9
v -9.1 1.7 -16.9
v -8.9 1.7 -16.9
v -8.7 1.7 -16.9
v -8.6 1.7 -16.9
v -8.5 1.7 -16.9
v -8.4 1.7 -16.9
v -8.3 1.7 -16.9
v -8.2 1.7 -16.9
v -9.1 1.8 -16.9
v -8.8 1.8 -16.9
v -8.6 1.8 -16.9
v -8.4 1.8 -16.9
v -8.3 1.8 -16.9
v -8.2 1.8 -16.9
v -9.2 2 -16.9
v -8.1 2 -16.9
v -9.2 2.1 -16.9
v -8.1 2.1 -16.9
v -9.1 0 -15.9
v -8.2 0 -15.9
v -9.1 0.1 -15.9
v -8.2 0.1 -15.9
v -9.1 2 -15.9
v -8.2 2 -15.9
v -9.1 2.1 -15.9
v -8.2 2.1 -15.9
v -9.1 0 -16.8
v -8.2 0 -16.8
v -9.1 0.1 -16.8
v -8.2 0.1 -16.8
v -9.1 2 -16.8
v -8.2 2 -16.8
v -9.1 2.1 -16.8
v -8.2 2.1 -16.8
v -9.2 0 -15.8
v -8.1 0 -15.8
v -9.2 0.1 -15.8
v -8.1 0.1 -15.8
v -9.1 0.2 -15.8
v -8.8 0.2 -15.8
v -8.7 0.2 -15.8
v -8.5 0.2 -15.8
v -8.4 0.2 -15.8
v -8.2 0.2 -15.8
v -9.1 0.3 -15.8
v -8.8 0.3 -15.8
v -8.7 0.3 -15.8
v -8.5 0.3 -15.8
v -8.4 0.3 -15.8
v -8.2 0.3 -15.8
v -9 0.4 -15.8
v -8.9 0.4 -15.8
v -8.7 0.4 -15.8
v -8.6 0.4 -15.8
v -8.4 0.4 -15.8
v -8.3 0.4 -15.8
v -8.8 0.5 -15.8
v -8.7 0.5 -15.8
v -8.6 0.5 -15.8
v -8.5 0.5 -15.8
v -9.1 0.6 -15.8
v -9 0.6 -15.8
v -8.9 0.6 -15.8
v -8.8 0.6 -15.8
v -8.7 0.6 -15.8
v -8.6 0.6 -15.8
v -8.5 0.6 -15.8
v -8.4 0.6 -15.8
v -8.3 0.6 -15.8
v -8.2 0.6 -15.8
v -9.1 0.7 -15.8
v -8.8 0.7 -15.8
v -8.7 0.7 -15.8
v -8.6 0.7 -15.8
v -8.5 0.7 -15.8
v -8.2 0.7 -15.8
v -8.8 0.8 -15.8
v -8.5 0.8 -15.8
v -9.2 1 -15.8
v -8.8 1 -15.8
v -8.5 1 -15.8
v -8.1 1 -15.8
v -8.8 1.1 -15.8
v -8.5 1.1 -15.8
v -9.1 1.2 -15.8
v -8.9 1.2 -15.8
v -8.8 1.2 -15.8
v -8.6 1.2 -15.8
v -8.5 1.2 -15.8
v -8.4 1.2 -15.8
v -8.3 1.2 -15.8
v -8.2 1.2 -15.8
v -9.1 1.3 -15.8
v -8.9 1.3 -15.8
v -8.8 1.3 -15.8
v -8.6 1.3 -15.8
v -8.5 1.3 -15.8
v -8.4 1.3 -15.8
v -8.3 1.3 -15.8
v -8.2 1.3 -15.8
v -9 1.4 -15.8
v -8.8 1.4 -15.8
v -8.6 1.4 -15.8
v -8.5 1.4 -15.8
v -8.4 1.4 -15.8
v -9.1 1.5 -15.8
v -9 1.5 -15.8
v -8.9 1.5 -15.8
v -8.7 1.5 -15.8
v -8.6 1.5 -15.8
v -8.5 1.5 -15.8
v -9 1.6 -15.8
v -8.9 1.6 -15.8
v -8.8 1.6 -15.8
v -8.7 1.6 -15.8
v -8.6 1.6 -15.8
v -8.5 1.6 -15.8
v -8.4 1.6 -15.8
v -8.3 1.6 -15.8
v -8.2 1.6 -15.8
v -9.1 1.7 -15.8
v -8.9 1.7 -15.8
v -8.7 1.7 -15.8
v -8.6 1.7 -15.8
v -8.5 1.7 -15.8
v -8.4 1.7 -15.8
v -8.3 1.7 -15.8
v -8.2 1.7 -15.8
v -9.1 1.8 -15.8
v -8.8 1.8 -15.8
v -8.6 1.8 -15.8
v -8.4 1.8 -15.8
v -8.3 1.8 -15.8
v -8.2 1.8 -15.8
v -9.2 2 -15.8
v -8.1 2 -15.8
v -9.2 2.1 -15.8
v -8.1 2.1 -15.8
v -9.2 0 -16.9
v -9.2 0.1 -16.9
v -9.2 1 -16.9
v -9.2 2 -16.9
v -9.2 2.1 -16.9
v -9.2 0.2 -16.8
v -9.2 0.4 -16.8
v -9.2 0.2 -16.7
v -9.2 0.3 -16.7
v -9.2 0.3 -16.6
v -9.2 0.4 -16.6
v -9.2 0.2 -16.5
v -9.2 0.9 -16.5
v -9.2 0.3 -16.4
v -9.2 0.8 -16.4
v -9.2 0.4 -16.3
v -9.2 0.5 -16.3
v -9.2 0.6 -16.3
v -9.2 0.7 -16.3
v -9.2 0.4 -16.2
v -9.2 0.5 -16.2
v -9.2 0.6 -16.1
v -9.2 0.7 -16.1
v -9.2 0.3 -16
v -9.2 0.8 -16
v -9.2 0.2 -15.9
v -9.2 0.9 -15.9
v -9.2 0 -15.8
v -9.2 0.1 -15.8
v -9.2 1 -15.8
v -9.2 2 -15.8
v -9.2 2.1 -15.8
v -8.2 0 -16.8
v -8.2 0.1 -16.8
v -8.2 2 -16.8
v -8.2 2.1 -16.8
v -8.2 0 -15.9
v -8.2 0.1 -15.9
v -8.2 2 -15.9
v -8.2 2.1 -15.9
v -9.1 0 -16.8
v -9.1 0.1 -16.8
v -9.1 2 -16.8
v -9.1 2.1 -16.8
v -9.1 0 -15.9
v -9.1 0.1 -15.9
v -9.1 2 -15.9
v -9.1 2.1 -15.9
v -8.1 0 -16.9
v -8.1 0.1 -16.9
v -8.1 1 -16.9
v -8.1 2 -16.9
v -8.1 2.1 -16.9
v -8.1 0.2 -16.8
v -8.1 0.5 -16.8
v -8.1 0.6 -16.8
v -8.1 0.7 -16.8
v -8.1 0.8 -16.8
v -8.1 0.9 -16.8
v -8.1 0.3 -16.7
v -8.1 0.4 -16.7
v -8.1 0.8 -16.7
v -8.1 0.9 -16.7
v -8.1 0.8 -16.6
v -8.1 0.9 -16.6
v -8.1 0.3 -16.4
v -8.1 0.4 -16.4
v -8.1 0.2 -16.3
v -8.1 0.5 -16.3
v -8.1 0.6 -16.3
v -8.1 0.7 -16.3
v -8.1 0.8 -16.3
v -8.1 0.9 -16.3
v -8.1 0.3 -16.1
v -8.1 0.4 -16.1
v -8.1 0.2 -16
v -8.1 0.3 -16
v -8.1 0.8 -16
v -8.1 0.9 -16
v -8.1 0.2 -15.9
v -8.1 0.4 -15.9
v -8.1 0.8 -15.9
v -8.1 0.9 -15.9
v -8.1 0 -15.8
v -8.1 0.1 -15.8
v -8.1 1 -15.8
v -8.1 2 -15.8
v -8.1 2.1 -15.8
v -9.2 0 -16.9
v -9.2 0 -15.8
v -9.1 0 -16.8
v -9.1 0 -15.9
v -8.2 0 -16.8
v -8.2 0 -15.9
v -8.1 0 -16.9
v -8.1 0 -15.8
v -9.1 0.1 -16.8
v -9.1 0.1 -15.9
v -9 0.1 -16.7
v -9 0.1 -16
v -8.9 0.1 -16.6
v -8.9 0.1 -16.1
v -8.8 0.1 -16.5
v -8.8 0.1 -16.2
v -8.5 0.1 -16.5
v -8.5 0.1 -16.2
v -8.4 0.1 -16.6
v -8.4 0.1 -16.1
v -8.3 0.1 -16.7
v -8.3 0.1 -16
v -8.2 0.1 -16.8
v -8.2 0.1 -15.9
v -9.1 2 -16.8
v -9.1 2 -15.9
v -9 2 -16.7
v -9 2 -16
v -8.9 2 -16.6
v -8.9 2 -16.1
v -8.8 2 -16.5
v -8.8 2 -16.2
v -8.5 2 -16.5
v -8.5 2 -16.2
v -8.4 2 -16.6
v -8.4 2 -16.1
v -8.3 2 -16.7
v -8.3 2 -16
v -8.2 2 -16.8
v -8.2 2 -15.9
v -9.2 2.1 -16.9
v -9.2 2.1 -15.8
v -9.1 2.1 -16.8
v -9.1 2.1 -15.9
v -8.2 2.1 -16.8
v -8.2 2.1 -15.9
v -8.1 2.1 -16.9
v -8.1 2.1 -15.8

# faces
f 3/5/1 2/5/1 1/5/1
f 4/5/1 2/5/1 3/5/1
f 5/3/1 4/3/1 3/3/1
f 6/3/1 4/3/1 5/3/1
f 7/3/1 4/3/1 6/3/1
f 8/3/1 4/3/1 7/3/1
f 9/3/1 4/3/1 8/3/1
f 10/3/1 4/3/1 9/3/1
f 11/3/1 5/3/1 3/3/1
f 11/2/1 6/2/1 5/2/1
f 12/3/1 7/3/1 6/3/1
f 12/2/1 6/2/1 11/2/1
f 13/2/1 8/2/1 7/2/1
f 13/3/1 7/3/1 12/3/1
f 14/3/1 9/3/1 8/3/1
f 14/2/1 8/2/1 13/2/1
f 15/2/1 10/2/1 9/2/1
f 15/3/1 9/3/1 14/3/1
f 16/3/1 4/3/1 10/3/1
f 16/2/1 10/2/1 15/2/1
f 17/3/1 15/3/1 14/3/1
f 17/3/1 14/3/1 13/3/1
f 17/3/1 16/3/1 15/3/1
f 17/3/1 13/3/1 12/3/1
f 17/3/1 12/3/1 11/3/1
f 18/3/1 16/3/1 17/3/1
f 19/3/1 16/3/1 18/3/1
f 20/3/1 16/3/1 19/3/1
f 21/3/1 16/3/1 20/3/1
f 22/3/1 16/3/1 21/3/1
f 23/3/1 19/3/1 18/3/1
f 24/1/1 20/1/1 19/1/1
f 24/3/1 19/3/1 23/3/1
f 25/3/1 21/3/1 20/3/1
f 25/1/1 20/1/1 24/1/1
f 26/3/1 21/3/1 25/3/1
f 27/3/1 11/3/1 3/3/1
f 27/3/1 17/3/1 11/3/1
f 28/1/1 18/1/1 17/1/1
f 28/3/1 17/3/1 27/3/1
f 29/3/1 23/3/1 18/3/1
f 29/1/1 18/1/1 28/1/1
f 30/1/1 24/1/1 23/1/1
f 30/3/1 23/3/1 29/3/1
f 31/3/1 25/3/1 24/3/1
f 31/1/1 24/1/1 30/1/1
f 32/1/1 26/1/1 25/1/1
f 32/3/1 25/3/1 31/3/1
f 33/3/1 21/3/1 26/3/1
f 33/1/1 26/1/1 32/1/1
f 34/1/1 22/1/1 21/1/1
f 34/3/1 21/3/1 33/3/1
f 35/3/1 16/3/1 22/3/1
f 35/1/1 22/1/1 34/1/1
f 36/3/1 4/3/1 16/3/1
f 36/3/1 16/3/1 35/3/1
f 37/3/1 27/3/1 3/3/1
f 37/1/1 28/1/1 27/1/1
f 37/1/1 29/1/1 28/1/1
f 37/1/1 30/1/1 29/1/1
f 38/3/1 31/3/1 30/3/1
f 38/1/1 30/1/1 37/1/1
f 39/1/1 32/1/1 31/1/1
f 39/3/1 31/3/1 38/3/1
f 40/3/1 33/3/1 32/3/1
f 40/1/1 32/1/1 39/1/1
f 41/1/1 35/1/1 34/1/1
f 41/3/1 33/3/1 40/3/1
f 41/1/1 34/1/1 33/1/1
f 41/1/1 36/1/1 35/1/1
f 42/3/1 4/3/1 36/3/1
f 42/1/1 36/1/1 41/1/1
f 43/3/1 40/3/1 39/3/1
f 43/3/1 38/3/1 37/3/1
f 43/3/1 42/3/1 41/3/1
f 43/3/1 39/3/1 38/3/1
f 43/3/1 41/3/1 40/3/1
f 44/3/1 42/3/1 43/3/1
f 45/3/1 37/3/1 3/3/1
f 45/3/1 43/3/1 37/3/1
f 46/2/1 44/2/1 43/2/1
f 46/3/1 43/3/1 45/3/1
f 47/3/1 42/3/1 44/3/1
f 47/2/1 44/2/1 46/2/1
f 48/3/1 4/3/1 42/3/1
f 48/3/1 42/3/1 47/3/1
f 49/2/1 47/2/1 46/2/1
f 49/1/1 46/1/1 45/1/1
f 50/1/1 48/1/1 47/1/1
f 50/2/1 47/2/1 49/2/1
f 51/1/1 49/1/1 45/1/1
f 51/1/1 50/1/1 49/1/1
f 52/1/1 50/1/1 51/1/1
f 53/1/1 50/1/1 52/1/1
f 54/1/1 50/1/1 53/1/1
f 55/1/1 48/1/1 50/1/1
f 55/1/1 50/1/1 54/1/1
f 56/1/1 48/1/1 55/1/1
f 57/1/1 48/1/1 56/1/1
f 58/1/1 48/1/1 57/1/1
f 59/1/1 51/1/1 45/1/1
f 59/2/1 52/2/1 51/2/1
f 60/1/1 53/1/1 52/1/1
f 60/2/1 52/2/1 59/2/1
f 61/2/1 54/2/1 53/2/1
f 61/1/1 53/1/1 60/1/1
f 62/1/1 55/1/1 54/1/1
f 62/2/1 54/2/1 61/2/1
f 63/2/1 56/2/1 55/2/1
f 63/1/1 55/1/1 62/1/1
f 64/1/1 57/1/1 56/1/1
f 64/2/1 56/2/1 63/2/1
f 65/2/1 58/2/1 57/2/1
f 65/1/1 57/1/1 64/1/1
f 66/1/1 48/1/1 58/1/1
f 66/2/1 58/2/1 65/2/1
f 67/3/1 60/3/1 59/3/1
f 67/3/1 61/3/1 60/3/1
f 68/1/1 65/1/1 64/1/1
f 68/3/1 61/3/1 67/3/1
f 68/1/1 64/1/1 63/1/1
f 68/1/1 63/1/1 62/1/1
f 68/1/1 62/1/1 61/1/1
f 69/1/1 65/1/1 68/1/1
f 70/1/1 65/1/1 69/1/1
f 71/1/1 65/1/1 70/1/1
f 72/3/1 67/3/1 59/3/1
f 72/1/1 59/1/1 45/1/1
f 73/1/1 68/1/1 67/1/1
f 73/3/1 67/3/1 72/3/1
f 74/1/1 68/1/1 73/1/1
f 75/3/1 69/3/1 68/3/1
f 76/1/1 70/1/1 69/1/1
f 76/3/1 69/3/1 75/3/1
f 77/3/1 71/3/1 70/3/1
f 77/1/1 70/1/1 76/1/1
f 78/1/1 73/1/1 72/1/1
f 78/3/1 74/3/1 73/3/1
f 79/1/1 68/1/1 74/1/1
f 79/3/1 74/3/1 78/3/1
f 80/3/1 75/3/1 68/3/1
f 80/1/1 68/1/1 79/1/1
f 81/1/1 76/1/1 75/1/1
f 81/3/1 75/3/1 80/3/1
f 82/3/1 77/3/1 76/3/1
f 82/1/1 76/1/1 81/1/1
f 83/3/1 71/3/1 77/3/1
f 83/3/1 77/3/1 82/3/1
f 84/1/1 65/1/1 71/1/1
f 84/3/1 71/3/1 83/3/1
f 85/3/1 66/3/1 65/3/1
f 85/1/1 65/1/1 84/1/1
f 86/1/1 48/1/1 66/1/1
f 86/3/1 66/3/1 85/3/1
f 87/1/1 72/1/1 45/1/1
f 87/1/1 78/1/1 72/1/1
f 87/1/1 79/1/1 78/1/1
f 88/3/1 80/3/1 79/3/1
f 88/1/1 79/1/1 87/1/1
f 89/1/1 81/1/1 80/1/1
f 89/3/1 82/3/1 81/3/1
f 90/1/1 83/1/1 82/1/1
f 90/3/1 82/3/1 89/3/1
f 91/3/1 85/3/1 84/3/1
f 91/1/1 83/1/1 90/1/1
f 91/3/1 84/3/1 83/3/1
f 92/3/1 85/3/1 91/3/1
f 93/1/1 86/1/1 85/1/1
f 93/3/1 85/3/1 92/3/1
f 94/1/1 48/1/1 86/1/1
f 94/1/1 86/1/1 93/1/1
f 95/3/1 88/3/1 87/3/1
f 95/1/1 87/1/1 45/1/1
f 96/1/1 90/1/1 89/1/1
f 96/3/1 88/3/1 95/3/1
f 96/1/1 89/1/1 80/1/1
f 96/3/1 80/3/1 88/3/1
f 97/3/1 91/3/1 90/3/1
f 97/1/1 90/1/1 96/1/1
f 97/3/1 92/3/1 91/3/1
f 98/1/1 93/1/1 92/1/1
f 98/3/1 92/3/1 97/3/1
f 99/3/1 94/3/1 93/3/1
f 99/1/1 93/1/1 98/1/1
f 100/1/1 48/1/1 94/1/1
f 100/3/1 94/3/1 99/3/1
f 101/1/1 95/1/1 45/1/1
f 101/1/1 96/1/1 95/1/1
f 101/1/1 100/1/1 99/1/1
f 101/1/1 97/1/1 96/1/1
f 101/1/1 98/1/1 97/1/1
f 101/1/1 99/1/1 98/1/1
f 102/1/1 48/1/1 100/1/1
f 102/1/1 100/1/1 101/1/1
f 103/5/1 102/5/1 101/5/1
f 104/5/1 102/5/1 103/5/1
f 107/5/1 106/5/1 105/5/1
f 108/5/1 106/5/1 107/5/1
f 111/5/1 110/5/1 109/5/1
f 112/5/1 110/5/1 111/5/1
f 113/5/2 114/5/2 115/5/2
f 115/5/2 114/5/2 116/5/2
f 117/5/2 118/5/2 119/5/2
f 119/5/2 118/5/2 120/5/2
f 121/5/2 122/5/2 123/5/2
f 123/5/2 122/5/2 124/5/2
f 123/3/2 124/3/2 125/3/2
f 125/3/2 124/3/2 126/3/2
f 126/3/2 124/3/2 127/3/2
f 127/3/2 124/3/2 128/3/2
f 128/3/2 124/3/2 129/3/2
f 129/3/2 124/3/2 130/3/2
f 123/3/2 125/3/2 131/3/2
f 125/2/2 126/2/2 131/2/2
f 126/3/2 127/3/2 132/3/2
f 131/2/2 126/2/2 132/2/2
f 127/2/2 128/2/2 133/2/2
f 132/3/2 127/3/2 133/3/2
f 128/3/2 129/3/2 134/3/2
f 133/2/2 128/2/2 134/2/2
f 129/2/2 130/2/2 135/2/2
f 134/3/2 129/3/2 135/3/2
f 130/3/2 124/3/2 136/3/2
f 135/2/2 130/2/2 136/2/2
f 134/3/2 135/3/2 137/3/2
f 133/3/2 134/3/2 137/3/2
f 135/3/2 136/3/2 137/3/2
f 132/3/2 133/3/2 137/3/2
f 131/3/2 132/3/2 137/3/2
f 137/3/2 136/3/2 138/3/2
f 138/3/2 136/3/2 139/3/2
f 139/3/2 136/3/2 140/3/2
f 140/3/2 136/3/2 141/3/2
f 141/3/2 136/3/2 142/3/2
f 138/3/2 139/3/2 143/3/2
f 139/1/2 140/1/2 144/1/2
f 143/3/2 139/3/2 144/3/2
f 140/3/2 141/3/2 145/3/2
f 144/1/2 140/1/2 145/1/2
f 145/3/2 141/3/2 146/3/2
f 123/3/2 131/3/2 147/3/2
f 131/3/2 137/3/2 147/3/2
f 137/1/2 138/1/2 148/1/2
f 147/3/2 137/3/2 148/3/2
f 138/3/2 143/3/2 149/3/2
f 148/1/2 138/1/2 149/1/2
f 143/1/2 144/1/2 150/1/2
f 149/3/2 143/3/2 150/3/2
f 144/3/2 145/3/2 151/3/2
f 150/1/2 144/1/2 151/1/2
f 145/1/2 146/1/2 152/1/2
f 151/3/2 145/3/2 152/3/2
f 146/3/2 141/3/2 153/3/2
f 152/1/2 146/1/2 153/1/2
f 141/1/2 142/1/2 154/1/2
f 153/3/2 141/3/2 154/3/2
f 142/3/2 136/3/2 155/3/2
f 154/1/2 142/1/2 155/1/2
f 136/3/2 124/3/2 156/3/2
f 155/3/2 136/3/2 156/3/2
f 123/3/2 147/3/2 157/3/2
f 147/1/2 148/1/2 157/1/2
f 148/1/2 149/1/2 157/1/2
f 149/1/2 150/1/2 157/1/2
f 150/3/2 151/3/2 158/3/2
f 157/1/2 150/1/2 158/1/2
f 151/1/2 152/1/2 159/1/2
f 158/3/2 151/3/2 159/3/2
f 152/3/2 153/3/2 160/3/2
f 159/1/2 152/1/2 160/1/2
f 154/1/2 155/1/2 161/1/2
f 160/3/2 153/3/2 161/3/2
f 153/1/2 154/1/2 161/1/2
f 155/1/2 156/1/2 161/1/2
f 156/3/2 124/3/2 162/3/2
f 161/1/2 156/1/2 162/1/2
f 159/3/2 160/3/2 163/3/2
f 157/3/2 158/3/2 163/3/2
f 161/3/2 162/3/2 163/3/2
f 158/3/2 159/3/2 163/3/2
f 160/3/2 161/3/2 163/3/2
f 163/3/2 162/3/2 164/3/2
f 123/3/2 157/3/2 165/3/2
f 157/3/2 163/3/2 165/3/2
f 163/2/2 164/2/2 166/2/2
f 165/3/2 163/3/2 166/3/2
f 164/3/2 162/3/2 167/3/2
f 166/2/2 164/2/2 167/2/2
f 162/3/2 124/3/2 168/3/2
f 167/3/2 162/3/2 168/3/2
f 166/2/2 167/2/2 169/2/2
f 165/1/2 166/1/2 169/1/2
f 167/1/2 168/1/2 170/1/2
f 169/2/2 167/2/2 170/2/2
f 165/1/2 169/1/2 171/1/2
f 169/1/2 170/1/2 171/1/2
f 171/1/2 170/1/2 172/1/2
f 172/1/2 170/1/2 173/1/2
f 173/1/2 170/1/2 174/1/2
f 170/1/2 168/1/2 175/1/2
f 174/1/2 170/1/2 175/1/2
f 175/1/2 168/1/2 176/1/2
f 176/1/2 168/1/2 177/1/2
f 177/1/2 168/1/2 178/1/2
f 165/1/2 171/1/2 179/1/2
f 171/2/2 172/2/2 179/2/2
f 172/1/2 173/1/2 180/1/2
f 179/2/2 172/2/2 180/2/2
f 173/2/2 174/2/2 181/2/2
f 180/1/2 173/1/2 181/1/2
f 174/1/2 175/1/2 182/1/2
f 181/2/2 174/2/2 182/2/2
f 175/2/2 176/2/2 183/2/2
f 182/1/2 175/1/2 183/1/2
f 176/1/2 177/1/2 184/1/2
f 183/2/2 176/2/2 184/2/2
f 177/2/2 178/2/2 185/2/2
f 184/1/2 177/1/2 185/1/2
f 178/1/2 168/1/2 186/1/2
f 185/2/2 178/2/2 186/2/2
f 179/3/2 180/3/2 187/3/2
f 180/3/2 181/3/2 187/3/2
f 184/1/2 185/1/2 188/1/2
f 187/3/2 181/3/2 188/3/2
f 183/1/2 184/1/2 188/1/2
f 182/1/2 183/1/2 188/1/2
f 181/1/2 182/1/2 188/1/2
f 188/1/2 185/1/2 189/1/2
f 189/1/2 185/1/2 190/1/2
f 190/1/2 185/1/2 191/1/2
f 179/3/2 187/3/2 192/3/2
f 165/1/2 179/1/2 192/1/2
f 187/1/2 188/1/2 193/1/2
f 192/3/2 187/3/2 193/3/2
f 193/1/2 188/1/2 194/1/2
f 188/3/2 189/3/2 195/3/2
f 189/1/2 190/1/2 196/1/2
f 195/3/2 189/3/2 196/3/2
f 190/3/2 191/3/2 197/3/2
f 196/1/2 190/1/2 197/1/2
f 192/1/2 193/1/2 198/1/2
f 193/3/2 194/3/2 198/3/2
f 194/1/2 188/1/2 199/1/2
f 198/3/2 194/3/2 199/3/2
f 188/3/2 195/3/2 200/3/2
f 199/1/2 188/1/2 200/1/2
f 195/1/2 196/1/2 201/1/2
f 200/3/2 195/3/2 201/3/2
f 196/3/2 197/3/2 202/3/2
f 201/1/2 196/1/2 202/1/2
f 197/3/2 191/3/2 203/3/2
f 202/3/2 197/3/2 203/3/2
f 191/1/2 185/1/2 204/1/2
f 203/3/2 191/3/2 204/3/2
f 185/3/2 186/3/2 205/3/2
f 204/1/2 185/1/2 205/1/2
f 186/1/2 168/1/2 206/1/2
f 205/3/2 186/3/2 206/3/2
f 165/1/2 192/1/2 207/1/2
f 192/1/2 198/1/2 207/1/2
f 198/1/2 199/1/2 207/1/2
f 199/3/2 200/3/2 208/3/2
f 207/1/2 199/1/2 208/1/2
f 200/1/2 201/1/2 209/1/2
f 201/3/2 202/3/2 209/3/2
f 202/1/2 203/1/2 210/1/2
f 209/3/2 202/3/2 210/3/2
f 204/3/2 205/3/2 211/3/2
f 210/1/2 203/1/2 211/1/2
f 203/3/2 204/3/2 211/3/2
f 211/3/2 205/3/2 212/3/2
f 205/1/2 206/1/2 213/1/2
f 212/3/2 205/3/2 213/3/2
f 206/1/2 168/1/2 214/1/2
f 213/1/2 206/1/2 214/1/2
f 207/3/2 208/3/2 215/3/2
f 165/1/2 207/1/2 215/1/2
f 209/1/2 210/1/2 216/1/2
f 215/3/2 208/3/2 216/3/2
f 200/1/2 209/1/2 216/1/2
f 208/3/2 200/3/2 216/3/2
f 210/3/2 211/3/2 217/3/2
f 216/1/2 210/1/2 217/1/2
f 211/3/2 212/3/2 217/3/2
f 212/1/2 213/1/2 218/1/2
f 217/3/2 212/3/2 218/3/2
f 213/3/2 214/3/2 219/3/2
f 218/1/2 213/1/2 219/1/2
f 214/1/2 168/1/2 220/1/2
f 219/3/2 214/3/2 220/3/2
f 165/1/2 215/1/2 221/1/2
f 215/1/2 216/1/2 221/1/2
f 219/1/2 220/1/2 221/1/2
f 216/1/2 217/1/2 221/1/2
f 217/1/2 218/1/2 221/1/2
f 218/1/2 219/1/2 221/1/2
f 220/1/2 168/1/2 222/1/2
f 221/1/2 220/1/2 222/1/2
f 221/5/2 222/5/2 223/5/2
f 223/5/2 222/5/2 224/5/2
f 230/3/3 227/3/3 226/3/3
f 231/3/3 227/3/3 230/3/3
f 232/3/3 230/3/3 226/3/3
f 232/2/3 231/2/3 230/2/3
f 233/2/3 231/2/3 232/2/3
f 234/3/3 233/3/3 232/3/3
f 234/2/3 231/2/3 233/2/3
f 235/3/3 227/3/3 231/3/3
f 235/2/3 231/2/3 234/2/3
f 236/3/3 234/3/3 232/3/3
f 236/3/3 232/3/3 226/3/3
f 236/3/3 235/3/3 234/3/3
f 237/3/3 227/3/3 235/3/3
f 237/3/3 235/3/3 236/3/3
f 238/2/3 237/2/3 236/2/3
f 239/2/3 237/2/3 238/2/3
f 240/3/3 239/3/3 238/3/3
f 241/3/3 239/3/3 240/3/3
f 242/3/3 239/3/3 241/3/3
f 243/3/3 239/3/3 242/3/3
f 244/3/3 240/3/3 238/3/3
f 244/2/3 241/2/3 240/2/3
f 245/3/3 242/3/3 241/3/3
f 245/2/3 241/2/3 244/2/3
f 246/2/3 243/2/3 242/2/3
f 246/3/3 242/3/3 245/3/3
f 246/3/3 245/3/3 244/3/3
f 247/3/3 239/3/3 243/3/3
f 247/2/3 243/2/3 246/2/3
f 248/2/3 238/2/3 236/2/3
f 248/3/3 246/3/3 244/3/3
f 248/3/3 247/3/3 246/3/3
f 248/3/3 244/3/3 238/3/3
f 249/3/3 239/3/3 247/3/3
f 249/3/3 247/3/3 248/3/3
f 249/2/3 237/2/3 239/2/3
f 250/3/3 236/3/3 226/3/3
f 250/2/3 248/2/3 236/2/3
f 250/2/3 249/2/3 248/2/3
f 251/2/3 237/2/3 249/2/3
f 251/2/3 249/2/3 250/2/3
f 251/3/3 227/3/3 237/3/3
f 252/5/3 226/5/3 225/5/3
f 253/3/3 250/3/3 226/3/3
f 253/5/3 226/5/3 252/5/3
f 253/3/3 251/3/3 250/3/3
f 254/3/3 227/3/3 251/3/3
f 254/3/3 251/3/3 253/3/3
f 254/1/3 228/1/3 227/1/3
f 255/5/3 229/5/3 228/5/3
f 255/1/3 228/1/3 254/1/3
f 256/5/3 229/5/3 255/5/3
f 261/5/3 258/5/3 257/5/3
f 262/5/3 258/5/3 261/5/3
f 263/5/3 260/5/3 259/5/3
f 264/5/3 260/5/3 263/5/3
f 265/5/4 266/5/4 269/5/4
f 269/5/4 266/5/4 270/5/4
f 267/5/4 268/5/4 271/5/4
f 271/5/4 268/5/4 272/5/4
f 274/3/4 275/3/4 278/3/4
f 278/3/4 275/3/4 279/3/4
f 279/3/4 275/3/4 280/3/4
f 280/3/4 275/3/4 281/3/4
f 281/3/4 275/3/4 282/3/4
f 282/3/4 275/3/4 283/3/4
f 278/2/4 279/2/4 284/2/4
f 284/2/4 279/2/4 285/2/4
f 281/3/4 282/3/4 286/3/4
f 282/2/4 283/2/4 286/2/4
f 283/3/4 275/3/4 287/3/4
f 286/2/4 283/2/4 287/2/4
f 281/3/4 286/3/4 288/3/4
f 286/3/4 287/3/4 288/3/4
f 287/3/4 275/3/4 289/3/4
f 288/3/4 287/3/4 289/3/4
f 284/3/4 285/3/4 290/3/4
f 278/2/4 284/2/4 290/2/4
f 285/2/4 279/2/4 291/2/4
f 290/3/4 285/3/4 291/3/4
f 274/3/4 278/3/4 292/3/4
f 278/2/4 290/2/4 292/2/4
f 290/2/4 291/2/4 292/2/4
f 291/2/4 279/2/4 293/2/4
f 292/2/4 291/2/4 293/2/4
f 279/3/4 280/3/4 293/3/4
f 280/2/4 281/2/4 294/2/4
f 293/3/4 280/3/4 294/3/4
f 281/3/4 288/3/4 295/3/4
f 294/2/4 281/2/4 295/2/4
f 288/2/4 289/2/4 296/2/4
f 295/3/4 288/3/4 296/3/4
f 289/3/4 275/3/4 297/3/4
f 296/2/4 289/2/4 297/2/4
f 293/3/4 294/3/4 298/3/4
f 295/3/4 296/3/4 298/3/4
f 296/3/4 297/3/4 298/3/4
f 294/3/4 295/3/4 298/3/4
f 292/3/4 293/3/4 298/3/4
f 298/3/4 297/3/4 299/3/4
f 274/3/4 292/3/4 300/3/4
f 292/3/4 298/3/4 300/3/4
f 298/2/4 299/2/4 301/2/4
f 300/3/4 298/3/4 301/3/4
f 299/3/4 297/3/4 302/3/4
f 297/3/4 275/3/4 303/3/4
f 302/3/4 297/3/4 303/3/4
f 274/3/4 300/3/4 304/3/4
f 300/2/4 301/2/4 304/2/4
f 301/2/4 299/2/4 305/2/4
f 304/2/4 301/2/4 305/2/4
f 299/3/4 302/3/4 305/3/4
f 302/2/4 303/2/4 306/2/4
f 305/3/4 302/3/4 306/3/4
f 303/3/4 275/3/4 307/3/4
f 306/2/4 303/2/4 307/2/4
f 273/5/4 274/5/4 308/5/4
f 274/3/4 304/3/4 309/3/4
f 308/5/4 274/5/4 309/5/4
f 304/3/4 305/3/4 309/3/4
f 306/3/4 307/3/4 309/3/4
f 305/3/4 306/3/4 309/3/4
f 307/3/4 275/3/4 310/3/4
f 309/3/4 307/3/4 310/3/4
f 275/1/4 276/1/4 310/1/4
f 276/5/4 277/5/4 311/5/4
f 310/1/4 276/1/4 311/1/4
f 311/5/4 277/5/4 312/5/4
f 315/5/5 314/5/5 313/5/5
f 316/5/5 314/5/5 315/5/5
f 317/5/5 315/5/5 313/5/5
f 318/5/5 314/5/5 316/5/5
f 319/5/5 317/5/5 313/5/5
f 319/5/5 318/5/5 317/5/5
f 320/5/5 314/5/5 318/5/5
f 320/5/5 318/5/5 319/5/5
f 323/5/5 322/5/5 321/5/5
f 324/5/5 322/5/5 323/5/5
f 325/4/5 324/4/5 323/4/5
f 326/4/5 324/4/5 325/4/5
f 327/5/5 326/5/5 325/5/5
f 328/5/5 326/5/5 327/5/5
f 329/5/5 327/5/5 325/5/5
f 329/4/5 328/4/5 327/4/5
f 330/5/5 326/5/5 328/5/5
f 330/4/5 328/4/5 329/4/5
f 331/4/5 325/4/5 323/4/5
f 331/5/5 329/5/5 325/5/5
f 331/5/5 330/5/5 329/5/5
f 332/5/5 326/5/5 330/5/5
f 332/5/5 330/5/5 331/5/5
f 332/4/5 324/4/5 326/4/5
f 333/5/5 323/5/5 321/5/5
f 333/4/5 331/4/5 323/4/5
f 333/4/5 332/4/5 331/4/5
f 334/4/5 324/4/5 332/4/5
f 334/4/5 332/4/5 333/4/5
f 334/5/5 322/5/5 324/5/5
f 335/5/5 333/5/5 321/5/5
f 335/5/5 334/5/5 333/5/5
f 336/5/5 322/5/5 334/5/5
f 336/5/5 334/5/5 335/5/5
f 337/6/6 338/6/6 339/6/6
f 339/6/6 338/6/6 340/6/6
f 339/5/6 340/5/6 341/5/6
f 341/5/6 340/5/6 342/5/6
f 341/6/6 342/6/6 343/6/6
f 343/6/6 342/6/6 344/6/6
f 341/6/6 343/6/6 345/6/6
f 343/5/6 344/5/6 345/5/6
f 344/6/6 342/6/6 346/6/6
f 345/5/6 344/5/6 346/5/6
f 339/5/6 341/5/6 347/5/6
f 341/6/6 345/6/6 347/6/6
f 345/6/6 346/6/6 347/6/6
f 346/6/6 342/6/6 348/6/6
f 347/6/6 346/6/6 348/6/6
f 342/5/6 340/5/6 348/5/6
f 337/6/6 339/6/6 349/6/6
f 339/5/6 347/5/6 349/5/6
f 347/5/6 348/5/6 349/5/6
f 348/5/6 340/5/6 350/5/6
f 349/5/6 348/5/6 350/5/6
f 340/6/6 338/6/6 350/6/6
f 337/6/6 349/6/6 351/6/6
f 349/6/6 350/6/6 351/6/6
f 350/6/6 338/6/6 352/6/6
f 351/6/6 350/6/6 352/6/6
f 353/5/6 354/5/6 355/5/6
f 355/5/6 354/5/6 356/5/6
f 353/5/6 355/5/6 357/5/6
f 356/5/6 354/5/6 358/5/6
f 353/5/6 357/5/6 359/5/6
f 357/5/6 358/5/6 359/5/6
f 358/5/6 354/5/6 360/5/6
f 359/5/6 358/5/6 360/5/6
