# MagicaVoxel @ Ephtracy

# group
o 

# material
mtllib Voxel Universe Objects-17.mtl
usemtl palette

# normals
vn 0 0 1
vn 0 0 -1
vn 1 0 0
vn -1 0 0
vn 0 -1 0
vn 0 1 0

# texcoords
vt 0.970703 0.5
vt 0.986328 0.5
vt 0.990234 0.5
vt 0.994141 0.5

# verts
v -8.9 0 3
v -9.4 0 3
v -8.8 0.1 3
v -8.9 0.1 3
v -9.4 0.1 3
v -9.5 0.1 3
v -9 0.2 3
v -9.3 0.2 3
v -9 0.5 3
v -9.3 0.5 3
v -8.8 0.6 3
v -8.9 0.6 3
v -9.4 0.6 3
v -9.5 0.6 3
v -8.9 0.7 3
v -9.4 0.7 3
v -9 0.2 2.9
v -9.3 0.2 2.9
v -9 0.5 2.9
v -9.3 0.5 2.9
v -9.4 0 2.5
v -9.9 0 2.5
v -9.4 0.1 2.5
v -9.5 0.2 2.5
v -9.8 0.2 2.5
v -9.5 0.3 2.5
v -9.8 0.3 2.5
v -9.5 0.4 2.5
v -9.8 0.4 2.5
v -9.5 0.5 2.5
v -9.8 0.5 2.5
v -9.4 0.6 2.5
v -9.5 0.6 2.5
v -9.8 0.6 2.5
v -9.5 0.7 2.5
v -9.8 0.7 2.5
v -9.4 0.8 2.5
v -9.9 0.8 2.5
v -9.5 0.8 2.4
v -9.8 0.8 2.4
v -9.5 0.9 2.4
v -9.8 0.9 2.4
v -8.5 0 2.3
v -9.4 0 2.3
v -8.9 0.1 2.3
v -9.4 0.1 2.3
v -8.6 0.5 2.3
v -8.8 0.5 2.3
v -8.6 0.6 2.3
v -8.8 0.6 2.3
v -8.9 0.6 2.3
v -9.4 0.6 2.3
v -8.5 0.7 2.3
v -9.4 0.7 2.3
v -9.6 0.9 2.3
v -9.7 0.9 2.3
v -9.6 1 2.3
v -9.7 1 2.3
v -8.9 0.7 2.2
v -9.4 0.7 2.2
v -9 0.8 2.2
v -9.3 0.8 2.2
v -9.4 0.8 2.2
v -9 0.9 2.2
v -9.3 0.9 2.2
v -8.9 1 2.2
v -9.4 1 2.2
v -9.5 0.8 2
v -9.8 0.8 2
v -9.5 0.9 2
v -9.8 0.9 2
v -8.9 0 2.8
v -9.4 0 2.8
v -8.8 0.1 2.8
v -8.9 0.1 2.8
v -9.4 0.1 2.8
v -9.5 0.1 2.8
v -8.8 0.6 2.8
v -8.9 0.6 2.8
v -9.4 0.6 2.8
v -9.5 0.6 2.8
v -8.9 0.7 2.8
v -9.4 0.7 2.8
v -9.6 0.9 2.2
v -9.7 0.9 2.2
v -9.6 1 2.2
v -9.7 1 2.2
v -9.5 0.8 2.1
v -9.8 0.8 2.1
v -9.5 0.9 2.1
v -9.8 0.9 2.1
v -9 0.7 1.9
v -9.3 0.7 1.9
v -9 0.9 1.9
v -9.3 0.9 1.9
v -8.5 0 1.8
v -9.9 0 1.8
v -8.7 0.1 1.8
v -9.4 0.1 1.8
v -9.6 0.2 1.8
v -9.7 0.2 1.8
v -9.5 0.3 1.8
v -9.6 0.3 1.8
v -9.7 0.3 1.8
v -9.8 0.3 1.8
v -9.5 0.4 1.8
v -9.6 0.4 1.8
v -9.7 0.4 1.8
v -9.8 0.4 1.8
v -9.6 0.5 1.8
v -9.7 0.5 1.8
v -8.7 0.6 1.8
v -9.4 0.6 1.8
v -8.5 0.7 1.8
v -8.9 0.7 1.8
v -9 0.7 1.8
v -9.3 0.7 1.8
v -9.4 0.8 1.8
v -9.5 0.8 1.8
v -9.6 0.8 1.8
v -9.7 0.8 1.8
v -9.8 0.8 1.8
v -9.9 0.8 1.8
v -9 0.9 1.8
v -9.3 0.9 1.8
v -9.5 0.9 1.8
v -9.6 0.9 1.8
v -9.7 0.9 1.8
v -9.8 0.9 1.8
v -8.9 1 1.8
v -9.4 1 1.8
v -8.5 0 2.3
v -8.5 0.7 2.3
v -8.5 0 1.8
v -8.5 0.7 1.8
v -8.8 0.1 3
v -8.8 0.6 3
v -8.8 0.1 2.8
v -8.8 0.6 2.8
v -8.9 0 3
v -8.9 0.1 3
v -8.9 0.6 3
v -8.9 0.7 3
v -8.9 0 2.8
v -8.9 0.1 2.8
v -8.9 0.6 2.8
v -8.9 0.7 2.8
v -8.9 0.1 2.7
v -8.9 0.6 2.7
v -8.9 0.1 2.6
v -8.9 0.6 2.6
v -8.9 0.1 2.5
v -8.9 0.6 2.5
v -8.9 0.1 2.3
v -8.9 0.6 2.3
v -8.9 0.7 2.2
v -8.9 1 2.2
v -8.9 0.7 1.8
v -8.9 1 1.8
v -9.3 0.2 3
v -9.3 0.5 3
v -9.3 0.2 2.9
v -9.3 0.5 2.9
v -9.3 0.7 1.9
v -9.3 0.9 1.9
v -9.3 0.7 1.8
v -9.3 0.9 1.8
v -9.4 0 2.5
v -9.4 0.1 2.5
v -9.4 0.6 2.5
v -9.4 0.8 2.5
v -9.4 0 2.3
v -9.4 0.1 2.3
v -9.4 0.6 2.3
v -9.4 0.7 2.3
v -9.4 0.7 2.2
v -9.4 0.8 2.2
v -9.5 0.8 2.4
v -9.5 0.9 2.4
v -9.5 0.8 2.1
v -9.5 0.9 2.1
v -9.5 0.8 2
v -9.5 0.9 2
v -9.5 0.8 1.8
v -9.5 0.9 1.8
v -9.6 0.9 2.3
v -9.6 1 2.3
v -9.6 0.9 2.2
v -9.6 1 2.2
v -9 0.2 3
v -9 0.5 3
v -9 0.2 2.9
v -9 0.5 2.9
v -9 0.7 1.9
v -9 0.9 1.9
v -9 0.7 1.8
v -9 0.9 1.8
v -9.4 0 3
v -9.4 0.1 3
v -9.4 0.6 3
v -9.4 0.7 3
v -9.4 0 2.8
v -9.4 0.1 2.8
v -9.4 0.6 2.8
v -9.4 0.7 2.8
v -9.4 0.1 2.7
v -9.4 0.6 2.7
v -9.4 0.1 2.6
v -9.4 0.6 2.6
v -9.4 0.1 2.5
v -9.4 0.6 2.5
v -9.4 0.8 2.2
v -9.4 1 2.2
v -9.4 0.8 1.8
v -9.4 1 1.8
v -9.5 0.1 3
v -9.5 0.6 3
v -9.5 0.1 2.8
v -9.5 0.6 2.8
v -9.7 0.9 2.3
v -9.7 1 2.3
v -9.7 0.9 2.2
v -9.7 1 2.2
v -9.8 0.8 2.4
v -9.8 0.9 2.4
v -9.8 0.8 2.1
v -9.8 0.9 2.1
v -9.8 0.8 2
v -9.8 0.9 2
v -9.8 0.8 1.8
v -9.8 0.9 1.8
v -9.9 0 2.5
v -9.9 0.8 2.5
v -9.9 0.2 2.4
v -9.9 0.3 2.4
v -9.9 0.4 2.4
v -9.9 0.5 2.4
v -9.9 0.6 2.4
v -9.9 0.7 2.4
v -9.9 0.2 1.9
v -9.9 0.3 1.9
v -9.9 0.4 1.9
v -9.9 0.5 1.9
v -9.9 0.6 1.9
v -9.9 0.7 1.9
v -9.9 0 1.8
v -9.9 0.8 1.8
v -8.5 0 2.3
v -8.5 0 1.8
v -8.9 0 3
v -8.9 0 2.8
v -9.4 0 3
v -9.4 0 2.8
v -9.4 0 2.5
v -9.4 0 2.3
v -9.9 0 2.5
v -9.9 0 1.8
v -8.8 0.1 3
v -8.8 0.1 2.8
v -8.9 0.1 3
v -8.9 0.1 2.8
v -8.9 0.1 2.7
v -8.9 0.1 2.6
v -8.9 0.1 2.5
v -8.9 0.1 2.3
v -9.4 0.1 3
v -9.4 0.1 2.8
v -9.4 0.1 2.7
v -9.4 0.1 2.6
v -9.4 0.1 2.5
v -9.4 0.1 2.3
v -9.5 0.1 3
v -9.5 0.1 2.8
v -9 0.5 3
v -9 0.5 2.9
v -9.3 0.5 3
v -9.3 0.5 2.9
v -9 0.9 1.9
v -9 0.9 1.8
v -9.3 0.9 1.9
v -9.3 0.9 1.8
v -9 0.2 3
v -9 0.2 2.9
v -9.3 0.2 3
v -9.3 0.2 2.9
v -8.8 0.6 3
v -8.8 0.6 2.8
v -8.9 0.6 3
v -8.9 0.6 2.8
v -8.9 0.6 2.7
v -8.9 0.6 2.6
v -8.9 0.6 2.5
v -8.9 0.6 2.3
v -9.4 0.6 3
v -9.4 0.6 2.8
v -9.4 0.6 2.7
v -9.4 0.6 2.6
v -9.4 0.6 2.5
v -9.4 0.6 2.3
v -9.5 0.6 3
v -9.5 0.6 2.8
v -8.5 0.7 2.3
v -8.5 0.7 1.8
v -8.6 0.7 2.1
v -8.6 0.7 1.9
v -8.8 0.7 2.1
v -8.8 0.7 1.9
v -8.9 0.7 3
v -8.9 0.7 2.8
v -8.9 0.7 2.2
v -8.9 0.7 1.8
v -9 0.7 1.9
v -9 0.7 1.8
v -9.3 0.7 1.9
v -9.3 0.7 1.8
v -9.4 0.7 3
v -9.4 0.7 2.8
v -9.4 0.7 2.3
v -9.4 0.7 2.2
v -9.4 0.8 2.5
v -9.4 0.8 2.2
v -9.4 0.8 1.8
v -9.5 0.8 2.4
v -9.5 0.8 2.1
v -9.5 0.8 2
v -9.5 0.8 1.8
v -9.8 0.8 2.4
v -9.8 0.8 2.1
v -9.8 0.8 2
v -9.8 0.8 1.8
v -9.9 0.8 2.5
v -9.9 0.8 1.8
v -9.5 0.9 2.4
v -9.5 0.9 2.1
v -9.5 0.9 2
v -9.5 0.9 1.8
v -9.6 0.9 2.3
v -9.6 0.9 2.2
v -9.6 0.9 1.9
v -9.6 0.9 1.8
v -9.7 0.9 2.3
v -9.7 0.9 2.2
v -9.7 0.9 1.9
v -9.7 0.9 1.8
v -9.8 0.9 2.4
v -9.8 0.9 2.1
v -9.8 0.9 2
v -9.8 0.9 1.8
v -8.9 1 2.2
v -8.9 1 1.8
v -9.4 1 2.2
v -9.4 1 1.8
v -9.6 1 2.3
v -9.6 1 2.2
v -9.7 1 2.3
v -9.7 1 2.2

# faces
f 4/3/1 2/3/1 1/3/1
f 5/3/1 2/3/1 4/3/1
f 7/3/1 4/3/1 3/3/1
f 7/3/1 6/3/1 5/3/1
f 7/3/1 5/3/1 4/3/1
f 8/3/1 6/3/1 7/3/1
f 9/3/1 7/3/1 3/3/1
f 10/3/1 6/3/1 8/3/1
f 11/3/1 9/3/1 3/3/1
f 11/3/1 10/3/1 9/3/1
f 12/3/1 10/3/1 11/3/1
f 13/3/1 6/3/1 10/3/1
f 13/3/1 10/3/1 12/3/1
f 14/3/1 6/3/1 13/3/1
f 15/3/1 13/3/1 12/3/1
f 16/3/1 13/3/1 15/3/1
f 19/4/1 18/4/1 17/4/1
f 20/4/1 18/4/1 19/4/1
f 23/3/1 22/3/1 21/3/1
f 24/3/1 22/3/1 23/3/1
f 25/3/1 22/3/1 24/3/1
f 26/3/1 24/3/1 23/3/1
f 26/2/1 25/2/1 24/2/1
f 27/3/1 22/3/1 25/3/1
f 27/2/1 25/2/1 26/2/1
f 28/3/1 26/3/1 23/3/1
f 28/3/1 27/3/1 26/3/1
f 29/3/1 22/3/1 27/3/1
f 29/3/1 27/3/1 28/3/1
f 30/3/1 28/3/1 23/3/1
f 30/2/1 29/2/1 28/2/1
f 31/3/1 22/3/1 29/3/1
f 31/2/1 29/2/1 30/2/1
f 32/3/1 30/3/1 23/3/1
f 32/3/1 31/3/1 30/3/1
f 33/3/1 31/3/1 32/3/1
f 34/3/1 22/3/1 31/3/1
f 34/3/1 31/3/1 33/3/1
f 35/3/1 33/3/1 32/3/1
f 35/2/1 34/2/1 33/2/1
f 36/3/1 22/3/1 34/3/1
f 36/2/1 34/2/1 35/2/1
f 37/3/1 35/3/1 32/3/1
f 37/3/1 36/3/1 35/3/1
f 38/3/1 22/3/1 36/3/1
f 38/3/1 36/3/1 37/3/1
f 41/3/1 40/3/1 39/3/1
f 42/3/1 40/3/1 41/3/1
f 45/3/1 44/3/1 43/3/1
f 46/3/1 44/3/1 45/3/1
f 47/3/1 45/3/1 43/3/1
f 48/3/1 45/3/1 47/3/1
f 49/3/1 47/3/1 43/3/1
f 49/1/1 48/1/1 47/1/1
f 50/3/1 45/3/1 48/3/1
f 50/1/1 48/1/1 49/1/1
f 51/3/1 45/3/1 50/3/1
f 53/3/1 49/3/1 43/3/1
f 53/3/1 52/3/1 51/3/1
f 53/3/1 51/3/1 50/3/1
f 53/3/1 50/3/1 49/3/1
f 54/3/1 52/3/1 53/3/1
f 57/1/1 56/1/1 55/1/1
f 58/1/1 56/1/1 57/1/1
f 61/3/1 60/3/1 59/3/1
f 62/3/1 60/3/1 61/3/1
f 63/3/1 60/3/1 62/3/1
f 64/3/1 61/3/1 59/3/1
f 64/1/1 62/1/1 61/1/1
f 65/3/1 63/3/1 62/3/1
f 65/1/1 62/1/1 64/1/1
f 66/3/1 64/3/1 59/3/1
f 66/3/1 65/3/1 64/3/1
f 67/3/1 63/3/1 65/3/1
f 67/3/1 65/3/1 66/3/1
f 70/3/1 69/3/1 68/3/1
f 71/3/1 69/3/1 70/3/1
f 72/3/2 73/3/2 75/3/2
f 75/3/2 73/3/2 76/3/2
f 74/3/2 75/3/2 78/3/2
f 78/3/2 75/3/2 79/3/2
f 76/3/2 77/3/2 80/3/2
f 80/3/2 77/3/2 81/3/2
f 79/3/2 80/3/2 82/3/2
f 82/3/2 80/3/2 83/3/2
f 84/1/2 85/1/2 86/1/2
f 86/1/2 85/1/2 87/1/2
f 88/3/2 89/3/2 90/3/2
f 90/3/2 89/3/2 91/3/2
f 92/4/2 93/4/2 94/4/2
f 94/4/2 93/4/2 95/4/2
f 96/3/2 97/3/2 98/3/2
f 98/3/2 97/3/2 99/3/2
f 99/3/2 97/3/2 100/3/2
f 100/3/2 97/3/2 101/3/2
f 99/3/2 100/3/2 102/3/2
f 100/1/2 101/1/2 103/1/2
f 102/3/2 100/3/2 103/3/2
f 101/3/2 97/3/2 104/3/2
f 103/1/2 101/1/2 104/1/2
f 104/3/2 97/3/2 105/3/2
f 102/1/2 103/1/2 106/1/2
f 99/3/2 102/3/2 106/3/2
f 103/3/2 104/3/2 107/3/2
f 106/1/2 103/1/2 107/1/2
f 104/1/2 105/1/2 108/1/2
f 107/3/2 104/3/2 108/3/2
f 105/3/2 97/3/2 109/3/2
f 108/1/2 105/1/2 109/1/2
f 107/1/2 108/1/2 110/1/2
f 106/3/2 107/3/2 110/3/2
f 108/3/2 109/3/2 111/3/2
f 110/1/2 108/1/2 111/1/2
f 96/3/2 98/3/2 112/3/2
f 98/4/2 99/4/2 112/4/2
f 110/3/2 111/3/2 113/3/2
f 112/4/2 99/4/2 113/4/2
f 106/3/2 110/3/2 113/3/2
f 99/3/2 106/3/2 113/3/2
f 96/3/2 112/3/2 114/3/2
f 112/3/2 113/3/2 114/3/2
f 114/3/2 113/3/2 115/3/2
f 115/3/2 113/3/2 116/3/2
f 116/3/2 113/3/2 117/3/2
f 113/3/2 111/3/2 118/3/2
f 117/3/2 113/3/2 118/3/2
f 118/3/2 111/3/2 119/3/2
f 119/3/2 111/3/2 120/3/2
f 111/3/2 109/3/2 121/3/2
f 120/3/2 111/3/2 121/3/2
f 109/3/2 97/3/2 122/3/2
f 121/3/2 109/3/2 122/3/2
f 122/3/2 97/3/2 123/3/2
f 115/3/2 116/3/2 124/3/2
f 117/3/2 118/3/2 125/3/2
f 119/3/2 120/3/2 126/3/2
f 120/2/2 121/2/2 127/2/2
f 126/3/2 120/3/2 127/3/2
f 121/3/2 122/3/2 128/3/2
f 127/2/2 121/2/2 128/2/2
f 128/3/2 122/3/2 129/3/2
f 124/3/2 125/3/2 130/3/2
f 115/3/2 124/3/2 130/3/2
f 125/3/2 118/3/2 131/3/2
f 130/3/2 125/3/2 131/3/2
f 134/3/3 133/3/3 132/3/3
f 135/3/3 133/3/3 134/3/3
f 138/3/3 137/3/3 136/3/3
f 139/3/3 137/3/3 138/3/3
f 144/3/3 141/3/3 140/3/3
f 145/3/3 141/3/3 144/3/3
f 146/3/3 143/3/3 142/3/3
f 147/3/3 143/3/3 146/3/3
f 148/4/3 146/4/3 145/4/3
f 149/4/3 146/4/3 148/4/3
f 150/3/3 149/3/3 148/3/3
f 151/3/3 149/3/3 150/3/3
f 152/4/3 151/4/3 150/4/3
f 153/4/3 151/4/3 152/4/3
f 154/3/3 153/3/3 152/3/3
f 155/3/3 153/3/3 154/3/3
f 158/3/3 157/3/3 156/3/3
f 159/3/3 157/3/3 158/3/3
f 162/3/3 161/3/3 160/3/3
f 163/3/3 161/3/3 162/3/3
f 166/3/3 165/3/3 164/3/3
f 167/3/3 165/3/3 166/3/3
f 172/3/3 169/3/3 168/3/3
f 173/3/3 169/3/3 172/3/3
f 174/3/3 171/3/3 170/3/3
f 175/3/3 171/3/3 174/3/3
f 176/3/3 171/3/3 175/3/3
f 177/3/3 171/3/3 176/3/3
f 180/3/3 179/3/3 178/3/3
f 181/3/3 179/3/3 180/3/3
f 184/3/3 183/3/3 182/3/3
f 185/3/3 183/3/3 184/3/3
f 188/1/3 187/1/3 186/1/3
f 189/1/3 187/1/3 188/1/3
f 190/3/4 191/3/4 192/3/4
f 192/3/4 191/3/4 193/3/4
f 194/3/4 195/3/4 196/3/4
f 196/3/4 195/3/4 197/3/4
f 198/3/4 199/3/4 202/3/4
f 202/3/4 199/3/4 203/3/4
f 200/3/4 201/3/4 204/3/4
f 204/3/4 201/3/4 205/3/4
f 203/4/4 204/4/4 206/4/4
f 206/4/4 204/4/4 207/4/4
f 206/3/4 207/3/4 208/3/4
f 208/3/4 207/3/4 209/3/4
f 208/4/4 209/4/4 210/4/4
f 210/4/4 209/4/4 211/4/4
f 212/3/4 213/3/4 214/3/4
f 214/3/4 213/3/4 215/3/4
f 216/3/4 217/3/4 218/3/4
f 218/3/4 217/3/4 219/3/4
f 220/1/4 221/1/4 222/1/4
f 222/1/4 221/1/4 223/1/4
f 224/3/4 225/3/4 226/3/4
f 226/3/4 225/3/4 227/3/4
f 228/3/4 229/3/4 230/3/4
f 230/3/4 229/3/4 231/3/4
f 232/3/4 233/3/4 234/3/4
f 234/3/4 233/3/4 235/3/4
f 235/3/4 233/3/4 236/3/4
f 236/3/4 233/3/4 237/3/4
f 237/3/4 233/3/4 238/3/4
f 238/3/4 233/3/4 239/3/4
f 232/3/4 234/3/4 240/3/4
f 234/2/4 235/2/4 240/2/4
f 235/3/4 236/3/4 241/3/4
f 240/2/4 235/2/4 241/2/4
f 236/2/4 237/2/4 242/2/4
f 241/3/4 236/3/4 242/3/4
f 237/3/4 238/3/4 243/3/4
f 242/2/4 237/2/4 243/2/4
f 238/2/4 239/2/4 244/2/4
f 243/3/4 238/3/4 244/3/4
f 239/3/4 233/3/4 245/3/4
f 244/2/4 239/2/4 245/2/4
f 243/3/4 244/3/4 246/3/4
f 242/3/4 243/3/4 246/3/4
f 244/3/4 245/3/4 246/3/4
f 241/3/4 242/3/4 246/3/4
f 240/3/4 241/3/4 246/3/4
f 232/3/4 240/3/4 246/3/4
f 245/3/4 233/3/4 247/3/4
f 246/3/4 245/3/4 247/3/4
f 252/3/5 251/3/5 250/3/5
f 253/3/5 251/3/5 252/3/5
f 255/3/5 249/3/5 248/3/5
f 256/3/5 255/3/5 254/3/5
f 257/3/5 249/3/5 255/3/5
f 257/3/5 255/3/5 256/3/5
f 260/3/5 259/3/5 258/3/5
f 261/3/5 259/3/5 260/3/5
f 267/4/5 262/4/5 261/4/5
f 268/3/5 263/3/5 262/3/5
f 268/4/5 262/4/5 267/4/5
f 269/4/5 264/4/5 263/4/5
f 269/3/5 263/3/5 268/3/5
f 270/3/5 265/3/5 264/3/5
f 270/4/5 264/4/5 269/4/5
f 271/3/5 265/3/5 270/3/5
f 272/3/5 267/3/5 266/3/5
f 273/3/5 267/3/5 272/3/5
f 276/3/5 275/3/5 274/3/5
f 277/3/5 275/3/5 276/3/5
f 280/3/5 279/3/5 278/3/5
f 281/3/5 279/3/5 280/3/5
f 282/3/6 283/3/6 284/3/6
f 284/3/6 283/3/6 285/3/6
f 286/3/6 287/3/6 288/3/6
f 288/3/6 287/3/6 289/3/6
f 289/4/6 290/4/6 295/4/6
f 290/3/6 291/3/6 296/3/6
f 295/4/6 290/4/6 296/4/6
f 291/4/6 292/4/6 297/4/6
f 296/3/6 291/3/6 297/3/6
f 292/3/6 293/3/6 298/3/6
f 297/4/6 292/4/6 298/4/6
f 298/3/6 293/3/6 299/3/6
f 294/3/6 295/3/6 300/3/6
f 300/3/6 295/3/6 301/3/6
f 302/3/6 303/3/6 304/3/6
f 304/3/6 303/3/6 305/3/6
f 302/3/6 304/3/6 306/3/6
f 304/2/6 305/2/6 306/2/6
f 305/3/6 303/3/6 307/3/6
f 306/2/6 305/2/6 307/2/6
f 302/3/6 306/3/6 310/3/6
f 306/3/6 307/3/6 310/3/6
f 307/3/6 303/3/6 311/3/6
f 310/3/6 307/3/6 311/3/6
f 312/3/6 313/3/6 314/3/6
f 314/3/6 313/3/6 315/3/6
f 308/3/6 309/3/6 316/3/6
f 316/3/6 309/3/6 317/3/6
f 302/3/6 310/3/6 318/3/6
f 318/3/6 310/3/6 319/3/6
f 320/3/6 321/3/6 323/3/6
f 321/3/6 322/3/6 323/3/6
f 323/3/6 322/3/6 324/3/6
f 324/3/6 322/3/6 325/3/6
f 325/3/6 322/3/6 326/3/6
f 320/3/6 323/3/6 327/3/6
f 324/3/6 325/3/6 328/3/6
f 328/3/6 325/3/6 329/3/6
f 320/3/6 327/3/6 331/3/6
f 329/3/6 330/3/6 331/3/6
f 328/3/6 329/3/6 331/3/6
f 327/3/6 328/3/6 331/3/6
f 331/3/6 330/3/6 332/3/6
f 333/3/6 334/3/6 337/3/6
f 337/3/6 334/3/6 338/3/6
f 335/3/6 336/3/6 339/3/6
f 339/3/6 336/3/6 340/3/6
f 333/3/6 337/3/6 341/3/6
f 338/3/6 334/3/6 342/3/6
f 339/2/6 340/2/6 343/2/6
f 335/3/6 339/3/6 343/3/6
f 343/2/6 340/2/6 344/2/6
f 333/3/6 341/3/6 345/3/6
f 341/3/6 342/3/6 345/3/6
f 342/3/6 334/3/6 346/3/6
f 345/3/6 342/3/6 346/3/6
f 343/3/6 344/3/6 347/3/6
f 335/3/6 343/3/6 347/3/6
f 347/3/6 344/3/6 348/3/6
f 349/3/6 350/3/6 351/3/6
f 351/3/6 350/3/6 352/3/6
f 353/1/6 354/1/6 355/1/6
f 355/1/6 354/1/6 356/1/6
