# MagicaVoxel @ Ephtracy

# group
o 

# material
mtllib Voxel Universe Objects-3.mtl
usemtl palette

# normals
vn -1 0 0
vn 1 0 0
vn 0 0 1
vn 0 0 -1
vn 0 -1 0
vn 0 1 0

# texcoords
vt 0.533203 0.5
vt 0.947266 0.5
vt 0.970703 0.5
vt 0.986328 0.5
vt 0.994141 0.5

# verts
v -15.1 0 3.9
v -15.1 0 2.8
v -15.1 0.1 3.9
v -15.1 0.1 2.8
v -15 0 2.8
v -15 0 2.7
v -15 0.1 2.8
v -15 0.1 2.7
v -14.6 0 3.8
v -14.6 0 3.7
v -14.6 0.1 3.8
v -14.6 0.1 3.7
v -14.5 0 3.4
v -14.5 0 3.3
v -14.5 0 3.2
v -14.5 0 3.1
v -14.5 0.1 3.4
v -14.5 0.1 3.3
v -14.5 0.1 3.2
v -14.5 0.1 3.1
v -14.4 0 3.3
v -14.4 0 3.2
v -14.4 0.1 3.3
v -14.4 0.1 3.2
v -14 0 3.4
v -14 0 3.1
v -14 0.1 3.4
v -14 0.1 3.1
v -13.7 0 3.4
v -13.7 0 3.3
v -13.7 0 3.2
v -13.7 0 3.1
v -13.7 0.1 3.4
v -13.7 0.1 3.3
v -13.7 0.1 3.2
v -13.7 0.1 3.1
v -13.6 0 3.8
v -13.6 0 3.7
v -13.6 0 3.3
v -13.6 0 3.2
v -13.6 0.1 3.8
v -13.6 0.1 3.7
v -13.6 0.1 3.3
v -13.6 0.1 3.2
v -14.7 0 3.8
v -14.7 0 3.7
v -14.7 0 3.3
v -14.7 0 3.2
v -14.7 0.1 3.8
v -14.7 0.1 3.7
v -14.7 0.1 3.3
v -14.7 0.1 3.2
v -14.6 0 3.4
v -14.6 0 3.3
v -14.6 0 3.2
v -14.6 0 3.1
v -14.6 0.1 3.4
v -14.6 0.1 3.3
v -14.6 0.1 3.2
v -14.6 0.1 3.1
v -14.1 0 3.4
v -14.1 0 3.1
v -14.1 0.1 3.4
v -14.1 0.1 3.1
v -13.9 0 3.3
v -13.9 0 3.2
v -13.9 0.1 3.3
v -13.9 0.1 3.2
v -13.8 0 3.4
v -13.8 0 3.3
v -13.8 0 3.2
v -13.8 0 3.1
v -13.8 0.1 3.4
v -13.8 0.1 3.3
v -13.8 0.1 3.2
v -13.8 0.1 3.1
v -13.7 0 3.8
v -13.7 0 3.7
v -13.7 0.1 3.8
v -13.7 0.1 3.7
v -13.3 0 2.8
v -13.3 0 2.7
v -13.3 0.1 2.8
v -13.3 0.1 2.7
v -13.2 0 3.9
v -13.2 0 2.8
v -13.2 0.1 3.9
v -13.2 0.1 2.8
v -15.1 0 3.9
v -15.1 0.1 3.9
v -13.2 0 3.9
v -13.2 0.1 3.9
v -14.7 0 3.7
v -14.7 0.1 3.7
v -14.6 0 3.7
v -14.6 0.1 3.7
v -13.7 0 3.7
v -13.7 0.1 3.7
v -13.6 0 3.7
v -13.6 0.1 3.7
v -14.7 0 3.2
v -14.7 0.1 3.2
v -14.6 0 3.2
v -14.6 0.1 3.2
v -14.5 0 3.2
v -14.5 0.1 3.2
v -14.4 0 3.2
v -14.4 0.1 3.2
v -13.9 0 3.2
v -13.9 0.1 3.2
v -13.8 0 3.2
v -13.8 0.1 3.2
v -13.7 0 3.2
v -13.7 0.1 3.2
v -13.6 0 3.2
v -13.6 0.1 3.2
v -14.6 0 3.1
v -14.6 0.1 3.1
v -14.5 0 3.1
v -14.5 0.1 3.1
v -14.1 0 3.1
v -14.1 0.1 3.1
v -14 0 3.1
v -14 0.1 3.1
v -13.8 0 3.1
v -13.8 0.1 3.1
v -13.7 0 3.1
v -13.7 0.1 3.1
v -14.7 0 3.8
v -14.7 0.1 3.8
v -14.6 0 3.8
v -14.6 0.1 3.8
v -13.7 0 3.8
v -13.7 0.1 3.8
v -13.6 0 3.8
v -13.6 0.1 3.8
v -14.6 0 3.4
v -14.6 0.1 3.4
v -14.5 0 3.4
v -14.5 0.1 3.4
v -14.1 0 3.4
v -14.1 0.1 3.4
v -14 0 3.4
v -14 0.1 3.4
v -13.8 0 3.4
v -13.8 0.1 3.4
v -13.7 0 3.4
v -13.7 0.1 3.4
v -14.7 0 3.3
v -14.7 0.1 3.3
v -14.6 0 3.3
v -14.6 0.1 3.3
v -14.5 0 3.3
v -14.5 0.1 3.3
v -14.4 0 3.3
v -14.4 0.1 3.3
v -13.9 0 3.3
v -13.9 0.1 3.3
v -13.8 0 3.3
v -13.8 0.1 3.3
v -13.7 0 3.3
v -13.7 0.1 3.3
v -13.6 0 3.3
v -13.6 0.1 3.3
v -15.1 0 2.8
v -15.1 0.1 2.8
v -15 0 2.8
v -15 0.1 2.8
v -13.3 0 2.8
v -13.3 0.1 2.8
v -13.2 0 2.8
v -13.2 0.1 2.8
v -15 0 2.7
v -15 0.1 2.7
v -13.3 0 2.7
v -13.3 0.1 2.7
v -15.1 0 3.9
v -13.2 0 3.9
v -14.7 0 3.8
v -14.6 0 3.8
v -13.7 0 3.8
v -13.6 0 3.8
v -14.7 0 3.7
v -14.6 0 3.7
v -13.7 0 3.7
v -13.6 0 3.7
v -14.9 0 3.6
v -13.4 0 3.6
v -14.9 0 3.5
v -14.8 0 3.5
v -13.5 0 3.5
v -13.4 0 3.5
v -14.9 0 3.4
v -14.8 0 3.4
v -14.6 0 3.4
v -14.5 0 3.4
v -14.3 0 3.4
v -14.1 0 3.4
v -14 0 3.4
v -13.8 0 3.4
v -13.7 0 3.4
v -13.5 0 3.4
v -13.4 0 3.4
v -14.9 0 3.3
v -14.8 0 3.3
v -14.7 0 3.3
v -14.6 0 3.3
v -14.5 0 3.3
v -14.4 0 3.3
v -13.9 0 3.3
v -13.8 0 3.3
v -13.7 0 3.3
v -13.6 0 3.3
v -13.5 0 3.3
v -13.4 0 3.3
v -14.9 0 3.2
v -14.8 0 3.2
v -14.7 0 3.2
v -14.6 0 3.2
v -14.5 0 3.2
v -14.4 0 3.2
v -13.9 0 3.2
v -13.8 0 3.2
v -13.7 0 3.2
v -13.6 0 3.2
v -13.5 0 3.2
v -13.4 0 3.2
v -14.9 0 3.1
v -14.8 0 3.1
v -14.6 0 3.1
v -14.5 0 3.1
v -14.3 0 3.1
v -14.1 0 3.1
v -14 0 3.1
v -13.8 0 3.1
v -13.7 0 3.1
v -13.5 0 3.1
v -13.4 0 3.1
v -14.9 0 3
v -14.8 0 3
v -13.5 0 3
v -13.4 0 3
v -15.1 0 2.8
v -15 0 2.8
v -14.9 0 2.8
v -13.4 0 2.8
v -13.3 0 2.8
v -13.2 0 2.8
v -15 0 2.7
v -13.3 0 2.7
v -15.1 0.1 3.9
v -13.2 0.1 3.9
v -14.7 0.1 3.8
v -14.6 0.1 3.8
v -13.7 0.1 3.8
v -13.6 0.1 3.8
v -14.7 0.1 3.7
v -14.6 0.1 3.7
v -13.7 0.1 3.7
v -13.6 0.1 3.7
v -14.9 0.1 3.6
v -13.4 0.1 3.6
v -14.9 0.1 3.5
v -14.8 0.1 3.5
v -13.5 0.1 3.5
v -13.4 0.1 3.5
v -14.9 0.1 3.4
v -14.8 0.1 3.4
v -14.6 0.1 3.4
v -14.5 0.1 3.4
v -14.3 0.1 3.4
v -14.1 0.1 3.4
v -14 0.1 3.4
v -13.8 0.1 3.4
v -13.7 0.1 3.4
v -13.5 0.1 3.4
v -13.4 0.1 3.4
v -14.9 0.1 3.3
v -14.8 0.1 3.3
v -14.7 0.1 3.3
v -14.6 0.1 3.3
v -14.5 0.1 3.3
v -14.4 0.1 3.3
v -13.9 0.1 3.3
v -13.8 0.1 3.3
v -13.7 0.1 3.3
v -13.6 0.1 3.3
v -13.5 0.1 3.3
v -13.4 0.1 3.3
v -14.9 0.1 3.2
v -14.8 0.1 3.2
v -14.7 0.1 3.2
v -14.6 0.1 3.2
v -14.5 0.1 3.2
v -14.4 0.1 3.2
v -13.9 0.1 3.2
v -13.8 0.1 3.2
v -13.7 0.1 3.2
v -13.6 0.1 3.2
v -13.5 0.1 3.2
v -13.4 0.1 3.2
v -14.9 0.1 3.1
v -14.8 0.1 3.1
v -14.6 0.1 3.1
v -14.5 0.1 3.1
v -14.3 0.1 3.1
v -14.1 0.1 3.1
v -14 0.1 3.1
v -13.8 0.1 3.1
v -13.7 0.1 3.1
v -13.5 0.1 3.1
v -13.4 0.1 3.1
v -14.9 0.1 3
v -14.8 0.1 3
v -13.5 0.1 3
v -13.4 0.1 3
v -15.1 0.1 2.8
v -15 0.1 2.8
v -14.9 0.1 2.8
v -13.4 0.1 2.8
v -13.3 0.1 2.8
v -13.2 0.1 2.8
v -15 0.1 2.7
v -13.3 0.1 2.7

# faces
f 3/5/1 2/5/1 1/5/1
f 4/5/1 2/5/1 3/5/1
f 7/5/1 6/5/1 5/5/1
f 8/5/1 6/5/1 7/5/1
f 11/5/1 10/5/1 9/5/1
f 12/5/1 10/5/1 11/5/1
f 17/5/1 14/5/1 13/5/1
f 18/5/1 14/5/1 17/5/1
f 19/5/1 16/5/1 15/5/1
f 20/5/1 16/5/1 19/5/1
f 23/5/1 22/5/1 21/5/1
f 24/5/1 22/5/1 23/5/1
f 27/5/1 26/5/1 25/5/1
f 28/5/1 26/5/1 27/5/1
f 33/5/1 30/5/1 29/5/1
f 34/5/1 30/5/1 33/5/1
f 35/5/1 32/5/1 31/5/1
f 36/5/1 32/5/1 35/5/1
f 41/5/1 38/5/1 37/5/1
f 42/5/1 38/5/1 41/5/1
f 43/5/1 40/5/1 39/5/1
f 44/5/1 40/5/1 43/5/1
f 45/5/2 46/5/2 49/5/2
f 49/5/2 46/5/2 50/5/2
f 47/5/2 48/5/2 51/5/2
f 51/5/2 48/5/2 52/5/2
f 53/5/2 54/5/2 57/5/2
f 57/5/2 54/5/2 58/5/2
f 55/5/2 56/5/2 59/5/2
f 59/5/2 56/5/2 60/5/2
f 61/1/2 62/1/2 63/1/2
f 63/1/2 62/1/2 64/1/2
f 65/5/2 66/5/2 67/5/2
f 67/5/2 66/5/2 68/5/2
f 69/5/2 70/5/2 73/5/2
f 73/5/2 70/5/2 74/5/2
f 71/5/2 72/5/2 75/5/2
f 75/5/2 72/5/2 76/5/2
f 77/5/2 78/5/2 79/5/2
f 79/5/2 78/5/2 80/5/2
f 81/5/2 82/5/2 83/5/2
f 83/5/2 82/5/2 84/5/2
f 85/5/2 86/5/2 87/5/2
f 87/5/2 86/5/2 88/5/2
f 91/5/3 90/5/3 89/5/3
f 92/5/3 90/5/3 91/5/3
f 95/5/3 94/5/3 93/5/3
f 96/5/3 94/5/3 95/5/3
f 99/5/3 98/5/3 97/5/3
f 100/5/3 98/5/3 99/5/3
f 103/5/3 102/5/3 101/5/3
f 104/5/3 102/5/3 103/5/3
f 107/5/3 106/5/3 105/5/3
f 108/5/3 106/5/3 107/5/3
f 111/5/3 110/5/3 109/5/3
f 112/5/3 110/5/3 111/5/3
f 115/5/3 114/5/3 113/5/3
f 116/5/3 114/5/3 115/5/3
f 119/5/3 118/5/3 117/5/3
f 120/5/3 118/5/3 119/5/3
f 123/5/3 122/5/3 121/5/3
f 124/5/3 122/5/3 123/5/3
f 127/5/3 126/5/3 125/5/3
f 128/5/3 126/5/3 127/5/3
f 129/5/4 130/5/4 131/5/4
f 131/5/4 130/5/4 132/5/4
f 133/5/4 134/5/4 135/5/4
f 135/5/4 134/5/4 136/5/4
f 137/5/4 138/5/4 139/5/4
f 139/5/4 138/5/4 140/5/4
f 141/5/4 142/5/4 143/5/4
f 143/5/4 142/5/4 144/5/4
f 145/5/4 146/5/4 147/5/4
f 147/5/4 146/5/4 148/5/4
f 149/5/4 150/5/4 151/5/4
f 151/5/4 150/5/4 152/5/4
f 153/5/4 154/5/4 155/5/4
f 155/5/4 154/5/4 156/5/4
f 157/5/4 158/5/4 159/5/4
f 159/5/4 158/5/4 160/5/4
f 161/5/4 162/5/4 163/5/4
f 163/5/4 162/5/4 164/5/4
f 165/5/4 166/5/4 167/5/4
f 167/5/4 166/5/4 168/5/4
f 169/5/4 170/5/4 171/5/4
f 171/5/4 170/5/4 172/5/4
f 173/5/4 174/5/4 175/5/4
f 175/5/4 174/5/4 176/5/4
f 179/5/5 178/5/5 177/5/5
f 180/5/5 178/5/5 179/5/5
f 181/5/5 178/5/5 180/5/5
f 182/5/5 178/5/5 181/5/5
f 183/5/5 179/5/5 177/5/5
f 184/5/5 181/5/5 180/5/5
f 185/5/5 181/5/5 184/5/5
f 186/5/5 178/5/5 182/5/5
f 187/5/5 185/5/5 184/5/5
f 187/5/5 186/5/5 185/5/5
f 187/5/5 183/5/5 177/5/5
f 187/5/5 184/5/5 183/5/5
f 188/5/5 178/5/5 186/5/5
f 188/5/5 186/5/5 187/5/5
f 189/5/5 187/5/5 177/5/5
f 189/2/5 188/2/5 187/2/5
f 190/2/5 188/2/5 189/2/5
f 191/2/5 188/2/5 190/2/5
f 192/5/5 178/5/5 188/5/5
f 192/2/5 188/2/5 191/2/5
f 193/5/5 189/5/5 177/5/5
f 193/4/5 190/4/5 189/4/5
f 194/5/5 191/5/5 190/5/5
f 194/4/5 190/4/5 193/4/5
f 195/5/5 191/5/5 194/5/5
f 196/5/5 191/5/5 195/5/5
f 197/5/5 191/5/5 196/5/5
f 198/5/5 191/5/5 197/5/5
f 199/5/5 191/5/5 198/5/5
f 200/5/5 191/5/5 199/5/5
f 201/5/5 191/5/5 200/5/5
f 202/4/5 192/4/5 191/4/5
f 202/5/5 191/5/5 201/5/5
f 203/5/5 178/5/5 192/5/5
f 203/4/5 192/4/5 202/4/5
f 204/5/5 193/5/5 177/5/5
f 204/3/5 194/3/5 193/3/5
f 205/5/5 195/5/5 194/5/5
f 205/3/5 194/3/5 204/3/5
f 206/5/5 195/5/5 205/5/5
f 207/5/5 195/5/5 206/5/5
f 208/5/5 197/5/5 196/5/5
f 209/5/5 197/5/5 208/5/5
f 210/5/5 200/5/5 199/5/5
f 211/5/5 200/5/5 210/5/5
f 212/5/5 202/5/5 201/5/5
f 213/5/5 202/5/5 212/5/5
f 214/3/5 203/3/5 202/3/5
f 214/5/5 202/5/5 213/5/5
f 215/5/5 178/5/5 203/5/5
f 215/3/5 203/3/5 214/3/5
f 216/5/5 204/5/5 177/5/5
f 216/4/5 205/4/5 204/4/5
f 217/5/5 206/5/5 205/5/5
f 217/4/5 205/4/5 216/4/5
f 218/5/5 206/5/5 217/5/5
f 221/5/5 197/5/5 209/5/5
f 222/5/5 210/5/5 199/5/5
f 225/5/5 214/5/5 213/5/5
f 226/4/5 215/4/5 214/4/5
f 226/5/5 214/5/5 225/5/5
f 227/5/5 178/5/5 215/5/5
f 227/4/5 215/4/5 226/4/5
f 228/5/5 216/5/5 177/5/5
f 228/3/5 217/3/5 216/3/5
f 229/5/5 219/5/5 218/5/5
f 229/3/5 217/3/5 228/3/5
f 229/5/5 218/5/5 217/5/5
f 230/5/5 219/5/5 229/5/5
f 231/5/5 221/5/5 220/5/5
f 232/1/5 198/1/5 197/1/5
f 232/5/5 197/5/5 221/5/5
f 232/5/5 221/5/5 231/5/5
f 233/1/5 198/1/5 232/1/5
f 234/5/5 223/5/5 222/5/5
f 234/5/5 222/5/5 199/5/5
f 235/5/5 223/5/5 234/5/5
f 236/5/5 226/5/5 225/5/5
f 236/5/5 225/5/5 224/5/5
f 237/3/5 227/3/5 226/3/5
f 237/5/5 226/5/5 236/5/5
f 238/5/5 178/5/5 227/5/5
f 238/3/5 227/3/5 237/3/5
f 239/5/5 228/5/5 177/5/5
f 239/4/5 229/4/5 228/4/5
f 240/5/5 233/5/5 232/5/5
f 240/4/5 229/4/5 239/4/5
f 240/5/5 235/5/5 234/5/5
f 240/5/5 234/5/5 233/5/5
f 240/5/5 231/5/5 230/5/5
f 240/5/5 230/5/5 229/5/5
f 240/5/5 232/5/5 231/5/5
f 240/5/5 237/5/5 236/5/5
f 240/5/5 236/5/5 235/5/5
f 241/4/5 238/4/5 237/4/5
f 241/5/5 237/5/5 240/5/5
f 242/5/5 178/5/5 238/5/5
f 242/4/5 238/4/5 241/4/5
f 243/5/5 239/5/5 177/5/5
f 244/5/5 239/5/5 243/5/5
f 245/2/5 241/2/5 240/2/5
f 245/5/5 239/5/5 244/5/5
f 245/2/5 240/2/5 239/2/5
f 245/2/5 242/2/5 241/2/5
f 246/5/5 178/5/5 242/5/5
f 246/2/5 242/2/5 245/2/5
f 247/5/5 178/5/5 246/5/5
f 248/5/5 178/5/5 247/5/5
f 249/5/5 245/5/5 244/5/5
f 249/5/5 247/5/5 246/5/5
f 249/5/5 246/5/5 245/5/5
f 250/5/5 247/5/5 249/5/5
f 251/5/6 252/5/6 253/5/6
f 253/5/6 252/5/6 254/5/6
f 254/5/6 252/5/6 255/5/6
f 255/5/6 252/5/6 256/5/6
f 251/5/6 253/5/6 257/5/6
f 254/5/6 255/5/6 258/5/6
f 258/5/6 255/5/6 259/5/6
f 256/5/6 252/5/6 260/5/6
f 258/5/6 259/5/6 261/5/6
f 259/5/6 260/5/6 261/5/6
f 251/5/6 257/5/6 261/5/6
f 257/5/6 258/5/6 261/5/6
f 260/5/6 252/5/6 262/5/6
f 261/5/6 260/5/6 262/5/6
f 251/5/6 261/5/6 263/5/6
f 261/2/6 262/2/6 263/2/6
f 263/2/6 262/2/6 264/2/6
f 264/2/6 262/2/6 265/2/6
f 262/5/6 252/5/6 266/5/6
f 265/2/6 262/2/6 266/2/6
f 251/5/6 263/5/6 267/5/6
f 263/4/6 264/4/6 267/4/6
f 264/5/6 265/5/6 268/5/6
f 267/4/6 264/4/6 268/4/6
f 268/5/6 265/5/6 269/5/6
f 269/5/6 265/5/6 270/5/6
f 270/5/6 265/5/6 271/5/6
f 271/5/6 265/5/6 272/5/6
f 272/5/6 265/5/6 273/5/6
f 273/5/6 265/5/6 274/5/6
f 274/5/6 265/5/6 275/5/6
f 265/4/6 266/4/6 276/4/6
f 275/5/6 265/5/6 276/5/6
f 266/5/6 252/5/6 277/5/6
f 276/4/6 266/4/6 277/4/6
f 251/5/6 267/5/6 278/5/6
f 267/3/6 268/3/6 278/3/6
f 268/5/6 269/5/6 279/5/6
f 278/3/6 268/3/6 279/3/6
f 279/5/6 269/5/6 280/5/6
f 280/5/6 269/5/6 281/5/6
f 270/5/6 271/5/6 282/5/6
f 282/5/6 271/5/6 283/5/6
f 273/5/6 274/5/6 284/5/6
f 284/5/6 274/5/6 285/5/6
f 275/5/6 276/5/6 286/5/6
f 286/5/6 276/5/6 287/5/6
f 276/3/6 277/3/6 288/3/6
f 287/5/6 276/5/6 288/5/6
f 277/5/6 252/5/6 289/5/6
f 288/3/6 277/3/6 289/3/6
f 251/5/6 278/5/6 290/5/6
f 278/4/6 279/4/6 290/4/6
f 279/5/6 280/5/6 291/5/6
f 290/4/6 279/4/6 291/4/6
f 291/5/6 280/5/6 292/5/6
f 283/5/6 271/5/6 295/5/6
f 273/5/6 284/5/6 296/5/6
f 287/5/6 288/5/6 299/5/6
f 288/4/6 289/4/6 300/4/6
f 299/5/6 288/5/6 300/5/6
f 289/5/6 252/5/6 301/5/6
f 300/4/6 289/4/6 301/4/6
f 251/5/6 290/5/6 302/5/6
f 290/3/6 291/3/6 302/3/6
f 292/5/6 293/5/6 303/5/6
f 302/3/6 291/3/6 303/3/6
f 291/5/6 292/5/6 303/5/6
f 303/5/6 293/5/6 304/5/6
f 294/5/6 295/5/6 305/5/6
f 271/1/6 272/1/6 306/1/6
f 295/5/6 271/5/6 306/5/6
f 305/5/6 295/5/6 306/5/6
f 306/1/6 272/1/6 307/1/6
f 296/5/6 297/5/6 308/5/6
f 273/5/6 296/5/6 308/5/6
f 308/5/6 297/5/6 309/5/6
f 299/5/6 300/5/6 310/5/6
f 298/5/6 299/5/6 310/5/6
f 300/3/6 301/3/6 311/3/6
f 310/5/6 300/5/6 311/5/6
f 301/5/6 252/5/6 312/5/6
f 311/3/6 301/3/6 312/3/6
f 251/5/6 302/5/6 313/5/6
f 302/4/6 303/4/6 313/4/6
f 306/5/6 307/5/6 314/5/6
f 313/4/6 303/4/6 314/4/6
f 308/5/6 309/5/6 314/5/6
f 307/5/6 308/5/6 314/5/6
f 304/5/6 305/5/6 314/5/6
f 303/5/6 304/5/6 314/5/6
f 305/5/6 306/5/6 314/5/6
f 310/5/6 311/5/6 314/5/6
f 309/5/6 310/5/6 314/5/6
f 311/4/6 312/4/6 315/4/6
f 314/5/6 311/5/6 315/5/6
f 312/5/6 252/5/6 316/5/6
f 315/4/6 312/4/6 316/4/6
f 251/5/6 313/5/6 317/5/6
f 317/5/6 313/5/6 318/5/6
f 314/2/6 315/2/6 319/2/6
f 318/5/6 313/5/6 319/5/6
f 313/2/6 314/2/6 319/2/6
f 315/2/6 316/2/6 319/2/6
f 316/5/6 252/5/6 320/5/6
f 319/2/6 316/2/6 320/2/6
f 320/5/6 252/5/6 321/5/6
f 321/5/6 252/5/6 322/5/6
f 318/5/6 319/5/6 323/5/6
f 320/5/6 321/5/6 323/5/6
f 319/5/6 320/5/6 323/5/6
f 323/5/6 321/5/6 324/5/6
