# MagicaVoxel @ Ephtracy

# group
o 

# material
mtllib Voxel Universe Objects-43.mtl
usemtl palette

# normals
vn -1 0 0
vn 1 0 0
vn 0 0 1
vn 0 0 -1
vn 0 -1 0
vn 0 1 0

# texcoords
vt 0.236328 0.5
vt 0.248047 0.5
vt 0.716797 0.5
vt 0.912109 0.5
vt 0.916016 0.5
vt 0.947266 0.5
vt 0.982422 0.5

# verts
v -6 0 -5.3
v -6 0 -7.6
v -6 0.2 -5.3
v -6 0.2 -7.6
v -4.8 0 -5.3
v -4.8 0 -7.6
v -4.8 0.1 -6.8
v -4.8 0.1 -7.1
v -4.8 0.2 -5.3
v -4.8 0.2 -6.8
v -4.8 0.2 -7.1
v -4.8 0.2 -7.6
v -6 0 -5.3
v -6 0.2 -5.3
v -4.8 0 -5.3
v -4.8 0.2 -5.3
v -6 0 -7.6
v -6 0.2 -7.6
v -4.8 0 -7.6
v -4.8 0.2 -7.6
v -6 0 -5.3
v -4.8 0 -5.3
v -5.6 0 -6.2
v -5.3 0 -6.2
v -5.6 0 -6.5
v -5.3 0 -6.5
v -5.2 0 -7.2
v -5.1 0 -7.2
v -5 0 -7.2
v -4.9 0 -7.2
v -5.2 0 -7.3
v -5.1 0 -7.3
v -5 0 -7.3
v -4.9 0 -7.3
v -5.2 0 -7.4
v -5.1 0 -7.4
v -5 0 -7.4
v -4.9 0 -7.4
v -5.2 0 -7.5
v -5.1 0 -7.5
v -5 0 -7.5
v -4.9 0 -7.5
v -6 0 -7.6
v -4.8 0 -7.6
v -6 0.2 -5.3
v -4.8 0.2 -5.3
v -5.9 0.2 -5.4
v -4.9 0.2 -5.4
v -5.8 0.2 -5.5
v -5.6 0.2 -5.5
v -5.5 0.2 -5.5
v -5.3 0.2 -5.5
v -5.2 0.2 -5.5
v -5 0.2 -5.5
v -5.8 0.2 -5.7
v -5.6 0.2 -5.7
v -5.5 0.2 -5.7
v -5.3 0.2 -5.7
v -5.2 0.2 -5.7
v -5 0.2 -5.7
v -5.8 0.2 -5.8
v -5.6 0.2 -5.8
v -5.5 0.2 -5.8
v -5.3 0.2 -5.8
v -5.2 0.2 -5.8
v -5 0.2 -5.8
v -5.8 0.2 -6
v -5.6 0.2 -6
v -5.5 0.2 -6
v -5.4 0.2 -6
v -5.3 0.2 -6
v -5.2 0.2 -6
v -5 0.2 -6
v -5.8 0.2 -6.1
v -5.6 0.2 -6.1
v -5.5 0.2 -6.1
v -5.4 0.2 -6.1
v -5.3 0.2 -6.1
v -5.2 0.2 -6.1
v -5 0.2 -6.1
v -5.8 0.2 -6.3
v -5.6 0.2 -6.3
v -5.5 0.2 -6.3
v -5.3 0.2 -6.3
v -5.2 0.2 -6.3
v -5 0.2 -6.3
v -5.8 0.2 -6.4
v -5.6 0.2 -6.4
v -5.5 0.2 -6.4
v -5.3 0.2 -6.4
v -5.2 0.2 -6.4
v -5 0.2 -6.4
v -5.8 0.2 -6.6
v -5.6 0.2 -6.6
v -5.5 0.2 -6.6
v -5.3 0.2 -6.6
v -5.2 0.2 -6.6
v -5 0.2 -6.6
v -5.1 0.2 -6.7
v -5 0.2 -6.7
v -5.8 0.2 -6.8
v -5.1 0.2 -6.8
v -4.9 0.2 -6.8
v -4.8 0.2 -6.8
v -4.9 0.2 -7.1
v -4.8 0.2 -7.1
v -5.6 0.2 -7.3
v -5.2 0.2 -7.3
v -5.8 0.2 -7.4
v -5.6 0.2 -7.4
v -5.2 0.2 -7.4
v -5 0.2 -7.4
v -5.9 0.2 -7.5
v -4.9 0.2 -7.5
v -6 0.2 -7.6
v -4.8 0.2 -7.6

# faces
f 3/6/1 2/6/1 1/6/1
f 4/6/1 2/6/1 3/6/1
f 5/6/2 6/6/2 7/6/2
f 7/6/2 6/6/2 8/6/2
f 5/6/2 7/6/2 9/6/2
f 7/5/2 8/5/2 10/5/2
f 9/6/2 7/6/2 10/6/2
f 8/6/2 6/6/2 11/6/2
f 10/5/2 8/5/2 11/5/2
f 11/6/2 6/6/2 12/6/2
f 15/6/3 14/6/3 13/6/3
f 16/6/3 14/6/3 15/6/3
f 17/6/4 18/6/4 19/6/4
f 19/6/4 18/6/4 20/6/4
f 23/6/5 22/6/5 21/6/5
f 24/6/5 22/6/5 23/6/5
f 25/6/5 23/6/5 21/6/5
f 25/5/5 24/5/5 23/5/5
f 26/6/5 22/6/5 24/6/5
f 26/5/5 24/5/5 25/5/5
f 27/6/5 26/6/5 25/6/5
f 27/6/5 22/6/5 26/6/5
f 28/6/5 22/6/5 27/6/5
f 29/6/5 22/6/5 28/6/5
f 30/6/5 22/6/5 29/6/5
f 31/6/5 27/6/5 25/6/5
f 31/7/5 28/7/5 27/7/5
f 32/5/5 29/5/5 28/5/5
f 32/7/5 28/7/5 31/7/5
f 33/7/5 30/7/5 29/7/5
f 33/5/5 29/5/5 32/5/5
f 34/6/5 22/6/5 30/6/5
f 34/7/5 30/7/5 33/7/5
f 35/5/5 33/5/5 32/5/5
f 35/5/5 32/5/5 31/5/5
f 35/5/5 34/5/5 33/5/5
f 35/6/5 31/6/5 25/6/5
f 36/5/5 34/5/5 35/5/5
f 37/5/5 34/5/5 36/5/5
f 38/6/5 22/6/5 34/6/5
f 38/5/5 34/5/5 37/5/5
f 39/6/5 35/6/5 25/6/5
f 39/7/5 36/7/5 35/7/5
f 40/5/5 37/5/5 36/5/5
f 40/7/5 36/7/5 39/7/5
f 41/7/5 38/7/5 37/7/5
f 41/5/5 37/5/5 40/5/5
f 42/6/5 22/6/5 38/6/5
f 42/7/5 38/7/5 41/7/5
f 43/6/5 25/6/5 21/6/5
f 43/6/5 39/6/5 25/6/5
f 43/6/5 42/6/5 41/6/5
f 43/6/5 40/6/5 39/6/5
f 43/6/5 41/6/5 40/6/5
f 44/6/5 22/6/5 42/6/5
f 44/6/5 42/6/5 43/6/5
f 45/6/6 46/6/6 47/6/6
f 47/6/6 46/6/6 48/6/6
f 47/7/6 48/7/6 49/7/6
f 49/7/6 48/7/6 50/7/6
f 50/7/6 48/7/6 51/7/6
f 51/7/6 48/7/6 52/7/6
f 52/7/6 48/7/6 53/7/6
f 53/7/6 48/7/6 54/7/6
f 47/7/6 49/7/6 55/7/6
f 49/6/6 50/6/6 55/6/6
f 50/4/6 51/4/6 56/4/6
f 55/6/6 50/6/6 56/6/6
f 51/6/6 52/6/6 57/6/6
f 56/4/6 51/4/6 57/4/6
f 52/4/6 53/4/6 58/4/6
f 57/6/6 52/6/6 58/6/6
f 53/6/6 54/6/6 59/6/6
f 58/4/6 53/4/6 59/4/6
f 54/7/6 48/7/6 60/7/6
f 59/6/6 54/6/6 60/6/6
f 58/4/6 59/4/6 61/4/6
f 57/4/6 58/4/6 61/4/6
f 59/4/6 60/4/6 61/4/6
f 56/4/6 57/4/6 61/4/6
f 55/4/6 56/4/6 61/4/6
f 47/7/6 55/7/6 61/7/6
f 61/4/6 60/4/6 62/4/6
f 62/4/6 60/4/6 63/4/6
f 63/4/6 60/4/6 64/4/6
f 64/4/6 60/4/6 65/4/6
f 60/7/6 48/7/6 66/7/6
f 65/4/6 60/4/6 66/4/6
f 47/7/6 61/7/6 67/7/6
f 61/6/6 62/6/6 67/6/6
f 62/4/6 63/4/6 68/4/6
f 67/6/6 62/6/6 68/6/6
f 63/6/6 64/6/6 69/6/6
f 68/4/6 63/4/6 69/4/6
f 69/6/6 64/6/6 70/6/6
f 64/4/6 65/4/6 71/4/6
f 70/6/6 64/6/6 71/6/6
f 65/6/6 66/6/6 72/6/6
f 71/4/6 65/4/6 72/4/6
f 66/7/6 48/7/6 73/7/6
f 72/6/6 66/6/6 73/6/6
f 69/1/6 70/1/6 74/1/6
f 47/7/6 67/7/6 74/7/6
f 67/1/6 68/1/6 74/1/6
f 68/1/6 69/1/6 74/1/6
f 74/1/6 70/1/6 75/1/6
f 75/1/6 70/1/6 76/1/6
f 71/4/6 72/4/6 77/4/6
f 76/1/6 70/1/6 77/1/6
f 70/4/6 71/4/6 77/4/6
f 72/4/6 73/4/6 77/4/6
f 77/4/6 73/4/6 78/4/6
f 78/4/6 73/4/6 79/4/6
f 73/7/6 48/7/6 80/7/6
f 79/4/6 73/4/6 80/4/6
f 74/2/6 75/2/6 81/2/6
f 47/7/6 74/7/6 81/7/6
f 75/1/6 76/1/6 82/1/6
f 81/2/6 75/2/6 82/2/6
f 76/2/6 77/2/6 83/2/6
f 82/1/6 76/1/6 83/1/6
f 77/2/6 78/2/6 83/2/6
f 78/1/6 79/1/6 84/1/6
f 83/2/6 78/2/6 84/2/6
f 79/6/6 80/6/6 85/6/6
f 84/1/6 79/1/6 85/1/6
f 80/7/6 48/7/6 86/7/6
f 85/6/6 80/6/6 86/6/6
f 82/1/6 83/1/6 87/1/6
f 47/7/6 81/7/6 87/7/6
f 85/1/6 86/1/6 87/1/6
f 81/1/6 82/1/6 87/1/6
f 83/1/6 84/1/6 87/1/6
f 84/1/6 85/1/6 87/1/6
f 87/1/6 86/1/6 88/1/6
f 88/1/6 86/1/6 89/1/6
f 89/1/6 86/1/6 90/1/6
f 90/1/6 86/1/6 91/1/6
f 86/7/6 48/7/6 92/7/6
f 91/1/6 86/1/6 92/1/6
f 47/7/6 87/7/6 93/7/6
f 87/6/6 88/6/6 93/6/6
f 88/1/6 89/1/6 94/1/6
f 93/6/6 88/6/6 94/6/6
f 89/2/6 90/2/6 95/2/6
f 94/1/6 89/1/6 95/1/6
f 90/1/6 91/1/6 96/1/6
f 95/2/6 90/2/6 96/2/6
f 91/2/6 92/2/6 97/2/6
f 96/1/6 91/1/6 97/1/6
f 92/7/6 48/7/6 98/7/6
f 97/2/6 92/2/6 98/2/6
f 94/1/6 95/1/6 99/1/6
f 96/1/6 97/1/6 99/1/6
f 97/1/6 98/1/6 99/1/6
f 93/1/6 94/1/6 99/1/6
f 95/1/6 96/1/6 99/1/6
f 98/7/6 48/7/6 100/7/6
f 99/1/6 98/1/6 100/1/6
f 93/1/6 99/1/6 101/1/6
f 47/7/6 93/7/6 101/7/6
f 99/3/6 100/3/6 102/3/6
f 101/1/6 99/1/6 102/1/6
f 48/6/6 46/6/6 103/6/6
f 100/7/6 48/7/6 103/7/6
f 103/6/6 46/6/6 104/6/6
f 100/7/6 103/7/6 105/7/6
f 103/5/6 104/5/6 105/5/6
f 105/5/6 104/5/6 106/5/6
f 101/3/6 102/3/6 107/3/6
f 107/3/6 102/3/6 108/3/6
f 47/7/6 101/7/6 109/7/6
f 101/3/6 107/3/6 109/3/6
f 107/7/6 108/7/6 110/7/6
f 109/3/6 107/3/6 110/3/6
f 108/3/6 102/3/6 111/3/6
f 110/7/6 108/7/6 111/7/6
f 102/3/6 100/3/6 112/3/6
f 111/3/6 102/3/6 112/3/6
f 100/7/6 105/7/6 112/7/6
f 45/6/6 47/6/6 113/6/6
f 110/7/6 111/7/6 113/7/6
f 111/7/6 112/7/6 113/7/6
f 109/7/6 110/7/6 113/7/6
f 47/7/6 109/7/6 113/7/6
f 112/7/6 105/7/6 114/7/6
f 113/7/6 112/7/6 114/7/6
f 105/6/6 106/6/6 114/6/6
f 45/6/6 113/6/6 115/6/6
f 113/6/6 114/6/6 115/6/6
f 114/6/6 106/6/6 116/6/6
f 115/6/6 114/6/6 116/6/6
