# MagicaVoxel @ Ephtracy

# group
o 

# material
mtllib Voxel Universe Objects-67.mtl
usemtl palette

# normals
vn 0 0 1
vn 0 0 -1
vn 1 0 0
vn -1 0 0
vn 0 -1 0
vn 0 1 0

# texcoords
vt 0.912109 0.5
vt 0.951172 0.5
vt 0.958984 0.5
vt 0.966797 0.5

# verts
v -7.5 0.1 1
v -8.9 0.1 1
v -7.5 0.2 1
v -8.9 0.2 1
v -7.5 0.3 1
v -8.9 0.3 1
v -7.5 0.4 1
v -8.9 0.4 1
v -8.8 0 0.8
v -9 0 0.8
v -8.8 0.1 0.8
v -8.9 0.1 0.8
v -8.9 0.2 0.8
v -8.9 0.3 0.8
v -8.8 0.4 0.8
v -8.9 0.4 0.8
v -8.8 0.5 0.8
v -9 0.5 0.8
v -8.8 0 0
v -9 0 0
v -8.8 0.1 0
v -8.9 0.1 0
v -8.9 0.2 0
v -8.9 0.3 0
v -8.8 0.4 0
v -8.9 0.4 0
v -8.8 0.5 0
v -9 0.5 0
v -8.8 0 -0.8
v -9 0 -0.8
v -8.8 0.1 -0.8
v -8.9 0.1 -0.8
v -8.9 0.2 -0.8
v -8.9 0.3 -0.8
v -8.8 0.4 -0.8
v -8.9 0.4 -0.8
v -8.8 0.5 -0.8
v -9 0.5 -0.8
v -8.8 0 0.7
v -9 0 0.7
v -8.8 0.1 0.7
v -8.9 0.1 0.7
v -8.9 0.2 0.7
v -8.9 0.3 0.7
v -8.8 0.4 0.7
v -8.9 0.4 0.7
v -8.8 0.5 0.7
v -9 0.5 0.7
v -8.8 0 -0.1
v -9 0 -0.1
v -8.8 0.1 -0.1
v -8.9 0.1 -0.1
v -8.9 0.2 -0.1
v -8.9 0.3 -0.1
v -8.8 0.4 -0.1
v -8.9 0.4 -0.1
v -8.8 0.5 -0.1
v -9 0.5 -0.1
v -8.8 0 -0.9
v -9 0 -0.9
v -8.8 0.1 -0.9
v -8.9 0.1 -0.9
v -8.9 0.2 -0.9
v -8.9 0.3 -0.9
v -8.8 0.4 -0.9
v -8.9 0.4 -0.9
v -8.8 0.5 -0.9
v -9 0.5 -0.9
v -7.5 0.1 -1.1
v -8.9 0.1 -1.1
v -7.5 0.2 -1.1
v -8.9 0.2 -1.1
v -7.5 0.3 -1.1
v -8.9 0.3 -1.1
v -7.5 0.4 -1.1
v -8.9 0.4 -1.1
v -7.5 0.1 1
v -7.5 0.2 1
v -7.5 0.3 1
v -7.5 0.4 1
v -7.5 0.1 -1.1
v -7.5 0.2 -1.1
v -7.5 0.3 -1.1
v -7.5 0.4 -1.1
v -8.8 0 0.8
v -8.8 0.1 0.8
v -8.8 0.4 0.8
v -8.8 0.5 0.8
v -8.8 0 0.7
v -8.8 0.1 0.7
v -8.8 0.4 0.7
v -8.8 0.5 0.7
v -8.8 0 0
v -8.8 0.1 0
v -8.8 0.4 0
v -8.8 0.5 0
v -8.8 0 -0.1
v -8.8 0.1 -0.1
v -8.8 0.4 -0.1
v -8.8 0.5 -0.1
v -8.8 0 -0.8
v -8.8 0.1 -0.8
v -8.8 0.4 -0.8
v -8.8 0.5 -0.8
v -8.8 0 -0.9
v -8.8 0.1 -0.9
v -8.8 0.4 -0.9
v -8.8 0.5 -0.9
v -8.9 0.1 1
v -8.9 0.2 1
v -8.9 0.3 1
v -8.9 0.4 1
v -8.9 0.1 0.8
v -8.9 0.2 0.8
v -8.9 0.3 0.8
v -8.9 0.4 0.8
v -8.9 0.1 0.7
v -8.9 0.2 0.7
v -8.9 0.3 0.7
v -8.9 0.4 0.7
v -8.9 0.1 0
v -8.9 0.2 0
v -8.9 0.3 0
v -8.9 0.4 0
v -8.9 0.1 -0.1
v -8.9 0.2 -0.1
v -8.9 0.3 -0.1
v -8.9 0.4 -0.1
v -8.9 0.1 -0.8
v -8.9 0.2 -0.8
v -8.9 0.3 -0.8
v -8.9 0.4 -0.8
v -8.9 0.1 -0.9
v -8.9 0.2 -0.9
v -8.9 0.3 -0.9
v -8.9 0.4 -0.9
v -8.9 0.1 -1.1
v -8.9 0.2 -1.1
v -8.9 0.3 -1.1
v -8.9 0.4 -1.1
v -9 0 0.8
v -9 0.5 0.8
v -9 0 0.7
v -9 0.5 0.7
v -9 0 0
v -9 0.5 0
v -9 0 -0.1
v -9 0.5 -0.1
v -9 0 -0.8
v -9 0.5 -0.8
v -9 0 -0.9
v -9 0.5 -0.9
v -8.8 0 0.8
v -8.8 0 0.7
v -8.8 0 0
v -8.8 0 -0.1
v -8.8 0 -0.8
v -8.8 0 -0.9
v -9 0 0.8
v -9 0 0.7
v -9 0 0
v -9 0 -0.1
v -9 0 -0.8
v -9 0 -0.9
v -7.5 0.1 1
v -7.5 0.1 -1.1
v -8.8 0.1 0.8
v -8.8 0.1 0.7
v -8.8 0.1 0
v -8.8 0.1 -0.1
v -8.8 0.1 -0.8
v -8.8 0.1 -0.9
v -8.9 0.1 1
v -8.9 0.1 0.8
v -8.9 0.1 0.7
v -8.9 0.1 0
v -8.9 0.1 -0.1
v -8.9 0.1 -0.8
v -8.9 0.1 -0.9
v -8.9 0.1 -1.1
v -7.5 0.4 1
v -7.5 0.4 -1.1
v -7.7 0.4 0.9
v -7.7 0.4 0.7
v -7.7 0.4 -0.5
v -7.7 0.4 -0.9
v -8 0.4 0.9
v -8 0.4 0.7
v -8.7 0.4 -0.5
v -8.7 0.4 -0.9
v -8.8 0.4 0.8
v -8.8 0.4 0.7
v -8.8 0.4 0
v -8.8 0.4 -0.1
v -8.8 0.4 -0.8
v -8.8 0.4 -0.9
v -8.9 0.4 1
v -8.9 0.4 0.8
v -8.9 0.4 0.7
v -8.9 0.4 0
v -8.9 0.4 -0.1
v -8.9 0.4 -0.8
v -8.9 0.4 -0.9
v -8.9 0.4 -1.1
v -8.8 0.5 0.8
v -8.8 0.5 0.7
v -8.8 0.5 0
v -8.8 0.5 -0.1
v -8.8 0.5 -0.8
v -8.8 0.5 -0.9
v -9 0.5 0.8
v -9 0.5 0.7
v -9 0.5 0
v -9 0.5 -0.1
v -9 0.5 -0.8
v -9 0.5 -0.9

# faces
f 3/1/1 2/1/1 1/1/1
f 4/1/1 2/1/1 3/1/1
f 5/4/1 4/4/1 3/4/1
f 6/4/1 4/4/1 5/4/1
f 7/1/1 6/1/1 5/1/1
f 8/1/1 6/1/1 7/1/1
f 11/2/1 10/2/1 9/2/1
f 12/2/1 10/2/1 11/2/1
f 13/2/1 10/2/1 12/2/1
f 14/2/1 10/2/1 13/2/1
f 16/2/1 10/2/1 14/2/1
f 17/2/1 16/2/1 15/2/1
f 18/2/1 10/2/1 16/2/1
f 18/2/1 16/2/1 17/2/1
f 21/2/1 20/2/1 19/2/1
f 22/2/1 20/2/1 21/2/1
f 23/2/1 20/2/1 22/2/1
f 24/2/1 20/2/1 23/2/1
f 26/2/1 20/2/1 24/2/1
f 27/2/1 26/2/1 25/2/1
f 28/2/1 20/2/1 26/2/1
f 28/2/1 26/2/1 27/2/1
f 31/2/1 30/2/1 29/2/1
f 32/2/1 30/2/1 31/2/1
f 33/2/1 30/2/1 32/2/1
f 34/2/1 30/2/1 33/2/1
f 36/2/1 30/2/1 34/2/1
f 37/2/1 36/2/1 35/2/1
f 38/2/1 30/2/1 36/2/1
f 38/2/1 36/2/1 37/2/1
f 39/2/2 40/2/2 41/2/2
f 41/2/2 40/2/2 42/2/2
f 42/2/2 40/2/2 43/2/2
f 43/2/2 40/2/2 44/2/2
f 44/2/2 40/2/2 46/2/2
f 45/2/2 46/2/2 47/2/2
f 46/2/2 40/2/2 48/2/2
f 47/2/2 46/2/2 48/2/2
f 49/2/2 50/2/2 51/2/2
f 51/2/2 50/2/2 52/2/2
f 52/2/2 50/2/2 53/2/2
f 53/2/2 50/2/2 54/2/2
f 54/2/2 50/2/2 56/2/2
f 55/2/2 56/2/2 57/2/2
f 56/2/2 50/2/2 58/2/2
f 57/2/2 56/2/2 58/2/2
f 59/2/2 60/2/2 61/2/2
f 61/2/2 60/2/2 62/2/2
f 62/2/2 60/2/2 63/2/2
f 63/2/2 60/2/2 64/2/2
f 64/2/2 60/2/2 66/2/2
f 65/2/2 66/2/2 67/2/2
f 66/2/2 60/2/2 68/2/2
f 67/2/2 66/2/2 68/2/2
f 69/1/2 70/1/2 71/1/2
f 71/1/2 70/1/2 72/1/2
f 71/4/2 72/4/2 73/4/2
f 73/4/2 72/4/2 74/4/2
f 73/1/2 74/1/2 75/1/2
f 75/1/2 74/1/2 76/1/2
f 81/1/3 78/1/3 77/1/3
f 82/4/3 79/4/3 78/4/3
f 82/1/3 78/1/3 81/1/3
f 83/1/3 80/1/3 79/1/3
f 83/4/3 79/4/3 82/4/3
f 84/1/3 80/1/3 83/1/3
f 89/2/3 86/2/3 85/2/3
f 90/2/3 86/2/3 89/2/3
f 91/2/3 88/2/3 87/2/3
f 92/2/3 88/2/3 91/2/3
f 97/2/3 94/2/3 93/2/3
f 98/2/3 94/2/3 97/2/3
f 99/2/3 96/2/3 95/2/3
f 100/2/3 96/2/3 99/2/3
f 105/2/3 102/2/3 101/2/3
f 106/2/3 102/2/3 105/2/3
f 107/2/3 104/2/3 103/2/3
f 108/2/3 104/2/3 107/2/3
f 109/1/4 110/1/4 113/1/4
f 110/4/4 111/4/4 114/4/4
f 113/1/4 110/1/4 114/1/4
f 111/1/4 112/1/4 115/1/4
f 114/4/4 111/4/4 115/4/4
f 115/1/4 112/1/4 116/1/4
f 117/1/4 118/1/4 121/1/4
f 118/4/4 119/4/4 122/4/4
f 121/1/4 118/1/4 122/1/4
f 119/1/4 120/1/4 123/1/4
f 122/4/4 119/4/4 123/4/4
f 123/1/4 120/1/4 124/1/4
f 125/1/4 126/1/4 129/1/4
f 126/4/4 127/4/4 130/4/4
f 129/1/4 126/1/4 130/1/4
f 127/1/4 128/1/4 131/1/4
f 130/4/4 127/4/4 131/4/4
f 131/1/4 128/1/4 132/1/4
f 133/1/4 134/1/4 137/1/4
f 134/4/4 135/4/4 138/4/4
f 137/1/4 134/1/4 138/1/4
f 135/1/4 136/1/4 139/1/4
f 138/4/4 135/4/4 139/4/4
f 139/1/4 136/1/4 140/1/4
f 141/2/4 142/2/4 143/2/4
f 143/2/4 142/2/4 144/2/4
f 145/2/4 146/2/4 147/2/4
f 147/2/4 146/2/4 148/2/4
f 149/2/4 150/2/4 151/2/4
f 151/2/4 150/2/4 152/2/4
f 159/2/5 154/2/5 153/2/5
f 160/2/5 154/2/5 159/2/5
f 161/2/5 156/2/5 155/2/5
f 162/2/5 156/2/5 161/2/5
f 163/2/5 158/2/5 157/2/5
f 164/2/5 158/2/5 163/2/5
f 167/1/5 166/1/5 165/1/5
f 168/1/5 166/1/5 167/1/5
f 169/1/5 166/1/5 168/1/5
f 170/1/5 166/1/5 169/1/5
f 171/1/5 166/1/5 170/1/5
f 172/1/5 166/1/5 171/1/5
f 173/1/5 167/1/5 165/1/5
f 174/1/5 167/1/5 173/1/5
f 175/1/5 169/1/5 168/1/5
f 176/1/5 169/1/5 175/1/5
f 177/1/5 171/1/5 170/1/5
f 178/1/5 171/1/5 177/1/5
f 179/1/5 166/1/5 172/1/5
f 180/1/5 166/1/5 179/1/5
f 181/1/6 182/1/6 183/1/6
f 183/1/6 182/1/6 184/1/6
f 184/1/6 182/1/6 185/1/6
f 185/1/6 182/1/6 186/1/6
f 181/1/6 183/1/6 187/1/6
f 183/3/6 184/3/6 187/3/6
f 184/1/6 185/1/6 188/1/6
f 187/3/6 184/3/6 188/3/6
f 185/3/6 186/3/6 189/3/6
f 188/1/6 185/1/6 189/1/6
f 187/1/6 188/1/6 189/1/6
f 186/1/6 182/1/6 190/1/6
f 189/3/6 186/3/6 190/3/6
f 187/1/6 189/1/6 191/1/6
f 189/1/6 190/1/6 191/1/6
f 191/1/6 190/1/6 192/1/6
f 192/1/6 190/1/6 193/1/6
f 193/1/6 190/1/6 194/1/6
f 194/1/6 190/1/6 195/1/6
f 190/1/6 182/1/6 196/1/6
f 195/1/6 190/1/6 196/1/6
f 181/1/6 187/1/6 197/1/6
f 187/1/6 191/1/6 197/1/6
f 197/1/6 191/1/6 198/1/6
f 192/1/6 193/1/6 199/1/6
f 199/1/6 193/1/6 200/1/6
f 194/1/6 195/1/6 201/1/6
f 201/1/6 195/1/6 202/1/6
f 196/1/6 182/1/6 203/1/6
f 203/1/6 182/1/6 204/1/6
f 205/2/6 206/2/6 211/2/6
f 211/2/6 206/2/6 212/2/6
f 207/2/6 208/2/6 213/2/6
f 213/2/6 208/2/6 214/2/6
f 209/2/6 210/2/6 215/2/6
f 215/2/6 210/2/6 216/2/6
