# MagicaVoxel @ Ephtracy

# group
o 

# material
mtllib Voxel Universe Objects-9.mtl
usemtl palette

# normals
vn 1 0 0
vn -1 0 0
vn 0 -1 0
vn 0 1 0
vn 0 0 1
vn 0 0 -1

# texcoords
vt 0.908203 0.5
vt 0.955078 0.5
vt 0.958984 0.5
vt 0.994141 0.5

# verts
v -4.6 0.4 -14.6
v -4.6 0.6 -14.6
v -4.6 0.4 -14.9
v -4.6 0.6 -14.9
v -4.7 0.2 -14.4
v -4.7 0.8 -14.4
v -4.7 0.4 -14.6
v -4.7 0.6 -14.6
v -4.7 0.4 -14.9
v -4.7 0.6 -14.9
v -4.7 0.2 -15.1
v -4.7 0.8 -15.1
v -4.8 0.4 -15.1
v -4.8 0.6 -15.1
v -4.8 0.4 -15.9
v -4.8 0.6 -15.9
v -4.9 0 -14.2
v -4.9 1 -14.2
v -4.9 0.2 -14.4
v -4.9 0.8 -14.4
v -4.9 0.2 -15.1
v -4.9 0.3 -15.1
v -4.9 0.4 -15.1
v -4.9 0.6 -15.1
v -4.9 0.7 -15.1
v -4.9 0.8 -15.1
v -4.9 0 -15.2
v -4.9 0.2 -15.2
v -4.9 0.3 -15.2
v -4.9 0.4 -15.2
v -4.9 0.6 -15.2
v -4.9 0.7 -15.2
v -4.9 0.8 -15.2
v -4.9 1 -15.2
v -4.9 0.1 -15.7
v -4.9 0.4 -15.7
v -4.9 0.6 -15.7
v -4.9 0.9 -15.7
v -4.9 0.4 -15.9
v -4.9 0.6 -15.9
v -4.9 0.1 -16.1
v -4.9 0.9 -16.1
v -6.3 0 -14.2
v -6.3 1 -14.2
v -6.3 0.2 -14.4
v -6.3 0.8 -14.4
v -6.3 0.2 -15
v -6.3 0.8 -15
v -6.3 0 -15.2
v -6.3 1 -15.2
v -6.4 0.2 -14.4
v -6.4 0.8 -14.4
v -6.4 0.2 -15
v -6.4 0.8 -15
v -6.6 0.4 -15.2
v -6.6 0.6 -15.2
v -6.6 0.4 -15.7
v -6.6 0.6 -15.7
v -4.9 0.4 -15.2
v -4.9 0.6 -15.2
v -4.9 0.4 -15.7
v -4.9 0.6 -15.7
v -5.1 0.2 -14.4
v -5.1 0.8 -14.4
v -5.1 0.2 -15
v -5.1 0.8 -15
v -5.2 0 -14.2
v -5.2 1 -14.2
v -5.2 0.2 -14.4
v -5.2 0.8 -14.4
v -5.2 0.2 -15
v -5.2 0.8 -15
v -5.2 0 -15.2
v -5.2 1 -15.2
v -6.6 0 -14.2
v -6.6 1 -14.2
v -6.6 0.2 -14.4
v -6.6 0.8 -14.4
v -6.6 0.2 -15.1
v -6.6 0.3 -15.1
v -6.6 0.4 -15.1
v -6.6 0.6 -15.1
v -6.6 0.7 -15.1
v -6.6 0.8 -15.1
v -6.6 0 -15.2
v -6.6 0.2 -15.2
v -6.6 0.3 -15.2
v -6.6 0.4 -15.2
v -6.6 0.6 -15.2
v -6.6 0.7 -15.2
v -6.6 0.8 -15.2
v -6.6 1 -15.2
v -6.6 0.1 -15.7
v -6.6 0.4 -15.7
v -6.6 0.6 -15.7
v -6.6 0.9 -15.7
v -6.6 0.4 -15.9
v -6.6 0.6 -15.9
v -6.6 0.1 -16.1
v -6.6 0.9 -16.1
v -6.7 0.4 -15.1
v -6.7 0.6 -15.1
v -6.7 0.4 -15.9
v -6.7 0.6 -15.9
v -6.8 0.2 -14.4
v -6.8 0.8 -14.4
v -6.8 0.4 -14.6
v -6.8 0.6 -14.6
v -6.8 0.4 -14.9
v -6.8 0.6 -14.9
v -6.8 0.2 -15.1
v -6.8 0.8 -15.1
v -6.9 0.4 -14.6
v -6.9 0.6 -14.6
v -6.9 0.4 -14.9
v -6.9 0.6 -14.9
v -4.9 0 -14.2
v -4.9 0 -15.2
v -5.2 0 -14.2
v -5.2 0 -15.2
v -6.3 0 -14.2
v -6.3 0 -15.2
v -6.6 0 -14.2
v -6.6 0 -15.2
v -4.9 0.1 -15.7
v -4.9 0.1 -16.1
v -6.6 0.1 -15.7
v -6.6 0.1 -16.1
v -4.7 0.2 -14.4
v -4.7 0.2 -15.1
v -4.9 0.2 -14.4
v -4.9 0.2 -15.1
v -6.6 0.2 -14.4
v -6.6 0.2 -15.1
v -6.8 0.2 -14.4
v -6.8 0.2 -15.1
v -4.6 0.4 -14.6
v -4.6 0.4 -14.9
v -4.7 0.4 -14.6
v -4.7 0.4 -14.9
v -4.8 0.4 -15.1
v -4.8 0.4 -15.9
v -4.9 0.4 -15.1
v -4.9 0.4 -15.2
v -4.9 0.4 -15.7
v -4.9 0.4 -15.9
v -6.6 0.4 -15.1
v -6.6 0.4 -15.2
v -6.6 0.4 -15.7
v -6.6 0.4 -15.9
v -6.7 0.4 -15.1
v -6.7 0.4 -15.9
v -6.8 0.4 -14.6
v -6.8 0.4 -14.9
v -6.9 0.4 -14.6
v -6.9 0.4 -14.9
v -5.1 0.8 -14.4
v -5.1 0.8 -15
v -5.2 0.8 -14.4
v -5.2 0.8 -15
v -6.3 0.8 -14.4
v -6.3 0.8 -15
v -6.4 0.8 -14.4
v -6.4 0.8 -15
v -5.1 0.2 -14.4
v -5.1 0.2 -15
v -5.2 0.2 -14.4
v -5.2 0.2 -15
v -6.3 0.2 -14.4
v -6.3 0.2 -15
v -6.4 0.2 -14.4
v -6.4 0.2 -15
v -4.6 0.6 -14.6
v -4.6 0.6 -14.9
v -4.7 0.6 -14.6
v -4.7 0.6 -14.9
v -4.8 0.6 -15.1
v -4.8 0.6 -15.9
v -4.9 0.6 -15.1
v -4.9 0.6 -15.2
v -4.9 0.6 -15.7
v -4.9 0.6 -15.9
v -6.6 0.6 -15.1
v -6.6 0.6 -15.2
v -6.6 0.6 -15.7
v -6.6 0.6 -15.9
v -6.7 0.6 -15.1
v -6.7 0.6 -15.9
v -6.8 0.6 -14.6
v -6.8 0.6 -14.9
v -6.9 0.6 -14.6
v -6.9 0.6 -14.9
v -4.7 0.8 -14.4
v -4.7 0.8 -15.1
v -4.9 0.8 -14.4
v -4.9 0.8 -15.1
v -6.6 0.8 -14.4
v -6.6 0.8 -15.1
v -6.8 0.8 -14.4
v -6.8 0.8 -15.1
v -4.9 0.9 -15.7
v -4.9 0.9 -16.1
v -6.6 0.9 -15.7
v -6.6 0.9 -16.1
v -4.9 1 -14.2
v -4.9 1 -15.2
v -5.2 1 -14.2
v -5.2 1 -15.2
v -6.3 1 -14.2
v -6.3 1 -15.2
v -6.6 1 -14.2
v -6.6 1 -15.2
v -4.9 0 -14.2
v -5.2 0 -14.2
v -6.3 0 -14.2
v -6.6 0 -14.2
v -4.9 1 -14.2
v -5.2 1 -14.2
v -6.3 1 -14.2
v -6.6 1 -14.2
v -4.7 0.2 -14.4
v -4.9 0.2 -14.4
v -6.6 0.2 -14.4
v -6.8 0.2 -14.4
v -4.7 0.8 -14.4
v -4.9 0.8 -14.4
v -6.6 0.8 -14.4
v -6.8 0.8 -14.4
v -4.6 0.4 -14.6
v -4.7 0.4 -14.6
v -6.8 0.4 -14.6
v -6.9 0.4 -14.6
v -4.6 0.6 -14.6
v -4.7 0.6 -14.6
v -6.8 0.6 -14.6
v -6.9 0.6 -14.6
v -5.1 0.2 -15
v -5.2 0.2 -15
v -6.3 0.2 -15
v -6.4 0.2 -15
v -5.1 0.8 -15
v -5.2 0.8 -15
v -6.3 0.8 -15
v -6.4 0.8 -15
v -4.9 0.1 -15.7
v -6.6 0.1 -15.7
v -4.9 0.4 -15.7
v -6.6 0.4 -15.7
v -4.9 0.6 -15.7
v -6.6 0.6 -15.7
v -4.9 0.9 -15.7
v -6.6 0.9 -15.7
v -5.1 0.2 -14.4
v -5.2 0.2 -14.4
v -6.3 0.2 -14.4
v -6.4 0.2 -14.4
v -5.1 0.8 -14.4
v -5.2 0.8 -14.4
v -6.3 0.8 -14.4
v -6.4 0.8 -14.4
v -4.6 0.4 -14.9
v -4.7 0.4 -14.9
v -6.8 0.4 -14.9
v -6.9 0.4 -14.9
v -4.6 0.6 -14.9
v -4.7 0.6 -14.9
v -6.8 0.6 -14.9
v -6.9 0.6 -14.9
v -4.7 0.2 -15.1
v -4.9 0.2 -15.1
v -6.6 0.2 -15.1
v -6.8 0.2 -15.1
v -4.9 0.3 -15.1
v -6.6 0.3 -15.1
v -4.8 0.4 -15.1
v -4.9 0.4 -15.1
v -6.6 0.4 -15.1
v -6.7 0.4 -15.1
v -4.8 0.6 -15.1
v -4.9 0.6 -15.1
v -6.6 0.6 -15.1
v -6.7 0.6 -15.1
v -4.9 0.7 -15.1
v -6.6 0.7 -15.1
v -4.7 0.8 -15.1
v -4.9 0.8 -15.1
v -6.6 0.8 -15.1
v -6.8 0.8 -15.1
v -4.9 0 -15.2
v -5.2 0 -15.2
v -6.3 0 -15.2
v -6.6 0 -15.2
v -4.9 0.2 -15.2
v -5.1 0.2 -15.2
v -6.4 0.2 -15.2
v -6.6 0.2 -15.2
v -4.9 0.3 -15.2
v -5.1 0.3 -15.2
v -6.4 0.3 -15.2
v -6.6 0.3 -15.2
v -4.9 0.4 -15.2
v -5.1 0.4 -15.2
v -6.4 0.4 -15.2
v -6.6 0.4 -15.2
v -4.9 0.6 -15.2
v -5.1 0.6 -15.2
v -6.4 0.6 -15.2
v -6.6 0.6 -15.2
v -4.9 0.7 -15.2
v -5.1 0.7 -15.2
v -6.4 0.7 -15.2
v -6.6 0.7 -15.2
v -4.9 0.8 -15.2
v -5.1 0.8 -15.2
v -6.4 0.8 -15.2
v -6.6 0.8 -15.2
v -4.9 1 -15.2
v -5.2 1 -15.2
v -6.3 1 -15.2
v -6.6 1 -15.2
v -4.8 0.4 -15.9
v -4.9 0.4 -15.9
v -6.6 0.4 -15.9
v -6.7 0.4 -15.9
v -4.8 0.6 -15.9
v -4.9 0.6 -15.9
v -6.6 0.6 -15.9
v -6.7 0.6 -15.9
v -4.9 0.1 -16.1
v -6.6 0.1 -16.1
v -5.2 0.2 -16.1
v -5.3 0.2 -16.1
v -5.6 0.2 -16.1
v -5.7 0.2 -16.1
v -5.8 0.2 -16.1
v -6.3 0.2 -16.1
v -5.2 0.3 -16.1
v -5.3 0.3 -16.1
v -5.4 0.3 -16.1
v -5.9 0.3 -16.1
v -6.3 0.3 -16.1
v -5.3 0.4 -16.1
v -5.4 0.4 -16.1
v -5.6 0.4 -16.1
v -5.8 0.4 -16.1
v -5.9 0.4 -16.1
v -6.1 0.4 -16.1
v -5.3 0.5 -16.1
v -5.4 0.5 -16.1
v -5.6 0.5 -16.1
v -5.9 0.5 -16.1
v -6 0.5 -16.1
v -6.1 0.5 -16.1
v -6.2 0.5 -16.1
v -5.2 0.6 -16.1
v -5.3 0.6 -16.1
v -5.4 0.6 -16.1
v -6 0.6 -16.1
v -6.2 0.6 -16.1
v -6.3 0.6 -16.1
v -5.8 0.7 -16.1
v -6.2 0.7 -16.1
v -5.2 0.8 -16.1
v -5.3 0.8 -16.1
v -5.6 0.8 -16.1
v -5.7 0.8 -16.1
v -5.8 0.8 -16.1
v -6.3 0.8 -16.1
v -4.9 0.9 -16.1
v -6.6 0.9 -16.1

# faces
f 3/1/1 2/1/1 1/1/1
f 4/1/1 2/1/1 3/1/1
f 7/3/1 6/3/1 5/3/1
f 8/3/1 6/3/1 7/3/1
f 9/3/1 7/3/1 5/3/1
f 10/3/1 6/3/1 8/3/1
f 11/3/1 9/3/1 5/3/1
f 11/3/1 10/3/1 9/3/1
f 12/3/1 6/3/1 10/3/1
f 12/3/1 10/3/1 11/3/1
f 15/1/1 14/1/1 13/1/1
f 16/1/1 14/1/1 15/1/1
f 19/2/1 18/2/1 17/2/1
f 20/2/1 18/2/1 19/2/1
f 21/2/1 19/2/1 17/2/1
f 26/2/1 18/2/1 20/2/1
f 27/2/1 21/2/1 17/2/1
f 28/1/1 22/1/1 21/1/1
f 28/2/1 21/2/1 27/2/1
f 29/2/1 23/2/1 22/2/1
f 29/1/1 22/1/1 28/1/1
f 30/2/1 23/2/1 29/2/1
f 31/2/1 25/2/1 24/2/1
f 32/1/1 26/1/1 25/1/1
f 32/2/1 25/2/1 31/2/1
f 33/2/1 18/2/1 26/2/1
f 33/1/1 26/1/1 32/1/1
f 34/2/1 18/2/1 33/2/1
f 39/2/1 36/2/1 35/2/1
f 40/2/1 38/2/1 37/2/1
f 41/2/1 39/2/1 35/2/1
f 41/2/1 40/2/1 39/2/1
f 42/2/1 38/2/1 40/2/1
f 42/2/1 40/2/1 41/2/1
f 45/2/1 44/2/1 43/2/1
f 46/2/1 44/2/1 45/2/1
f 47/2/1 45/2/1 43/2/1
f 48/2/1 44/2/1 46/2/1
f 49/2/1 47/2/1 43/2/1
f 49/2/1 48/2/1 47/2/1
f 50/2/1 44/2/1 48/2/1
f 50/2/1 48/2/1 49/2/1
f 53/4/1 52/4/1 51/4/1
f 54/4/1 52/4/1 53/4/1
f 57/1/1 56/1/1 55/1/1
f 58/1/1 56/1/1 57/1/1
f 59/1/2 60/1/2 61/1/2
f 61/1/2 60/1/2 62/1/2
f 63/4/2 64/4/2 65/4/2
f 65/4/2 64/4/2 66/4/2
f 67/2/2 68/2/2 69/2/2
f 69/2/2 68/2/2 70/2/2
f 67/2/2 69/2/2 71/2/2
f 70/2/2 68/2/2 72/2/2
f 67/2/2 71/2/2 73/2/2
f 71/2/2 72/2/2 73/2/2
f 72/2/2 68/2/2 74/2/2
f 73/2/2 72/2/2 74/2/2
f 75/2/2 76/2/2 77/2/2
f 77/2/2 76/2/2 78/2/2
f 75/2/2 77/2/2 79/2/2
f 78/2/2 76/2/2 84/2/2
f 75/2/2 79/2/2 85/2/2
f 79/1/2 80/1/2 86/1/2
f 85/2/2 79/2/2 86/2/2
f 80/2/2 81/2/2 87/2/2
f 86/1/2 80/1/2 87/1/2
f 87/2/2 81/2/2 88/2/2
f 82/2/2 83/2/2 89/2/2
f 83/1/2 84/1/2 90/1/2
f 89/2/2 83/2/2 90/2/2
f 84/2/2 76/2/2 91/2/2
f 90/1/2 84/1/2 91/1/2
f 91/2/2 76/2/2 92/2/2
f 93/2/2 94/2/2 97/2/2
f 95/2/2 96/2/2 98/2/2
f 93/2/2 97/2/2 99/2/2
f 97/2/2 98/2/2 99/2/2
f 98/2/2 96/2/2 100/2/2
f 99/2/2 98/2/2 100/2/2
f 101/1/2 102/1/2 103/1/2
f 103/1/2 102/1/2 104/1/2
f 105/3/2 106/3/2 107/3/2
f 107/3/2 106/3/2 108/3/2
f 105/3/2 107/3/2 109/3/2
f 108/3/2 106/3/2 110/3/2
f 105/3/2 109/3/2 111/3/2
f 109/3/2 110/3/2 111/3/2
f 110/3/2 106/3/2 112/3/2
f 111/3/2 110/3/2 112/3/2
f 113/1/2 114/1/2 115/1/2
f 115/1/2 114/1/2 116/1/2
f 119/2/3 118/2/3 117/2/3
f 120/2/3 118/2/3 119/2/3
f 123/2/3 122/2/3 121/2/3
f 124/2/3 122/2/3 123/2/3
f 127/2/3 126/2/3 125/2/3
f 128/2/3 126/2/3 127/2/3
f 131/3/3 130/3/3 129/3/3
f 132/3/3 130/3/3 131/3/3
f 135/3/3 134/3/3 133/3/3
f 136/3/3 134/3/3 135/3/3
f 139/1/3 138/1/3 137/1/3
f 140/1/3 138/1/3 139/1/3
f 143/1/3 142/1/3 141/1/3
f 144/1/3 142/1/3 143/1/3
f 145/1/3 142/1/3 144/1/3
f 146/1/3 142/1/3 145/1/3
f 151/1/3 148/1/3 147/1/3
f 151/1/3 150/1/3 149/1/3
f 151/1/3 149/1/3 148/1/3
f 152/1/3 150/1/3 151/1/3
f 155/1/3 154/1/3 153/1/3
f 156/1/3 154/1/3 155/1/3
f 159/2/3 158/2/3 157/2/3
f 160/2/3 158/2/3 159/2/3
f 163/2/3 162/2/3 161/2/3
f 164/2/3 162/2/3 163/2/3
f 165/2/4 166/2/4 167/2/4
f 167/2/4 166/2/4 168/2/4
f 169/2/4 170/2/4 171/2/4
f 171/2/4 170/2/4 172/2/4
f 173/1/4 174/1/4 175/1/4
f 175/1/4 174/1/4 176/1/4
f 177/1/4 178/1/4 179/1/4
f 179/1/4 178/1/4 180/1/4
f 180/1/4 178/1/4 181/1/4
f 181/1/4 178/1/4 182/1/4
f 183/1/4 184/1/4 187/1/4
f 185/1/4 186/1/4 187/1/4
f 184/1/4 185/1/4 187/1/4
f 187/1/4 186/1/4 188/1/4
f 189/1/4 190/1/4 191/1/4
f 191/1/4 190/1/4 192/1/4
f 193/3/4 194/3/4 195/3/4
f 195/3/4 194/3/4 196/3/4
f 197/3/4 198/3/4 199/3/4
f 199/3/4 198/3/4 200/3/4
f 201/2/4 202/2/4 203/2/4
f 203/2/4 202/2/4 204/2/4
f 205/2/4 206/2/4 207/2/4
f 207/2/4 206/2/4 208/2/4
f 209/2/4 210/2/4 211/2/4
f 211/2/4 210/2/4 212/2/4
f 217/2/5 214/2/5 213/2/5
f 218/2/5 214/2/5 217/2/5
f 219/2/5 216/2/5 215/2/5
f 220/2/5 216/2/5 219/2/5
f 225/3/5 222/3/5 221/3/5
f 226/3/5 222/3/5 225/3/5
f 227/3/5 224/3/5 223/3/5
f 228/3/5 224/3/5 227/3/5
f 233/1/5 230/1/5 229/1/5
f 234/1/5 230/1/5 233/1/5
f 235/1/5 232/1/5 231/1/5
f 236/1/5 232/1/5 235/1/5
f 241/2/5 238/2/5 237/2/5
f 242/2/5 238/2/5 241/2/5
f 243/2/5 240/2/5 239/2/5
f 244/2/5 240/2/5 243/2/5
f 247/2/5 246/2/5 245/2/5
f 248/2/5 246/2/5 247/2/5
f 249/2/5 248/2/5 247/2/5
f 250/2/5 248/2/5 249/2/5
f 251/2/5 250/2/5 249/2/5
f 252/2/5 250/2/5 251/2/5
f 253/2/6 254/2/6 257/2/6
f 257/2/6 254/2/6 258/2/6
f 255/2/6 256/2/6 259/2/6
f 259/2/6 256/2/6 260/2/6
f 261/1/6 262/1/6 265/1/6
f 265/1/6 262/1/6 266/1/6
f 263/1/6 264/1/6 267/1/6
f 267/1/6 264/1/6 268/1/6
f 269/3/6 270/3/6 273/3/6
f 271/3/6 272/3/6 274/3/6
f 269/3/6 273/3/6 275/3/6
f 275/3/6 273/3/6 276/3/6
f 274/3/6 272/3/6 277/3/6
f 277/3/6 272/3/6 278/3/6
f 269/3/6 275/3/6 279/3/6
f 278/3/6 272/3/6 282/3/6
f 279/3/6 280/3/6 283/3/6
f 281/3/6 282/3/6 284/3/6
f 279/3/6 283/3/6 285/3/6
f 269/3/6 279/3/6 285/3/6
f 285/3/6 283/3/6 286/3/6
f 284/3/6 282/3/6 287/3/6
f 282/3/6 272/3/6 288/3/6
f 287/3/6 282/3/6 288/3/6
f 289/2/6 290/2/6 293/2/6
f 293/2/6 290/2/6 294/2/6
f 291/2/6 292/2/6 295/2/6
f 295/2/6 292/2/6 296/2/6
f 293/1/6 294/1/6 297/1/6
f 294/2/6 290/2/6 298/2/6
f 297/1/6 294/1/6 298/1/6
f 291/2/6 295/2/6 299/2/6
f 295/1/6 296/1/6 299/1/6
f 299/1/6 296/1/6 300/1/6
f 297/2/6 298/2/6 301/2/6
f 298/2/6 290/2/6 302/2/6
f 301/2/6 298/2/6 302/2/6
f 291/2/6 299/2/6 303/2/6
f 299/2/6 300/2/6 303/2/6
f 303/2/6 300/2/6 304/2/6
f 301/1/6 302/1/6 305/1/6
f 302/2/6 290/2/6 306/2/6
f 305/1/6 302/1/6 306/1/6
f 291/2/6 303/2/6 307/2/6
f 303/1/6 304/1/6 307/1/6
f 307/1/6 304/1/6 308/1/6
f 305/2/6 306/2/6 309/2/6
f 306/2/6 290/2/6 310/2/6
f 309/2/6 306/2/6 310/2/6
f 291/2/6 307/2/6 311/2/6
f 307/2/6 308/2/6 311/2/6
f 311/2/6 308/2/6 312/2/6
f 309/1/6 310/1/6 313/1/6
f 310/2/6 290/2/6 314/2/6
f 313/1/6 310/1/6 314/1/6
f 291/2/6 311/2/6 315/2/6
f 311/1/6 312/1/6 315/1/6
f 315/1/6 312/1/6 316/1/6
f 313/2/6 314/2/6 317/2/6
f 314/2/6 290/2/6 318/2/6
f 317/2/6 314/2/6 318/2/6
f 291/2/6 315/2/6 319/2/6
f 315/2/6 316/2/6 319/2/6
f 319/2/6 316/2/6 320/2/6
f 321/1/6 322/1/6 325/1/6
f 325/1/6 322/1/6 326/1/6
f 323/1/6 324/1/6 327/1/6
f 327/1/6 324/1/6 328/1/6
f 329/2/6 330/2/6 331/2/6
f 331/2/6 330/2/6 332/2/6
f 332/2/6 330/2/6 333/2/6
f 333/2/6 330/2/6 334/2/6
f 334/2/6 330/2/6 335/2/6
f 335/2/6 330/2/6 336/2/6
f 329/2/6 331/2/6 337/2/6
f 331/1/6 332/1/6 337/1/6
f 332/2/6 333/2/6 338/2/6
f 337/1/6 332/1/6 338/1/6
f 338/2/6 333/2/6 339/2/6
f 335/1/6 336/1/6 340/1/6
f 336/2/6 330/2/6 341/2/6
f 340/1/6 336/1/6 341/1/6
f 337/2/6 338/2/6 342/2/6
f 338/1/6 339/1/6 342/1/6
f 339/2/6 333/2/6 343/2/6
f 342/1/6 339/1/6 343/1/6
f 333/1/6 334/1/6 344/1/6
f 343/2/6 333/2/6 344/2/6
f 335/1/6 340/1/6 345/1/6
f 334/2/6 335/2/6 345/2/6
f 340/2/6 341/2/6 346/2/6
f 345/1/6 340/1/6 346/1/6
f 346/2/6 341/2/6 347/2/6
f 337/2/6 342/2/6 348/2/6
f 342/2/6 343/2/6 348/2/6
f 343/1/6 344/1/6 349/1/6
f 348/2/6 343/2/6 349/2/6
f 344/1/6 334/1/6 350/1/6
f 349/1/6 344/1/6 350/1/6
f 346/1/6 347/1/6 351/1/6
f 345/2/6 346/2/6 351/2/6
f 351/1/6 347/1/6 352/1/6
f 347/2/6 341/2/6 353/2/6
f 352/1/6 347/1/6 353/1/6
f 353/2/6 341/2/6 354/2/6
f 329/2/6 337/2/6 355/2/6
f 337/2/6 348/2/6 355/2/6
f 348/1/6 349/1/6 356/1/6
f 355/2/6 348/2/6 356/2/6
f 349/2/6 350/2/6 357/2/6
f 356/1/6 349/1/6 357/1/6
f 351/2/6 352/2/6 358/2/6
f 353/1/6 354/1/6 358/1/6
f 352/1/6 353/1/6 358/1/6
f 354/2/6 341/2/6 359/2/6
f 358/1/6 354/1/6 359/1/6
f 341/2/6 330/2/6 360/2/6
f 359/2/6 341/2/6 360/2/6
f 351/2/6 358/2/6 361/2/6
f 358/2/6 359/2/6 361/2/6
f 334/2/6 345/2/6 361/2/6
f 345/2/6 351/2/6 361/2/6
f 359/1/6 360/1/6 362/1/6
f 361/2/6 359/2/6 362/2/6
f 329/2/6 355/2/6 363/2/6
f 355/1/6 356/1/6 363/1/6
f 356/2/6 357/2/6 364/2/6
f 363/1/6 356/1/6 364/1/6
f 357/2/6 350/2/6 365/2/6
f 364/2/6 357/2/6 365/2/6
f 350/1/6 334/1/6 365/1/6
f 334/2/6 361/2/6 366/2/6
f 365/1/6 334/1/6 366/1/6
f 361/1/6 362/1/6 367/1/6
f 366/2/6 361/2/6 367/2/6
f 362/1/6 360/1/6 368/1/6
f 367/1/6 362/1/6 368/1/6
f 360/2/6 330/2/6 368/2/6
f 366/2/6 367/2/6 369/2/6
f 363/2/6 364/2/6 369/2/6
f 367/2/6 368/2/6 369/2/6
f 329/2/6 363/2/6 369/2/6
f 365/2/6 366/2/6 369/2/6
f 364/2/6 365/2/6 369/2/6
f 368/2/6 330/2/6 370/2/6
f 369/2/6 368/2/6 370/2/6
