# MagicaVoxel @ Ephtracy

# group
o Cactus

# material
mtllib Voxel Universe-43-Cactus.mtl
usemtl palette

# normals
vn -1 0 0
vn 1 0 0
vn 0 0 1
vn 0 0 -1
vn 0 -1 0
vn 0 1 0

# texcoords
vt 0.541016 0.5
vt 0.603516 0.5
vt 0.623047 0.5
vt 0.654297 0.5
vt 0.908203 0.5
vt 0.958984 0.5

# verts
v 5 0.2 13.6
v 5 0.2 12.9
v 5 0.7 13.6
v 5 0.7 12.9
v 5.1 0.8 13.3
v 5.1 0.8 13.2
v 5.1 0.9 13.3
v 5.1 0.9 13.2
v 5.1 1 13.3
v 5.1 1 13.2
v 5.1 1.1 13.3
v 5.1 1.1 13.2
v 5.1 1.2 13.3
v 5.1 1.2 13.2
v 5.1 1.3 13.3
v 5.1 1.3 13.2
v 5.2 0.1 13.5
v 5.2 0.1 13
v 5.2 0.2 13.5
v 5.2 0.2 13
v 5.2 0.6 13.4
v 5.2 0.6 13.1
v 5.2 0.8 13.3
v 5.2 0.8 13.2
v 5.2 0.9 13.3
v 5.2 0.9 13.2
v 5.2 1 13.3
v 5.2 1 13.2
v 5.2 1.1 13.3
v 5.2 1.1 13.2
v 5.2 1.2 13.3
v 5.2 1.2 13.2
v 5.2 1.3 13.3
v 5.2 1.3 13.2
v 5.2 1.4 13.4
v 5.2 1.4 13.1
v 5.2 1.5 13.3
v 5.2 1.5 13.2
v 5.2 1.6 13.3
v 5.2 1.6 13.2
v 5.3 0.8 13.5
v 5.3 0.8 13.4
v 5.3 0.8 13.1
v 5.3 0.8 13
v 5.3 0.9 13.5
v 5.3 0.9 13.4
v 5.3 0.9 13.1
v 5.3 0.9 13
v 5.3 1 13.5
v 5.3 1 13.4
v 5.3 1 13.1
v 5.3 1 13
v 5.3 1.1 13.5
v 5.3 1.1 13.4
v 5.3 1.1 13.1
v 5.3 1.1 13
v 5.3 1.2 13.5
v 5.3 1.2 13.4
v 5.3 1.2 13.1
v 5.3 1.2 13
v 5.3 1.3 13.5
v 5.3 1.3 13.4
v 5.3 1.3 13.1
v 5.3 1.3 13
v 5.3 1.4 13.3
v 5.3 1.4 13.2
v 5.3 1.5 13.4
v 5.3 1.5 13.3
v 5.3 1.5 13.2
v 5.3 1.5 13.1
v 5.3 1.6 13.4
v 5.3 1.6 13.3
v 5.3 1.6 13.2
v 5.3 1.6 13.1
v 5.6 0.6 13.5
v 5.6 0.6 13
v 5.6 0.7 13.5
v 5.6 0.7 13
v 5.1 0.6 13.5
v 5.1 0.6 13
v 5.1 0.7 13.5
v 5.1 0.7 13
v 5.4 0.8 13.5
v 5.4 0.8 13.4
v 5.4 0.8 13.1
v 5.4 0.8 13
v 5.4 0.9 13.5
v 5.4 0.9 13.4
v 5.4 0.9 13.1
v 5.4 0.9 13
v 5.4 1 13.5
v 5.4 1 13.4
v 5.4 1 13.1
v 5.4 1 13
v 5.4 1.1 13.5
v 5.4 1.1 13.4
v 5.4 1.1 13.1
v 5.4 1.1 13
v 5.4 1.2 13.5
v 5.4 1.2 13.4
v 5.4 1.2 13.1
v 5.4 1.2 13
v 5.4 1.3 13.5
v 5.4 1.3 13.4
v 5.4 1.3 13.1
v 5.4 1.3 13
v 5.4 1.4 13.3
v 5.4 1.4 13.2
v 5.4 1.5 13.4
v 5.4 1.5 13.3
v 5.4 1.5 13.2
v 5.4 1.5 13.1
v 5.4 1.6 13.4
v 5.4 1.6 13.3
v 5.4 1.6 13.2
v 5.4 1.6 13.1
v 5.5 0.6 13.4
v 5.5 0.6 13.1
v 5.5 0.8 13.3
v 5.5 0.8 13.2
v 5.5 0.9 13.3
v 5.5 0.9 13.2
v 5.5 1 13.3
v 5.5 1 13.2
v 5.5 1.1 13.3
v 5.5 1.1 13.2
v 5.5 1.2 13.3
v 5.5 1.2 13.2
v 5.5 1.3 13.3
v 5.5 1.3 13.2
v 5.5 1.4 13.4
v 5.5 1.4 13.1
v 5.5 1.5 13.3
v 5.5 1.5 13.2
v 5.5 1.6 13.3
v 5.5 1.6 13.2
v 5.6 0.1 13.5
v 5.6 0.1 13
v 5.6 0.2 13.5
v 5.6 0.2 13
v 5.6 0.8 13.3
v 5.6 0.8 13.2
v 5.6 0.9 13.3
v 5.6 0.9 13.2
v 5.6 1 13.3
v 5.6 1 13.2
v 5.6 1.1 13.3
v 5.6 1.1 13.2
v 5.6 1.2 13.3
v 5.6 1.2 13.2
v 5.6 1.3 13.3
v 5.6 1.3 13.2
v 5.7 0.2 13.6
v 5.7 0.2 12.9
v 5.7 0.7 13.6
v 5.7 0.7 12.9
v 5 0.2 13.6
v 5 0.7 13.6
v 5.7 0.2 13.6
v 5.7 0.7 13.6
v 5.2 0.1 13.5
v 5.2 0.2 13.5
v 5.3 0.8 13.5
v 5.3 0.9 13.5
v 5.3 1 13.5
v 5.3 1.1 13.5
v 5.3 1.2 13.5
v 5.3 1.3 13.5
v 5.4 0.8 13.5
v 5.4 0.9 13.5
v 5.4 1 13.5
v 5.4 1.1 13.5
v 5.4 1.2 13.5
v 5.4 1.3 13.5
v 5.6 0.1 13.5
v 5.6 0.2 13.5
v 5.2 0.6 13.4
v 5.2 1.4 13.4
v 5.3 0.8 13.4
v 5.3 0.9 13.4
v 5.3 1 13.4
v 5.3 1.1 13.4
v 5.3 1.2 13.4
v 5.3 1.3 13.4
v 5.3 1.5 13.4
v 5.3 1.6 13.4
v 5.4 0.8 13.4
v 5.4 0.9 13.4
v 5.4 1 13.4
v 5.4 1.1 13.4
v 5.4 1.2 13.4
v 5.4 1.3 13.4
v 5.4 1.5 13.4
v 5.4 1.6 13.4
v 5.5 0.6 13.4
v 5.5 1.4 13.4
v 5.1 0.8 13.3
v 5.1 0.9 13.3
v 5.1 1 13.3
v 5.1 1.1 13.3
v 5.1 1.2 13.3
v 5.1 1.3 13.3
v 5.2 0.8 13.3
v 5.2 0.9 13.3
v 5.2 1 13.3
v 5.2 1.1 13.3
v 5.2 1.2 13.3
v 5.2 1.3 13.3
v 5.2 1.5 13.3
v 5.2 1.6 13.3
v 5.3 1.4 13.3
v 5.3 1.5 13.3
v 5.3 1.6 13.3
v 5.4 1.4 13.3
v 5.4 1.5 13.3
v 5.4 1.6 13.3
v 5.5 0.8 13.3
v 5.5 0.9 13.3
v 5.5 1 13.3
v 5.5 1.1 13.3
v 5.5 1.2 13.3
v 5.5 1.3 13.3
v 5.5 1.5 13.3
v 5.5 1.6 13.3
v 5.6 0.8 13.3
v 5.6 0.9 13.3
v 5.6 1 13.3
v 5.6 1.1 13.3
v 5.6 1.2 13.3
v 5.6 1.3 13.3
v 5.1 0.6 13
v 5.1 0.7 13
v 5.6 0.6 13
v 5.6 0.7 13
v 5.1 0.6 13.5
v 5.1 0.7 13.5
v 5.6 0.6 13.5
v 5.6 0.7 13.5
v 5.1 0.8 13.2
v 5.1 0.9 13.2
v 5.1 1 13.2
v 5.1 1.1 13.2
v 5.1 1.2 13.2
v 5.1 1.3 13.2
v 5.2 0.8 13.2
v 5.2 0.9 13.2
v 5.2 1 13.2
v 5.2 1.1 13.2
v 5.2 1.2 13.2
v 5.2 1.3 13.2
v 5.2 1.5 13.2
v 5.2 1.6 13.2
v 5.3 1.4 13.2
v 5.3 1.5 13.2
v 5.3 1.6 13.2
v 5.4 1.4 13.2
v 5.4 1.5 13.2
v 5.4 1.6 13.2
v 5.5 0.8 13.2
v 5.5 0.9 13.2
v 5.5 1 13.2
v 5.5 1.1 13.2
v 5.5 1.2 13.2
v 5.5 1.3 13.2
v 5.5 1.5 13.2
v 5.5 1.6 13.2
v 5.6 0.8 13.2
v 5.6 0.9 13.2
v 5.6 1 13.2
v 5.6 1.1 13.2
v 5.6 1.2 13.2
v 5.6 1.3 13.2
v 5.2 0.6 13.1
v 5.2 1.4 13.1
v 5.3 0.8 13.1
v 5.3 0.9 13.1
v 5.3 1 13.1
v 5.3 1.1 13.1
v 5.3 1.2 13.1
v 5.3 1.3 13.1
v 5.3 1.5 13.1
v 5.3 1.6 13.1
v 5.4 0.8 13.1
v 5.4 0.9 13.1
v 5.4 1 13.1
v 5.4 1.1 13.1
v 5.4 1.2 13.1
v 5.4 1.3 13.1
v 5.4 1.5 13.1
v 5.4 1.6 13.1
v 5.5 0.6 13.1
v 5.5 1.4 13.1
v 5.2 0.1 13
v 5.2 0.2 13
v 5.3 0.8 13
v 5.3 0.9 13
v 5.3 1 13
v 5.3 1.1 13
v 5.3 1.2 13
v 5.3 1.3 13
v 5.4 0.8 13
v 5.4 0.9 13
v 5.4 1 13
v 5.4 1.1 13
v 5.4 1.2 13
v 5.4 1.3 13
v 5.6 0.1 13
v 5.6 0.2 13
v 5 0.2 12.9
v 5 0.7 12.9
v 5.7 0.2 12.9
v 5.7 0.7 12.9
v 5.2 0.1 13.5
v 5.6 0.1 13.5
v 5.2 0.1 13
v 5.6 0.1 13
v 5 0.2 13.6
v 5.7 0.2 13.6
v 5.2 0.2 13.5
v 5.6 0.2 13.5
v 5.2 0.2 13
v 5.6 0.2 13
v 5 0.2 12.9
v 5.7 0.2 12.9
v 5.3 0.8 13.5
v 5.4 0.8 13.5
v 5.3 0.8 13.4
v 5.4 0.8 13.4
v 5.1 0.8 13.3
v 5.2 0.8 13.3
v 5.5 0.8 13.3
v 5.6 0.8 13.3
v 5.1 0.8 13.2
v 5.2 0.8 13.2
v 5.5 0.8 13.2
v 5.6 0.8 13.2
v 5.3 0.8 13.1
v 5.4 0.8 13.1
v 5.3 0.8 13
v 5.4 0.8 13
v 5.3 1 13.5
v 5.4 1 13.5
v 5.3 1 13.4
v 5.4 1 13.4
v 5.1 1 13.3
v 5.2 1 13.3
v 5.5 1 13.3
v 5.6 1 13.3
v 5.1 1 13.2
v 5.2 1 13.2
v 5.5 1 13.2
v 5.6 1 13.2
v 5.3 1 13.1
v 5.4 1 13.1
v 5.3 1 13
v 5.4 1 13
v 5.3 1.2 13.5
v 5.4 1.2 13.5
v 5.3 1.2 13.4
v 5.4 1.2 13.4
v 5.1 1.2 13.3
v 5.2 1.2 13.3
v 5.5 1.2 13.3
v 5.6 1.2 13.3
v 5.1 1.2 13.2
v 5.2 1.2 13.2
v 5.5 1.2 13.2
v 5.6 1.2 13.2
v 5.3 1.2 13.1
v 5.4 1.2 13.1
v 5.3 1.2 13
v 5.4 1.2 13
v 5.3 1.5 13.4
v 5.4 1.5 13.4
v 5.2 1.5 13.3
v 5.3 1.5 13.3
v 5.4 1.5 13.3
v 5.5 1.5 13.3
v 5.2 1.5 13.2
v 5.3 1.5 13.2
v 5.4 1.5 13.2
v 5.5 1.5 13.2
v 5.3 1.5 13.1
v 5.4 1.5 13.1
v 5.1 0.6 13.5
v 5.6 0.6 13.5
v 5.2 0.6 13.4
v 5.5 0.6 13.4
v 5.2 0.6 13.1
v 5.5 0.6 13.1
v 5.1 0.6 13
v 5.6 0.6 13
v 5 0.7 13.6
v 5.7 0.7 13.6
v 5.1 0.7 13.5
v 5.6 0.7 13.5
v 5.1 0.7 13
v 5.6 0.7 13
v 5 0.7 12.9
v 5.7 0.7 12.9
v 5.3 0.9 13.5
v 5.4 0.9 13.5
v 5.3 0.9 13.4
v 5.4 0.9 13.4
v 5.1 0.9 13.3
v 5.2 0.9 13.3
v 5.5 0.9 13.3
v 5.6 0.9 13.3
v 5.1 0.9 13.2
v 5.2 0.9 13.2
v 5.5 0.9 13.2
v 5.6 0.9 13.2
v 5.3 0.9 13.1
v 5.4 0.9 13.1
v 5.3 0.9 13
v 5.4 0.9 13
v 5.3 1.1 13.5
v 5.4 1.1 13.5
v 5.3 1.1 13.4
v 5.4 1.1 13.4
v 5.1 1.1 13.3
v 5.2 1.1 13.3
v 5.5 1.1 13.3
v 5.6 1.1 13.3
v 5.1 1.1 13.2
v 5.2 1.1 13.2
v 5.5 1.1 13.2
v 5.6 1.1 13.2
v 5.3 1.1 13.1
v 5.4 1.1 13.1
v 5.3 1.1 13
v 5.4 1.1 13
v 5.3 1.3 13.5
v 5.4 1.3 13.5
v 5.3 1.3 13.4
v 5.4 1.3 13.4
v 5.1 1.3 13.3
v 5.2 1.3 13.3
v 5.5 1.3 13.3
v 5.6 1.3 13.3
v 5.1 1.3 13.2
v 5.2 1.3 13.2
v 5.5 1.3 13.2
v 5.6 1.3 13.2
v 5.3 1.3 13.1
v 5.4 1.3 13.1
v 5.3 1.3 13
v 5.4 1.3 13
v 5.2 1.4 13.4
v 5.5 1.4 13.4
v 5.3 1.4 13.3
v 5.4 1.4 13.3
v 5.3 1.4 13.2
v 5.4 1.4 13.2
v 5.2 1.4 13.1
v 5.5 1.4 13.1
v 5.3 1.6 13.4
v 5.4 1.6 13.4
v 5.2 1.6 13.3
v 5.3 1.6 13.3
v 5.4 1.6 13.3
v 5.5 1.6 13.3
v 5.2 1.6 13.2
v 5.3 1.6 13.2
v 5.4 1.6 13.2
v 5.5 1.6 13.2
v 5.3 1.6 13.1
v 5.4 1.6 13.1

# faces
f 3/6/1 2/6/1 1/6/1
f 4/6/1 2/6/1 3/6/1
f 7/2/1 6/2/1 5/2/1
f 8/2/1 6/2/1 7/2/1
f 11/2/1 10/2/1 9/2/1
f 12/2/1 10/2/1 11/2/1
f 15/2/1 14/2/1 13/2/1
f 16/2/1 14/2/1 15/2/1
f 19/6/1 18/6/1 17/6/1
f 20/6/1 18/6/1 19/6/1
f 23/3/1 22/3/1 21/3/1
f 24/3/1 22/3/1 23/3/1
f 25/3/1 23/3/1 21/3/1
f 26/3/1 22/3/1 24/3/1
f 27/3/1 25/3/1 21/3/1
f 27/3/1 26/3/1 25/3/1
f 28/3/1 22/3/1 26/3/1
f 28/3/1 26/3/1 27/3/1
f 29/3/1 27/3/1 21/3/1
f 30/3/1 22/3/1 28/3/1
f 31/3/1 29/3/1 21/3/1
f 31/3/1 30/3/1 29/3/1
f 32/3/1 22/3/1 30/3/1
f 32/3/1 30/3/1 31/3/1
f 33/3/1 31/3/1 21/3/1
f 34/3/1 22/3/1 32/3/1
f 35/3/1 33/3/1 21/3/1
f 35/3/1 34/3/1 33/3/1
f 36/3/1 22/3/1 34/3/1
f 36/3/1 34/3/1 35/3/1
f 39/5/1 38/5/1 37/5/1
f 40/5/1 38/5/1 39/5/1
f 45/2/1 42/2/1 41/2/1
f 46/2/1 42/2/1 45/2/1
f 47/2/1 44/2/1 43/2/1
f 48/2/1 44/2/1 47/2/1
f 53/2/1 50/2/1 49/2/1
f 54/2/1 50/2/1 53/2/1
f 55/2/1 52/2/1 51/2/1
f 56/2/1 52/2/1 55/2/1
f 61/2/1 58/2/1 57/2/1
f 62/2/1 58/2/1 61/2/1
f 63/2/1 60/2/1 59/2/1
f 64/2/1 60/2/1 63/2/1
f 68/5/1 66/5/1 65/5/1
f 69/5/1 66/5/1 68/5/1
f 71/5/1 68/5/1 67/5/1
f 72/5/1 68/5/1 71/5/1
f 73/5/1 70/5/1 69/5/1
f 74/5/1 70/5/1 73/5/1
f 77/6/1 76/6/1 75/6/1
f 78/6/1 76/6/1 77/6/1
f 79/6/2 80/6/2 81/6/2
f 81/6/2 80/6/2 82/6/2
f 83/2/2 84/2/2 87/2/2
f 87/2/2 84/2/2 88/2/2
f 85/2/2 86/2/2 89/2/2
f 89/2/2 86/2/2 90/2/2
f 91/2/2 92/2/2 95/2/2
f 95/2/2 92/2/2 96/2/2
f 93/2/2 94/2/2 97/2/2
f 97/2/2 94/2/2 98/2/2
f 99/2/2 100/2/2 103/2/2
f 103/2/2 100/2/2 104/2/2
f 101/2/2 102/2/2 105/2/2
f 105/2/2 102/2/2 106/2/2
f 107/5/2 108/5/2 110/5/2
f 110/5/2 108/5/2 111/5/2
f 109/5/2 110/5/2 113/5/2
f 113/5/2 110/5/2 114/5/2
f 111/5/2 112/5/2 115/5/2
f 115/5/2 112/5/2 116/5/2
f 117/3/2 118/3/2 119/3/2
f 119/3/2 118/3/2 120/3/2
f 117/3/2 119/3/2 121/3/2
f 120/3/2 118/3/2 122/3/2
f 117/3/2 121/3/2 123/3/2
f 121/3/2 122/3/2 123/3/2
f 122/3/2 118/3/2 124/3/2
f 123/3/2 122/3/2 124/3/2
f 117/3/2 123/3/2 125/3/2
f 124/3/2 118/3/2 126/3/2
f 117/3/2 125/3/2 127/3/2
f 125/3/2 126/3/2 127/3/2
f 126/3/2 118/3/2 128/3/2
f 127/3/2 126/3/2 128/3/2
f 117/3/2 127/3/2 129/3/2
f 128/3/2 118/3/2 130/3/2
f 117/3/2 129/3/2 131/3/2
f 129/3/2 130/3/2 131/3/2
f 130/3/2 118/3/2 132/3/2
f 131/3/2 130/3/2 132/3/2
f 133/5/2 134/5/2 135/5/2
f 135/5/2 134/5/2 136/5/2
f 137/6/2 138/6/2 139/6/2
f 139/6/2 138/6/2 140/6/2
f 141/2/2 142/2/2 143/2/2
f 143/2/2 142/2/2 144/2/2
f 145/2/2 146/2/2 147/2/2
f 147/2/2 146/2/2 148/2/2
f 149/2/2 150/2/2 151/2/2
f 151/2/2 150/2/2 152/2/2
f 153/6/2 154/6/2 155/6/2
f 155/6/2 154/6/2 156/6/2
f 159/6/3 158/6/3 157/6/3
f 160/6/3 158/6/3 159/6/3
f 169/2/3 164/2/3 163/2/3
f 170/2/3 164/2/3 169/2/3
f 171/2/3 166/2/3 165/2/3
f 172/2/3 166/2/3 171/2/3
f 173/2/3 168/2/3 167/2/3
f 174/2/3 168/2/3 173/2/3
f 175/6/3 162/6/3 161/6/3
f 176/6/3 162/6/3 175/6/3
f 179/3/3 178/3/3 177/3/3
f 180/3/3 178/3/3 179/3/3
f 181/3/3 178/3/3 180/3/3
f 182/3/3 178/3/3 181/3/3
f 183/3/3 178/3/3 182/3/3
f 184/3/3 178/3/3 183/3/3
f 187/3/3 179/3/3 177/3/3
f 188/3/3 181/3/3 180/3/3
f 189/3/3 181/3/3 188/3/3
f 190/3/3 183/3/3 182/3/3
f 191/3/3 183/3/3 190/3/3
f 192/3/3 178/3/3 184/3/3
f 193/5/3 186/5/3 185/5/3
f 194/5/3 186/5/3 193/5/3
f 195/3/3 192/3/3 191/3/3
f 195/3/3 191/3/3 190/3/3
f 195/3/3 187/3/3 177/3/3
f 195/3/3 189/3/3 188/3/3
f 195/3/3 188/3/3 187/3/3
f 195/3/3 190/3/3 189/3/3
f 196/3/3 178/3/3 192/3/3
f 196/3/3 192/3/3 195/3/3
f 203/2/3 198/2/3 197/2/3
f 204/2/3 198/2/3 203/2/3
f 205/2/3 200/2/3 199/2/3
f 206/2/3 200/2/3 205/2/3
f 207/2/3 202/2/3 201/2/3
f 208/2/3 202/2/3 207/2/3
f 212/5/3 210/5/3 209/5/3
f 213/5/3 210/5/3 212/5/3
f 214/5/3 212/5/3 211/5/3
f 215/5/3 212/5/3 214/5/3
f 223/5/3 216/5/3 215/5/3
f 224/5/3 216/5/3 223/5/3
f 225/2/3 218/2/3 217/2/3
f 226/2/3 218/2/3 225/2/3
f 227/2/3 220/2/3 219/2/3
f 228/2/3 220/2/3 227/2/3
f 229/2/3 222/2/3 221/2/3
f 230/2/3 222/2/3 229/2/3
f 233/6/3 232/6/3 231/6/3
f 234/6/3 232/6/3 233/6/3
f 235/6/4 236/6/4 237/6/4
f 237/6/4 236/6/4 238/6/4
f 239/2/4 240/2/4 245/2/4
f 245/2/4 240/2/4 246/2/4
f 241/2/4 242/2/4 247/2/4
f 247/2/4 242/2/4 248/2/4
f 243/2/4 244/2/4 249/2/4
f 249/2/4 244/2/4 250/2/4
f 251/5/4 252/5/4 254/5/4
f 254/5/4 252/5/4 255/5/4
f 253/5/4 254/5/4 256/5/4
f 256/5/4 254/5/4 257/5/4
f 257/5/4 258/5/4 265/5/4
f 265/5/4 258/5/4 266/5/4
f 259/2/4 260/2/4 267/2/4
f 267/2/4 260/2/4 268/2/4
f 261/2/4 262/2/4 269/2/4
f 269/2/4 262/2/4 270/2/4
f 263/2/4 264/2/4 271/2/4
f 271/2/4 264/2/4 272/2/4
f 273/3/4 274/3/4 275/3/4
f 275/3/4 274/3/4 276/3/4
f 276/3/4 274/3/4 277/3/4
f 277/3/4 274/3/4 278/3/4
f 278/3/4 274/3/4 279/3/4
f 279/3/4 274/3/4 280/3/4
f 273/3/4 275/3/4 283/3/4
f 276/3/4 277/3/4 284/3/4
f 284/3/4 277/3/4 285/3/4
f 278/3/4 279/3/4 286/3/4
f 286/3/4 279/3/4 287/3/4
f 280/3/4 274/3/4 288/3/4
f 281/5/4 282/5/4 289/5/4
f 289/5/4 282/5/4 290/5/4
f 287/3/4 288/3/4 291/3/4
f 286/3/4 287/3/4 291/3/4
f 273/3/4 283/3/4 291/3/4
f 284/3/4 285/3/4 291/3/4
f 283/3/4 284/3/4 291/3/4
f 285/3/4 286/3/4 291/3/4
f 288/3/4 274/3/4 292/3/4
f 291/3/4 288/3/4 292/3/4
f 295/2/4 296/2/4 301/2/4
f 301/2/4 296/2/4 302/2/4
f 297/2/4 298/2/4 303/2/4
f 303/2/4 298/2/4 304/2/4
f 299/2/4 300/2/4 305/2/4
f 305/2/4 300/2/4 306/2/4
f 293/6/4 294/6/4 307/6/4
f 307/6/4 294/6/4 308/6/4
f 309/6/4 310/6/4 311/6/4
f 311/6/4 310/6/4 312/6/4
f 315/6/5 314/6/5 313/6/5
f 316/6/5 314/6/5 315/6/5
f 319/6/5 318/6/5 317/6/5
f 320/6/5 318/6/5 319/6/5
f 321/6/5 319/6/5 317/6/5
f 322/6/5 318/6/5 320/6/5
f 323/6/5 321/6/5 317/6/5
f 323/6/5 322/6/5 321/6/5
f 324/6/5 318/6/5 322/6/5
f 324/6/5 322/6/5 323/6/5
f 327/2/5 326/2/5 325/2/5
f 328/2/5 326/2/5 327/2/5
f 333/2/5 330/2/5 329/2/5
f 334/2/5 330/2/5 333/2/5
f 335/2/5 332/2/5 331/2/5
f 336/2/5 332/2/5 335/2/5
f 339/2/5 338/2/5 337/2/5
f 340/2/5 338/2/5 339/2/5
f 343/2/5 342/2/5 341/2/5
f 344/2/5 342/2/5 343/2/5
f 349/2/5 346/2/5 345/2/5
f 350/2/5 346/2/5 349/2/5
f 351/2/5 348/2/5 347/2/5
f 352/2/5 348/2/5 351/2/5
f 355/2/5 354/2/5 353/2/5
f 356/2/5 354/2/5 355/2/5
f 359/2/5 358/2/5 357/2/5
f 360/2/5 358/2/5 359/2/5
f 365/2/5 362/2/5 361/2/5
f 366/2/5 362/2/5 365/2/5
f 367/2/5 364/2/5 363/2/5
f 368/2/5 364/2/5 367/2/5
f 371/2/5 370/2/5 369/2/5
f 372/2/5 370/2/5 371/2/5
f 376/5/5 374/5/5 373/5/5
f 377/5/5 374/5/5 376/5/5
f 379/5/5 376/5/5 375/5/5
f 380/5/5 376/5/5 379/5/5
f 381/5/5 378/5/5 377/5/5
f 382/5/5 378/5/5 381/5/5
f 383/5/5 381/5/5 380/5/5
f 384/5/5 381/5/5 383/5/5
f 385/1/6 386/1/6 387/1/6
f 387/1/6 386/1/6 388/1/6
f 385/1/6 387/1/6 389/1/6
f 388/1/6 386/1/6 390/1/6
f 385/1/6 389/1/6 391/1/6
f 389/1/6 390/1/6 391/1/6
f 390/1/6 386/1/6 392/1/6
f 391/1/6 390/1/6 392/1/6
f 393/6/6 394/6/6 395/6/6
f 395/6/6 394/6/6 396/6/6
f 393/6/6 395/6/6 397/6/6
f 396/6/6 394/6/6 398/6/6
f 393/6/6 397/6/6 399/6/6
f 397/6/6 398/6/6 399/6/6
f 398/6/6 394/6/6 400/6/6
f 399/6/6 398/6/6 400/6/6
f 401/2/6 402/2/6 403/2/6
f 403/2/6 402/2/6 404/2/6
f 405/2/6 406/2/6 409/2/6
f 409/2/6 406/2/6 410/2/6
f 407/2/6 408/2/6 411/2/6
f 411/2/6 408/2/6 412/2/6
f 413/2/6 414/2/6 415/2/6
f 415/2/6 414/2/6 416/2/6
f 417/2/6 418/2/6 419/2/6
f 419/2/6 418/2/6 420/2/6
f 421/2/6 422/2/6 425/2/6
f 425/2/6 422/2/6 426/2/6
f 423/2/6 424/2/6 427/2/6
f 427/2/6 424/2/6 428/2/6
f 429/2/6 430/2/6 431/2/6
f 431/2/6 430/2/6 432/2/6
f 433/2/6 434/2/6 435/2/6
f 435/2/6 434/2/6 436/2/6
f 437/2/6 438/2/6 441/2/6
f 441/2/6 438/2/6 442/2/6
f 439/2/6 440/2/6 443/2/6
f 443/2/6 440/2/6 444/2/6
f 445/2/6 446/2/6 447/2/6
f 447/2/6 446/2/6 448/2/6
f 449/3/6 450/3/6 451/3/6
f 451/3/6 450/3/6 452/3/6
f 449/3/6 451/3/6 453/3/6
f 452/3/6 450/3/6 454/3/6
f 449/3/6 453/3/6 455/3/6
f 453/3/6 454/3/6 455/3/6
f 454/3/6 450/3/6 456/3/6
f 455/3/6 454/3/6 456/3/6
f 457/5/6 458/5/6 460/5/6
f 460/5/6 458/5/6 461/5/6
f 459/5/6 460/5/6 463/5/6
f 460/4/6 461/4/6 464/4/6
f 463/5/6 460/5/6 464/5/6
f 461/5/6 462/5/6 465/5/6
f 464/4/6 461/4/6 465/4/6
f 465/5/6 462/5/6 466/5/6
f 464/5/6 465/5/6 467/5/6
f 467/5/6 465/5/6 468/5/6
