# MagicaVoxel @ Ephtracy

# group
o 

# material
mtllib Voxel Universe Objects-57.mtl
usemtl palette

# normals
vn 0 0 -1
vn 0 0 1
vn -1 0 0
vn 1 0 0
vn 0 -1 0
vn 0 1 0

# texcoords
vt 0.966797 0.5
vt 0.990234 0.5
vt 0.994141 0.5

# verts
v -15.1 0.3 -22.3
v -12.4 0.3 -22.3
v -15.1 3.2 -22.3
v -12.4 3.2 -22.3
v -14.9 0 -22.1
v -14.6 0 -22.1
v -12.9 0 -22.1
v -12.6 0 -22.1
v -14.9 0.3 -22.1
v -14.6 0.3 -22.1
v -12.9 0.3 -22.1
v -12.6 0.3 -22.1
v -14.9 0 -20
v -14.6 0 -20
v -12.9 0 -20
v -12.6 0 -20
v -14.9 0.3 -20
v -14.6 0.3 -20
v -12.9 0.3 -20
v -12.6 0.3 -20
v -13.1 1.4 -19.4
v -12.9 1.4 -19.4
v -13.1 1.9 -19.4
v -12.9 1.9 -19.4
v -14.9 0 -21.8
v -14.6 0 -21.8
v -12.9 0 -21.8
v -12.6 0 -21.8
v -14.9 0.3 -21.8
v -14.6 0.3 -21.8
v -12.9 0.3 -21.8
v -12.6 0.3 -21.8
v -14.9 0 -19.7
v -14.6 0 -19.7
v -12.9 0 -19.7
v -12.6 0 -19.7
v -14.9 0.3 -19.7
v -14.6 0.3 -19.7
v -12.9 0.3 -19.7
v -12.6 0.3 -19.7
v -15.1 0.3 -19.5
v -12.4 0.3 -19.5
v -14.9 0.5 -19.5
v -12.6 0.5 -19.5
v -14.8 0.6 -19.5
v -12.7 0.6 -19.5
v -14.1 1.3 -19.5
v -13.4 1.3 -19.5
v -13.1 1.3 -19.5
v -12.9 1.3 -19.5
v -13.1 1.4 -19.5
v -12.9 1.4 -19.5
v -13.1 1.9 -19.5
v -12.9 1.9 -19.5
v -14.1 2 -19.5
v -13.4 2 -19.5
v -13.1 2 -19.5
v -12.9 2 -19.5
v -14.8 2.9 -19.5
v -12.7 2.9 -19.5
v -14.9 3 -19.5
v -12.6 3 -19.5
v -15.1 3.2 -19.5
v -12.4 3.2 -19.5
v -14.1 1.3 -19.4
v -13.4 1.3 -19.4
v -13.9 1.5 -19.4
v -13.6 1.5 -19.4
v -13.9 1.8 -19.4
v -13.6 1.8 -19.4
v -14.1 2 -19.4
v -13.4 2 -19.4
v -13.1 1.3 -19.3
v -12.9 1.3 -19.3
v -13.9 1.5 -19.3
v -13.6 1.5 -19.3
v -13.9 1.8 -19.3
v -13.6 1.8 -19.3
v -13.1 2 -19.3
v -12.9 2 -19.3
v -15.1 0.3 -22.3
v -15.1 3.2 -22.3
v -15.1 0.3 -19.5
v -15.1 3.2 -19.5
v -14.9 0 -22.1
v -14.9 0.3 -22.1
v -14.9 0 -21.8
v -14.9 0.3 -21.8
v -14.9 0 -20
v -14.9 0.3 -20
v -14.9 0 -19.7
v -14.9 0.3 -19.7
v -14.1 1.3 -19.5
v -14.1 2 -19.5
v -14.1 1.3 -19.4
v -14.1 2 -19.4
v -13.9 1.5 -19.4
v -13.9 1.8 -19.4
v -13.9 1.5 -19.3
v -13.9 1.8 -19.3
v -13.1 1.3 -19.5
v -13.1 1.4 -19.5
v -13.1 1.9 -19.5
v -13.1 2 -19.5
v -13.1 1.4 -19.4
v -13.1 1.9 -19.4
v -13.1 1.3 -19.3
v -13.1 2 -19.3
v -12.9 0 -22.1
v -12.9 0.3 -22.1
v -12.9 0 -21.8
v -12.9 0.3 -21.8
v -12.9 0 -20
v -12.9 0.3 -20
v -12.9 0 -19.7
v -12.9 0.3 -19.7
v -14.6 0 -22.1
v -14.6 0.3 -22.1
v -14.6 0 -21.8
v -14.6 0.3 -21.8
v -14.6 0 -20
v -14.6 0.3 -20
v -14.6 0 -19.7
v -14.6 0.3 -19.7
v -13.6 1.5 -19.4
v -13.6 1.8 -19.4
v -13.6 1.5 -19.3
v -13.6 1.8 -19.3
v -13.4 1.3 -19.5
v -13.4 2 -19.5
v -13.4 1.3 -19.4
v -13.4 2 -19.4
v -12.9 1.3 -19.5
v -12.9 1.4 -19.5
v -12.9 1.9 -19.5
v -12.9 2 -19.5
v -12.9 1.4 -19.4
v -12.9 1.9 -19.4
v -12.9 1.3 -19.3
v -12.9 2 -19.3
v -12.6 0 -22.1
v -12.6 0.3 -22.1
v -12.6 0 -21.8
v -12.6 0.3 -21.8
v -12.6 0 -20
v -12.6 0.3 -20
v -12.6 0 -19.7
v -12.6 0.3 -19.7
v -12.4 0.3 -22.3
v -12.4 3.2 -22.3
v -12.4 0.3 -19.5
v -12.4 3.2 -19.5
v -14.9 0 -22.1
v -14.9 0 -21.8
v -14.9 0 -20
v -14.9 0 -19.7
v -14.6 0 -22.1
v -14.6 0 -21.8
v -14.6 0 -20
v -14.6 0 -19.7
v -12.9 0 -22.1
v -12.9 0 -21.8
v -12.9 0 -20
v -12.9 0 -19.7
v -12.6 0 -22.1
v -12.6 0 -21.8
v -12.6 0 -20
v -12.6 0 -19.7
v -15.1 0.3 -22.3
v -15.1 0.3 -19.5
v -14.9 0.3 -22.1
v -14.9 0.3 -21.8
v -14.9 0.3 -20
v -14.9 0.3 -19.7
v -14.6 0.3 -22.1
v -14.6 0.3 -21.8
v -14.6 0.3 -20
v -14.6 0.3 -19.7
v -12.9 0.3 -22.1
v -12.9 0.3 -21.8
v -12.9 0.3 -20
v -12.9 0.3 -19.7
v -12.6 0.3 -22.1
v -12.6 0.3 -21.8
v -12.6 0.3 -20
v -12.6 0.3 -19.7
v -12.4 0.3 -22.3
v -12.4 0.3 -19.5
v -14.1 1.3 -19.5
v -14.1 1.3 -19.4
v -13.4 1.3 -19.5
v -13.4 1.3 -19.4
v -13.1 1.3 -19.5
v -13.1 1.3 -19.3
v -12.9 1.3 -19.5
v -12.9 1.3 -19.3
v -13.9 1.5 -19.4
v -13.9 1.5 -19.3
v -13.6 1.5 -19.4
v -13.6 1.5 -19.3
v -13.1 1.9 -19.5
v -13.1 1.9 -19.4
v -12.9 1.9 -19.5
v -12.9 1.9 -19.4
v -13.1 1.4 -19.5
v -13.1 1.4 -19.4
v -12.9 1.4 -19.5
v -12.9 1.4 -19.4
v -13.9 1.8 -19.4
v -13.9 1.8 -19.3
v -13.6 1.8 -19.4
v -13.6 1.8 -19.3
v -14.1 2 -19.5
v -14.1 2 -19.4
v -13.4 2 -19.5
v -13.4 2 -19.4
v -13.1 2 -19.5
v -13.1 2 -19.3
v -12.9 2 -19.5
v -12.9 2 -19.3
v -15.1 3.2 -22.3
v -15.1 3.2 -19.5
v -12.4 3.2 -22.3
v -12.4 3.2 -19.5

# faces
f 3/2/1 2/2/1 1/2/1
f 4/2/1 2/2/1 3/2/1
f 9/3/1 6/3/1 5/3/1
f 10/3/1 6/3/1 9/3/1
f 11/3/1 8/3/1 7/3/1
f 12/3/1 8/3/1 11/3/1
f 17/3/1 14/3/1 13/3/1
f 18/3/1 14/3/1 17/3/1
f 19/3/1 16/3/1 15/3/1
f 20/3/1 16/3/1 19/3/1
f 23/1/1 22/1/1 21/1/1
f 24/1/1 22/1/1 23/1/1
f 25/3/2 26/3/2 29/3/2
f 29/3/2 26/3/2 30/3/2
f 27/3/2 28/3/2 31/3/2
f 31/3/2 28/3/2 32/3/2
f 33/3/2 34/3/2 37/3/2
f 37/3/2 34/3/2 38/3/2
f 35/3/2 36/3/2 39/3/2
f 39/3/2 36/3/2 40/3/2
f 41/2/2 42/2/2 43/2/2
f 43/2/2 42/2/2 44/2/2
f 43/3/2 44/3/2 45/3/2
f 45/3/2 44/3/2 46/3/2
f 45/2/2 46/2/2 47/2/2
f 47/2/2 46/2/2 48/2/2
f 48/2/2 46/2/2 49/2/2
f 49/2/2 46/2/2 50/2/2
f 48/2/2 49/2/2 51/2/2
f 50/2/2 46/2/2 52/2/2
f 48/2/2 51/2/2 53/2/2
f 51/2/2 52/2/2 53/2/2
f 52/2/2 46/2/2 54/2/2
f 53/2/2 52/2/2 54/2/2
f 45/2/2 47/2/2 55/2/2
f 48/2/2 53/2/2 56/2/2
f 56/2/2 53/2/2 57/2/2
f 54/2/2 46/2/2 58/2/2
f 43/3/2 45/3/2 59/3/2
f 57/2/2 58/2/2 59/2/2
f 56/2/2 57/2/2 59/2/2
f 45/2/2 55/2/2 59/2/2
f 55/2/2 56/2/2 59/2/2
f 58/2/2 46/2/2 60/2/2
f 59/2/2 58/2/2 60/2/2
f 46/3/2 44/3/2 60/3/2
f 41/2/2 43/2/2 61/2/2
f 43/3/2 59/3/2 61/3/2
f 59/3/2 60/3/2 61/3/2
f 60/3/2 44/3/2 62/3/2
f 61/3/2 60/3/2 62/3/2
f 44/2/2 42/2/2 62/2/2
f 41/2/2 61/2/2 63/2/2
f 61/2/2 62/2/2 63/2/2
f 62/2/2 42/2/2 64/2/2
f 63/2/2 62/2/2 64/2/2
f 65/1/2 66/1/2 67/1/2
f 67/1/2 66/1/2 68/1/2
f 65/1/2 67/1/2 69/1/2
f 68/1/2 66/1/2 70/1/2
f 65/1/2 69/1/2 71/1/2
f 69/1/2 70/1/2 71/1/2
f 70/1/2 66/1/2 72/1/2
f 71/1/2 70/1/2 72/1/2
f 75/3/2 76/3/2 77/3/2
f 77/3/2 76/3/2 78/3/2
f 73/1/2 74/1/2 79/1/2
f 79/1/2 74/1/2 80/1/2
f 83/2/3 82/2/3 81/2/3
f 84/2/3 82/2/3 83/2/3
f 87/3/3 86/3/3 85/3/3
f 88/3/3 86/3/3 87/3/3
f 91/3/3 90/3/3 89/3/3
f 92/3/3 90/3/3 91/3/3
f 95/1/3 94/1/3 93/1/3
f 96/1/3 94/1/3 95/1/3
f 99/3/3 98/3/3 97/3/3
f 100/3/3 98/3/3 99/3/3
f 105/1/3 102/1/3 101/1/3
f 106/1/3 104/1/3 103/1/3
f 107/1/3 105/1/3 101/1/3
f 107/1/3 106/1/3 105/1/3
f 108/1/3 104/1/3 106/1/3
f 108/1/3 106/1/3 107/1/3
f 111/3/3 110/3/3 109/3/3
f 112/3/3 110/3/3 111/3/3
f 115/3/3 114/3/3 113/3/3
f 116/3/3 114/3/3 115/3/3
f 117/3/4 118/3/4 119/3/4
f 119/3/4 118/3/4 120/3/4
f 121/3/4 122/3/4 123/3/4
f 123/3/4 122/3/4 124/3/4
f 125/3/4 126/3/4 127/3/4
f 127/3/4 126/3/4 128/3/4
f 129/1/4 130/1/4 131/1/4
f 131/1/4 130/1/4 132/1/4
f 133/1/4 134/1/4 137/1/4
f 135/1/4 136/1/4 138/1/4
f 133/1/4 137/1/4 139/1/4
f 137/1/4 138/1/4 139/1/4
f 138/1/4 136/1/4 140/1/4
f 139/1/4 138/1/4 140/1/4
f 141/3/4 142/3/4 143/3/4
f 143/3/4 142/3/4 144/3/4
f 145/3/4 146/3/4 147/3/4
f 147/3/4 146/3/4 148/3/4
f 149/2/4 150/2/4 151/2/4
f 151/2/4 150/2/4 152/2/4
f 157/3/5 154/3/5 153/3/5
f 158/3/5 154/3/5 157/3/5
f 159/3/5 156/3/5 155/3/5
f 160/3/5 156/3/5 159/3/5
f 165/3/5 162/3/5 161/3/5
f 166/3/5 162/3/5 165/3/5
f 167/3/5 164/3/5 163/3/5
f 168/3/5 164/3/5 167/3/5
f 171/2/5 170/2/5 169/2/5
f 172/2/5 170/2/5 171/2/5
f 173/2/5 170/2/5 172/2/5
f 174/2/5 170/2/5 173/2/5
f 175/2/5 171/2/5 169/2/5
f 176/2/5 173/2/5 172/2/5
f 177/2/5 173/2/5 176/2/5
f 178/2/5 170/2/5 174/2/5
f 179/2/5 177/2/5 176/2/5
f 179/2/5 178/2/5 177/2/5
f 179/2/5 175/2/5 169/2/5
f 179/2/5 176/2/5 175/2/5
f 180/2/5 178/2/5 179/2/5
f 181/2/5 178/2/5 180/2/5
f 182/2/5 170/2/5 178/2/5
f 182/2/5 178/2/5 181/2/5
f 183/2/5 179/2/5 169/2/5
f 184/2/5 181/2/5 180/2/5
f 185/2/5 181/2/5 184/2/5
f 186/2/5 170/2/5 182/2/5
f 187/2/5 183/2/5 169/2/5
f 187/2/5 186/2/5 185/2/5
f 187/2/5 185/2/5 184/2/5
f 187/2/5 184/2/5 183/2/5
f 188/2/5 170/2/5 186/2/5
f 188/2/5 186/2/5 187/2/5
f 191/1/5 190/1/5 189/1/5
f 192/1/5 190/1/5 191/1/5
f 195/1/5 194/1/5 193/1/5
f 196/1/5 194/1/5 195/1/5
f 199/3/5 198/3/5 197/3/5
f 200/3/5 198/3/5 199/3/5
f 203/1/5 202/1/5 201/1/5
f 204/1/5 202/1/5 203/1/5
f 205/1/6 206/1/6 207/1/6
f 207/1/6 206/1/6 208/1/6
f 209/3/6 210/3/6 211/3/6
f 211/3/6 210/3/6 212/3/6
f 213/1/6 214/1/6 215/1/6
f 215/1/6 214/1/6 216/1/6
f 217/1/6 218/1/6 219/1/6
f 219/1/6 218/1/6 220/1/6
f 221/2/6 222/2/6 223/2/6
f 223/2/6 222/2/6 224/2/6
