# MagicaVoxel @ Ephtracy

# group
o 

# material
mtllib Voxel Universe Objects-39.mtl
usemtl palette

# normals
vn -1 0 0
vn 1 0 0
vn 0 0 1
vn 0 0 -1
vn 0 -1 0
vn 0 1 0

# texcoords
vt 0.751953 0.5
vt 0.931641 0.5
vt 0.955078 0.5
vt 0.958984 0.5

# verts
v -5.8 0.1 -2
v -5.8 0.1 -2.4
v -5.8 0.6 -2
v -5.8 0.6 -2.4
v -5.7 0 -2
v -5.7 0 -2.4
v -5.7 0.1 -1.9
v -5.7 0.1 -2
v -5.7 0.1 -2.4
v -5.7 0.1 -2.5
v -5.7 0.2 -1.9
v -5.7 0.2 -2
v -5.7 0.5 -1.9
v -5.7 0.5 -2
v -5.7 0.6 -1.9
v -5.7 0.6 -2
v -5.7 0.6 -2.4
v -5.7 0.6 -2.5
v -5.7 0.7 -2
v -5.7 0.7 -2.4
v -5.2 0 -2
v -5.2 0 -2.4
v -5.2 0.1 -1.9
v -5.2 0.1 -2
v -5.2 0.1 -2.4
v -5.2 0.1 -2.5
v -5.2 0.2 -1.9
v -5.2 0.2 -2
v -5.2 0.5 -1.9
v -5.2 0.5 -2
v -5.2 0.6 -1.9
v -5.2 0.6 -2
v -5.2 0.6 -2.4
v -5.2 0.6 -2.5
v -5.2 0.7 -2
v -5.2 0.7 -2.4
v -5.1 0.1 -2
v -5.1 0.1 -2.4
v -5.1 0.6 -2
v -5.1 0.6 -2.4
v -5.7 0.1 -1.9
v -5.7 0.2 -1.9
v -5.7 0.5 -1.9
v -5.7 0.6 -1.9
v -5.6 0.1 -1.9
v -5.6 0.2 -1.9
v -5.6 0.3 -1.9
v -5.6 0.4 -1.9
v -5.6 0.5 -1.9
v -5.6 0.6 -1.9
v -5.5 0.2 -1.9
v -5.5 0.3 -1.9
v -5.5 0.4 -1.9
v -5.5 0.5 -1.9
v -5.4 0.2 -1.9
v -5.4 0.3 -1.9
v -5.4 0.4 -1.9
v -5.4 0.5 -1.9
v -5.3 0.1 -1.9
v -5.3 0.2 -1.9
v -5.3 0.3 -1.9
v -5.3 0.4 -1.9
v -5.3 0.5 -1.9
v -5.3 0.6 -1.9
v -5.2 0.1 -1.9
v -5.2 0.2 -1.9
v -5.2 0.5 -1.9
v -5.2 0.6 -1.9
v -5.8 0.1 -2
v -5.8 0.6 -2
v -5.7 0 -2
v -5.7 0.1 -2
v -5.7 0.2 -2
v -5.7 0.5 -2
v -5.7 0.6 -2
v -5.7 0.7 -2
v -5.6 0.1 -2
v -5.6 0.6 -2
v -5.3 0.1 -2
v -5.3 0.6 -2
v -5.2 0 -2
v -5.2 0.1 -2
v -5.2 0.2 -2
v -5.2 0.5 -2
v -5.2 0.6 -2
v -5.2 0.7 -2
v -5.1 0.1 -2
v -5.1 0.6 -2
v -5.8 0.1 -2.4
v -5.8 0.6 -2.4
v -5.7 0 -2.4
v -5.7 0.1 -2.4
v -5.7 0.6 -2.4
v -5.7 0.7 -2.4
v -5.2 0 -2.4
v -5.2 0.1 -2.4
v -5.2 0.6 -2.4
v -5.2 0.7 -2.4
v -5.1 0.1 -2.4
v -5.1 0.6 -2.4
v -5.7 0.1 -2.5
v -5.7 0.6 -2.5
v -5.2 0.1 -2.5
v -5.2 0.6 -2.5
v -5.7 0 -2
v -5.2 0 -2
v -5.7 0 -2.4
v -5.2 0 -2.4
v -5.7 0.1 -1.9
v -5.6 0.1 -1.9
v -5.3 0.1 -1.9
v -5.2 0.1 -1.9
v -5.8 0.1 -2
v -5.7 0.1 -2
v -5.6 0.1 -2
v -5.3 0.1 -2
v -5.2 0.1 -2
v -5.1 0.1 -2
v -5.8 0.1 -2.4
v -5.7 0.1 -2.4
v -5.2 0.1 -2.4
v -5.1 0.1 -2.4
v -5.7 0.1 -2.5
v -5.2 0.1 -2.5
v -5.7 0.6 -1.9
v -5.6 0.6 -1.9
v -5.3 0.6 -1.9
v -5.2 0.6 -1.9
v -5.8 0.6 -2
v -5.7 0.6 -2
v -5.6 0.6 -2
v -5.3 0.6 -2
v -5.2 0.6 -2
v -5.1 0.6 -2
v -5.8 0.6 -2.4
v -5.7 0.6 -2.4
v -5.2 0.6 -2.4
v -5.1 0.6 -2.4
v -5.7 0.6 -2.5
v -5.2 0.6 -2.5
v -5.7 0.7 -2
v -5.2 0.7 -2
v -5.7 0.7 -2.4
v -5.2 0.7 -2.4

# faces
f 3/4/1 2/4/1 1/4/1
f 4/4/1 2/4/1 3/4/1
f 8/4/1 6/4/1 5/4/1
f 9/4/1 6/4/1 8/4/1
f 11/4/1 8/4/1 7/4/1
f 12/4/1 8/4/1 11/4/1
f 13/1/1 12/1/1 11/1/1
f 14/1/1 12/1/1 13/1/1
f 15/4/1 14/4/1 13/4/1
f 16/4/1 14/4/1 15/4/1
f 17/4/1 10/4/1 9/4/1
f 18/4/1 10/4/1 17/4/1
f 19/4/1 17/4/1 16/4/1
f 20/4/1 17/4/1 19/4/1
f 21/4/2 22/4/2 24/4/2
f 24/4/2 22/4/2 25/4/2
f 23/4/2 24/4/2 27/4/2
f 27/4/2 24/4/2 28/4/2
f 27/1/2 28/1/2 29/1/2
f 29/1/2 28/1/2 30/1/2
f 29/4/2 30/4/2 31/4/2
f 31/4/2 30/4/2 32/4/2
f 25/4/2 26/4/2 33/4/2
f 33/4/2 26/4/2 34/4/2
f 32/4/2 33/4/2 35/4/2
f 35/4/2 33/4/2 36/4/2
f 37/4/2 38/4/2 39/4/2
f 39/4/2 38/4/2 40/4/2
f 45/4/3 42/4/3 41/4/3
f 46/1/3 43/1/3 42/1/3
f 46/4/3 42/4/3 45/4/3
f 47/1/3 43/1/3 46/1/3
f 48/1/3 43/1/3 47/1/3
f 49/4/3 44/4/3 43/4/3
f 49/1/3 43/1/3 48/1/3
f 50/4/3 44/4/3 49/4/3
f 51/1/3 46/1/3 45/1/3
f 51/1/3 47/1/3 46/1/3
f 52/2/3 48/2/3 47/2/3
f 52/1/3 47/1/3 51/1/3
f 53/1/3 50/1/3 49/1/3
f 53/2/3 48/2/3 52/2/3
f 53/1/3 49/1/3 48/1/3
f 54/1/3 50/1/3 53/1/3
f 55/1/3 51/1/3 45/1/3
f 55/2/3 52/2/3 51/2/3
f 56/3/3 53/3/3 52/3/3
f 56/2/3 52/2/3 55/2/3
f 57/2/3 54/2/3 53/2/3
f 57/3/3 53/3/3 56/3/3
f 58/1/3 50/1/3 54/1/3
f 58/2/3 54/2/3 57/2/3
f 59/1/3 56/1/3 55/1/3
f 59/1/3 55/1/3 45/1/3
f 60/1/3 56/1/3 59/1/3
f 61/2/3 57/2/3 56/2/3
f 61/1/3 56/1/3 60/1/3
f 62/1/3 58/1/3 57/1/3
f 62/2/3 57/2/3 61/2/3
f 63/1/3 50/1/3 58/1/3
f 63/1/3 58/1/3 62/1/3
f 64/1/3 50/1/3 63/1/3
f 65/4/3 60/4/3 59/4/3
f 66/1/3 62/1/3 61/1/3
f 66/4/3 60/4/3 65/4/3
f 66/1/3 61/1/3 60/1/3
f 66/1/3 63/1/3 62/1/3
f 67/4/3 64/4/3 63/4/3
f 67/1/3 63/1/3 66/1/3
f 68/4/3 64/4/3 67/4/3
f 72/4/3 70/4/3 69/4/3
f 73/4/3 70/4/3 72/4/3
f 74/4/3 70/4/3 73/4/3
f 75/4/3 70/4/3 74/4/3
f 77/4/3 72/4/3 71/4/3
f 78/4/3 76/4/3 75/4/3
f 79/4/3 77/4/3 71/4/3
f 80/4/3 76/4/3 78/4/3
f 81/4/3 79/4/3 71/4/3
f 82/4/3 79/4/3 81/4/3
f 85/4/3 76/4/3 80/4/3
f 86/4/3 76/4/3 85/4/3
f 87/4/3 84/4/3 83/4/3
f 87/4/3 85/4/3 84/4/3
f 87/4/3 83/4/3 82/4/3
f 88/4/3 85/4/3 87/4/3
f 89/4/4 90/4/4 92/4/4
f 92/4/4 90/4/4 93/4/4
f 91/4/4 92/4/4 95/4/4
f 95/4/4 92/4/4 96/4/4
f 93/4/4 94/4/4 97/4/4
f 97/4/4 94/4/4 98/4/4
f 96/4/4 97/4/4 99/4/4
f 99/4/4 97/4/4 100/4/4
f 101/4/4 102/4/4 103/4/4
f 103/4/4 102/4/4 104/4/4
f 107/4/5 106/4/5 105/4/5
f 108/4/5 106/4/5 107/4/5
f 114/4/5 110/4/5 109/4/5
f 115/1/5 111/1/5 110/1/5
f 115/4/5 110/4/5 114/4/5
f 116/4/5 112/4/5 111/4/5
f 116/1/5 111/1/5 115/1/5
f 117/4/5 112/4/5 116/4/5
f 119/4/5 114/4/5 113/4/5
f 120/4/5 114/4/5 119/4/5
f 121/4/5 118/4/5 117/4/5
f 122/4/5 118/4/5 121/4/5
f 123/4/5 121/4/5 120/4/5
f 124/4/5 121/4/5 123/4/5
f 125/4/6 126/4/6 130/4/6
f 126/1/6 127/1/6 131/1/6
f 130/4/6 126/4/6 131/4/6
f 127/4/6 128/4/6 132/4/6
f 131/1/6 127/1/6 132/1/6
f 132/4/6 128/4/6 133/4/6
f 129/4/6 130/4/6 135/4/6
f 135/4/6 130/4/6 136/4/6
f 133/4/6 134/4/6 137/4/6
f 137/4/6 134/4/6 138/4/6
f 136/4/6 137/4/6 139/4/6
f 139/4/6 137/4/6 140/4/6
f 141/4/6 142/4/6 143/4/6
f 143/4/6 142/4/6 144/4/6
