# MagicaVoxel @ Ephtracy

# group
o 

# material
mtllib Voxel Universe Objects-62.mtl
usemtl palette

# normals
vn 0 0 1
vn 0 0 -1
vn 1 0 0
vn -1 0 0
vn 0 -1 0
vn 0 1 0

# texcoords
vt 0.572266 0.5
vt 0.626953 0.5
vt 0.751953 0.5
vt 0.841797 0.5
vt 0.958984 0.5
vt 0.966797 0.5
vt 0.990234 0.5

# verts
v -16 0 -16.5
v -18.7 0 -16.5
v -16.1 0.4 -16.5
v -18.6 0.4 -16.5
v -16.2 0.5 -16.5
v -16.4 0.5 -16.5
v -16.5 0.5 -16.5
v -16.7 0.5 -16.5
v -16.9 0.5 -16.5
v -17.1 0.5 -16.5
v -17.2 0.5 -16.5
v -17.4 0.5 -16.5
v -17.8 0.6 -16.5
v -17.9 0.6 -16.5
v -18 0.6 -16.5
v -18.1 0.6 -16.5
v -18.2 0.6 -16.5
v -18.3 0.6 -16.5
v -18.4 0.6 -16.5
v -18.5 0.6 -16.5
v -16.2 0.7 -16.5
v -16.4 0.7 -16.5
v -16.5 0.7 -16.5
v -16.7 0.7 -16.5
v -16.9 0.7 -16.5
v -17.1 0.7 -16.5
v -17.2 0.7 -16.5
v -17.4 0.7 -16.5
v -17.8 0.7 -16.5
v -17.9 0.7 -16.5
v -18 0.7 -16.5
v -18.1 0.7 -16.5
v -18.2 0.7 -16.5
v -18.3 0.7 -16.5
v -18.4 0.7 -16.5
v -18.5 0.7 -16.5
v -16.1 1.2 -16.5
v -18.6 1.2 -16.5
v -16 1.3 -16.5
v -18.7 1.3 -16.5
v -16.2 2.1 -16.5
v -16.4 2.1 -16.5
v -16.2 3.2 -16.5
v -16.4 3.2 -16.5
v -16.1 0.4 -16.6
v -18.6 0.4 -16.6
v -16.2 0.5 -16.6
v -16.4 0.5 -16.6
v -16.5 0.5 -16.6
v -16.7 0.5 -16.6
v -16.9 0.5 -16.6
v -17.1 0.5 -16.6
v -17.2 0.5 -16.6
v -17.4 0.5 -16.6
v -17.8 0.6 -16.6
v -17.9 0.6 -16.6
v -18 0.6 -16.6
v -18.1 0.6 -16.6
v -18.2 0.6 -16.6
v -18.3 0.6 -16.6
v -18.4 0.6 -16.6
v -18.5 0.6 -16.6
v -16.2 0.7 -16.6
v -16.4 0.7 -16.6
v -16.5 0.7 -16.6
v -16.7 0.7 -16.6
v -16.9 0.7 -16.6
v -17.1 0.7 -16.6
v -17.2 0.7 -16.6
v -17.4 0.7 -16.6
v -17.8 0.7 -16.6
v -17.9 0.7 -16.6
v -18 0.7 -16.6
v -18.1 0.7 -16.6
v -18.2 0.7 -16.6
v -18.3 0.7 -16.6
v -18.4 0.7 -16.6
v -18.5 0.7 -16.6
v -16.2 0.8 -16.6
v -16.7 0.8 -16.6
v -16.9 0.8 -16.6
v -17.4 0.8 -16.6
v -17.8 0.8 -16.6
v -18.5 0.8 -16.6
v -16.2 0.9 -16.6
v -16.3 0.9 -16.6
v -16.6 0.9 -16.6
v -16.7 0.9 -16.6
v -16.9 0.9 -16.6
v -17 0.9 -16.6
v -17.3 0.9 -16.6
v -17.4 0.9 -16.6
v -17.9 0.9 -16.6
v -18 0.9 -16.6
v -18.1 0.9 -16.6
v -18.2 0.9 -16.6
v -18.3 0.9 -16.6
v -18.4 0.9 -16.6
v -16.2 1 -16.6
v -16.3 1 -16.6
v -16.4 1 -16.6
v -16.5 1 -16.6
v -16.6 1 -16.6
v -16.7 1 -16.6
v -16.9 1 -16.6
v -17 1 -16.6
v -17.1 1 -16.6
v -17.2 1 -16.6
v -17.3 1 -16.6
v -17.4 1 -16.6
v -17.9 1 -16.6
v -18 1 -16.6
v -18.1 1 -16.6
v -18.2 1 -16.6
v -18.3 1 -16.6
v -18.4 1 -16.6
v -16.2 1.1 -16.6
v -16.4 1.1 -16.6
v -16.5 1.1 -16.6
v -16.7 1.1 -16.6
v -16.9 1.1 -16.6
v -17.1 1.1 -16.6
v -17.2 1.1 -16.6
v -17.4 1.1 -16.6
v -17.8 1.1 -16.6
v -18.5 1.1 -16.6
v -16.1 1.2 -16.6
v -18.6 1.2 -16.6
v -16 1.5 -16.6
v -18.7 1.5 -16.6
v -16.2 2.1 -16.6
v -16.4 2.1 -16.6
v -16.2 3.2 -16.6
v -16.4 3.2 -16.6
v -16 4 -16.6
v -18.7 4 -16.6
v -16.1 1.3 -16.7
v -18.6 1.3 -16.7
v -16.1 1.5 -16.7
v -18.6 1.5 -16.7
v -16 1.3 -17
v -16.1 1.3 -17
v -18.6 1.3 -17
v -18.7 1.3 -17
v -16.1 3.9 -17
v -18.6 3.9 -17
v -16 4 -17
v -18.7 4 -17
v -16 1.5 -16.9
v -16.1 1.5 -16.9
v -18.6 1.5 -16.9
v -18.7 1.5 -16.9
v -16.1 3.9 -16.9
v -18.6 3.9 -16.9
v -16 4 -16.9
v -18.7 4 -16.9
v -16 0 -19.3
v -18.7 0 -19.3
v -16 4 -19.3
v -18.7 4 -19.3
v -16 0 -16.5
v -16 1.3 -16.5
v -16 1.5 -16.6
v -16 4 -16.6
v -16 1.5 -16.9
v -16 4 -16.9
v -16 1.3 -17
v -16 4 -17
v -16 0 -19.3
v -16 4 -19.3
v -16.1 1.3 -16.7
v -16.1 1.5 -16.7
v -16.1 1.5 -16.9
v -16.1 3.9 -16.9
v -16.1 1.3 -17
v -16.1 3.9 -17
v -16.2 0.5 -16.5
v -16.2 0.7 -16.5
v -16.2 2.1 -16.5
v -16.2 3.2 -16.5
v -16.2 0.5 -16.6
v -16.2 0.7 -16.6
v -16.2 2.1 -16.6
v -16.2 3.2 -16.6
v -16.5 0.5 -16.5
v -16.5 0.7 -16.5
v -16.5 0.5 -16.6
v -16.5 0.7 -16.6
v -16.9 0.5 -16.5
v -16.9 0.7 -16.5
v -16.9 0.5 -16.6
v -16.9 0.7 -16.6
v -17.2 0.5 -16.5
v -17.2 0.7 -16.5
v -17.2 0.5 -16.6
v -17.2 0.7 -16.6
v -17.8 0.6 -16.5
v -17.8 0.7 -16.5
v -17.8 0.6 -16.6
v -17.8 0.7 -16.6
v -18 0.6 -16.5
v -18 0.7 -16.5
v -18 0.6 -16.6
v -18 0.7 -16.6
v -18.2 0.6 -16.5
v -18.2 0.7 -16.5
v -18.2 0.6 -16.6
v -18.2 0.7 -16.6
v -18.4 0.6 -16.5
v -18.4 0.7 -16.5
v -18.4 0.6 -16.6
v -18.4 0.7 -16.6
v -18.6 0.4 -16.5
v -18.6 1.2 -16.5
v -18.6 0.4 -16.6
v -18.6 1.2 -16.6
v -16.1 0.4 -16.5
v -16.1 1.2 -16.5
v -16.1 0.4 -16.6
v -16.1 1.2 -16.6
v -16.4 0.5 -16.5
v -16.4 0.7 -16.5
v -16.4 2.1 -16.5
v -16.4 3.2 -16.5
v -16.4 0.5 -16.6
v -16.4 0.7 -16.6
v -16.4 2.1 -16.6
v -16.4 3.2 -16.6
v -16.7 0.5 -16.5
v -16.7 0.7 -16.5
v -16.7 0.5 -16.6
v -16.7 0.7 -16.6
v -17.1 0.5 -16.5
v -17.1 0.7 -16.5
v -17.1 0.5 -16.6
v -17.1 0.7 -16.6
v -17.4 0.5 -16.5
v -17.4 0.7 -16.5
v -17.4 0.5 -16.6
v -17.4 0.7 -16.6
v -17.9 0.6 -16.5
v -17.9 0.7 -16.5
v -17.9 0.6 -16.6
v -17.9 0.7 -16.6
v -18.1 0.6 -16.5
v -18.1 0.7 -16.5
v -18.1 0.6 -16.6
v -18.1 0.7 -16.6
v -18.3 0.6 -16.5
v -18.3 0.7 -16.5
v -18.3 0.6 -16.6
v -18.3 0.7 -16.6
v -18.5 0.6 -16.5
v -18.5 0.7 -16.5
v -18.5 0.6 -16.6
v -18.5 0.7 -16.6
v -18.6 1.3 -16.7
v -18.6 1.5 -16.7
v -18.6 1.5 -16.9
v -18.6 3.9 -16.9
v -18.6 1.3 -17
v -18.6 3.9 -17
v -18.7 0 -16.5
v -18.7 1.3 -16.5
v -18.7 1.5 -16.6
v -18.7 4 -16.6
v -18.7 1.5 -16.9
v -18.7 4 -16.9
v -18.7 1.3 -17
v -18.7 4 -17
v -18.7 0 -19.3
v -18.7 4 -19.3
v -16 0 -16.5
v -16 0 -19.3
v -18.7 0 -16.5
v -18.7 0 -19.3
v -16.2 0.5 -16.5
v -16.2 0.5 -16.6
v -16.4 0.5 -16.5
v -16.4 0.5 -16.6
v -16.5 0.5 -16.5
v -16.5 0.5 -16.6
v -16.7 0.5 -16.5
v -16.7 0.5 -16.6
v -16.9 0.5 -16.5
v -16.9 0.5 -16.6
v -17.1 0.5 -16.5
v -17.1 0.5 -16.6
v -17.2 0.5 -16.5
v -17.2 0.5 -16.6
v -17.4 0.5 -16.5
v -17.4 0.5 -16.6
v -17.8 0.6 -16.5
v -17.8 0.6 -16.6
v -17.9 0.6 -16.5
v -17.9 0.6 -16.6
v -18 0.6 -16.5
v -18 0.6 -16.6
v -18.1 0.6 -16.5
v -18.1 0.6 -16.6
v -18.2 0.6 -16.5
v -18.2 0.6 -16.6
v -18.3 0.6 -16.5
v -18.3 0.6 -16.6
v -18.4 0.6 -16.5
v -18.4 0.6 -16.6
v -18.5 0.6 -16.5
v -18.5 0.6 -16.6
v -16.1 1.2 -16.5
v -16.1 1.2 -16.6
v -18.6 1.2 -16.5
v -18.6 1.2 -16.6
v -16 1.5 -16.6
v -16 1.5 -16.9
v -16.1 1.5 -16.7
v -16.1 1.5 -16.9
v -18.6 1.5 -16.7
v -18.6 1.5 -16.9
v -18.7 1.5 -16.6
v -18.7 1.5 -16.9
v -16.2 2.1 -16.5
v -16.2 2.1 -16.6
v -16.4 2.1 -16.5
v -16.4 2.1 -16.6
v -16.1 0.4 -16.5
v -16.1 0.4 -16.6
v -18.6 0.4 -16.5
v -18.6 0.4 -16.6
v -16.2 0.7 -16.5
v -16.2 0.7 -16.6
v -16.4 0.7 -16.5
v -16.4 0.7 -16.6
v -16.5 0.7 -16.5
v -16.5 0.7 -16.6
v -16.7 0.7 -16.5
v -16.7 0.7 -16.6
v -16.9 0.7 -16.5
v -16.9 0.7 -16.6
v -17.1 0.7 -16.5
v -17.1 0.7 -16.6
v -17.2 0.7 -16.5
v -17.2 0.7 -16.6
v -17.4 0.7 -16.5
v -17.4 0.7 -16.6
v -17.8 0.7 -16.5
v -17.8 0.7 -16.6
v -17.9 0.7 -16.5
v -17.9 0.7 -16.6
v -18 0.7 -16.5
v -18 0.7 -16.6
v -18.1 0.7 -16.5
v -18.1 0.7 -16.6
v -18.2 0.7 -16.5
v -18.2 0.7 -16.6
v -18.3 0.7 -16.5
v -18.3 0.7 -16.6
v -18.4 0.7 -16.5
v -18.4 0.7 -16.6
v -18.5 0.7 -16.5
v -18.5 0.7 -16.6
v -16 1.3 -16.5
v -16 1.3 -17
v -16.1 1.3 -16.7
v -16.1 1.3 -17
v -18.6 1.3 -16.7
v -18.6 1.3 -17
v -18.7 1.3 -16.5
v -18.7 1.3 -17
v -16.2 3.2 -16.5
v -16.2 3.2 -16.6
v -16.4 3.2 -16.5
v -16.4 3.2 -16.6
v -16.1 3.9 -16.9
v -16.1 3.9 -17
v -18.6 3.9 -16.9
v -18.6 3.9 -17
v -16 4 -16.6
v -16 4 -16.9
v -16 4 -17
v -16 4 -19.3
v -18.7 4 -16.6
v -18.7 4 -16.9
v -18.7 4 -17
v -18.7 4 -19.3

# faces
f 3/3/1 2/3/1 1/3/1
f 4/3/1 2/3/1 3/3/1
f 21/4/1 6/4/1 5/4/1
f 22/4/1 6/4/1 21/4/1
f 23/2/1 8/2/1 7/2/1
f 24/2/1 8/2/1 23/2/1
f 25/4/1 10/4/1 9/4/1
f 26/4/1 10/4/1 25/4/1
f 27/2/1 12/2/1 11/2/1
f 28/2/1 12/2/1 27/2/1
f 29/5/1 14/5/1 13/5/1
f 30/5/1 14/5/1 29/5/1
f 31/5/1 16/5/1 15/5/1
f 32/5/1 16/5/1 31/5/1
f 33/5/1 18/5/1 17/5/1
f 34/5/1 18/5/1 33/5/1
f 35/5/1 20/5/1 19/5/1
f 36/5/1 20/5/1 35/5/1
f 37/3/1 3/3/1 1/3/1
f 38/3/1 2/3/1 4/3/1
f 39/3/1 37/3/1 1/3/1
f 39/3/1 38/3/1 37/3/1
f 40/3/1 2/3/1 38/3/1
f 40/3/1 38/3/1 39/3/1
f 43/3/1 42/3/1 41/3/1
f 44/3/1 42/3/1 43/3/1
f 47/7/1 46/7/1 45/7/1
f 48/7/1 46/7/1 47/7/1
f 49/7/1 46/7/1 48/7/1
f 50/7/1 46/7/1 49/7/1
f 51/7/1 46/7/1 50/7/1
f 52/7/1 46/7/1 51/7/1
f 53/7/1 46/7/1 52/7/1
f 54/7/1 46/7/1 53/7/1
f 55/7/1 46/7/1 54/7/1
f 56/7/1 46/7/1 55/7/1
f 57/7/1 46/7/1 56/7/1
f 58/7/1 46/7/1 57/7/1
f 59/7/1 46/7/1 58/7/1
f 60/7/1 46/7/1 59/7/1
f 61/7/1 46/7/1 60/7/1
f 62/7/1 46/7/1 61/7/1
f 63/7/1 47/7/1 45/7/1
f 64/7/1 49/7/1 48/7/1
f 65/7/1 49/7/1 64/7/1
f 66/7/1 51/7/1 50/7/1
f 67/7/1 51/7/1 66/7/1
f 68/7/1 53/7/1 52/7/1
f 69/7/1 53/7/1 68/7/1
f 70/7/1 55/7/1 54/7/1
f 71/7/1 55/7/1 70/7/1
f 72/7/1 57/7/1 56/7/1
f 73/7/1 57/7/1 72/7/1
f 74/7/1 59/7/1 58/7/1
f 75/7/1 59/7/1 74/7/1
f 76/7/1 61/7/1 60/7/1
f 77/7/1 61/7/1 76/7/1
f 78/7/1 46/7/1 62/7/1
f 79/7/1 77/7/1 76/7/1
f 79/7/1 78/7/1 77/7/1
f 79/7/1 67/7/1 66/7/1
f 79/7/1 63/7/1 45/7/1
f 79/7/1 76/7/1 75/7/1
f 79/7/1 65/7/1 64/7/1
f 79/7/1 74/7/1 73/7/1
f 79/7/1 69/7/1 68/7/1
f 79/7/1 72/7/1 71/7/1
f 79/7/1 75/7/1 74/7/1
f 79/7/1 70/7/1 69/7/1
f 79/7/1 71/7/1 70/7/1
f 79/7/1 68/7/1 67/7/1
f 79/7/1 73/7/1 72/7/1
f 79/7/1 66/7/1 65/7/1
f 79/7/1 64/7/1 63/7/1
f 80/7/1 78/7/1 79/7/1
f 81/7/1 78/7/1 80/7/1
f 82/7/1 78/7/1 81/7/1
f 83/7/1 78/7/1 82/7/1
f 84/7/1 46/7/1 78/7/1
f 84/7/1 78/7/1 83/7/1
f 85/7/1 79/7/1 45/7/1
f 85/5/1 80/5/1 79/5/1
f 86/5/1 80/5/1 85/5/1
f 87/5/1 80/5/1 86/5/1
f 88/7/1 81/7/1 80/7/1
f 88/5/1 80/5/1 87/5/1
f 89/5/1 82/5/1 81/5/1
f 89/7/1 81/7/1 88/7/1
f 90/5/1 82/5/1 89/5/1
f 91/5/1 82/5/1 90/5/1
f 92/7/1 83/7/1 82/7/1
f 92/5/1 82/5/1 91/5/1
f 93/4/1 84/4/1 83/4/1
f 94/4/1 84/4/1 93/4/1
f 95/4/1 84/4/1 94/4/1
f 96/4/1 84/4/1 95/4/1
f 97/4/1 84/4/1 96/4/1
f 98/4/1 84/4/1 97/4/1
f 99/7/1 85/7/1 45/7/1
f 99/6/1 86/6/1 85/6/1
f 100/5/1 87/5/1 86/5/1
f 100/6/1 86/6/1 99/6/1
f 101/5/1 87/5/1 100/5/1
f 102/5/1 87/5/1 101/5/1
f 103/6/1 88/6/1 87/6/1
f 103/5/1 87/5/1 102/5/1
f 104/7/1 89/7/1 88/7/1
f 104/6/1 88/6/1 103/6/1
f 105/6/1 90/6/1 89/6/1
f 105/7/1 89/7/1 104/7/1
f 106/5/1 91/5/1 90/5/1
f 106/6/1 90/6/1 105/6/1
f 107/5/1 91/5/1 106/5/1
f 108/5/1 91/5/1 107/5/1
f 109/6/1 92/6/1 91/6/1
f 109/5/1 91/5/1 108/5/1
f 110/7/1 83/7/1 92/7/1
f 110/6/1 92/6/1 109/6/1
f 111/4/1 93/4/1 83/4/1
f 111/1/1 94/1/1 93/1/1
f 112/4/1 95/4/1 94/4/1
f 112/1/1 94/1/1 111/1/1
f 113/1/1 96/1/1 95/1/1
f 113/4/1 95/4/1 112/4/1
f 114/4/1 97/4/1 96/4/1
f 114/1/1 96/1/1 113/1/1
f 115/1/1 98/1/1 97/1/1
f 115/4/1 97/4/1 114/4/1
f 116/4/1 84/4/1 98/4/1
f 116/1/1 98/1/1 115/1/1
f 117/7/1 99/7/1 45/7/1
f 117/5/1 100/5/1 99/5/1
f 117/5/1 101/5/1 100/5/1
f 118/6/1 102/6/1 101/6/1
f 118/5/1 101/5/1 117/5/1
f 119/5/1 103/5/1 102/5/1
f 119/6/1 102/6/1 118/6/1
f 119/5/1 104/5/1 103/5/1
f 120/7/1 105/7/1 104/7/1
f 120/5/1 104/5/1 119/5/1
f 121/5/1 106/5/1 105/5/1
f 121/7/1 105/7/1 120/7/1
f 121/5/1 107/5/1 106/5/1
f 122/6/1 108/6/1 107/6/1
f 122/5/1 107/5/1 121/5/1
f 123/5/1 109/5/1 108/5/1
f 123/6/1 108/6/1 122/6/1
f 123/5/1 110/5/1 109/5/1
f 124/7/1 83/7/1 110/7/1
f 124/5/1 110/5/1 123/5/1
f 125/4/1 115/4/1 114/4/1
f 125/7/1 83/7/1 124/7/1
f 125/4/1 114/4/1 113/4/1
f 125/4/1 113/4/1 112/4/1
f 125/4/1 112/4/1 111/4/1
f 125/4/1 111/4/1 83/4/1
f 125/4/1 116/4/1 115/4/1
f 126/7/1 46/7/1 84/7/1
f 126/4/1 116/4/1 125/4/1
f 126/4/1 84/4/1 116/4/1
f 127/7/1 119/7/1 118/7/1
f 127/7/1 125/7/1 124/7/1
f 127/7/1 126/7/1 125/7/1
f 127/7/1 120/7/1 119/7/1
f 127/7/1 118/7/1 117/7/1
f 127/7/1 123/7/1 122/7/1
f 127/7/1 124/7/1 123/7/1
f 127/7/1 117/7/1 45/7/1
f 127/7/1 121/7/1 120/7/1
f 127/7/1 122/7/1 121/7/1
f 128/7/1 46/7/1 126/7/1
f 128/7/1 126/7/1 127/7/1
f 131/5/1 130/5/1 129/5/1
f 132/5/1 130/5/1 131/5/1
f 133/5/1 131/5/1 129/5/1
f 134/5/1 130/5/1 132/5/1
f 135/5/1 133/5/1 129/5/1
f 135/5/1 134/5/1 133/5/1
f 136/5/1 130/5/1 134/5/1
f 136/5/1 134/5/1 135/5/1
f 139/3/1 138/3/1 137/3/1
f 140/3/1 138/3/1 139/3/1
f 145/3/1 142/3/1 141/3/1
f 146/3/1 144/3/1 143/3/1
f 147/3/1 145/3/1 141/3/1
f 147/3/1 146/3/1 145/3/1
f 148/3/1 144/3/1 146/3/1
f 148/3/1 146/3/1 147/3/1
f 149/5/2 150/5/2 153/5/2
f 151/5/2 152/5/2 154/5/2
f 149/5/2 153/5/2 155/5/2
f 153/5/2 154/5/2 155/5/2
f 154/5/2 152/5/2 156/5/2
f 155/5/2 154/5/2 156/5/2
f 157/3/2 158/3/2 159/3/2
f 159/3/2 158/3/2 160/3/2
f 165/5/3 164/5/3 163/5/3
f 166/5/3 164/5/3 165/5/3
f 167/3/3 162/3/3 161/3/3
f 169/3/3 167/3/3 161/3/3
f 169/3/3 168/3/3 167/3/3
f 170/3/3 168/3/3 169/3/3
f 173/3/3 172/3/3 171/3/3
f 175/3/3 173/3/3 171/3/3
f 175/3/3 174/3/3 173/3/3
f 176/3/3 174/3/3 175/3/3
f 181/4/3 178/4/3 177/4/3
f 182/4/3 178/4/3 181/4/3
f 183/3/3 180/3/3 179/3/3
f 184/3/3 180/3/3 183/3/3
f 187/2/3 186/2/3 185/2/3
f 188/2/3 186/2/3 187/2/3
f 191/4/3 190/4/3 189/4/3
f 192/4/3 190/4/3 191/4/3
f 195/2/3 194/2/3 193/2/3
f 196/2/3 194/2/3 195/2/3
f 199/5/3 198/5/3 197/5/3
f 200/5/3 198/5/3 199/5/3
f 203/5/3 202/5/3 201/5/3
f 204/5/3 202/5/3 203/5/3
f 207/5/3 206/5/3 205/5/3
f 208/5/3 206/5/3 207/5/3
f 211/5/3 210/5/3 209/5/3
f 212/5/3 210/5/3 211/5/3
f 215/3/3 214/3/3 213/3/3
f 216/3/3 214/3/3 215/3/3
f 217/3/4 218/3/4 219/3/4
f 219/3/4 218/3/4 220/3/4
f 221/4/4 222/4/4 225/4/4
f 225/4/4 222/4/4 226/4/4
f 223/3/4 224/3/4 227/3/4
f 227/3/4 224/3/4 228/3/4
f 229/2/4 230/2/4 231/2/4
f 231/2/4 230/2/4 232/2/4
f 233/4/4 234/4/4 235/4/4
f 235/4/4 234/4/4 236/4/4
f 237/2/4 238/2/4 239/2/4
f 239/2/4 238/2/4 240/2/4
f 241/5/4 242/5/4 243/5/4
f 243/5/4 242/5/4 244/5/4
f 245/5/4 246/5/4 247/5/4
f 247/5/4 246/5/4 248/5/4
f 249/5/4 250/5/4 251/5/4
f 251/5/4 250/5/4 252/5/4
f 253/5/4 254/5/4 255/5/4
f 255/5/4 254/5/4 256/5/4
f 257/3/4 258/3/4 259/3/4
f 257/3/4 259/3/4 261/3/4
f 259/3/4 260/3/4 261/3/4
f 261/3/4 260/3/4 262/3/4
f 265/5/4 266/5/4 267/5/4
f 267/5/4 266/5/4 268/5/4
f 263/3/4 264/3/4 269/3/4
f 263/3/4 269/3/4 271/3/4
f 269/3/4 270/3/4 271/3/4
f 271/3/4 270/3/4 272/3/4
f 275/3/5 274/3/5 273/3/5
f 276/3/5 274/3/5 275/3/5
f 279/4/5 278/4/5 277/4/5
f 280/4/5 278/4/5 279/4/5
f 283/2/5 282/2/5 281/2/5
f 284/2/5 282/2/5 283/2/5
f 287/4/5 286/4/5 285/4/5
f 288/4/5 286/4/5 287/4/5
f 291/2/5 290/2/5 289/2/5
f 292/2/5 290/2/5 291/2/5
f 295/5/5 294/5/5 293/5/5
f 296/5/5 294/5/5 295/5/5
f 299/5/5 298/5/5 297/5/5
f 300/5/5 298/5/5 299/5/5
f 303/5/5 302/5/5 301/5/5
f 304/5/5 302/5/5 303/5/5
f 307/5/5 306/5/5 305/5/5
f 308/5/5 306/5/5 307/5/5
f 311/3/5 310/3/5 309/3/5
f 312/3/5 310/3/5 311/3/5
f 315/5/5 314/5/5 313/5/5
f 316/5/5 314/5/5 315/5/5
f 317/5/5 315/5/5 313/5/5
f 319/5/5 317/5/5 313/5/5
f 319/5/5 318/5/5 317/5/5
f 320/5/5 318/5/5 319/5/5
f 323/3/5 322/3/5 321/3/5
f 324/3/5 322/3/5 323/3/5
f 325/3/6 326/3/6 327/3/6
f 327/3/6 326/3/6 328/3/6
f 329/4/6 330/4/6 331/4/6
f 331/4/6 330/4/6 332/4/6
f 333/2/6 334/2/6 335/2/6
f 335/2/6 334/2/6 336/2/6
f 337/4/6 338/4/6 339/4/6
f 339/4/6 338/4/6 340/4/6
f 341/2/6 342/2/6 343/2/6
f 343/2/6 342/2/6 344/2/6
f 345/5/6 346/5/6 347/5/6
f 347/5/6 346/5/6 348/5/6
f 349/5/6 350/5/6 351/5/6
f 351/5/6 350/5/6 352/5/6
f 353/5/6 354/5/6 355/5/6
f 355/5/6 354/5/6 356/5/6
f 357/5/6 358/5/6 359/5/6
f 359/5/6 358/5/6 360/5/6
f 361/3/6 362/3/6 363/3/6
f 363/3/6 362/3/6 364/3/6
f 361/3/6 363/3/6 365/3/6
f 361/3/6 365/3/6 367/3/6
f 365/3/6 366/3/6 367/3/6
f 367/3/6 366/3/6 368/3/6
f 369/3/6 370/3/6 371/3/6
f 371/3/6 370/3/6 372/3/6
f 373/3/6 374/3/6 375/3/6
f 375/3/6 374/3/6 376/3/6
f 377/5/6 378/5/6 381/5/6
f 381/5/6 378/5/6 382/5/6
f 379/3/6 380/3/6 383/3/6
f 383/3/6 380/3/6 384/3/6
