# MagicaVoxel @ Ephtracy

# group
o 

# material
mtllib Voxel Universe Objects-56.mtl
usemtl palette

# normals
vn 0 0 1
vn 0 0 -1
vn 1 0 0
vn -1 0 0
vn 0 -1 0
vn 0 1 0

# texcoords
vt 0.0332031 0.5
vt 0.251953 0.5
vt 0.548828 0.5
vt 0.958984 0.5
vt 0.986328 0.5

# verts
v -21.8 0 -7
v -24.6 0 -7
v -23.5 0.1 -7
v -24.5 0.1 -7
v -23.6 0.2 -7
v -24.4 0.2 -7
v -23.6 0.7 -7
v -24.4 0.7 -7
v -23.5 0.8 -7
v -24.5 0.8 -7
v -22 1.4 -7
v -22.2 1.4 -7
v -22.5 1.4 -7
v -22.6 1.4 -7
v -22.9 1.4 -7
v -23 1.4 -7
v -22.1 1.5 -7
v -22.2 1.5 -7
v -22.4 1.5 -7
v -22.5 1.5 -7
v -22.6 1.5 -7
v -22.7 1.5 -7
v -23 1.5 -7
v -23.1 1.5 -7
v -22.1 1.6 -7
v -22.3 1.6 -7
v -22.6 1.6 -7
v -22.7 1.6 -7
v -22.9 1.6 -7
v -23.1 1.6 -7
v -23.2 1.6 -7
v -22 1.7 -7
v -22.3 1.7 -7
v -22.4 1.7 -7
v -22.5 1.7 -7
v -22.7 1.7 -7
v -22.9 1.7 -7
v -23.1 1.7 -7
v -23.2 1.7 -7
v -21.8 1.9 -7
v -24.6 1.9 -7
v -21.8 0 -9.7
v -24.6 0 -9.7
v -21.9 0.1 -9.7
v -22.9 0.1 -9.7
v -23.2 0.1 -9.7
v -24.5 0.1 -9.7
v -22 0.2 -9.7
v -22.1 0.2 -9.7
v -22.2 0.2 -9.7
v -22.4 0.2 -9.7
v -22.5 0.2 -9.7
v -22.8 0.2 -9.7
v -23.3 0.2 -9.7
v -23.6 0.2 -9.7
v -23.7 0.2 -9.7
v -24 0.2 -9.7
v -24.1 0.2 -9.7
v -24.4 0.2 -9.7
v -22 0.3 -9.7
v -22.1 0.3 -9.7
v -22.2 0.3 -9.7
v -22.4 0.3 -9.7
v -22.5 0.3 -9.7
v -22.8 0.3 -9.7
v -23.8 0.3 -9.7
v -23.9 0.3 -9.7
v -22 0.4 -9.7
v -22.1 0.4 -9.7
v -22.2 0.4 -9.7
v -22.3 0.4 -9.7
v -22.4 0.4 -9.7
v -22.6 0.4 -9.7
v -22.7 0.4 -9.7
v -22.8 0.4 -9.7
v -23.4 0.4 -9.7
v -23.5 0.4 -9.7
v -23.8 0.4 -9.7
v -23.9 0.4 -9.7
v -24.2 0.4 -9.7
v -24.3 0.4 -9.7
v -22 0.5 -9.7
v -22.1 0.5 -9.7
v -22.2 0.5 -9.7
v -22.3 0.5 -9.7
v -22.4 0.5 -9.7
v -22.6 0.5 -9.7
v -22.7 0.5 -9.7
v -22.8 0.5 -9.7
v -23.8 0.5 -9.7
v -23.9 0.5 -9.7
v -21.9 0.6 -9.7
v -22.9 0.6 -9.7
v -23.4 0.6 -9.7
v -23.5 0.6 -9.7
v -23.8 0.6 -9.7
v -23.9 0.6 -9.7
v -24.2 0.6 -9.7
v -24.3 0.6 -9.7
v -23.3 0.7 -9.7
v -23.6 0.7 -9.7
v -23.7 0.7 -9.7
v -24 0.7 -9.7
v -24.1 0.7 -9.7
v -24.4 0.7 -9.7
v -21.9 0.8 -9.7
v -22.9 0.8 -9.7
v -23.2 0.8 -9.7
v -24.5 0.8 -9.7
v -21.8 1.9 -9.7
v -24.6 1.9 -9.7
v -21.8 0 -7
v -21.8 1.9 -7
v -21.8 1.3 -7.2
v -21.8 1.7 -7.2
v -21.8 1.3 -7.4
v -21.8 1.7 -7.4
v -21.8 1.3 -7.5
v -21.8 1.7 -7.5
v -21.8 1.3 -7.7
v -21.8 1.7 -7.7
v -21.8 0 -8.1
v -21.8 0.1 -8.1
v -21.8 1.8 -8.1
v -21.8 1.9 -8.1
v -21.8 0 -8.6
v -21.8 0.1 -8.6
v -21.8 1.8 -8.6
v -21.8 1.9 -8.6
v -21.8 0 -9.7
v -21.8 1.9 -9.7
v -24.6 0 -7
v -24.6 1.9 -7
v -24.6 1.3 -7.2
v -24.6 1.4 -7.2
v -24.6 1.4 -7.3
v -24.6 1.5 -7.3
v -24.6 1 -7.4
v -24.6 1.3 -7.4
v -24.6 1.5 -7.4
v -24.6 1.6 -7.4
v -24.6 1.6 -7.5
v -24.6 1.7 -7.5
v -24.6 1.6 -7.6
v -24.6 1.7 -7.6
v -24.6 1 -7.7
v -24.6 1.3 -7.7
v -24.6 1.5 -7.7
v -24.6 1.6 -7.7
v -24.6 1.4 -7.8
v -24.6 1.5 -7.8
v -24.6 1.3 -7.9
v -24.6 1.4 -7.9
v -24.6 0 -8.1
v -24.6 0.1 -8.1
v -24.6 1.8 -8.1
v -24.6 1.9 -8.1
v -24.6 0 -8.6
v -24.6 0.1 -8.6
v -24.6 1.8 -8.6
v -24.6 1.9 -8.6
v -24.6 0 -9.7
v -24.6 1.9 -9.7
v -21.8 0 -7
v -21.8 0 -8.1
v -21.8 0 -8.6
v -21.8 0 -9.7
v -24.6 0 -7
v -24.6 0 -8.1
v -24.6 0 -8.6
v -24.6 0 -9.7
v -21.8 1.9 -7
v -21.8 1.9 -8.1
v -21.8 1.9 -8.6
v -21.8 1.9 -9.7
v -24.6 1.9 -7
v -24.6 1.9 -8.1
v -24.6 1.9 -8.6
v -24.6 1.9 -9.7

# faces
f 3/1/1 2/1/1 1/1/1
f 4/1/1 2/1/1 3/1/1
f 5/3/1 4/3/1 3/3/1
f 6/3/1 4/3/1 5/3/1
f 7/3/1 5/3/1 3/3/1
f 7/1/1 6/1/1 5/1/1
f 8/3/1 4/3/1 6/3/1
f 8/1/1 6/1/1 7/1/1
f 9/1/1 3/1/1 1/1/1
f 9/3/1 7/3/1 3/3/1
f 9/3/1 8/3/1 7/3/1
f 10/3/1 4/3/1 8/3/1
f 10/3/1 8/3/1 9/3/1
f 10/1/1 2/1/1 4/1/1
f 11/1/1 9/1/1 1/1/1
f 11/1/1 10/1/1 9/1/1
f 12/1/1 10/1/1 11/1/1
f 13/1/1 10/1/1 12/1/1
f 14/1/1 10/1/1 13/1/1
f 15/1/1 10/1/1 14/1/1
f 16/1/1 10/1/1 15/1/1
f 17/5/1 12/5/1 11/5/1
f 18/1/1 13/1/1 12/1/1
f 18/5/1 12/5/1 17/5/1
f 19/1/1 13/1/1 18/1/1
f 20/5/1 14/5/1 13/5/1
f 20/1/1 13/1/1 19/1/1
f 21/1/1 15/1/1 14/1/1
f 21/5/1 14/5/1 20/5/1
f 22/1/1 15/1/1 21/1/1
f 23/1/1 10/1/1 16/1/1
f 23/5/1 16/5/1 15/5/1
f 24/1/1 10/1/1 23/1/1
f 25/5/1 17/5/1 11/5/1
f 25/1/1 19/1/1 18/1/1
f 25/1/1 18/1/1 17/1/1
f 26/1/1 19/1/1 25/1/1
f 27/5/1 22/5/1 21/5/1
f 27/1/1 21/1/1 20/1/1
f 28/1/1 15/1/1 22/1/1
f 28/5/1 22/5/1 27/5/1
f 29/5/1 24/5/1 23/5/1
f 29/1/1 15/1/1 28/1/1
f 29/5/1 23/5/1 15/5/1
f 30/1/1 10/1/1 24/1/1
f 30/5/1 24/5/1 29/5/1
f 31/1/1 10/1/1 30/1/1
f 32/1/1 11/1/1 1/1/1
f 32/5/1 25/5/1 11/5/1
f 32/5/1 26/5/1 25/5/1
f 33/1/1 19/1/1 26/1/1
f 33/5/1 26/5/1 32/5/1
f 34/5/1 20/5/1 19/5/1
f 34/1/1 19/1/1 33/1/1
f 35/1/1 27/1/1 20/1/1
f 35/5/1 20/5/1 34/5/1
f 35/1/1 28/1/1 27/1/1
f 36/5/1 29/5/1 28/5/1
f 36/1/1 28/1/1 35/1/1
f 37/1/1 30/1/1 29/1/1
f 37/5/1 29/5/1 36/5/1
f 38/5/1 31/5/1 30/5/1
f 38/1/1 30/1/1 37/1/1
f 39/1/1 10/1/1 31/1/1
f 39/5/1 31/5/1 38/5/1
f 40/1/1 38/1/1 37/1/1
f 40/1/1 34/1/1 33/1/1
f 40/1/1 39/1/1 38/1/1
f 40/1/1 37/1/1 36/1/1
f 40/1/1 32/1/1 1/1/1
f 40/1/1 33/1/1 32/1/1
f 40/1/1 36/1/1 35/1/1
f 40/1/1 35/1/1 34/1/1
f 41/1/1 2/1/1 10/1/1
f 41/1/1 39/1/1 40/1/1
f 41/1/1 10/1/1 39/1/1
f 42/1/2 43/1/2 44/1/2
f 44/1/2 43/1/2 45/1/2
f 45/1/2 43/1/2 46/1/2
f 46/1/2 43/1/2 47/1/2
f 44/4/2 45/4/2 48/4/2
f 48/4/2 45/4/2 49/4/2
f 49/4/2 45/4/2 50/4/2
f 50/4/2 45/4/2 51/4/2
f 51/4/2 45/4/2 52/4/2
f 52/4/2 45/4/2 53/4/2
f 46/5/2 47/5/2 54/5/2
f 54/5/2 47/5/2 55/5/2
f 55/5/2 47/5/2 56/5/2
f 56/5/2 47/5/2 57/5/2
f 57/5/2 47/5/2 58/5/2
f 58/5/2 47/5/2 59/5/2
f 44/4/2 48/4/2 60/4/2
f 48/5/2 49/5/2 60/5/2
f 49/4/2 50/4/2 61/4/2
f 60/5/2 49/5/2 61/5/2
f 50/5/2 51/5/2 62/5/2
f 61/4/2 50/4/2 62/4/2
f 51/4/2 52/4/2 63/4/2
f 62/5/2 51/5/2 63/5/2
f 52/5/2 53/5/2 64/5/2
f 63/4/2 52/4/2 64/4/2
f 53/4/2 45/4/2 65/4/2
f 64/5/2 53/5/2 65/5/2
f 56/1/2 57/1/2 66/1/2
f 66/1/2 57/1/2 67/1/2
f 63/4/2 64/4/2 68/4/2
f 44/4/2 60/4/2 68/4/2
f 60/4/2 61/4/2 68/4/2
f 61/4/2 62/4/2 68/4/2
f 64/4/2 65/4/2 68/4/2
f 62/4/2 63/4/2 68/4/2
f 68/4/2 65/4/2 69/4/2
f 69/4/2 65/4/2 70/4/2
f 70/4/2 65/4/2 71/4/2
f 71/4/2 65/4/2 72/4/2
f 72/4/2 65/4/2 73/4/2
f 73/4/2 65/4/2 74/4/2
f 65/4/2 45/4/2 75/4/2
f 74/4/2 65/4/2 75/4/2
f 54/1/2 55/1/2 76/1/2
f 76/1/2 55/1/2 77/1/2
f 66/5/2 67/5/2 78/5/2
f 56/1/2 66/1/2 78/1/2
f 67/1/2 57/1/2 79/1/2
f 78/5/2 67/5/2 79/5/2
f 58/1/2 59/1/2 80/1/2
f 80/1/2 59/1/2 81/1/2
f 44/4/2 68/4/2 82/4/2
f 68/5/2 69/5/2 82/5/2
f 69/4/2 70/4/2 83/4/2
f 82/5/2 69/5/2 83/5/2
f 70/5/2 71/5/2 84/5/2
f 83/4/2 70/4/2 84/4/2
f 71/4/2 72/4/2 85/4/2
f 84/5/2 71/5/2 85/5/2
f 72/5/2 73/5/2 86/5/2
f 85/4/2 72/4/2 86/4/2
f 73/4/2 74/4/2 87/4/2
f 86/5/2 73/5/2 87/5/2
f 74/5/2 75/5/2 88/5/2
f 87/4/2 74/4/2 88/4/2
f 75/4/2 45/4/2 89/4/2
f 88/5/2 75/5/2 89/5/2
f 56/1/2 78/1/2 90/1/2
f 78/1/2 79/1/2 90/1/2
f 79/1/2 57/1/2 91/1/2
f 90/1/2 79/1/2 91/1/2
f 42/1/2 44/1/2 92/1/2
f 85/4/2 86/4/2 92/4/2
f 87/4/2 88/4/2 92/4/2
f 44/4/2 82/4/2 92/4/2
f 88/4/2 89/4/2 92/4/2
f 82/4/2 83/4/2 92/4/2
f 86/4/2 87/4/2 92/4/2
f 84/4/2 85/4/2 92/4/2
f 83/4/2 84/4/2 92/4/2
f 45/1/2 46/1/2 93/1/2
f 92/4/2 89/4/2 93/4/2
f 89/4/2 45/4/2 93/4/2
f 54/1/2 76/1/2 94/1/2
f 76/5/2 77/5/2 94/5/2
f 77/1/2 55/1/2 95/1/2
f 94/5/2 77/5/2 95/5/2
f 56/1/2 90/1/2 96/1/2
f 90/5/2 91/5/2 96/5/2
f 91/1/2 57/1/2 97/1/2
f 96/5/2 91/5/2 97/5/2
f 58/1/2 80/1/2 98/1/2
f 80/5/2 81/5/2 98/5/2
f 81/1/2 59/1/2 99/1/2
f 98/5/2 81/5/2 99/5/2
f 54/1/2 94/1/2 100/1/2
f 94/1/2 95/1/2 100/1/2
f 46/5/2 54/5/2 100/5/2
f 95/1/2 55/1/2 101/1/2
f 100/1/2 95/1/2 101/1/2
f 55/5/2 56/5/2 101/5/2
f 56/1/2 96/1/2 102/1/2
f 101/5/2 56/5/2 102/5/2
f 96/1/2 97/1/2 102/1/2
f 57/5/2 58/5/2 103/5/2
f 102/1/2 97/1/2 103/1/2
f 97/1/2 57/1/2 103/1/2
f 98/1/2 99/1/2 104/1/2
f 103/5/2 58/5/2 104/5/2
f 58/1/2 98/1/2 104/1/2
f 59/5/2 47/5/2 105/5/2
f 104/1/2 99/1/2 105/1/2
f 99/1/2 59/1/2 105/1/2
f 42/1/2 92/1/2 106/1/2
f 92/5/2 93/5/2 106/5/2
f 93/1/2 46/1/2 107/1/2
f 106/5/2 93/5/2 107/5/2
f 100/5/2 101/5/2 108/5/2
f 107/1/2 46/1/2 108/1/2
f 103/5/2 104/5/2 108/5/2
f 101/5/2 102/5/2 108/5/2
f 104/5/2 105/5/2 108/5/2
f 102/5/2 103/5/2 108/5/2
f 46/5/2 100/5/2 108/5/2
f 47/1/2 43/1/2 109/1/2
f 108/5/2 105/5/2 109/5/2
f 105/5/2 47/5/2 109/5/2
f 106/1/2 107/1/2 110/1/2
f 107/1/2 108/1/2 110/1/2
f 108/1/2 109/1/2 110/1/2
f 42/1/2 106/1/2 110/1/2
f 109/1/2 43/1/2 111/1/2
f 110/1/2 109/1/2 111/1/2
f 114/1/3 113/1/3 112/1/3
f 115/1/3 113/1/3 114/1/3
f 116/1/3 114/1/3 112/1/3
f 116/3/3 115/3/3 114/3/3
f 117/1/3 113/1/3 115/1/3
f 117/3/3 115/3/3 116/3/3
f 118/1/3 116/1/3 112/1/3
f 118/1/3 117/1/3 116/1/3
f 119/1/3 113/1/3 117/1/3
f 119/1/3 117/1/3 118/1/3
f 120/1/3 118/1/3 112/1/3
f 120/3/3 119/3/3 118/3/3
f 121/1/3 113/1/3 119/1/3
f 121/3/3 119/3/3 120/3/3
f 122/1/3 120/1/3 112/1/3
f 122/1/3 121/1/3 120/1/3
f 123/1/3 121/1/3 122/1/3
f 124/1/3 113/1/3 121/1/3
f 124/1/3 121/1/3 123/1/3
f 125/1/3 113/1/3 124/1/3
f 126/3/3 123/3/3 122/3/3
f 127/1/3 124/1/3 123/1/3
f 127/3/3 123/3/3 126/3/3
f 128/3/3 125/3/3 124/3/3
f 128/1/3 124/1/3 127/1/3
f 129/3/3 125/3/3 128/3/3
f 130/1/3 127/1/3 126/1/3
f 130/1/3 128/1/3 127/1/3
f 130/1/3 129/1/3 128/1/3
f 131/1/3 129/1/3 130/1/3
f 132/1/4 133/1/4 134/1/4
f 134/1/4 133/1/4 135/1/4
f 134/2/4 135/2/4 136/2/4
f 135/1/4 133/1/4 136/1/4
f 136/1/4 133/1/4 137/1/4
f 132/1/4 134/1/4 138/1/4
f 134/2/4 136/2/4 139/2/4
f 138/1/4 134/1/4 139/1/4
f 136/2/4 137/2/4 139/2/4
f 137/1/4 133/1/4 140/1/4
f 139/2/4 137/2/4 140/2/4
f 140/1/4 133/1/4 141/1/4
f 138/2/4 139/2/4 142/2/4
f 141/1/4 133/1/4 142/1/4
f 140/2/4 141/2/4 142/2/4
f 139/2/4 140/2/4 142/2/4
f 142/1/4 133/1/4 143/1/4
f 138/2/4 142/2/4 144/2/4
f 142/2/4 143/2/4 144/2/4
f 143/1/4 133/1/4 145/1/4
f 144/2/4 143/2/4 145/2/4
f 132/1/4 138/1/4 146/1/4
f 138/2/4 144/2/4 146/2/4
f 146/2/4 144/2/4 147/2/4
f 147/2/4 144/2/4 148/2/4
f 144/1/4 145/1/4 149/1/4
f 148/2/4 144/2/4 149/2/4
f 147/2/4 148/2/4 150/2/4
f 148/1/4 149/1/4 151/1/4
f 150/2/4 148/2/4 151/2/4
f 146/1/4 147/1/4 152/1/4
f 147/2/4 150/2/4 152/2/4
f 150/1/4 151/1/4 153/1/4
f 152/2/4 150/2/4 153/2/4
f 132/1/4 146/1/4 154/1/4
f 146/1/4 152/1/4 154/1/4
f 152/1/4 153/1/4 154/1/4
f 154/1/4 153/1/4 155/1/4
f 145/1/4 133/1/4 156/1/4
f 155/1/4 153/1/4 156/1/4
f 149/1/4 145/1/4 156/1/4
f 153/1/4 151/1/4 156/1/4
f 151/1/4 149/1/4 156/1/4
f 156/1/4 133/1/4 157/1/4
f 154/3/4 155/3/4 158/3/4
f 155/1/4 156/1/4 159/1/4
f 158/3/4 155/3/4 159/3/4
f 156/3/4 157/3/4 160/3/4
f 159/1/4 156/1/4 160/1/4
f 160/3/4 157/3/4 161/3/4
f 158/1/4 159/1/4 162/1/4
f 159/1/4 160/1/4 162/1/4
f 160/1/4 161/1/4 162/1/4
f 162/1/4 161/1/4 163/1/4
f 168/1/5 165/1/5 164/1/5
f 169/3/5 166/3/5 165/3/5
f 169/1/5 165/1/5 168/1/5
f 170/1/5 167/1/5 166/1/5
f 170/3/5 166/3/5 169/3/5
f 171/1/5 167/1/5 170/1/5
f 172/1/6 173/1/6 176/1/6
f 173/3/6 174/3/6 177/3/6
f 176/1/6 173/1/6 177/1/6
f 174/1/6 175/1/6 178/1/6
f 177/3/6 174/3/6 178/3/6
f 178/1/6 175/1/6 179/1/6
