# MagicaVoxel @ Ephtracy

# group
o 

# material
mtllib Voxel Universe Objects-46.mtl
usemtl palette

# normals
vn -1 0 0
vn 1 0 0
vn 0 0 1
vn 0 0 -1
vn 0 -1 0
vn 0 1 0

# texcoords
vt 0.986328 0.5
vt 0.990234 0.5

# verts
v -17.2 0 -5.2
v -17.2 0 -6.4
v -17.2 0.2 -5.2
v -17.2 0.2 -6.4
v -14.7 0 -5.2
v -14.7 0 -6.4
v -14.7 0.2 -5.2
v -14.7 0.2 -6.4
v -17.2 0 -5.2
v -17.2 0.2 -5.2
v -14.7 0 -5.2
v -14.7 0.2 -5.2
v -17.2 0 -6.4
v -17.2 0.2 -6.4
v -14.7 0 -6.4
v -14.7 0.2 -6.4
v -17.2 0 -5.2
v -14.7 0 -5.2
v -17.2 0 -6.4
v -14.7 0 -6.4
v -17.2 0.2 -5.2
v -14.7 0.2 -5.2
v -15.1 0.2 -6
v -14.8 0.2 -6
v -15 0.2 -6.1
v -14.9 0.2 -6.1
v -15 0.2 -6.2
v -14.9 0.2 -6.2
v -15.1 0.2 -6.3
v -14.8 0.2 -6.3
v -17.2 0.2 -6.4
v -14.7 0.2 -6.4

# faces
f 3/1/1 2/1/1 1/1/1
f 4/1/1 2/1/1 3/1/1
f 5/1/2 6/1/2 7/1/2
f 7/1/2 6/1/2 8/1/2
f 11/1/3 10/1/3 9/1/3
f 12/1/3 10/1/3 11/1/3
f 13/1/4 14/1/4 15/1/4
f 15/1/4 14/1/4 16/1/4
f 19/1/5 18/1/5 17/1/5
f 20/1/5 18/1/5 19/1/5
f 21/1/6 22/1/6 23/1/6
f 23/1/6 22/1/6 24/1/6
f 23/2/6 24/2/6 25/2/6
f 25/2/6 24/2/6 26/2/6
f 23/2/6 25/2/6 27/2/6
f 25/1/6 26/1/6 27/1/6
f 26/2/6 24/2/6 28/2/6
f 27/1/6 26/1/6 28/1/6
f 21/1/6 23/1/6 29/1/6
f 23/2/6 27/2/6 29/2/6
f 27/2/6 28/2/6 29/2/6
f 28/2/6 24/2/6 30/2/6
f 29/2/6 28/2/6 30/2/6
f 24/1/6 22/1/6 30/1/6
f 21/1/6 29/1/6 31/1/6
f 29/1/6 30/1/6 31/1/6
f 30/1/6 22/1/6 32/1/6
f 31/1/6 30/1/6 32/1/6
