# MagicaVoxel @ Ephtracy

# group
o 

# material
mtllib Voxel Universe Objects-55.mtl
usemtl palette

# normals
vn 0 0 -1
vn 0 0 1
vn -1 0 0
vn 1 0 0
vn 0 -1 0
vn 0 1 0

# texcoords
vt 0.0371094 0.5
vt 0.0644531 0.5
vt 0.533203 0.5
vt 0.537109 0.5

# verts
v -10.9 0.1 -8.4
v -10.1 0.1 -8.4
v -10.9 0.2 -8.4
v -10.1 0.2 -8.4
v -10.9 0 -8.3
v -10.1 0 -8.3
v -11 0.1 -8.3
v -10.9 0.1 -8.3
v -10.1 0.1 -8.3
v -10 0.1 -8.3
v -11 0.2 -8.3
v -10.9 0.2 -8.3
v -10.1 0.2 -8.3
v -10 0.2 -8.3
v -10.9 0.3 -8.3
v -10.1 0.3 -8.3
v -10.6 0 -8
v -10.4 0 -8
v -10.6 0.1 -8
v -10.4 0.1 -8
v -10.6 0.2 -8
v -10.4 0.2 -8
v -10.6 0.3 -8
v -10.4 0.3 -8
v -10.7 0 -7.6
v -10.3 0 -7.6
v -10.7 0.1 -7.6
v -10.3 0.1 -7.6
v -10.7 0.2 -7.6
v -10.3 0.2 -7.6
v -10.7 0.3 -7.6
v -10.3 0.3 -7.6
v -10.7 0 -8.1
v -10.3 0 -8.1
v -10.7 0.1 -8.1
v -10.3 0.1 -8.1
v -10.7 0.2 -8.1
v -10.3 0.2 -8.1
v -10.7 0.3 -8.1
v -10.3 0.3 -8.1
v -10.6 0 -7.7
v -10.4 0 -7.7
v -10.6 0.1 -7.7
v -10.4 0.1 -7.7
v -10.6 0.2 -7.7
v -10.4 0.2 -7.7
v -10.6 0.3 -7.7
v -10.4 0.3 -7.7
v -10.9 0 -7.4
v -10.1 0 -7.4
v -11 0.1 -7.4
v -10.9 0.1 -7.4
v -10.1 0.1 -7.4
v -10 0.1 -7.4
v -11 0.2 -7.4
v -10.9 0.2 -7.4
v -10.1 0.2 -7.4
v -10 0.2 -7.4
v -10.9 0.3 -7.4
v -10.1 0.3 -7.4
v -10.9 0.1 -7.3
v -10.1 0.1 -7.3
v -10.9 0.2 -7.3
v -10.1 0.2 -7.3
v -11 0.1 -8.3
v -11 0.2 -8.3
v -11 0.1 -7.4
v -11 0.2 -7.4
v -10.9 0.1 -8.4
v -10.9 0.2 -8.4
v -10.9 0 -8.3
v -10.9 0.1 -8.3
v -10.9 0.2 -8.3
v -10.9 0.3 -8.3
v -10.9 0 -7.4
v -10.9 0.1 -7.4
v -10.9 0.2 -7.4
v -10.9 0.3 -7.4
v -10.9 0.1 -7.3
v -10.9 0.2 -7.3
v -10.6 0 -8
v -10.6 0.1 -8
v -10.6 0.2 -8
v -10.6 0.3 -8
v -10.6 0 -7.7
v -10.6 0.1 -7.7
v -10.6 0.2 -7.7
v -10.6 0.3 -7.7
v -10.3 0 -8.1
v -10.3 0.1 -8.1
v -10.3 0.2 -8.1
v -10.3 0.3 -8.1
v -10.3 0 -7.6
v -10.3 0.1 -7.6
v -10.3 0.2 -7.6
v -10.3 0.3 -7.6
v -10.7 0 -8.1
v -10.7 0.1 -8.1
v -10.7 0.2 -8.1
v -10.7 0.3 -8.1
v -10.7 0 -7.6
v -10.7 0.1 -7.6
v -10.7 0.2 -7.6
v -10.7 0.3 -7.6
v -10.4 0 -8
v -10.4 0.1 -8
v -10.4 0.2 -8
v -10.4 0.3 -8
v -10.4 0 -7.7
v -10.4 0.1 -7.7
v -10.4 0.2 -7.7
v -10.4 0.3 -7.7
v -10.1 0.1 -8.4
v -10.1 0.2 -8.4
v -10.1 0 -8.3
v -10.1 0.1 -8.3
v -10.1 0.2 -8.3
v -10.1 0.3 -8.3
v -10.1 0 -7.4
v -10.1 0.1 -7.4
v -10.1 0.2 -7.4
v -10.1 0.3 -7.4
v -10.1 0.1 -7.3
v -10.1 0.2 -7.3
v -10 0.1 -8.3
v -10 0.2 -8.3
v -10 0.1 -7.4
v -10 0.2 -7.4
v -10.9 0 -8.3
v -10.9 0 -7.4
v -10.8 0 -8.2
v -10.8 0 -7.5
v -10.7 0 -8.1
v -10.7 0 -7.6
v -10.6 0 -8
v -10.6 0 -7.7
v -10.4 0 -8
v -10.4 0 -7.7
v -10.3 0 -8.1
v -10.3 0 -7.6
v -10.2 0 -8.2
v -10.2 0 -7.5
v -10.1 0 -8.3
v -10.1 0 -7.4
v -11 0.1 -8.3
v -11 0.1 -7.4
v -10.9 0.1 -8.4
v -10.9 0.1 -8.3
v -10.9 0.1 -7.4
v -10.9 0.1 -7.3
v -10.7 0.1 -8.1
v -10.7 0.1 -7.6
v -10.6 0.1 -8
v -10.6 0.1 -7.7
v -10.4 0.1 -8
v -10.4 0.1 -7.7
v -10.3 0.1 -8.1
v -10.3 0.1 -7.6
v -10.1 0.1 -8.4
v -10.1 0.1 -8.3
v -10.1 0.1 -7.4
v -10.1 0.1 -7.3
v -10 0.1 -8.3
v -10 0.1 -7.4
v -11 0.2 -8.3
v -11 0.2 -7.4
v -10.9 0.2 -8.4
v -10.9 0.2 -8.3
v -10.9 0.2 -7.4
v -10.9 0.2 -7.3
v -10.7 0.2 -8.1
v -10.7 0.2 -7.6
v -10.6 0.2 -8
v -10.6 0.2 -7.7
v -10.4 0.2 -8
v -10.4 0.2 -7.7
v -10.3 0.2 -8.1
v -10.3 0.2 -7.6
v -10.1 0.2 -8.4
v -10.1 0.2 -8.3
v -10.1 0.2 -7.4
v -10.1 0.2 -7.3
v -10 0.2 -8.3
v -10 0.2 -7.4
v -10.9 0.3 -8.3
v -10.9 0.3 -7.4
v -10.8 0.3 -8.2
v -10.8 0.3 -7.5
v -10.7 0.3 -8.1
v -10.7 0.3 -7.6
v -10.6 0.3 -8
v -10.6 0.3 -7.7
v -10.4 0.3 -8
v -10.4 0.3 -7.7
v -10.3 0.3 -8.1
v -10.3 0.3 -7.6
v -10.2 0.3 -8.2
v -10.2 0.3 -7.5
v -10.1 0.3 -8.3
v -10.1 0.3 -7.4

# faces
f 3/2/1 2/2/1 1/2/1
f 4/2/1 2/2/1 3/2/1
f 8/1/1 6/1/1 5/1/1
f 9/1/1 6/1/1 8/1/1
f 11/2/1 8/2/1 7/2/1
f 12/2/1 8/2/1 11/2/1
f 13/2/1 10/2/1 9/2/1
f 14/2/1 10/2/1 13/2/1
f 15/1/1 13/1/1 12/1/1
f 16/1/1 13/1/1 15/1/1
f 19/1/1 18/1/1 17/1/1
f 20/1/1 18/1/1 19/1/1
f 23/1/1 22/1/1 21/1/1
f 24/1/1 22/1/1 23/1/1
f 27/2/1 26/2/1 25/2/1
f 28/2/1 26/2/1 27/2/1
f 31/2/1 30/2/1 29/2/1
f 32/2/1 30/2/1 31/2/1
f 33/2/2 34/2/2 35/2/2
f 35/2/2 34/2/2 36/2/2
f 37/2/2 38/2/2 39/2/2
f 39/2/2 38/2/2 40/2/2
f 41/1/2 42/1/2 43/1/2
f 43/1/2 42/1/2 44/1/2
f 45/1/2 46/1/2 47/1/2
f 47/1/2 46/1/2 48/1/2
f 49/1/2 50/1/2 52/1/2
f 52/1/2 50/1/2 53/1/2
f 51/2/2 52/2/2 55/2/2
f 55/2/2 52/2/2 56/2/2
f 53/2/2 54/2/2 57/2/2
f 57/2/2 54/2/2 58/2/2
f 56/1/2 57/1/2 59/1/2
f 59/1/2 57/1/2 60/1/2
f 61/2/2 62/2/2 63/2/2
f 63/2/2 62/2/2 64/2/2
f 67/2/3 66/2/3 65/2/3
f 68/2/3 66/2/3 67/2/3
f 72/2/3 70/2/3 69/2/3
f 73/2/3 70/2/3 72/2/3
f 75/1/3 72/1/3 71/1/3
f 76/1/3 72/1/3 75/1/3
f 77/1/3 74/1/3 73/1/3
f 78/1/3 74/1/3 77/1/3
f 79/2/3 77/2/3 76/2/3
f 80/2/3 77/2/3 79/2/3
f 85/1/3 82/1/3 81/1/3
f 86/1/3 82/1/3 85/1/3
f 87/1/3 84/1/3 83/1/3
f 88/1/3 84/1/3 87/1/3
f 93/2/3 90/2/3 89/2/3
f 94/2/3 90/2/3 93/2/3
f 95/2/3 92/2/3 91/2/3
f 96/2/3 92/2/3 95/2/3
f 97/2/4 98/2/4 101/2/4
f 101/2/4 98/2/4 102/2/4
f 99/2/4 100/2/4 103/2/4
f 103/2/4 100/2/4 104/2/4
f 105/1/4 106/1/4 109/1/4
f 109/1/4 106/1/4 110/1/4
f 107/1/4 108/1/4 111/1/4
f 111/1/4 108/1/4 112/1/4
f 113/2/4 114/2/4 116/2/4
f 116/2/4 114/2/4 117/2/4
f 115/1/4 116/1/4 119/1/4
f 119/1/4 116/1/4 120/1/4
f 117/1/4 118/1/4 121/1/4
f 121/1/4 118/1/4 122/1/4
f 120/2/4 121/2/4 123/2/4
f 123/2/4 121/2/4 124/2/4
f 125/2/4 126/2/4 127/2/4
f 127/2/4 126/2/4 128/2/4
f 131/1/5 130/1/5 129/1/5
f 132/1/5 130/1/5 131/1/5
f 133/2/5 132/2/5 131/2/5
f 134/2/5 132/2/5 133/2/5
f 137/1/5 136/1/5 135/1/5
f 138/1/5 136/1/5 137/1/5
f 139/2/5 133/2/5 131/2/5
f 140/2/5 132/2/5 134/2/5
f 141/1/5 131/1/5 129/1/5
f 141/2/5 140/2/5 139/2/5
f 141/2/5 139/2/5 131/2/5
f 142/2/5 132/2/5 140/2/5
f 142/2/5 140/2/5 141/2/5
f 142/1/5 130/1/5 132/1/5
f 143/1/5 141/1/5 129/1/5
f 143/1/5 142/1/5 141/1/5
f 144/1/5 130/1/5 142/1/5
f 144/1/5 142/1/5 143/1/5
f 148/2/5 146/2/5 145/2/5
f 149/2/5 146/2/5 148/2/5
f 153/3/5 152/3/5 151/3/5
f 154/3/5 152/3/5 153/3/5
f 155/3/5 153/3/5 151/3/5
f 156/3/5 152/3/5 154/3/5
f 157/3/5 155/3/5 151/3/5
f 157/3/5 156/3/5 155/3/5
f 158/3/5 152/3/5 156/3/5
f 158/3/5 156/3/5 157/3/5
f 159/2/5 148/2/5 147/2/5
f 160/2/5 148/2/5 159/2/5
f 161/2/5 150/2/5 149/2/5
f 162/2/5 150/2/5 161/2/5
f 163/2/5 161/2/5 160/2/5
f 164/2/5 161/2/5 163/2/5
f 165/2/6 166/2/6 168/2/6
f 168/2/6 166/2/6 169/2/6
f 171/3/6 172/3/6 173/3/6
f 173/3/6 172/3/6 174/3/6
f 171/3/6 173/3/6 175/3/6
f 174/3/6 172/3/6 176/3/6
f 171/3/6 175/3/6 177/3/6
f 175/3/6 176/3/6 177/3/6
f 176/3/6 172/3/6 178/3/6
f 177/3/6 176/3/6 178/3/6
f 167/2/6 168/2/6 179/2/6
f 179/2/6 168/2/6 180/2/6
f 169/2/6 170/2/6 181/2/6
f 181/2/6 170/2/6 182/2/6
f 180/2/6 181/2/6 183/2/6
f 183/2/6 181/2/6 184/2/6
f 185/1/6 186/1/6 187/1/6
f 187/1/6 186/1/6 188/1/6
f 187/2/6 188/2/6 189/2/6
f 189/2/6 188/2/6 190/2/6
f 191/1/6 192/1/6 193/1/6
f 193/1/6 192/1/6 194/1/6
f 187/2/6 189/2/6 195/2/6
f 190/2/6 188/2/6 196/2/6
f 185/1/6 187/1/6 197/1/6
f 195/2/6 196/2/6 197/2/6
f 187/2/6 195/2/6 197/2/6
f 196/2/6 188/2/6 198/2/6
f 197/2/6 196/2/6 198/2/6
f 188/1/6 186/1/6 198/1/6
f 185/1/6 197/1/6 199/1/6
f 197/1/6 198/1/6 199/1/6
f 198/1/6 186/1/6 200/1/6
f 199/1/6 198/1/6 200/1/6
