# MagicaVoxel @ Ephtracy

# group
o Drink Cola

# material
mtllib Voxel Universe-45-Drink Cola.mtl
usemtl palette

# normals
vn -1 0 0
vn 1 0 0
vn 0 0 1
vn 0 0 -1
vn 0 -1 0
vn 0 1 0

# texcoords
vt 0.134766 0.5
vt 0.958984 0.5

# verts
v 0 0 4.4
v 0 0 4
v 0 0 3.7
v 0 0 3.6
v 0 0.1 4.1
v 0 0.1 4
v 0 0.2 3.8
v 0 0.2 3.7
v 0 0.3 4.2
v 0 0.3 4.1
v 0 0.4 3.9
v 0 0.4 3.8
v 0 0.5 4.3
v 0 0.5 4.2
v 0 0.6 4
v 0 0.6 3.9
v 0 0.7 4.4
v 0 0.7 4.3
v 0 0.8 4.1
v 0 0.8 4
v 0 1 4.2
v 0 1 4.1
v 0 1.2 4.3
v 0 1.2 4.2
v 0 1.4 4.4
v 0 1.4 4.3
v 0 1.5 4.4
v 0 1.5 3.6
v 0.1 1.5 4.3
v 0.1 1.5 3.7
v 0.1 1.6 4.3
v 0.1 1.6 3.7
v 0.6 1.5 4.2
v 0.6 1.5 3.8
v 0.6 1.6 4.2
v 0.6 1.6 3.8
v 0.7 0 4.3
v 0.7 0 4
v 0.7 0 3.7
v 0.7 0.1 4.3
v 0.7 0.1 4
v 0.7 0.1 3.7
v 0.1 0 4.3
v 0.1 0 4
v 0.1 0 3.7
v 0.1 0.1 4.3
v 0.1 0.1 4
v 0.1 0.1 3.7
v 0.2 1.5 4.2
v 0.2 1.5 4.1
v 0.2 1.5 3.9
v 0.2 1.5 3.8
v 0.2 1.6 4.2
v 0.2 1.6 4.1
v 0.2 1.6 3.9
v 0.2 1.6 3.8
v 0.5 1.5 4.1
v 0.5 1.5 3.9
v 0.5 1.6 4.1
v 0.5 1.6 3.9
v 0.7 1.5 4.3
v 0.7 1.5 3.7
v 0.7 1.6 4.3
v 0.7 1.6 3.7
v 0.8 0 4.4
v 0.8 0 4.3
v 0.8 0 4
v 0.8 0 3.6
v 0.8 0.1 4
v 0.8 0.1 3.9
v 0.8 0.2 4.3
v 0.8 0.2 4.2
v 0.8 0.3 3.9
v 0.8 0.3 3.8
v 0.8 0.4 4.2
v 0.8 0.4 4.1
v 0.8 0.5 3.8
v 0.8 0.5 3.7
v 0.8 0.6 4.1
v 0.8 0.6 4
v 0.8 0.7 3.7
v 0.8 0.7 3.6
v 0.8 0.8 4
v 0.8 0.8 3.9
v 0.8 1 3.9
v 0.8 1 3.8
v 0.8 1.2 3.8
v 0.8 1.2 3.7
v 0.8 1.4 3.7
v 0.8 1.4 3.6
v 0.8 1.5 4.4
v 0.8 1.5 3.6
v 0 0 4.4
v 0 0.7 4.4
v 0 1.4 4.4
v 0 1.5 4.4
v 0.1 0.5 4.4
v 0.1 0.7 4.4
v 0.1 1.2 4.4
v 0.1 1.4 4.4
v 0.2 0.3 4.4
v 0.2 0.5 4.4
v 0.2 1 4.4
v 0.2 1.2 4.4
v 0.3 0.1 4.4
v 0.3 0.3 4.4
v 0.3 0.8 4.4
v 0.3 1 4.4
v 0.4 0 4.4
v 0.4 0.1 4.4
v 0.4 0.6 4.4
v 0.4 0.8 4.4
v 0.5 0.4 4.4
v 0.5 0.6 4.4
v 0.6 0.2 4.4
v 0.6 0.4 4.4
v 0.7 0 4.4
v 0.7 0.2 4.4
v 0.8 0 4.4
v 0.8 1.5 4.4
v 0.1 1.5 4.3
v 0.1 1.6 4.3
v 0.7 1.5 4.3
v 0.7 1.6 4.3
v 0.2 1.5 4.1
v 0.2 1.6 4.1
v 0.5 1.5 4.1
v 0.5 1.6 4.1
v 0.2 1.5 3.8
v 0.2 1.6 3.8
v 0.6 1.5 3.8
v 0.6 1.6 3.8
v 0.1 0 3.7
v 0.1 0.1 3.7
v 0.4 0 3.7
v 0.4 0.1 3.7
v 0.7 0 3.7
v 0.7 0.1 3.7
v 0.1 0 4.3
v 0.1 0.1 4.3
v 0.4 0 4.3
v 0.4 0.1 4.3
v 0.7 0 4.3
v 0.7 0.1 4.3
v 0.2 1.5 4.2
v 0.2 1.6 4.2
v 0.6 1.5 4.2
v 0.6 1.6 4.2
v 0.2 1.5 3.9
v 0.2 1.6 3.9
v 0.5 1.5 3.9
v 0.5 1.6 3.9
v 0.1 1.5 3.7
v 0.1 1.6 3.7
v 0.7 1.5 3.7
v 0.7 1.6 3.7
v 0 0 3.6
v 0 1.5 3.6
v 0.1 0 3.6
v 0.1 0.2 3.6
v 0.2 0.2 3.6
v 0.2 0.4 3.6
v 0.3 0.4 3.6
v 0.3 0.6 3.6
v 0.4 0 3.6
v 0.4 0.1 3.6
v 0.4 0.6 3.6
v 0.4 0.8 3.6
v 0.5 0.1 3.6
v 0.5 0.3 3.6
v 0.5 0.8 3.6
v 0.5 1 3.6
v 0.6 0.3 3.6
v 0.6 0.5 3.6
v 0.6 1 3.6
v 0.6 1.2 3.6
v 0.7 0.5 3.6
v 0.7 0.7 3.6
v 0.7 1.2 3.6
v 0.7 1.4 3.6
v 0.8 0 3.6
v 0.8 0.7 3.6
v 0.8 1.4 3.6
v 0.8 1.5 3.6
v 0 0 4.4
v 0.4 0 4.4
v 0.7 0 4.4
v 0.8 0 4.4
v 0.1 0 4.3
v 0.4 0 4.3
v 0.7 0 4.3
v 0.8 0 4.3
v 0 0 4
v 0.1 0 4
v 0.7 0 4
v 0.8 0 4
v 0 0 3.7
v 0.1 0 3.7
v 0.4 0 3.7
v 0.7 0 3.7
v 0 0 3.6
v 0.1 0 3.6
v 0.4 0 3.6
v 0.8 0 3.6
v 0.1 0.1 4.3
v 0.4 0.1 4.3
v 0.7 0.1 4.3
v 0.1 0.1 4
v 0.7 0.1 4
v 0.1 0.1 3.7
v 0.4 0.1 3.7
v 0.7 0.1 3.7
v 0 1.5 4.4
v 0.8 1.5 4.4
v 0.1 1.5 4.3
v 0.7 1.5 4.3
v 0.2 1.5 4.2
v 0.6 1.5 4.2
v 0.2 1.5 4.1
v 0.5 1.5 4.1
v 0.2 1.5 3.9
v 0.5 1.5 3.9
v 0.2 1.5 3.8
v 0.6 1.5 3.8
v 0.1 1.5 3.7
v 0.7 1.5 3.7
v 0 1.5 3.6
v 0.8 1.5 3.6
v 0.1 1.6 4.3
v 0.7 1.6 4.3
v 0.2 1.6 4.2
v 0.6 1.6 4.2
v 0.2 1.6 4.1
v 0.5 1.6 4.1
v 0.2 1.6 3.9
v 0.5 1.6 3.9
v 0.2 1.6 3.8
v 0.6 1.6 3.8
v 0.1 1.6 3.7
v 0.7 1.6 3.7

# faces
f 5/1/1 2/1/1 1/1/1
f 6/2/1 3/2/1 2/2/1
f 6/1/1 2/1/1 5/1/1
f 7/2/1 6/2/1 5/2/1
f 7/2/1 3/2/1 6/2/1
f 8/1/1 4/1/1 3/1/1
f 8/2/1 3/2/1 7/2/1
f 9/1/1 5/1/1 1/1/1
f 10/2/1 7/2/1 5/2/1
f 10/1/1 5/1/1 9/1/1
f 11/2/1 10/2/1 9/2/1
f 11/2/1 7/2/1 10/2/1
f 12/1/1 8/1/1 7/1/1
f 12/2/1 7/2/1 11/2/1
f 13/1/1 9/1/1 1/1/1
f 14/2/1 11/2/1 9/2/1
f 14/1/1 9/1/1 13/1/1
f 15/2/1 14/2/1 13/2/1
f 15/2/1 11/2/1 14/2/1
f 16/1/1 12/1/1 11/1/1
f 16/2/1 11/2/1 15/2/1
f 17/1/1 13/1/1 1/1/1
f 18/2/1 15/2/1 13/2/1
f 18/1/1 13/1/1 17/1/1
f 19/2/1 18/2/1 17/2/1
f 19/2/1 15/2/1 18/2/1
f 20/1/1 16/1/1 15/1/1
f 20/2/1 15/2/1 19/2/1
f 21/2/1 19/2/1 17/2/1
f 22/1/1 20/1/1 19/1/1
f 22/2/1 19/2/1 21/2/1
f 23/2/1 21/2/1 17/2/1
f 24/1/1 22/1/1 21/1/1
f 24/2/1 21/2/1 23/2/1
f 25/2/1 23/2/1 17/2/1
f 26/1/1 24/1/1 23/1/1
f 26/2/1 23/2/1 25/2/1
f 27/1/1 26/1/1 25/1/1
f 28/1/1 8/1/1 12/1/1
f 28/1/1 26/1/1 27/1/1
f 28/1/1 4/1/1 8/1/1
f 28/1/1 24/1/1 26/1/1
f 28/1/1 12/1/1 16/1/1
f 28/1/1 22/1/1 24/1/1
f 28/1/1 20/1/1 22/1/1
f 28/1/1 16/1/1 20/1/1
f 31/2/1 30/2/1 29/2/1
f 32/2/1 30/2/1 31/2/1
f 35/2/1 34/2/1 33/2/1
f 36/2/1 34/2/1 35/2/1
f 40/2/1 38/2/1 37/2/1
f 41/1/1 39/1/1 38/1/1
f 41/2/1 38/2/1 40/2/1
f 42/1/1 39/1/1 41/1/1
f 43/1/2 44/1/2 46/1/2
f 44/2/2 45/2/2 47/2/2
f 46/1/2 44/1/2 47/1/2
f 47/2/2 45/2/2 48/2/2
f 49/2/2 50/2/2 53/2/2
f 53/2/2 50/2/2 54/2/2
f 51/2/2 52/2/2 55/2/2
f 55/2/2 52/2/2 56/2/2
f 57/2/2 58/2/2 59/2/2
f 59/2/2 58/2/2 60/2/2
f 61/2/2 62/2/2 63/2/2
f 63/2/2 62/2/2 64/2/2
f 66/2/2 67/2/2 69/2/2
f 67/1/2 68/1/2 69/1/2
f 69/1/2 68/1/2 70/1/2
f 65/1/2 66/1/2 71/1/2
f 66/2/2 69/2/2 71/2/2
f 69/2/2 70/2/2 71/2/2
f 71/2/2 70/2/2 72/2/2
f 70/1/2 68/1/2 73/1/2
f 72/2/2 70/2/2 73/2/2
f 73/1/2 68/1/2 74/1/2
f 71/1/2 72/1/2 75/1/2
f 72/2/2 73/2/2 75/2/2
f 73/2/2 74/2/2 75/2/2
f 75/2/2 74/2/2 76/2/2
f 74/1/2 68/1/2 77/1/2
f 76/2/2 74/2/2 77/2/2
f 77/1/2 68/1/2 78/1/2
f 75/1/2 76/1/2 79/1/2
f 76/2/2 77/2/2 79/2/2
f 77/2/2 78/2/2 79/2/2
f 79/2/2 78/2/2 80/2/2
f 78/1/2 68/1/2 81/1/2
f 80/2/2 78/2/2 81/2/2
f 81/1/2 68/1/2 82/1/2
f 79/1/2 80/1/2 83/1/2
f 80/2/2 81/2/2 83/2/2
f 81/2/2 82/2/2 83/2/2
f 83/2/2 82/2/2 84/2/2
f 83/1/2 84/1/2 85/1/2
f 84/2/2 82/2/2 85/2/2
f 85/2/2 82/2/2 86/2/2
f 85/1/2 86/1/2 87/1/2
f 86/2/2 82/2/2 87/2/2
f 87/2/2 82/2/2 88/2/2
f 87/1/2 88/1/2 89/1/2
f 88/2/2 82/2/2 89/2/2
f 89/2/2 82/2/2 90/2/2
f 65/1/2 71/1/2 91/1/2
f 71/1/2 75/1/2 91/1/2
f 89/1/2 90/1/2 91/1/2
f 87/1/2 89/1/2 91/1/2
f 85/1/2 87/1/2 91/1/2
f 83/1/2 85/1/2 91/1/2
f 79/1/2 83/1/2 91/1/2
f 75/1/2 79/1/2 91/1/2
f 91/1/2 90/1/2 92/1/2
f 97/1/3 94/1/3 93/1/3
f 98/2/3 95/2/3 94/2/3
f 98/1/3 94/1/3 97/1/3
f 99/2/3 95/2/3 98/2/3
f 100/1/3 96/1/3 95/1/3
f 100/2/3 95/2/3 99/2/3
f 101/1/3 97/1/3 93/1/3
f 102/2/3 99/2/3 98/2/3
f 102/1/3 97/1/3 101/1/3
f 102/2/3 98/2/3 97/2/3
f 103/2/3 99/2/3 102/2/3
f 104/1/3 100/1/3 99/1/3
f 104/2/3 99/2/3 103/2/3
f 105/1/3 101/1/3 93/1/3
f 106/2/3 103/2/3 102/2/3
f 106/1/3 101/1/3 105/1/3
f 106/2/3 102/2/3 101/2/3
f 107/2/3 103/2/3 106/2/3
f 108/1/3 104/1/3 103/1/3
f 108/2/3 103/2/3 107/2/3
f 109/1/3 105/1/3 93/1/3
f 110/2/3 107/2/3 106/2/3
f 110/1/3 105/1/3 109/1/3
f 110/2/3 106/2/3 105/2/3
f 111/2/3 107/2/3 110/2/3
f 112/1/3 108/1/3 107/1/3
f 112/2/3 107/2/3 111/2/3
f 113/2/3 111/2/3 110/2/3
f 113/2/3 110/2/3 109/2/3
f 114/1/3 112/1/3 111/1/3
f 114/2/3 111/2/3 113/2/3
f 115/2/3 113/2/3 109/2/3
f 116/1/3 114/1/3 113/1/3
f 116/2/3 113/2/3 115/2/3
f 117/2/3 115/2/3 109/2/3
f 118/1/3 116/1/3 115/1/3
f 118/2/3 115/2/3 117/2/3
f 119/1/3 118/1/3 117/1/3
f 120/1/3 100/1/3 104/1/3
f 120/1/3 118/1/3 119/1/3
f 120/1/3 96/1/3 100/1/3
f 120/1/3 116/1/3 118/1/3
f 120/1/3 104/1/3 108/1/3
f 120/1/3 114/1/3 116/1/3
f 120/1/3 112/1/3 114/1/3
f 120/1/3 108/1/3 112/1/3
f 123/2/3 122/2/3 121/2/3
f 124/2/3 122/2/3 123/2/3
f 127/2/3 126/2/3 125/2/3
f 128/2/3 126/2/3 127/2/3
f 131/2/3 130/2/3 129/2/3
f 132/2/3 130/2/3 131/2/3
f 135/2/3 134/2/3 133/2/3
f 136/2/3 134/2/3 135/2/3
f 137/1/3 136/1/3 135/1/3
f 138/1/3 136/1/3 137/1/3
f 139/1/4 140/1/4 141/1/4
f 141/1/4 140/1/4 142/1/4
f 141/2/4 142/2/4 143/2/4
f 143/2/4 142/2/4 144/2/4
f 145/2/4 146/2/4 147/2/4
f 147/2/4 146/2/4 148/2/4
f 149/2/4 150/2/4 151/2/4
f 151/2/4 150/2/4 152/2/4
f 153/2/4 154/2/4 155/2/4
f 155/2/4 154/2/4 156/2/4
f 157/1/4 158/1/4 159/1/4
f 159/1/4 158/1/4 160/1/4
f 159/2/4 160/2/4 161/2/4
f 160/1/4 158/1/4 161/1/4
f 161/1/4 158/1/4 162/1/4
f 161/2/4 162/2/4 163/2/4
f 162/1/4 158/1/4 163/1/4
f 163/1/4 158/1/4 164/1/4
f 159/2/4 161/2/4 165/2/4
f 161/2/4 163/2/4 165/2/4
f 163/2/4 164/2/4 165/2/4
f 165/2/4 164/2/4 166/2/4
f 164/1/4 158/1/4 167/1/4
f 166/2/4 164/2/4 167/2/4
f 167/1/4 158/1/4 168/1/4
f 165/1/4 166/1/4 169/1/4
f 166/2/4 167/2/4 169/2/4
f 167/2/4 168/2/4 169/2/4
f 169/2/4 168/2/4 170/2/4
f 168/1/4 158/1/4 171/1/4
f 170/2/4 168/2/4 171/2/4
f 171/1/4 158/1/4 172/1/4
f 169/1/4 170/1/4 173/1/4
f 170/2/4 171/2/4 173/2/4
f 171/2/4 172/2/4 173/2/4
f 173/2/4 172/2/4 174/2/4
f 172/1/4 158/1/4 175/1/4
f 174/2/4 172/2/4 175/2/4
f 175/1/4 158/1/4 176/1/4
f 173/1/4 174/1/4 177/1/4
f 174/2/4 175/2/4 177/2/4
f 175/2/4 176/2/4 177/2/4
f 177/2/4 176/2/4 178/2/4
f 176/1/4 158/1/4 179/1/4
f 178/2/4 176/2/4 179/2/4
f 179/1/4 158/1/4 180/1/4
f 177/1/4 178/1/4 181/1/4
f 165/1/4 169/1/4 181/1/4
f 169/1/4 173/1/4 181/1/4
f 173/1/4 177/1/4 181/1/4
f 179/2/4 180/2/4 182/2/4
f 181/1/4 178/1/4 182/1/4
f 178/2/4 179/2/4 182/2/4
f 180/1/4 158/1/4 183/1/4
f 182/2/4 180/2/4 183/2/4
f 183/1/4 158/1/4 184/1/4
f 189/1/5 186/1/5 185/1/5
f 190/2/5 187/2/5 186/2/5
f 190/1/5 186/1/5 189/1/5
f 191/1/5 188/1/5 187/1/5
f 191/2/5 187/2/5 190/2/5
f 192/1/5 188/1/5 191/1/5
f 193/1/5 189/1/5 185/1/5
f 194/1/5 189/1/5 193/1/5
f 195/2/5 192/2/5 191/2/5
f 196/2/5 192/2/5 195/2/5
f 197/2/5 194/2/5 193/2/5
f 198/2/5 194/2/5 197/2/5
f 200/1/5 196/1/5 195/1/5
f 201/1/5 198/1/5 197/1/5
f 202/2/5 199/2/5 198/2/5
f 202/1/5 198/1/5 201/1/5
f 203/1/5 200/1/5 199/1/5
f 203/2/5 199/2/5 202/2/5
f 204/1/5 196/1/5 200/1/5
f 204/1/5 200/1/5 203/1/5
f 208/2/5 206/2/5 205/2/5
f 208/2/5 207/2/5 206/2/5
f 209/2/5 207/2/5 208/2/5
f 210/2/5 209/2/5 208/2/5
f 211/2/5 209/2/5 210/2/5
f 212/2/5 209/2/5 211/2/5
f 213/1/6 214/1/6 215/1/6
f 215/1/6 214/1/6 216/1/6
f 217/2/6 218/2/6 219/2/6
f 219/2/6 218/2/6 220/2/6
f 220/2/6 218/2/6 222/2/6
f 221/2/6 222/2/6 223/2/6
f 222/2/6 218/2/6 224/2/6
f 223/2/6 222/2/6 224/2/6
f 213/1/6 215/1/6 225/1/6
f 216/1/6 214/1/6 226/1/6
f 213/1/6 225/1/6 227/1/6
f 225/1/6 226/1/6 227/1/6
f 226/1/6 214/1/6 228/1/6
f 227/1/6 226/1/6 228/1/6
f 229/2/6 230/2/6 231/2/6
f 231/2/6 230/2/6 232/2/6
f 229/2/6 231/2/6 233/2/6
f 229/2/6 233/2/6 235/2/6
f 233/2/6 234/2/6 235/2/6
f 235/2/6 234/2/6 236/2/6
f 229/2/6 235/2/6 237/2/6
f 232/2/6 230/2/6 238/2/6
f 229/2/6 237/2/6 239/2/6
f 237/2/6 238/2/6 239/2/6
f 238/2/6 230/2/6 240/2/6
f 239/2/6 238/2/6 240/2/6
