# MagicaVoxel @ Ephtracy

# group
o 

# material
mtllib Voxel Universe Objects-27.mtl
usemtl palette

# normals
vn -1 0 0
vn 1 0 0
vn 0 0 1
vn 0 0 -1
vn 0 -1 0
vn 0 1 0

# texcoords
vt 0.107422 0.5
vt 0.490234 0.5
vt 0.677734 0.5
vt 0.966797 0.5
vt 0.974609 0.5
vt 0.982422 0.5
vt 0.986328 0.5
vt 0.990234 0.5

# verts
v -12.7 0 -3.7
v -12.7 0 -4
v -12.7 1.1 -3.8
v -12.7 1.1 -3.9
v -12.7 1.3 -3.8
v -12.7 1.3 -3.9
v -12.7 1.6 -3.7
v -12.7 1.6 -4
v -12.6 0.4 -3.6
v -12.6 0.4 -3.7
v -12.6 0.5 -3.6
v -12.6 0.5 -3.7
v -12.5 0.3 -3.6
v -12.5 0.3 -3.7
v -12.5 0.4 -3.6
v -12.5 0.4 -3.7
v -12.5 0.5 -3.6
v -12.5 0.5 -3.7
v -12.5 0.6 -3.6
v -12.5 0.6 -3.7
v -12.3 0.1 -3.6
v -12.3 0.1 -3.7
v -12.3 0.2 -3.6
v -12.3 0.2 -3.7
v -12 0.3 -3.6
v -12 0.3 -3.7
v -12 0.5 -3.6
v -12 0.5 -3.7
v -11.9 1.6 -3.8
v -11.9 1.6 -3.9
v -11.9 1.7 -3.8
v -11.9 1.7 -3.9
v -12.4 0.3 -3.6
v -12.4 0.3 -3.7
v -12.4 0.4 -3.6
v -12.4 0.4 -3.7
v -12.4 0.5 -3.6
v -12.4 0.5 -3.7
v -12.4 0.6 -3.6
v -12.4 0.6 -3.7
v -12.3 0.4 -3.6
v -12.3 0.4 -3.7
v -12.3 0.5 -3.6
v -12.3 0.5 -3.7
v -12.1 0.1 -3.6
v -12.1 0.1 -3.7
v -12.1 0.2 -3.6
v -12.1 0.2 -3.7
v -11.8 0.3 -3.6
v -11.8 0.3 -3.7
v -11.8 0.5 -3.6
v -11.8 0.5 -3.7
v -11.7 0 -3.7
v -11.7 0 -4
v -11.7 0.1 -3.7
v -11.7 0.1 -4
v -11.7 1.6 -3.8
v -11.7 1.6 -3.9
v -11.7 1.7 -3.8
v -11.7 1.7 -3.9
v -11.6 0.1 -3.7
v -11.6 0.1 -4
v -11.6 1.1 -3.8
v -11.6 1.1 -3.9
v -11.6 1.3 -3.8
v -11.6 1.3 -3.9
v -11.6 1.6 -3.7
v -11.6 1.6 -4
v -12.6 0.4 -3.6
v -12.6 0.5 -3.6
v -12.5 0.3 -3.6
v -12.5 0.4 -3.6
v -12.5 0.5 -3.6
v -12.5 0.6 -3.6
v -12.4 0.3 -3.6
v -12.4 0.4 -3.6
v -12.4 0.5 -3.6
v -12.4 0.6 -3.6
v -12.3 0.1 -3.6
v -12.3 0.2 -3.6
v -12.3 0.4 -3.6
v -12.3 0.5 -3.6
v -12.1 0.1 -3.6
v -12.1 0.2 -3.6
v -12 0.3 -3.6
v -12 0.5 -3.6
v -11.8 0.3 -3.6
v -11.8 0.5 -3.6
v -12.7 0 -3.7
v -12.7 1.6 -3.7
v -12.6 0.4 -3.7
v -12.6 0.5 -3.7
v -12.6 0.7 -3.7
v -12.6 1.1 -3.7
v -12.6 1.2 -3.7
v -12.6 1.5 -3.7
v -12.5 0.3 -3.7
v -12.5 0.4 -3.7
v -12.5 0.5 -3.7
v -12.5 0.6 -3.7
v -12.5 0.8 -3.7
v -12.5 1 -3.7
v -12.5 1.1 -3.7
v -12.5 1.2 -3.7
v -12.5 1.4 -3.7
v -12.4 0.3 -3.7
v -12.4 0.4 -3.7
v -12.4 0.5 -3.7
v -12.4 0.6 -3.7
v -12.4 0.9 -3.7
v -12.4 1 -3.7
v -12.4 1.1 -3.7
v -12.3 0.1 -3.7
v -12.3 0.2 -3.7
v -12.3 0.4 -3.7
v -12.3 0.5 -3.7
v -12.3 1.1 -3.7
v -12.3 1.3 -3.7
v -12.2 1.1 -3.7
v -12.2 1.3 -3.7
v -12.1 0.1 -3.7
v -12.1 0.2 -3.7
v -12.1 1.1 -3.7
v -12.1 1.3 -3.7
v -12 0.3 -3.7
v -12 0.5 -3.7
v -12 1.1 -3.7
v -12 1.3 -3.7
v -11.9 0.1 -3.7
v -11.9 0.2 -3.7
v -11.9 0.9 -3.7
v -11.9 1 -3.7
v -11.9 1.1 -3.7
v -11.8 0.1 -3.7
v -11.8 0.2 -3.7
v -11.8 0.3 -3.7
v -11.8 0.5 -3.7
v -11.8 0.8 -3.7
v -11.8 1 -3.7
v -11.8 1.1 -3.7
v -11.8 1.4 -3.7
v -11.7 0 -3.7
v -11.7 0.1 -3.7
v -11.7 0.2 -3.7
v -11.7 0.3 -3.7
v -11.7 0.7 -3.7
v -11.7 1.5 -3.7
v -11.6 0.1 -3.7
v -11.6 1.6 -3.7
v -11.9 1.6 -3.8
v -11.9 1.7 -3.8
v -11.7 1.6 -3.8
v -11.7 1.7 -3.8
v -11.9 1.6 -3.9
v -11.9 1.7 -3.9
v -11.8 1.6 -3.9
v -11.7 1.6 -3.9
v -11.7 1.7 -3.9
v -12.7 0 -4
v -12.7 1.6 -4
v -12.6 0.2 -4
v -12.6 0.3 -4
v -12.6 0.4 -4
v -12.6 0.5 -4
v -12.6 0.6 -4
v -12.6 0.7 -4
v -12.6 1 -4
v -12.6 1.6 -4
v -12.5 1.1 -4
v -12.5 1.6 -4
v -11.8 1.1 -4
v -11.8 1.6 -4
v -11.7 0 -4
v -11.7 0.1 -4
v -11.7 0.2 -4
v -11.7 0.3 -4
v -11.7 0.4 -4
v -11.7 0.5 -4
v -11.7 0.6 -4
v -11.7 0.7 -4
v -11.7 1 -4
v -11.7 1.6 -4
v -11.6 0.1 -4
v -11.6 1.6 -4
v -12.7 0 -3.7
v -11.7 0 -3.7
v -12.7 0 -4
v -11.7 0 -4
v -12.3 0.1 -3.6
v -12.1 0.1 -3.6
v -12.3 0.1 -3.7
v -12.1 0.1 -3.7
v -11.7 0.1 -3.7
v -11.6 0.1 -3.7
v -11.7 0.1 -4
v -11.6 0.1 -4
v -12.5 0.3 -3.6
v -12.4 0.3 -3.6
v -12 0.3 -3.6
v -11.8 0.3 -3.6
v -12.5 0.3 -3.7
v -12.4 0.3 -3.7
v -12 0.3 -3.7
v -11.8 0.3 -3.7
v -12.6 0.4 -3.6
v -12.5 0.4 -3.6
v -12.4 0.4 -3.6
v -12.3 0.4 -3.6
v -12.6 0.4 -3.7
v -12.5 0.4 -3.7
v -12.4 0.4 -3.7
v -12.3 0.4 -3.7
v -12.3 0.2 -3.6
v -12.1 0.2 -3.6
v -12.3 0.2 -3.7
v -12.1 0.2 -3.7
v -12.6 0.5 -3.6
v -12.5 0.5 -3.6
v -12.4 0.5 -3.6
v -12.3 0.5 -3.6
v -12 0.5 -3.6
v -11.8 0.5 -3.6
v -12.6 0.5 -3.7
v -12.5 0.5 -3.7
v -12.4 0.5 -3.7
v -12.3 0.5 -3.7
v -12 0.5 -3.7
v -11.8 0.5 -3.7
v -12.5 0.6 -3.6
v -12.4 0.6 -3.6
v -12.5 0.6 -3.7
v -12.4 0.6 -3.7
v -12.7 1.6 -3.7
v -11.6 1.6 -3.7
v -12.6 1.6 -3.8
v -11.9 1.6 -3.8
v -11.7 1.6 -3.8
v -12.5 1.6 -3.9
v -11.9 1.6 -3.9
v -11.8 1.6 -3.9
v -11.7 1.6 -3.9
v -12.7 1.6 -4
v -12.6 1.6 -4
v -12.5 1.6 -4
v -11.8 1.6 -4
v -11.7 1.6 -4
v -11.6 1.6 -4
v -11.9 1.7 -3.8
v -11.7 1.7 -3.8
v -11.9 1.7 -3.9
v -11.7 1.7 -3.9

# faces
f 3/4/1 2/4/1 1/4/1
f 4/4/1 2/4/1 3/4/1
f 5/4/1 3/4/1 1/4/1
f 5/8/1 4/8/1 3/8/1
f 6/4/1 2/4/1 4/4/1
f 6/8/1 4/8/1 5/8/1
f 7/4/1 5/4/1 1/4/1
f 7/4/1 6/4/1 5/4/1
f 8/4/1 2/4/1 6/4/1
f 8/4/1 6/4/1 7/4/1
f 11/8/1 10/8/1 9/8/1
f 12/8/1 10/8/1 11/8/1
f 15/8/1 14/8/1 13/8/1
f 16/8/1 14/8/1 15/8/1
f 19/8/1 18/8/1 17/8/1
f 20/8/1 18/8/1 19/8/1
f 23/6/1 22/6/1 21/6/1
f 24/6/1 22/6/1 23/6/1
f 27/1/1 26/1/1 25/1/1
f 28/1/1 26/1/1 27/1/1
f 31/7/1 30/7/1 29/7/1
f 32/7/1 30/7/1 31/7/1
f 33/8/2 34/8/2 35/8/2
f 35/8/2 34/8/2 36/8/2
f 37/8/2 38/8/2 39/8/2
f 39/8/2 38/8/2 40/8/2
f 41/8/2 42/8/2 43/8/2
f 43/8/2 42/8/2 44/8/2
f 45/6/2 46/6/2 47/6/2
f 47/6/2 46/6/2 48/6/2
f 49/1/2 50/1/2 51/1/2
f 51/1/2 50/1/2 52/1/2
f 53/4/2 54/4/2 55/4/2
f 55/4/2 54/4/2 56/4/2
f 57/7/2 58/7/2 59/7/2
f 59/7/2 58/7/2 60/7/2
f 61/4/2 62/4/2 63/4/2
f 63/4/2 62/4/2 64/4/2
f 61/4/2 63/4/2 65/4/2
f 63/5/2 64/5/2 65/5/2
f 64/4/2 62/4/2 66/4/2
f 65/5/2 64/5/2 66/5/2
f 61/4/2 65/4/2 67/4/2
f 65/4/2 66/4/2 67/4/2
f 66/4/2 62/4/2 68/4/2
f 67/4/2 66/4/2 68/4/2
f 72/8/3 70/8/3 69/8/3
f 73/8/3 70/8/3 72/8/3
f 75/8/3 72/8/3 71/8/3
f 75/8/3 74/8/3 73/8/3
f 75/8/3 73/8/3 72/8/3
f 76/8/3 74/8/3 75/8/3
f 77/8/3 74/8/3 76/8/3
f 78/8/3 74/8/3 77/8/3
f 81/8/3 77/8/3 76/8/3
f 82/8/3 77/8/3 81/8/3
f 83/6/3 80/6/3 79/6/3
f 84/6/3 80/6/3 83/6/3
f 87/1/3 86/1/3 85/1/3
f 88/1/3 86/1/3 87/1/3
f 91/4/3 90/4/3 89/4/3
f 92/4/3 90/4/3 91/4/3
f 93/4/3 90/4/3 92/4/3
f 94/4/3 90/4/3 93/4/3
f 95/4/3 90/4/3 94/4/3
f 96/4/3 90/4/3 95/4/3
f 97/4/3 91/4/3 89/4/3
f 98/4/3 91/4/3 97/4/3
f 99/4/3 93/4/3 92/4/3
f 100/4/3 93/4/3 99/4/3
f 101/5/3 94/5/3 93/5/3
f 102/5/3 94/5/3 101/5/3
f 103/1/3 95/1/3 94/1/3
f 103/5/3 94/5/3 102/5/3
f 104/5/3 96/5/3 95/5/3
f 104/1/3 95/1/3 103/1/3
f 105/5/3 96/5/3 104/5/3
f 106/4/3 97/4/3 89/4/3
f 109/4/3 93/4/3 100/4/3
f 110/2/3 102/2/3 101/2/3
f 111/3/3 103/3/3 102/3/3
f 111/2/3 102/2/3 110/2/3
f 112/2/3 105/2/3 104/2/3
f 112/3/3 103/3/3 111/3/3
f 112/2/3 104/2/3 103/2/3
f 113/4/3 107/4/3 106/4/3
f 113/4/3 106/4/3 89/4/3
f 114/4/3 107/4/3 113/4/3
f 115/4/3 107/4/3 114/4/3
f 116/4/3 109/4/3 108/4/3
f 117/2/3 105/2/3 112/2/3
f 117/2/3 112/2/3 111/2/3
f 118/2/3 105/2/3 117/2/3
f 119/2/3 117/2/3 111/2/3
f 119/3/3 118/3/3 117/3/3
f 120/2/3 105/2/3 118/2/3
f 120/3/3 118/3/3 119/3/3
f 121/4/3 113/4/3 89/4/3
f 122/4/3 116/4/3 115/4/3
f 122/4/3 115/4/3 114/4/3
f 123/2/3 120/2/3 119/2/3
f 123/2/3 119/2/3 111/2/3
f 124/2/3 105/2/3 120/2/3
f 124/2/3 120/2/3 123/2/3
f 125/4/3 122/4/3 121/4/3
f 125/4/3 116/4/3 122/4/3
f 126/4/3 109/4/3 116/4/3
f 126/4/3 116/4/3 125/4/3
f 127/2/3 123/2/3 111/2/3
f 127/3/3 124/3/3 123/3/3
f 128/2/3 105/2/3 124/2/3
f 128/3/3 124/3/3 127/3/3
f 129/4/3 121/4/3 89/4/3
f 129/4/3 125/4/3 121/4/3
f 130/4/3 125/4/3 129/4/3
f 131/2/3 110/2/3 101/2/3
f 131/3/3 111/3/3 110/3/3
f 132/2/3 127/2/3 111/2/3
f 132/3/3 111/3/3 131/3/3
f 132/2/3 128/2/3 127/2/3
f 133/2/3 128/2/3 132/2/3
f 134/5/3 130/5/3 129/5/3
f 134/4/3 129/4/3 89/4/3
f 135/4/3 125/4/3 130/4/3
f 135/5/3 130/5/3 134/5/3
f 136/4/3 125/4/3 135/4/3
f 137/4/3 109/4/3 126/4/3
f 138/2/3 131/2/3 101/2/3
f 138/5/3 101/5/3 93/5/3
f 138/2/3 132/2/3 131/2/3
f 139/3/3 133/3/3 132/3/3
f 139/2/3 132/2/3 138/2/3
f 140/2/3 128/2/3 133/2/3
f 140/3/3 133/3/3 139/3/3
f 141/5/3 96/5/3 105/5/3
f 141/2/3 128/2/3 140/2/3
f 141/2/3 105/2/3 128/2/3
f 142/4/3 134/4/3 89/4/3
f 142/4/3 135/4/3 134/4/3
f 143/4/3 135/4/3 142/4/3
f 144/5/3 136/5/3 135/5/3
f 144/4/3 135/4/3 143/4/3
f 145/4/3 137/4/3 136/4/3
f 145/5/3 136/5/3 144/5/3
f 146/5/3 140/5/3 139/5/3
f 146/4/3 137/4/3 145/4/3
f 146/5/3 141/5/3 140/5/3
f 146/5/3 139/5/3 138/5/3
f 146/4/3 93/4/3 109/4/3
f 146/4/3 109/4/3 137/4/3
f 146/5/3 138/5/3 93/5/3
f 147/4/3 90/4/3 96/4/3
f 147/5/3 141/5/3 146/5/3
f 147/5/3 96/5/3 141/5/3
f 148/4/3 146/4/3 145/4/3
f 148/4/3 145/4/3 144/4/3
f 148/4/3 147/4/3 146/4/3
f 148/4/3 144/4/3 143/4/3
f 149/4/3 90/4/3 147/4/3
f 149/4/3 147/4/3 148/4/3
f 152/7/3 151/7/3 150/7/3
f 153/7/3 151/7/3 152/7/3
f 154/7/4 155/7/4 156/7/4
f 156/7/4 155/7/4 157/7/4
f 157/7/4 155/7/4 158/7/4
f 159/4/4 160/4/4 161/4/4
f 161/4/4 160/4/4 162/4/4
f 162/4/4 160/4/4 163/4/4
f 163/4/4 160/4/4 164/4/4
f 164/4/4 160/4/4 165/4/4
f 165/4/4 160/4/4 166/4/4
f 166/4/4 160/4/4 167/4/4
f 167/4/4 160/4/4 168/4/4
f 167/5/4 168/5/4 169/5/4
f 169/5/4 168/5/4 170/5/4
f 167/5/4 169/5/4 171/5/4
f 169/4/4 170/4/4 171/4/4
f 171/4/4 170/4/4 172/4/4
f 159/4/4 161/4/4 173/4/4
f 173/4/4 161/4/4 174/4/4
f 161/5/4 162/5/4 175/5/4
f 174/4/4 161/4/4 175/4/4
f 162/4/4 163/4/4 176/4/4
f 175/5/4 162/5/4 176/5/4
f 163/5/4 164/5/4 177/5/4
f 176/4/4 163/4/4 177/4/4
f 164/4/4 165/4/4 178/4/4
f 177/5/4 164/5/4 178/5/4
f 165/5/4 166/5/4 179/5/4
f 178/4/4 165/4/4 179/4/4
f 166/4/4 167/4/4 180/4/4
f 179/5/4 166/5/4 180/5/4
f 167/5/4 171/5/4 181/5/4
f 180/4/4 167/4/4 181/4/4
f 171/5/4 172/5/4 181/5/4
f 181/5/4 172/5/4 182/5/4
f 174/4/4 175/4/4 183/4/4
f 181/4/4 182/4/4 183/4/4
f 180/4/4 181/4/4 183/4/4
f 175/4/4 176/4/4 183/4/4
f 179/4/4 180/4/4 183/4/4
f 176/4/4 177/4/4 183/4/4
f 177/4/4 178/4/4 183/4/4
f 178/4/4 179/4/4 183/4/4
f 183/4/4 182/4/4 184/4/4
f 187/4/5 186/4/5 185/4/5
f 188/4/5 186/4/5 187/4/5
f 191/6/5 190/6/5 189/6/5
f 192/6/5 190/6/5 191/6/5
f 195/4/5 194/4/5 193/4/5
f 196/4/5 194/4/5 195/4/5
f 201/8/5 198/8/5 197/8/5
f 202/8/5 198/8/5 201/8/5
f 203/1/5 200/1/5 199/1/5
f 204/1/5 200/1/5 203/1/5
f 209/8/5 206/8/5 205/8/5
f 210/8/5 206/8/5 209/8/5
f 211/8/5 208/8/5 207/8/5
f 212/8/5 208/8/5 211/8/5
f 213/6/6 214/6/6 215/6/6
f 215/6/6 214/6/6 216/6/6
f 217/8/6 218/8/6 223/8/6
f 223/8/6 218/8/6 224/8/6
f 219/8/6 220/8/6 225/8/6
f 225/8/6 220/8/6 226/8/6
f 221/1/6 222/1/6 227/1/6
f 227/1/6 222/1/6 228/1/6
f 229/8/6 230/8/6 231/8/6
f 231/8/6 230/8/6 232/8/6
f 233/4/6 234/4/6 235/4/6
f 235/4/6 234/4/6 236/4/6
f 236/4/6 234/4/6 237/4/6
f 235/5/6 236/5/6 238/5/6
f 238/5/6 236/5/6 239/5/6
f 237/4/6 234/4/6 241/4/6
f 233/4/6 235/4/6 242/4/6
f 235/5/6 238/5/6 243/5/6
f 242/4/6 235/4/6 243/4/6
f 239/4/6 240/4/6 244/4/6
f 243/5/6 238/5/6 244/5/6
f 238/4/6 239/4/6 244/4/6
f 240/5/6 241/5/6 245/5/6
f 244/4/6 240/4/6 245/4/6
f 241/4/6 234/4/6 246/4/6
f 245/5/6 241/5/6 246/5/6
f 246/4/6 234/4/6 247/4/6
f 248/7/6 249/7/6 250/7/6
f 250/7/6 249/7/6 251/7/6
