# MagicaVoxel @ Ephtracy

# group
o Cap Black

# material
mtllib Voxel Universe-35-Cap Black.mtl
usemtl palette

# normals
vn -1 0 0
vn 1 0 0
vn 0 0 1
vn 0 0 -1
vn 0 -1 0
vn 0 1 0

# texcoords
vt 0.0449219 0.5
vt 0.232422 0.5
vt 0.958984 0.5
vt 0.986328 0.5
vt 0.990234 0.5

# verts
v -0.5 0.1 10.8
v -0.5 0.1 9.2
v -0.5 0.2 10.8
v -0.5 0.2 9.2
v 0.1 0.2 10.8
v 0.1 0.2 9.2
v 0.1 0.3 10.3
v 0.1 0.3 10.2
v 0.1 0.3 9.9
v 0.1 0.3 9.7
v 0.1 0.4 10.1
v 0.1 0.4 9.9
v 0.1 0.4 9.8
v 0.1 0.7 10.2
v 0.1 0.7 10.1
v 0.1 0.7 9.9
v 0.1 0.8 10.8
v 0.1 0.8 10.7
v 0.1 0.8 10.3
v 0.1 0.8 10.1
v 0.1 0.8 9.8
v 0.1 0.8 9.7
v 0.1 0.8 9.3
v 0.1 0.8 9.2
v 0.1 0.9 10.7
v 0.1 0.9 9.3
v 0.6 0.9 10.1
v 0.6 0.9 9.9
v 0.6 1 10.1
v 0.6 1 9.9
v 1.2 0.1 10.7
v 1.2 0.1 9.3
v 1.2 0.2 10.1
v 1.2 0.2 9.9
v 1.2 0.4 10.1
v 1.2 0.4 9.9
v 1.2 0.6 10.7
v 1.2 0.6 9.3
v 0.2 0.1 10.7
v 0.2 0.1 9.3
v 0.2 0.3 10.3
v 0.2 0.3 10.2
v 0.2 0.3 9.9
v 0.2 0.3 9.7
v 0.2 0.4 10.1
v 0.2 0.4 9.9
v 0.2 0.4 9.8
v 0.2 0.6 10.7
v 0.2 0.6 10.3
v 0.2 0.6 10.2
v 0.2 0.6 10.1
v 0.2 0.6 9.9
v 0.2 0.6 9.8
v 0.2 0.6 9.7
v 0.2 0.6 9.3
v 0.8 0.9 10.1
v 0.8 0.9 9.9
v 0.8 1 10.1
v 0.8 1 9.9
v 1.2 0.8 10.7
v 1.2 0.8 9.3
v 1.2 0.9 10.7
v 1.2 0.9 9.3
v 1.3 0.1 10.8
v 1.3 0.1 9.2
v 1.3 0.2 10.1
v 1.3 0.2 9.9
v 1.3 0.4 10.1
v 1.3 0.4 9.9
v 1.3 0.8 10.8
v 1.3 0.8 9.2
v -0.5 0.1 10.8
v -0.5 0.2 10.8
v 0.1 0.2 10.8
v 0.1 0.8 10.8
v 1.3 0.1 10.8
v 1.3 0.8 10.8
v 0.1 0.8 10.7
v 0.1 0.9 10.7
v 1.2 0.8 10.7
v 1.2 0.9 10.7
v 0.6 0.9 10.1
v 0.6 1 10.1
v 0.8 0.9 10.1
v 0.8 1 10.1
v 0.2 0.1 9.3
v 0.2 0.6 9.3
v 0.3 0.2 9.3
v 0.3 0.4 9.3
v 0.6 0.2 9.3
v 0.6 0.4 9.3
v 1.2 0.1 9.3
v 1.2 0.6 9.3
v 0.2 0.1 10.7
v 0.2 0.6 10.7
v 1.2 0.1 10.7
v 1.2 0.6 10.7
v 0.6 0.9 9.9
v 0.6 1 9.9
v 0.8 0.9 9.9
v 0.8 1 9.9
v 0.1 0.8 9.3
v 0.1 0.9 9.3
v 1.2 0.8 9.3
v 1.2 0.9 9.3
v -0.5 0.1 9.2
v -0.5 0.2 9.2
v 0.1 0.2 9.2
v 0.1 0.8 9.2
v 0.3 0.2 9.2
v 0.3 0.4 9.2
v 0.6 0.2 9.2
v 0.6 0.4 9.2
v 1.3 0.1 9.2
v 1.3 0.8 9.2
v -0.5 0.1 10.8
v 1.3 0.1 10.8
v 0.2 0.1 10.7
v 1.2 0.1 10.7
v -0.4 0.1 10.2
v -0.3 0.1 10.2
v -0.1 0.1 10.2
v 0 0.1 10.2
v -0.4 0.1 10.1
v -0.3 0.1 10.1
v -0.2 0.1 10.1
v -0.1 0.1 10.1
v 0 0.1 10.1
v -0.3 0.1 10
v -0.2 0.1 10
v -0.1 0.1 10
v -0.4 0.1 9.9
v -0.3 0.1 9.9
v -0.2 0.1 9.9
v -0.1 0.1 9.9
v 0 0.1 9.9
v -0.4 0.1 9.8
v -0.3 0.1 9.8
v -0.1 0.1 9.8
v 0 0.1 9.8
v 0.2 0.1 9.3
v 1.2 0.1 9.3
v -0.5 0.1 9.2
v 1.3 0.1 9.2
v 0.2 0.6 10.7
v 1.2 0.6 10.7
v 0.2 0.6 10.3
v 0.2 0.6 10.2
v 0.2 0.6 10.1
v 0.7 0.6 10.1
v 0.8 0.6 10.1
v 0.2 0.6 9.9
v 0.7 0.6 9.9
v 0.8 0.6 9.9
v 0.2 0.6 9.8
v 0.2 0.6 9.7
v 0.2 0.6 9.3
v 1.2 0.6 9.3
v -0.5 0.2 10.8
v 0.1 0.2 10.8
v -0.4 0.2 10.2
v -0.3 0.2 10.2
v -0.1 0.2 10.2
v 0 0.2 10.2
v -0.4 0.2 10.1
v -0.3 0.2 10.1
v -0.2 0.2 10.1
v -0.1 0.2 10.1
v 0 0.2 10.1
v -0.3 0.2 10
v -0.2 0.2 10
v -0.1 0.2 10
v -0.4 0.2 9.9
v -0.3 0.2 9.9
v -0.2 0.2 9.9
v -0.1 0.2 9.9
v 0 0.2 9.9
v -0.4 0.2 9.8
v -0.3 0.2 9.8
v -0.1 0.2 9.8
v 0 0.2 9.8
v -0.5 0.2 9.2
v 0.1 0.2 9.2
v 0.1 0.8 10.8
v 1.3 0.8 10.8
v 0.1 0.8 10.7
v 1.2 0.8 10.7
v 0.1 0.8 9.3
v 1.2 0.8 9.3
v 0.1 0.8 9.2
v 1.3 0.8 9.2
v 0.1 0.9 10.7
v 1.2 0.9 10.7
v 0.6 0.9 10.1
v 0.8 0.9 10.1
v 0.6 0.9 9.9
v 0.8 0.9 9.9
v 0.1 0.9 9.3
v 1.2 0.9 9.3
v 0.6 1 10.1
v 0.8 1 10.1
v 0.6 1 9.9
v 0.8 1 9.9

# faces
f 3/5/1 2/5/1 1/5/1
f 4/5/1 2/5/1 3/5/1
f 7/5/1 6/5/1 5/5/1
f 8/5/1 6/5/1 7/5/1
f 9/5/1 6/5/1 8/5/1
f 10/5/1 6/5/1 9/5/1
f 11/5/1 9/5/1 8/5/1
f 12/3/1 10/3/1 9/3/1
f 12/5/1 9/5/1 11/5/1
f 13/3/1 10/3/1 12/3/1
f 14/3/1 8/3/1 7/3/1
f 14/5/1 11/5/1 8/5/1
f 15/3/1 12/3/1 11/3/1
f 15/5/1 11/5/1 14/5/1
f 16/5/1 13/5/1 12/5/1
f 16/3/1 12/3/1 15/3/1
f 17/5/1 7/5/1 5/5/1
f 18/5/1 7/5/1 17/5/1
f 19/3/1 15/3/1 14/3/1
f 19/5/1 7/5/1 18/5/1
f 19/3/1 14/3/1 7/3/1
f 20/5/1 16/5/1 15/5/1
f 20/3/1 15/3/1 19/3/1
f 21/5/1 13/5/1 16/5/1
f 21/5/1 16/5/1 20/5/1
f 21/3/1 10/3/1 13/3/1
f 22/5/1 6/5/1 10/5/1
f 22/3/1 10/3/1 21/3/1
f 23/5/1 6/5/1 22/5/1
f 24/5/1 6/5/1 23/5/1
f 25/5/1 20/5/1 19/5/1
f 25/5/1 19/5/1 18/5/1
f 25/5/1 23/5/1 22/5/1
f 25/5/1 22/5/1 21/5/1
f 25/5/1 21/5/1 20/5/1
f 26/5/1 23/5/1 25/5/1
f 29/4/1 28/4/1 27/4/1
f 30/4/1 28/4/1 29/4/1
f 33/5/1 32/5/1 31/5/1
f 34/5/1 32/5/1 33/5/1
f 35/5/1 33/5/1 31/5/1
f 35/3/1 34/3/1 33/3/1
f 36/5/1 32/5/1 34/5/1
f 36/3/1 34/3/1 35/3/1
f 37/5/1 35/5/1 31/5/1
f 37/5/1 36/5/1 35/5/1
f 38/5/1 32/5/1 36/5/1
f 38/5/1 36/5/1 37/5/1
f 39/5/2 40/5/2 41/5/2
f 41/5/2 40/5/2 42/5/2
f 42/5/2 40/5/2 43/5/2
f 43/5/2 40/5/2 44/5/2
f 42/5/2 43/5/2 45/5/2
f 43/3/2 44/3/2 46/3/2
f 45/5/2 43/5/2 46/5/2
f 46/3/2 44/3/2 47/3/2
f 39/5/2 41/5/2 48/5/2
f 41/3/2 42/3/2 49/3/2
f 48/5/2 41/5/2 49/5/2
f 42/5/2 45/5/2 50/5/2
f 49/3/2 42/3/2 50/3/2
f 45/3/2 46/3/2 51/3/2
f 50/5/2 45/5/2 51/5/2
f 46/5/2 47/5/2 52/5/2
f 51/3/2 46/3/2 52/3/2
f 47/3/2 44/3/2 53/3/2
f 52/5/2 47/5/2 53/5/2
f 44/5/2 40/5/2 54/5/2
f 53/3/2 44/3/2 54/3/2
f 54/5/2 40/5/2 55/5/2
f 56/4/2 57/4/2 58/4/2
f 58/4/2 57/4/2 59/4/2
f 60/5/2 61/5/2 62/5/2
f 62/5/2 61/5/2 63/5/2
f 64/5/2 65/5/2 66/5/2
f 66/5/2 65/5/2 67/5/2
f 64/5/2 66/5/2 68/5/2
f 66/3/2 67/3/2 68/3/2
f 67/5/2 65/5/2 69/5/2
f 68/3/2 67/3/2 69/3/2
f 64/5/2 68/5/2 70/5/2
f 68/5/2 69/5/2 70/5/2
f 69/5/2 65/5/2 71/5/2
f 70/5/2 69/5/2 71/5/2
f 74/5/3 73/5/3 72/5/3
f 76/5/3 74/5/3 72/5/3
f 76/5/3 75/5/3 74/5/3
f 77/5/3 75/5/3 76/5/3
f 80/5/3 79/5/3 78/5/3
f 81/5/3 79/5/3 80/5/3
f 84/4/3 83/4/3 82/4/3
f 85/4/3 83/4/3 84/4/3
f 88/5/3 87/5/3 86/5/3
f 89/5/3 87/5/3 88/5/3
f 90/5/3 88/5/3 86/5/3
f 90/3/3 89/3/3 88/3/3
f 91/5/3 87/5/3 89/5/3
f 91/3/3 89/3/3 90/3/3
f 92/5/3 90/5/3 86/5/3
f 92/5/3 91/5/3 90/5/3
f 93/5/3 87/5/3 91/5/3
f 93/5/3 91/5/3 92/5/3
f 94/5/4 95/5/4 96/5/4
f 96/5/4 95/5/4 97/5/4
f 98/4/4 99/4/4 100/4/4
f 100/4/4 99/4/4 101/4/4
f 102/5/4 103/5/4 104/5/4
f 104/5/4 103/5/4 105/5/4
f 106/5/4 107/5/4 108/5/4
f 106/5/4 108/5/4 110/5/4
f 108/5/4 109/5/4 110/5/4
f 110/5/4 109/5/4 111/5/4
f 106/5/4 110/5/4 112/5/4
f 110/3/4 111/3/4 112/3/4
f 111/5/4 109/5/4 113/5/4
f 112/3/4 111/3/4 113/3/4
f 106/5/4 112/5/4 114/5/4
f 112/5/4 113/5/4 114/5/4
f 113/5/4 109/5/4 115/5/4
f 114/5/4 113/5/4 115/5/4
f 118/5/5 117/5/5 116/5/5
f 119/5/5 117/5/5 118/5/5
f 120/5/5 118/5/5 116/5/5
f 121/5/5 118/5/5 120/5/5
f 122/5/5 118/5/5 121/5/5
f 123/5/5 118/5/5 122/5/5
f 124/5/5 120/5/5 116/5/5
f 124/4/5 121/4/5 120/4/5
f 125/2/5 122/2/5 121/2/5
f 125/4/5 121/4/5 124/4/5
f 126/2/5 122/2/5 125/2/5
f 127/4/5 123/4/5 122/4/5
f 127/2/5 122/2/5 126/2/5
f 128/5/5 118/5/5 123/5/5
f 128/4/5 123/4/5 127/4/5
f 129/1/5 126/1/5 125/1/5
f 129/2/5 125/2/5 124/2/5
f 130/2/5 127/2/5 126/2/5
f 130/1/5 126/1/5 129/1/5
f 130/2/5 128/2/5 127/2/5
f 131/2/5 128/2/5 130/2/5
f 132/2/5 129/2/5 124/2/5
f 132/5/5 124/5/5 116/5/5
f 132/2/5 130/2/5 129/2/5
f 133/2/5 130/2/5 132/2/5
f 134/1/5 131/1/5 130/1/5
f 134/2/5 130/2/5 133/2/5
f 135/2/5 128/2/5 131/2/5
f 135/1/5 131/1/5 134/1/5
f 136/5/5 118/5/5 128/5/5
f 136/2/5 128/2/5 135/2/5
f 137/4/5 133/4/5 132/4/5
f 137/5/5 132/5/5 116/5/5
f 138/2/5 134/2/5 133/2/5
f 138/4/5 133/4/5 137/4/5
f 138/2/5 135/2/5 134/2/5
f 139/4/5 136/4/5 135/4/5
f 139/2/5 135/2/5 138/2/5
f 140/5/5 118/5/5 136/5/5
f 140/4/5 136/4/5 139/4/5
f 141/5/5 138/5/5 137/5/5
f 141/5/5 118/5/5 140/5/5
f 141/5/5 140/5/5 139/5/5
f 141/5/5 139/5/5 138/5/5
f 142/5/5 117/5/5 119/5/5
f 143/5/5 141/5/5 137/5/5
f 143/5/5 142/5/5 141/5/5
f 143/5/5 137/5/5 116/5/5
f 144/5/5 117/5/5 142/5/5
f 144/5/5 142/5/5 143/5/5
f 147/5/5 146/5/5 145/5/5
f 148/5/5 146/5/5 147/5/5
f 149/5/5 146/5/5 148/5/5
f 150/5/5 146/5/5 149/5/5
f 151/5/5 146/5/5 150/5/5
f 152/5/5 150/5/5 149/5/5
f 153/4/5 151/4/5 150/4/5
f 153/5/5 150/5/5 152/5/5
f 154/5/5 146/5/5 151/5/5
f 154/4/5 151/4/5 153/4/5
f 155/5/5 153/5/5 152/5/5
f 155/5/5 154/5/5 153/5/5
f 156/5/5 154/5/5 155/5/5
f 157/5/5 154/5/5 156/5/5
f 158/5/5 146/5/5 154/5/5
f 158/5/5 154/5/5 157/5/5
f 159/5/6 160/5/6 161/5/6
f 161/5/6 160/5/6 162/5/6
f 162/5/6 160/5/6 163/5/6
f 163/5/6 160/5/6 164/5/6
f 159/5/6 161/5/6 165/5/6
f 161/4/6 162/4/6 165/4/6
f 162/2/6 163/2/6 166/2/6
f 165/4/6 162/4/6 166/4/6
f 166/2/6 163/2/6 167/2/6
f 163/4/6 164/4/6 168/4/6
f 167/2/6 163/2/6 168/2/6
f 164/5/6 160/5/6 169/5/6
f 168/4/6 164/4/6 169/4/6
f 166/1/6 167/1/6 170/1/6
f 165/2/6 166/2/6 170/2/6
f 167/2/6 168/2/6 171/2/6
f 170/1/6 167/1/6 171/1/6
f 168/2/6 169/2/6 171/2/6
f 171/2/6 169/2/6 172/2/6
f 165/2/6 170/2/6 173/2/6
f 159/5/6 165/5/6 173/5/6
f 170/2/6 171/2/6 173/2/6
f 173/2/6 171/2/6 174/2/6
f 171/1/6 172/1/6 175/1/6
f 174/2/6 171/2/6 175/2/6
f 172/2/6 169/2/6 176/2/6
f 175/1/6 172/1/6 176/1/6
f 169/5/6 160/5/6 177/5/6
f 176/2/6 169/2/6 177/2/6
f 173/4/6 174/4/6 178/4/6
f 159/5/6 173/5/6 178/5/6
f 174/2/6 175/2/6 179/2/6
f 178/4/6 174/4/6 179/4/6
f 175/2/6 176/2/6 179/2/6
f 176/4/6 177/4/6 180/4/6
f 179/2/6 176/2/6 180/2/6
f 177/5/6 160/5/6 181/5/6
f 180/4/6 177/4/6 181/4/6
f 159/5/6 178/5/6 182/5/6
f 178/5/6 179/5/6 182/5/6
f 180/5/6 181/5/6 182/5/6
f 179/5/6 180/5/6 182/5/6
f 181/5/6 160/5/6 183/5/6
f 182/5/6 181/5/6 183/5/6
f 184/5/6 185/5/6 186/5/6
f 186/5/6 185/5/6 187/5/6
f 187/5/6 185/5/6 189/5/6
f 188/5/6 189/5/6 190/5/6
f 189/5/6 185/5/6 191/5/6
f 190/5/6 189/5/6 191/5/6
f 192/5/6 193/5/6 194/5/6
f 194/5/6 193/5/6 195/5/6
f 192/5/6 194/5/6 196/5/6
f 195/5/6 193/5/6 197/5/6
f 192/5/6 196/5/6 198/5/6
f 196/5/6 197/5/6 198/5/6
f 197/5/6 193/5/6 199/5/6
f 198/5/6 197/5/6 199/5/6
f 200/4/6 201/4/6 202/4/6
f 202/4/6 201/4/6 203/4/6
