# MagicaVoxel @ Ephtracy

# group
o Cap Blue

# material
mtllib Voxel Universe-37-Cap Blue.mtl
usemtl palette

# normals
vn -1 0 0
vn 1 0 0
vn 0 0 1
vn 0 0 -1
vn 0 -1 0
vn 0 1 0

# texcoords
vt 0.0449219 0.5
vt 0.779297 0.5
vt 0.806641 0.5
vt 0.958984 0.5
vt 0.990234 0.5

# verts
v -0.5 0.1 12.7
v -0.5 0.1 11.1
v -0.5 0.2 12.7
v -0.5 0.2 11.1
v 0.1 0.2 12.7
v 0.1 0.2 12.6
v 0.1 0.2 11.2
v 0.1 0.2 11.1
v 0.1 0.6 12.6
v 0.1 0.6 11.2
v 0.1 0.7 12.7
v 0.1 0.7 11.1
v 1.3 0.1 12.7
v 1.3 0.1 11.1
v 1.3 0.2 12
v 1.3 0.2 11.8
v 1.3 0.4 12
v 1.3 0.4 11.8
v 1.3 0.7 12.7
v 1.3 0.7 11.1
v -0.5 0.1 12.7
v -0.5 0.2 12.7
v 0.1 0.2 12.7
v 0.1 0.7 12.7
v 0.3 0.2 12.7
v 0.3 0.4 12.7
v 0.6 0.2 12.7
v 0.6 0.4 12.7
v 1.3 0.1 12.7
v 1.3 0.7 12.7
v -0.5 0.1 11.1
v -0.5 0.2 11.1
v 0.1 0.2 11.1
v 0.1 0.7 11.1
v 0.3 0.2 11.1
v 0.3 0.4 11.1
v 0.6 0.2 11.1
v 0.6 0.4 11.1
v 1.3 0.1 11.1
v 1.3 0.7 11.1
v -0.5 0.1 12.7
v 1.3 0.1 12.7
v -0.4 0.1 12.6
v -0.3 0.1 12.6
v -0.1 0.1 12.6
v 0 0.1 12.6
v -0.4 0.1 12.5
v -0.3 0.1 12.5
v -0.2 0.1 12.5
v -0.1 0.1 12.5
v 0 0.1 12.5
v -0.3 0.1 12.4
v -0.2 0.1 12.4
v -0.1 0.1 12.4
v -0.4 0.1 12.3
v -0.3 0.1 12.3
v -0.2 0.1 12.3
v -0.1 0.1 12.3
v 0 0.1 12.3
v -0.4 0.1 12.2
v -0.3 0.1 12.2
v -0.1 0.1 12.2
v 0 0.1 12.2
v -0.5 0.1 11.1
v 1.3 0.1 11.1
v -0.5 0.2 12.7
v 0.1 0.2 12.7
v -0.4 0.2 12.6
v -0.3 0.2 12.6
v -0.1 0.2 12.6
v 0 0.2 12.6
v 0.1 0.2 12.6
v -0.4 0.2 12.5
v -0.3 0.2 12.5
v -0.2 0.2 12.5
v -0.1 0.2 12.5
v 0 0.2 12.5
v -0.3 0.2 12.4
v -0.2 0.2 12.4
v -0.1 0.2 12.4
v -0.4 0.2 12.3
v -0.3 0.2 12.3
v -0.2 0.2 12.3
v -0.1 0.2 12.3
v 0 0.2 12.3
v -0.4 0.2 12.2
v -0.3 0.2 12.2
v -0.1 0.2 12.2
v 0 0.2 12.2
v 0.1 0.2 11.2
v -0.5 0.2 11.1
v 0.1 0.2 11.1
v 0.1 0.7 12.7
v 1.3 0.7 12.7
v 0.7 0.7 12
v 0.8 0.7 12
v 0.7 0.7 11.8
v 0.8 0.7 11.8
v 0.1 0.7 11.1
v 1.3 0.7 11.1

# faces
f 3/2/1 2/2/1 1/2/1
f 4/2/1 2/2/1 3/2/1
f 9/2/1 6/2/1 5/2/1
f 9/4/1 7/4/1 6/4/1
f 10/2/1 8/2/1 7/2/1
f 10/4/1 7/4/1 9/4/1
f 11/2/1 9/2/1 5/2/1
f 11/2/1 10/2/1 9/2/1
f 12/2/1 8/2/1 10/2/1
f 12/2/1 10/2/1 11/2/1
f 13/2/2 14/2/2 15/2/2
f 15/2/2 14/2/2 16/2/2
f 13/2/2 15/2/2 17/2/2
f 15/4/2 16/4/2 17/4/2
f 16/2/2 14/2/2 18/2/2
f 17/4/2 16/4/2 18/4/2
f 13/2/2 17/2/2 19/2/2
f 17/2/2 18/2/2 19/2/2
f 18/2/2 14/2/2 20/2/2
f 19/2/2 18/2/2 20/2/2
f 23/2/3 22/2/3 21/2/3
f 25/2/3 23/2/3 21/2/3
f 25/2/3 24/2/3 23/2/3
f 26/2/3 24/2/3 25/2/3
f 27/2/3 25/2/3 21/2/3
f 27/4/3 26/4/3 25/4/3
f 28/2/3 24/2/3 26/2/3
f 28/4/3 26/4/3 27/4/3
f 29/2/3 27/2/3 21/2/3
f 29/2/3 28/2/3 27/2/3
f 30/2/3 24/2/3 28/2/3
f 30/2/3 28/2/3 29/2/3
f 31/2/4 32/2/4 33/2/4
f 31/2/4 33/2/4 35/2/4
f 33/2/4 34/2/4 35/2/4
f 35/2/4 34/2/4 36/2/4
f 31/2/4 35/2/4 37/2/4
f 35/4/4 36/4/4 37/4/4
f 36/2/4 34/2/4 38/2/4
f 37/4/4 36/4/4 38/4/4
f 31/2/4 37/2/4 39/2/4
f 37/2/4 38/2/4 39/2/4
f 38/2/4 34/2/4 40/2/4
f 39/2/4 38/2/4 40/2/4
f 43/2/5 42/2/5 41/2/5
f 44/2/5 42/2/5 43/2/5
f 45/2/5 42/2/5 44/2/5
f 46/2/5 42/2/5 45/2/5
f 47/2/5 43/2/5 41/2/5
f 47/3/5 44/3/5 43/3/5
f 48/5/5 45/5/5 44/5/5
f 48/3/5 44/3/5 47/3/5
f 49/5/5 45/5/5 48/5/5
f 50/3/5 46/3/5 45/3/5
f 50/5/5 45/5/5 49/5/5
f 51/2/5 42/2/5 46/2/5
f 51/3/5 46/3/5 50/3/5
f 52/5/5 49/5/5 48/5/5
f 52/5/5 48/5/5 47/5/5
f 53/1/5 50/1/5 49/1/5
f 53/5/5 49/5/5 52/5/5
f 54/5/5 51/5/5 50/5/5
f 54/1/5 50/1/5 53/1/5
f 55/5/5 52/5/5 47/5/5
f 55/2/5 47/2/5 41/2/5
f 56/1/5 53/1/5 52/1/5
f 56/5/5 52/5/5 55/5/5
f 57/5/5 54/5/5 53/5/5
f 57/1/5 53/1/5 56/1/5
f 58/5/5 51/5/5 54/5/5
f 58/5/5 54/5/5 57/5/5
f 59/2/5 42/2/5 51/2/5
f 59/5/5 51/5/5 58/5/5
f 60/3/5 56/3/5 55/3/5
f 60/2/5 55/2/5 41/2/5
f 61/5/5 57/5/5 56/5/5
f 61/3/5 56/3/5 60/3/5
f 61/5/5 58/5/5 57/5/5
f 62/3/5 59/3/5 58/3/5
f 62/5/5 58/5/5 61/5/5
f 63/2/5 42/2/5 59/2/5
f 63/3/5 59/3/5 62/3/5
f 64/2/5 60/2/5 41/2/5
f 64/2/5 61/2/5 60/2/5
f 64/2/5 63/2/5 62/2/5
f 64/2/5 62/2/5 61/2/5
f 65/2/5 42/2/5 63/2/5
f 65/2/5 63/2/5 64/2/5
f 66/2/6 67/2/6 68/2/6
f 68/2/6 67/2/6 69/2/6
f 69/2/6 67/2/6 70/2/6
f 70/2/6 67/2/6 71/2/6
f 71/2/6 67/2/6 72/2/6
f 66/2/6 68/2/6 73/2/6
f 68/3/6 69/3/6 73/3/6
f 69/5/6 70/5/6 74/5/6
f 73/3/6 69/3/6 74/3/6
f 74/5/6 70/5/6 75/5/6
f 70/3/6 71/3/6 76/3/6
f 75/5/6 70/5/6 76/5/6
f 71/2/6 72/2/6 77/2/6
f 76/3/6 71/3/6 77/3/6
f 74/5/6 75/5/6 78/5/6
f 73/5/6 74/5/6 78/5/6
f 75/1/6 76/1/6 79/1/6
f 78/5/6 75/5/6 79/5/6
f 76/5/6 77/5/6 80/5/6
f 79/1/6 76/1/6 80/1/6
f 73/5/6 78/5/6 81/5/6
f 66/2/6 73/2/6 81/2/6
f 78/1/6 79/1/6 82/1/6
f 81/5/6 78/5/6 82/5/6
f 79/5/6 80/5/6 83/5/6
f 82/1/6 79/1/6 83/1/6
f 80/5/6 77/5/6 84/5/6
f 83/5/6 80/5/6 84/5/6
f 77/2/6 72/2/6 85/2/6
f 84/5/6 77/5/6 85/5/6
f 81/3/6 82/3/6 86/3/6
f 66/2/6 81/2/6 86/2/6
f 82/5/6 83/5/6 87/5/6
f 86/3/6 82/3/6 87/3/6
f 83/5/6 84/5/6 87/5/6
f 84/3/6 85/3/6 88/3/6
f 87/5/6 84/5/6 88/5/6
f 85/2/6 72/2/6 89/2/6
f 88/3/6 85/3/6 89/3/6
f 87/2/6 88/2/6 90/2/6
f 89/2/6 72/2/6 90/2/6
f 88/2/6 89/2/6 90/2/6
f 86/2/6 87/2/6 90/2/6
f 66/2/6 86/2/6 91/2/6
f 86/2/6 90/2/6 91/2/6
f 91/2/6 90/2/6 92/2/6
f 93/2/6 94/2/6 95/2/6
f 95/2/6 94/2/6 96/2/6
f 93/2/6 95/2/6 97/2/6
f 95/3/6 96/3/6 97/3/6
f 96/2/6 94/2/6 98/2/6
f 97/3/6 96/3/6 98/3/6
f 93/2/6 97/2/6 99/2/6
f 97/2/6 98/2/6 99/2/6
f 98/2/6 94/2/6 100/2/6
f 99/2/6 98/2/6 100/2/6
