# MagicaVoxel @ Ephtracy

# group
o 

# material
mtllib stone_bricks-5.mtl
usemtl palette

# normals
vn -1 0 0
vn 1 0 0
vn 0 0 1
vn 0 0 -1
vn 0 -1 0
vn 0 1 0

# texcoords
vt 0.927734 0.5
vt 0.935547 0.5

# verts
v -1.6 0 1.3
v -1.6 0 -1.6
v -1.6 3.2 1.3
v -1.6 3.2 -1.6
v -1.1 1.8 1.3
v -1.1 1.8 1.2
v -1.1 2.4 1.3
v -1.1 2.4 1.2
v -0.3 0 1.3
v -0.3 0 1.2
v -0.3 0.7 1.3
v -0.3 0.7 1.2
v -0.3 2.6 1.3
v -0.3 2.6 1.2
v -0.3 3.2 1.3
v -0.3 3.2 1.2
v 0.5 0.9 1.3
v 0.5 0.9 1.2
v 0.5 1.6 1.3
v 0.5 1.6 1.2
v -1.3 0.7 1.3
v -1.3 0.7 1.2
v -1.3 0.9 1.3
v -1.3 0.9 1.2
v -1.3 1.6 1.3
v -1.3 1.6 1.2
v -1.3 2.6 1.3
v -1.3 2.6 1.2
v -0.5 0 1.3
v -0.5 0 1.2
v -0.5 0.7 1.3
v -0.5 0.7 1.2
v -0.5 2.6 1.3
v -0.5 2.6 1.2
v -0.5 3.2 1.3
v -0.5 3.2 1.2
v 0.3 0.9 1.3
v 0.3 0.9 1.2
v 0.3 1.6 1.3
v 0.3 1.6 1.2
v 1.6 0 1.3
v 1.6 0 -1.6
v 1.6 0.6 1.3
v 1.6 0.6 1.2
v 1.6 0.7 1.3
v 1.6 0.7 1.2
v 1.6 0.7 1.1
v 1.6 0.9 1.3
v 1.6 0.9 1.2
v 1.6 0.9 1.1
v 1.6 1 1.3
v 1.6 1 1.2
v 1.6 1.5 1.3
v 1.6 1.5 1.2
v 1.6 1.6 1.3
v 1.6 1.6 1.2
v 1.6 1.6 1.1
v 1.6 1.8 1.3
v 1.6 1.8 1.2
v 1.6 1.8 1.1
v 1.6 1.9 1.3
v 1.6 1.9 1.2
v 1.6 2.3 1.3
v 1.6 2.3 1.2
v 1.6 2.4 1.3
v 1.6 2.4 1.2
v 1.6 2.4 1.1
v 1.6 2.6 1.3
v 1.6 2.6 1.2
v 1.6 2.6 1.1
v 1.6 2.7 1.3
v 1.6 2.7 1.2
v 1.6 3.2 1.3
v 1.6 3.2 -1.6
v -1.6 0 1.3
v -1.6 3.2 1.3
v -1.4 0.6 1.3
v -1.4 1 1.3
v -1.4 1.5 1.3
v -1.4 2.7 1.3
v -1.3 0.7 1.3
v -1.3 0.9 1.3
v -1.3 1.6 1.3
v -1.3 2.6 1.3
v -1.1 1.8 1.3
v -1.1 2.4 1.3
v -1 1.9 1.3
v -1 2.3 1.3
v -0.6 0 1.3
v -0.6 0.6 1.3
v -0.6 2.7 1.3
v -0.6 3.2 1.3
v -0.5 0 1.3
v -0.5 0.7 1.3
v -0.5 2.6 1.3
v -0.5 3.2 1.3
v -0.3 0 1.3
v -0.3 0.7 1.3
v -0.3 2.6 1.3
v -0.3 3.2 1.3
v -0.2 0 1.3
v -0.2 0.6 1.3
v -0.2 2.7 1.3
v -0.2 3.2 1.3
v 0.2 1 1.3
v 0.2 1.5 1.3
v 0.3 0.9 1.3
v 0.3 1.6 1.3
v 0.5 0.9 1.3
v 0.5 1.6 1.3
v 0.6 1 1.3
v 0.6 1.5 1.3
v 1.6 0 1.3
v 1.6 0.6 1.3
v 1.6 0.7 1.3
v 1.6 0.9 1.3
v 1.6 1 1.3
v 1.6 1.5 1.3
v 1.6 1.6 1.3
v 1.6 1.8 1.3
v 1.6 1.9 1.3
v 1.6 2.3 1.3
v 1.6 2.4 1.3
v 1.6 2.6 1.3
v 1.6 2.7 1.3
v 1.6 3.2 1.3
v -1.3 0.7 1.2
v -1.3 0.9 1.2
v -1.3 1.6 1.2
v -1.3 2.6 1.2
v -1.1 1.8 1.2
v -1.1 2.4 1.2
v -0.5 0 1.2
v -0.5 0.7 1.2
v -0.5 2.6 1.2
v -0.5 3.2 1.2
v -0.3 0 1.2
v -0.3 0.7 1.2
v -0.3 2.6 1.2
v -0.3 3.2 1.2
v 0.3 0.9 1.2
v 0.3 1.6 1.2
v 0.5 0.9 1.2
v 0.5 1.6 1.2
v 1.6 0.7 1.2
v 1.6 0.9 1.2
v 1.6 1.6 1.2
v 1.6 1.8 1.2
v 1.6 2.4 1.2
v 1.6 2.6 1.2
v -1.6 0 -1.6
v -1.6 3.2 -1.6
v 1.6 0 -1.6
v 1.6 3.2 -1.6
v -1.6 0 1.3
v -0.6 0 1.3
v -0.5 0 1.3
v -0.3 0 1.3
v -0.2 0 1.3
v 1.6 0 1.3
v -0.6 0 1.2
v -0.5 0 1.2
v -0.3 0 1.2
v -0.2 0 1.2
v -0.5 0 1.1
v -0.3 0 1.1
v -1.6 0 -1.6
v 1.6 0 -1.6
v -1.3 0.9 1.3
v 0.3 0.9 1.3
v 0.5 0.9 1.3
v 1.6 0.9 1.3
v -1.3 0.9 1.2
v 0.3 0.9 1.2
v 0.5 0.9 1.2
v 1.6 0.9 1.2
v -1.1 1.8 1.3
v 1.6 1.8 1.3
v -1.1 1.8 1.2
v 1.6 1.8 1.2
v -1.3 2.6 1.3
v -0.5 2.6 1.3
v -0.3 2.6 1.3
v 1.6 2.6 1.3
v -1.3 2.6 1.2
v -0.5 2.6 1.2
v -0.3 2.6 1.2
v 1.6 2.6 1.2
v -1.3 0.7 1.3
v -0.5 0.7 1.3
v -0.3 0.7 1.3
v 1.6 0.7 1.3
v -1.3 0.7 1.2
v -0.5 0.7 1.2
v -0.3 0.7 1.2
v 1.6 0.7 1.2
v -1.3 1.6 1.3
v 0.3 1.6 1.3
v 0.5 1.6 1.3
v 1.6 1.6 1.3
v -1.3 1.6 1.2
v 0.3 1.6 1.2
v 0.5 1.6 1.2
v 1.6 1.6 1.2
v -1.1 2.4 1.3
v 1.6 2.4 1.3
v -1.1 2.4 1.2
v 1.6 2.4 1.2
v -1.6 3.2 1.3
v -0.6 3.2 1.3
v -0.5 3.2 1.3
v -0.3 3.2 1.3
v -0.2 3.2 1.3
v 1.6 3.2 1.3
v -0.6 3.2 1.2
v -0.5 3.2 1.2
v -0.3 3.2 1.2
v -0.2 3.2 1.2
v -0.5 3.2 1.1
v -0.3 3.2 1.1
v -1.6 3.2 -1.6
v 1.6 3.2 -1.6

# faces
f 3/1/1 2/1/1 1/1/1
f 4/1/1 2/1/1 3/1/1
f 7/2/1 6/2/1 5/2/1
f 8/2/1 6/2/1 7/2/1
f 11/2/1 10/2/1 9/2/1
f 12/2/1 10/2/1 11/2/1
f 15/2/1 14/2/1 13/2/1
f 16/2/1 14/2/1 15/2/1
f 19/2/1 18/2/1 17/2/1
f 20/2/1 18/2/1 19/2/1
f 21/2/2 22/2/2 23/2/2
f 23/2/2 22/2/2 24/2/2
f 25/2/2 26/2/2 27/2/2
f 27/2/2 26/2/2 28/2/2
f 29/2/2 30/2/2 31/2/2
f 31/2/2 30/2/2 32/2/2
f 33/2/2 34/2/2 35/2/2
f 35/2/2 34/2/2 36/2/2
f 37/2/2 38/2/2 39/2/2
f 39/2/2 38/2/2 40/2/2
f 41/1/2 42/1/2 43/1/2
f 43/1/2 42/1/2 44/1/2
f 43/2/2 44/2/2 45/2/2
f 44/1/2 42/1/2 46/1/2
f 45/2/2 44/2/2 46/2/2
f 46/1/2 42/1/2 47/1/2
f 46/2/2 47/2/2 49/2/2
f 47/1/2 42/1/2 50/1/2
f 49/2/2 47/2/2 50/2/2
f 48/2/2 49/2/2 51/2/2
f 49/1/2 50/1/2 52/1/2
f 51/2/2 49/2/2 52/2/2
f 51/1/2 52/1/2 53/1/2
f 52/1/2 50/1/2 54/1/2
f 53/1/2 52/1/2 54/1/2
f 53/2/2 54/2/2 55/2/2
f 54/1/2 50/1/2 56/1/2
f 55/2/2 54/2/2 56/2/2
f 50/1/2 42/1/2 57/1/2
f 56/1/2 50/1/2 57/1/2
f 56/2/2 57/2/2 59/2/2
f 57/1/2 42/1/2 60/1/2
f 59/2/2 57/2/2 60/2/2
f 58/2/2 59/2/2 61/2/2
f 59/1/2 60/1/2 62/1/2
f 61/2/2 59/2/2 62/2/2
f 61/1/2 62/1/2 63/1/2
f 62/1/2 60/1/2 64/1/2
f 63/1/2 62/1/2 64/1/2
f 63/2/2 64/2/2 65/2/2
f 64/1/2 60/1/2 66/1/2
f 65/2/2 64/2/2 66/2/2
f 60/1/2 42/1/2 67/1/2
f 66/1/2 60/1/2 67/1/2
f 66/2/2 67/2/2 69/2/2
f 67/1/2 42/1/2 70/1/2
f 69/2/2 67/2/2 70/2/2
f 68/2/2 69/2/2 71/2/2
f 69/1/2 70/1/2 72/1/2
f 71/2/2 69/2/2 72/2/2
f 71/1/2 72/1/2 73/1/2
f 70/1/2 42/1/2 74/1/2
f 73/1/2 72/1/2 74/1/2
f 72/1/2 70/1/2 74/1/2
f 77/1/3 76/1/3 75/1/3
f 78/1/3 76/1/3 77/1/3
f 79/1/3 76/1/3 78/1/3
f 80/1/3 76/1/3 79/1/3
f 81/2/3 78/2/3 77/2/3
f 82/2/3 78/2/3 81/2/3
f 83/2/3 80/2/3 79/2/3
f 84/2/3 80/2/3 83/2/3
f 87/2/3 86/2/3 85/2/3
f 88/2/3 86/2/3 87/2/3
f 89/1/3 77/1/3 75/1/3
f 90/2/3 81/2/3 77/2/3
f 90/1/3 77/1/3 89/1/3
f 91/1/3 76/1/3 80/1/3
f 91/2/3 80/2/3 84/2/3
f 92/1/3 76/1/3 91/1/3
f 93/2/3 90/2/3 89/2/3
f 94/2/3 81/2/3 90/2/3
f 94/2/3 90/2/3 93/2/3
f 95/2/3 91/2/3 84/2/3
f 95/2/3 92/2/3 91/2/3
f 96/2/3 92/2/3 95/2/3
f 101/2/3 98/2/3 97/2/3
f 102/2/3 98/2/3 101/2/3
f 103/2/3 100/2/3 99/2/3
f 104/2/3 100/2/3 103/2/3
f 105/1/3 79/1/3 78/1/3
f 105/2/3 78/2/3 82/2/3
f 106/2/3 83/2/3 79/2/3
f 106/1/3 79/1/3 105/1/3
f 107/2/3 105/2/3 82/2/3
f 107/2/3 106/2/3 105/2/3
f 108/2/3 83/2/3 106/2/3
f 108/2/3 106/2/3 107/2/3
f 111/2/3 110/2/3 109/2/3
f 112/2/3 110/2/3 111/2/3
f 113/1/3 102/1/3 101/1/3
f 114/2/3 98/2/3 102/2/3
f 114/1/3 102/1/3 113/1/3
f 115/2/3 98/2/3 114/2/3
f 116/2/3 111/2/3 109/2/3
f 117/1/3 112/1/3 111/1/3
f 117/2/3 111/2/3 116/2/3
f 118/2/3 110/2/3 112/2/3
f 118/1/3 112/1/3 117/1/3
f 119/2/3 110/2/3 118/2/3
f 120/2/3 87/2/3 85/2/3
f 121/1/3 88/1/3 87/1/3
f 121/2/3 87/2/3 120/2/3
f 122/2/3 86/2/3 88/2/3
f 122/1/3 88/1/3 121/1/3
f 123/2/3 86/2/3 122/2/3
f 124/2/3 103/2/3 99/2/3
f 125/1/3 104/1/3 103/1/3
f 125/2/3 103/2/3 124/2/3
f 126/1/3 104/1/3 125/1/3
f 131/2/3 130/2/3 129/2/3
f 132/2/3 130/2/3 131/2/3
f 134/2/3 128/2/3 127/2/3
f 135/2/3 130/2/3 132/2/3
f 137/2/3 134/2/3 133/2/3
f 138/2/3 128/2/3 134/2/3
f 138/2/3 134/2/3 137/2/3
f 139/2/3 136/2/3 135/2/3
f 139/2/3 135/2/3 132/2/3
f 140/2/3 136/2/3 139/2/3
f 141/2/3 128/2/3 138/2/3
f 142/2/3 131/2/3 129/2/3
f 143/2/3 141/2/3 138/2/3
f 143/2/3 142/2/3 141/2/3
f 144/2/3 131/2/3 142/2/3
f 144/2/3 142/2/3 143/2/3
f 145/2/3 143/2/3 138/2/3
f 146/2/3 143/2/3 145/2/3
f 147/2/3 131/2/3 144/2/3
f 148/2/3 131/2/3 147/2/3
f 149/2/3 139/2/3 132/2/3
f 150/2/3 139/2/3 149/2/3
f 151/1/4 152/1/4 153/1/4
f 153/1/4 152/1/4 154/1/4
f 161/1/5 156/1/5 155/1/5
f 161/2/5 157/2/5 156/2/5
f 162/2/5 157/2/5 161/2/5
f 163/2/5 159/2/5 158/2/5
f 164/1/5 160/1/5 159/1/5
f 164/2/5 159/2/5 163/2/5
f 165/2/5 163/2/5 162/2/5
f 165/1/5 162/1/5 161/1/5
f 166/1/5 164/1/5 163/1/5
f 166/2/5 163/2/5 165/2/5
f 167/1/5 165/1/5 161/1/5
f 167/1/5 161/1/5 155/1/5
f 167/1/5 166/1/5 165/1/5
f 168/1/5 160/1/5 164/1/5
f 168/1/5 166/1/5 167/1/5
f 168/1/5 164/1/5 166/1/5
f 173/2/5 170/2/5 169/2/5
f 174/2/5 170/2/5 173/2/5
f 175/2/5 172/2/5 171/2/5
f 176/2/5 172/2/5 175/2/5
f 179/2/5 178/2/5 177/2/5
f 180/2/5 178/2/5 179/2/5
f 185/2/5 182/2/5 181/2/5
f 186/2/5 182/2/5 185/2/5
f 187/2/5 184/2/5 183/2/5
f 188/2/5 184/2/5 187/2/5
f 189/2/6 190/2/6 193/2/6
f 193/2/6 190/2/6 194/2/6
f 191/2/6 192/2/6 195/2/6
f 195/2/6 192/2/6 196/2/6
f 197/2/6 198/2/6 201/2/6
f 201/2/6 198/2/6 202/2/6
f 199/2/6 200/2/6 203/2/6
f 203/2/6 200/2/6 204/2/6
f 205/2/6 206/2/6 207/2/6
f 207/2/6 206/2/6 208/2/6
f 209/1/6 210/1/6 215/1/6
f 210/2/6 211/2/6 215/2/6
f 215/2/6 211/2/6 216/2/6
f 212/2/6 213/2/6 217/2/6
f 213/1/6 214/1/6 218/1/6
f 217/2/6 213/2/6 218/2/6
f 216/2/6 217/2/6 219/2/6
f 215/1/6 216/1/6 219/1/6
f 217/1/6 218/1/6 220/1/6
f 219/2/6 217/2/6 220/2/6
f 215/1/6 219/1/6 221/1/6
f 209/1/6 215/1/6 221/1/6
f 219/1/6 220/1/6 221/1/6
f 218/1/6 214/1/6 222/1/6
f 221/1/6 220/1/6 222/1/6
f 220/1/6 218/1/6 222/1/6
