# MagicaVoxel @ Ephtracy

# group
o 

# material
mtllib stone_bricks-1.mtl
usemtl palette

# normals
vn -1 0 0
vn 1 0 0
vn 0 0 1
vn 0 0 -1
vn 0 -1 0
vn 0 1 0

# texcoords
vt 0.927734 0.5
vt 0.935547 0.5

# verts
v -1.6 0 1.6
v -1.6 0 1.3
v -1.6 0 -1.6
v -1.6 0.3 1.6
v -1.6 0.3 1.3
v -1.6 0.6 1.3
v -1.6 0.6 1.2
v -1.6 0.7 1.3
v -1.6 0.7 1.2
v -1.6 0.7 1.1
v -1.6 0.9 1.3
v -1.6 0.9 1.2
v -1.6 0.9 1.1
v -1.6 1 1.3
v -1.6 1 1.2
v -1.6 1.5 1.3
v -1.6 1.5 1.2
v -1.6 1.6 1.3
v -1.6 1.6 1.2
v -1.6 1.6 1.1
v -1.6 1.8 1.3
v -1.6 1.8 1.2
v -1.6 1.8 1.1
v -1.6 1.9 1.3
v -1.6 1.9 1.2
v -1.6 2.3 1.3
v -1.6 2.3 1.2
v -1.6 2.4 1.3
v -1.6 2.4 1.2
v -1.6 2.4 1.1
v -1.6 2.6 1.3
v -1.6 2.6 1.2
v -1.6 2.6 1.1
v -1.6 2.7 1.3
v -1.6 2.7 1.2
v -1.6 3.2 1.3
v -1.6 3.2 -1.6
v -1.1 1.8 1.3
v -1.1 1.8 1.2
v -1.1 2.4 1.3
v -1.1 2.4 1.2
v -0.3 0.3 1.3
v -0.3 0.3 1.2
v -0.3 0.7 1.3
v -0.3 0.7 1.2
v -0.3 2.6 1.3
v -0.3 2.6 1.2
v -0.3 3.2 1.3
v -0.3 3.2 1.2
v 0.5 0.9 1.3
v 0.5 0.9 1.2
v 0.5 1.6 1.3
v 0.5 1.6 1.2
v -1.3 1.8 1.3
v -1.3 1.8 1.2
v -1.3 2.4 1.3
v -1.3 2.4 1.2
v -0.5 0.3 1.3
v -0.5 0.3 1.2
v -0.5 0.7 1.3
v -0.5 0.7 1.2
v -0.5 2.6 1.3
v -0.5 2.6 1.2
v -0.5 3.2 1.3
v -0.5 3.2 1.2
v 0.3 0.9 1.3
v 0.3 0.9 1.2
v 0.3 1.6 1.3
v 0.3 1.6 1.2
v 1.6 0 1.6
v 1.6 0 1.3
v 1.6 0 -1.6
v 1.6 0.3 1.6
v 1.6 0.3 1.3
v 1.6 0.6 1.3
v 1.6 0.6 1.2
v 1.6 0.7 1.3
v 1.6 0.7 1.2
v 1.6 0.7 1.1
v 1.6 0.9 1.3
v 1.6 0.9 1.2
v 1.6 0.9 1.1
v 1.6 1 1.3
v 1.6 1 1.2
v 1.6 1.5 1.3
v 1.6 1.5 1.2
v 1.6 1.6 1.3
v 1.6 1.6 1.2
v 1.6 1.6 1.1
v 1.6 1.8 1.3
v 1.6 1.8 1.2
v 1.6 1.8 1.1
v 1.6 1.9 1.3
v 1.6 1.9 1.2
v 1.6 2.3 1.3
v 1.6 2.3 1.2
v 1.6 2.4 1.3
v 1.6 2.4 1.2
v 1.6 2.4 1.1
v 1.6 2.6 1.3
v 1.6 2.6 1.2
v 1.6 2.6 1.1
v 1.6 2.7 1.3
v 1.6 2.7 1.2
v 1.6 3.2 1.3
v 1.6 3.2 -1.6
v -1.6 0 1.6
v -1.6 0.3 1.6
v 1.6 0 1.6
v 1.6 0.3 1.6
v -1.6 0.3 1.3
v -1.6 0.6 1.3
v -1.6 0.7 1.3
v -1.6 0.9 1.3
v -1.6 1 1.3
v -1.6 1.5 1.3
v -1.6 1.6 1.3
v -1.6 1.8 1.3
v -1.6 1.9 1.3
v -1.6 2.3 1.3
v -1.6 2.4 1.3
v -1.6 2.6 1.3
v -1.6 2.7 1.3
v -1.6 3.2 1.3
v -1.4 1.9 1.3
v -1.4 2.3 1.3
v -1.3 1.8 1.3
v -1.3 2.4 1.3
v -1.1 1.8 1.3
v -1.1 2.4 1.3
v -1 1.9 1.3
v -1 2.3 1.3
v -0.6 0.3 1.3
v -0.6 0.6 1.3
v -0.6 2.7 1.3
v -0.6 3.2 1.3
v -0.5 0.3 1.3
v -0.5 0.7 1.3
v -0.5 2.6 1.3
v -0.5 3.2 1.3
v -0.3 0.3 1.3
v -0.3 0.7 1.3
v -0.3 2.6 1.3
v -0.3 3.2 1.3
v -0.2 0.3 1.3
v -0.2 0.6 1.3
v -0.2 2.7 1.3
v -0.2 3.2 1.3
v 0.2 1 1.3
v 0.2 1.5 1.3
v 0.3 0.9 1.3
v 0.3 1.6 1.3
v 0.5 0.9 1.3
v 0.5 1.6 1.3
v 0.6 1 1.3
v 0.6 1.5 1.3
v 1.6 0.3 1.3
v 1.6 0.6 1.3
v 1.6 0.7 1.3
v 1.6 0.9 1.3
v 1.6 1 1.3
v 1.6 1.5 1.3
v 1.6 1.6 1.3
v 1.6 1.8 1.3
v 1.6 1.9 1.3
v 1.6 2.3 1.3
v 1.6 2.4 1.3
v 1.6 2.6 1.3
v 1.6 2.7 1.3
v 1.6 3.2 1.3
v -1.6 0.7 1.2
v -1.6 0.9 1.2
v -1.6 1.6 1.2
v -1.6 1.8 1.2
v -1.6 2.4 1.2
v -1.6 2.6 1.2
v -1.3 1.8 1.2
v -1.3 2.4 1.2
v -1.1 1.8 1.2
v -1.1 2.4 1.2
v -0.5 0.3 1.2
v -0.5 0.7 1.2
v -0.5 2.6 1.2
v -0.5 3.2 1.2
v -0.3 0.3 1.2
v -0.3 0.7 1.2
v -0.3 2.6 1.2
v -0.3 3.2 1.2
v 0.3 0.9 1.2
v 0.3 1.6 1.2
v 0.5 0.9 1.2
v 0.5 1.6 1.2
v 1.6 0.7 1.2
v 1.6 0.9 1.2
v 1.6 1.6 1.2
v 1.6 1.8 1.2
v 1.6 2.4 1.2
v 1.6 2.6 1.2
v -1.6 0 -1.6
v -1.6 3.2 -1.6
v 1.6 0 -1.6
v 1.6 3.2 -1.6
v -1.6 0 1.6
v 1.6 0 1.6
v -1.6 0 1.3
v 1.6 0 1.3
v -1.6 0 -1.6
v 1.6 0 -1.6
v -1.6 0.9 1.3
v 0.3 0.9 1.3
v 0.5 0.9 1.3
v 1.6 0.9 1.3
v -1.6 0.9 1.2
v 0.3 0.9 1.2
v 0.5 0.9 1.2
v 1.6 0.9 1.2
v -1.6 1.8 1.3
v -1.3 1.8 1.3
v -1.1 1.8 1.3
v 1.6 1.8 1.3
v -1.6 1.8 1.2
v -1.3 1.8 1.2
v -1.1 1.8 1.2
v 1.6 1.8 1.2
v -1.6 2.6 1.3
v -0.5 2.6 1.3
v -0.3 2.6 1.3
v 1.6 2.6 1.3
v -1.6 2.6 1.2
v -0.5 2.6 1.2
v -0.3 2.6 1.2
v 1.6 2.6 1.2
v -1.6 0.3 1.6
v 1.6 0.3 1.6
v -1.6 0.3 1.3
v -0.6 0.3 1.3
v -0.5 0.3 1.3
v -0.3 0.3 1.3
v -0.2 0.3 1.3
v 1.6 0.3 1.3
v -0.5 0.3 1.2
v -0.3 0.3 1.2
v -1.6 0.7 1.3
v -0.5 0.7 1.3
v -0.3 0.7 1.3
v 1.6 0.7 1.3
v -1.6 0.7 1.2
v -0.5 0.7 1.2
v -0.3 0.7 1.2
v 1.6 0.7 1.2
v -1.6 1.6 1.3
v 0.3 1.6 1.3
v 0.5 1.6 1.3
v 1.6 1.6 1.3
v -1.6 1.6 1.2
v 0.3 1.6 1.2
v 0.5 1.6 1.2
v 1.6 1.6 1.2
v -1.6 2.4 1.3
v -1.3 2.4 1.3
v -1.1 2.4 1.3
v 1.6 2.4 1.3
v -1.6 2.4 1.2
v -1.3 2.4 1.2
v -1.1 2.4 1.2
v 1.6 2.4 1.2
v -1.6 3.2 1.3
v -0.6 3.2 1.3
v -0.5 3.2 1.3
v -0.3 3.2 1.3
v -0.2 3.2 1.3
v 1.6 3.2 1.3
v -0.6 3.2 1.2
v -0.5 3.2 1.2
v -0.3 3.2 1.2
v -0.2 3.2 1.2
v -0.5 3.2 1.1
v -0.3 3.2 1.1
v -1.6 3.2 -1.6
v 1.6 3.2 -1.6

# faces
f 4/2/1 2/2/1 1/2/1
f 5/1/1 3/1/1 2/1/1
f 5/2/1 2/2/1 4/2/1
f 6/1/1 3/1/1 5/1/1
f 7/1/1 3/1/1 6/1/1
f 8/2/1 7/2/1 6/2/1
f 9/1/1 3/1/1 7/1/1
f 9/2/1 7/2/1 8/2/1
f 10/1/1 3/1/1 9/1/1
f 12/2/1 10/2/1 9/2/1
f 13/1/1 3/1/1 10/1/1
f 13/2/1 10/2/1 12/2/1
f 14/2/1 12/2/1 11/2/1
f 15/1/1 13/1/1 12/1/1
f 15/2/1 12/2/1 14/2/1
f 16/1/1 15/1/1 14/1/1
f 17/1/1 13/1/1 15/1/1
f 17/1/1 15/1/1 16/1/1
f 18/2/1 17/2/1 16/2/1
f 19/1/1 13/1/1 17/1/1
f 19/2/1 17/2/1 18/2/1
f 20/1/1 3/1/1 13/1/1
f 20/1/1 13/1/1 19/1/1
f 22/2/1 20/2/1 19/2/1
f 23/1/1 3/1/1 20/1/1
f 23/2/1 20/2/1 22/2/1
f 24/2/1 22/2/1 21/2/1
f 25/1/1 23/1/1 22/1/1
f 25/2/1 22/2/1 24/2/1
f 26/1/1 25/1/1 24/1/1
f 27/1/1 23/1/1 25/1/1
f 27/1/1 25/1/1 26/1/1
f 28/2/1 27/2/1 26/2/1
f 29/1/1 23/1/1 27/1/1
f 29/2/1 27/2/1 28/2/1
f 30/1/1 3/1/1 23/1/1
f 30/1/1 23/1/1 29/1/1
f 32/2/1 30/2/1 29/2/1
f 33/1/1 3/1/1 30/1/1
f 33/2/1 30/2/1 32/2/1
f 34/2/1 32/2/1 31/2/1
f 35/1/1 33/1/1 32/1/1
f 35/2/1 32/2/1 34/2/1
f 36/1/1 35/1/1 34/1/1
f 37/1/1 3/1/1 33/1/1
f 37/1/1 35/1/1 36/1/1
f 37/1/1 33/1/1 35/1/1
f 40/2/1 39/2/1 38/2/1
f 41/2/1 39/2/1 40/2/1
f 44/2/1 43/2/1 42/2/1
f 45/2/1 43/2/1 44/2/1
f 48/2/1 47/2/1 46/2/1
f 49/2/1 47/2/1 48/2/1
f 52/2/1 51/2/1 50/2/1
f 53/2/1 51/2/1 52/2/1
f 54/2/2 55/2/2 56/2/2
f 56/2/2 55/2/2 57/2/2
f 58/2/2 59/2/2 60/2/2
f 60/2/2 59/2/2 61/2/2
f 62/2/2 63/2/2 64/2/2
f 64/2/2 63/2/2 65/2/2
f 66/2/2 67/2/2 68/2/2
f 68/2/2 67/2/2 69/2/2
f 70/2/2 71/2/2 73/2/2
f 71/1/2 72/1/2 74/1/2
f 73/2/2 71/2/2 74/2/2
f 74/1/2 72/1/2 75/1/2
f 75/1/2 72/1/2 76/1/2
f 75/2/2 76/2/2 77/2/2
f 76/1/2 72/1/2 78/1/2
f 77/2/2 76/2/2 78/2/2
f 78/1/2 72/1/2 79/1/2
f 78/2/2 79/2/2 81/2/2
f 79/1/2 72/1/2 82/1/2
f 81/2/2 79/2/2 82/2/2
f 80/2/2 81/2/2 83/2/2
f 81/1/2 82/1/2 84/1/2
f 83/2/2 81/2/2 84/2/2
f 83/1/2 84/1/2 85/1/2
f 84/1/2 82/1/2 86/1/2
f 85/1/2 84/1/2 86/1/2
f 85/2/2 86/2/2 87/2/2
f 86/1/2 82/1/2 88/1/2
f 87/2/2 86/2/2 88/2/2
f 82/1/2 72/1/2 89/1/2
f 88/1/2 82/1/2 89/1/2
f 88/2/2 89/2/2 91/2/2
f 89/1/2 72/1/2 92/1/2
f 91/2/2 89/2/2 92/2/2
f 90/2/2 91/2/2 93/2/2
f 91/1/2 92/1/2 94/1/2
f 93/2/2 91/2/2 94/2/2
f 93/1/2 94/1/2 95/1/2
f 94/1/2 92/1/2 96/1/2
f 95/1/2 94/1/2 96/1/2
f 95/2/2 96/2/2 97/2/2
f 96/1/2 92/1/2 98/1/2
f 97/2/2 96/2/2 98/2/2
f 92/1/2 72/1/2 99/1/2
f 98/1/2 92/1/2 99/1/2
f 98/2/2 99/2/2 101/2/2
f 99/1/2 72/1/2 102/1/2
f 101/2/2 99/2/2 102/2/2
f 100/2/2 101/2/2 103/2/2
f 101/1/2 102/1/2 104/1/2
f 103/2/2 101/2/2 104/2/2
f 103/1/2 104/1/2 105/1/2
f 102/1/2 72/1/2 106/1/2
f 105/1/2 104/1/2 106/1/2
f 104/1/2 102/1/2 106/1/2
f 109/2/3 108/2/3 107/2/3
f 110/2/3 108/2/3 109/2/3
f 125/2/3 119/2/3 118/2/3
f 125/1/3 120/1/3 119/1/3
f 126/2/3 121/2/3 120/2/3
f 126/1/3 120/1/3 125/1/3
f 127/2/3 125/2/3 118/2/3
f 127/2/3 126/2/3 125/2/3
f 128/2/3 121/2/3 126/2/3
f 128/2/3 126/2/3 127/2/3
f 131/2/3 130/2/3 129/2/3
f 132/2/3 130/2/3 131/2/3
f 133/1/3 112/1/3 111/1/3
f 134/2/3 113/2/3 112/2/3
f 134/1/3 112/1/3 133/1/3
f 135/1/3 124/1/3 123/1/3
f 135/2/3 123/2/3 122/2/3
f 136/1/3 124/1/3 135/1/3
f 137/2/3 134/2/3 133/2/3
f 138/2/3 113/2/3 134/2/3
f 138/2/3 134/2/3 137/2/3
f 139/2/3 135/2/3 122/2/3
f 139/2/3 136/2/3 135/2/3
f 140/2/3 136/2/3 139/2/3
f 145/2/3 142/2/3 141/2/3
f 146/2/3 142/2/3 145/2/3
f 147/2/3 144/2/3 143/2/3
f 148/2/3 144/2/3 147/2/3
f 149/2/3 115/2/3 114/2/3
f 149/1/3 116/1/3 115/1/3
f 150/2/3 117/2/3 116/2/3
f 150/1/3 116/1/3 149/1/3
f 151/2/3 149/2/3 114/2/3
f 151/2/3 150/2/3 149/2/3
f 152/2/3 117/2/3 150/2/3
f 152/2/3 150/2/3 151/2/3
f 155/2/3 154/2/3 153/2/3
f 156/2/3 154/2/3 155/2/3
f 157/1/3 146/1/3 145/1/3
f 158/2/3 142/2/3 146/2/3
f 158/1/3 146/1/3 157/1/3
f 159/2/3 142/2/3 158/2/3
f 160/2/3 155/2/3 153/2/3
f 161/1/3 156/1/3 155/1/3
f 161/2/3 155/2/3 160/2/3
f 162/2/3 154/2/3 156/2/3
f 162/1/3 156/1/3 161/1/3
f 163/2/3 154/2/3 162/2/3
f 164/2/3 131/2/3 129/2/3
f 165/1/3 132/1/3 131/1/3
f 165/2/3 131/2/3 164/2/3
f 166/2/3 130/2/3 132/2/3
f 166/1/3 132/1/3 165/1/3
f 167/2/3 130/2/3 166/2/3
f 168/2/3 147/2/3 143/2/3
f 169/1/3 148/1/3 147/1/3
f 169/2/3 147/2/3 168/2/3
f 170/1/3 148/1/3 169/1/3
f 177/2/3 174/2/3 173/2/3
f 178/2/3 176/2/3 175/2/3
f 179/2/3 177/2/3 173/2/3
f 179/2/3 178/2/3 177/2/3
f 180/2/3 176/2/3 178/2/3
f 180/2/3 178/2/3 179/2/3
f 182/2/3 172/2/3 171/2/3
f 183/2/3 176/2/3 180/2/3
f 185/2/3 182/2/3 181/2/3
f 186/2/3 172/2/3 182/2/3
f 186/2/3 182/2/3 185/2/3
f 187/2/3 184/2/3 183/2/3
f 187/2/3 183/2/3 180/2/3
f 188/2/3 184/2/3 187/2/3
f 189/2/3 172/2/3 186/2/3
f 190/2/3 179/2/3 173/2/3
f 191/2/3 189/2/3 186/2/3
f 191/2/3 190/2/3 189/2/3
f 192/2/3 179/2/3 190/2/3
f 192/2/3 190/2/3 191/2/3
f 193/2/3 191/2/3 186/2/3
f 194/2/3 191/2/3 193/2/3
f 195/2/3 179/2/3 192/2/3
f 196/2/3 179/2/3 195/2/3
f 197/2/3 187/2/3 180/2/3
f 198/2/3 187/2/3 197/2/3
f 199/1/4 200/1/4 201/1/4
f 201/1/4 200/1/4 202/1/4
f 205/2/5 204/2/5 203/2/5
f 206/2/5 204/2/5 205/2/5
f 207/1/5 206/1/5 205/1/5
f 208/1/5 206/1/5 207/1/5
f 213/2/5 210/2/5 209/2/5
f 214/2/5 210/2/5 213/2/5
f 215/2/5 212/2/5 211/2/5
f 216/2/5 212/2/5 215/2/5
f 221/2/5 218/2/5 217/2/5
f 222/2/5 218/2/5 221/2/5
f 223/2/5 220/2/5 219/2/5
f 224/2/5 220/2/5 223/2/5
f 229/2/5 226/2/5 225/2/5
f 230/2/5 226/2/5 229/2/5
f 231/2/5 228/2/5 227/2/5
f 232/2/5 228/2/5 231/2/5
f 233/2/6 234/2/6 235/2/6
f 235/2/6 234/2/6 236/2/6
f 236/2/6 234/2/6 237/2/6
f 237/2/6 234/2/6 238/2/6
f 238/2/6 234/2/6 239/2/6
f 239/2/6 234/2/6 240/2/6
f 237/2/6 238/2/6 241/2/6
f 241/2/6 238/2/6 242/2/6
f 243/2/6 244/2/6 247/2/6
f 247/2/6 244/2/6 248/2/6
f 245/2/6 246/2/6 249/2/6
f 249/2/6 246/2/6 250/2/6
f 251/2/6 252/2/6 255/2/6
f 255/2/6 252/2/6 256/2/6
f 253/2/6 254/2/6 257/2/6
f 257/2/6 254/2/6 258/2/6
f 259/2/6 260/2/6 263/2/6
f 263/2/6 260/2/6 264/2/6
f 261/2/6 262/2/6 265/2/6
f 265/2/6 262/2/6 266/2/6
f 267/1/6 268/1/6 273/1/6
f 268/2/6 269/2/6 273/2/6
f 273/2/6 269/2/6 274/2/6
f 270/2/6 271/2/6 275/2/6
f 271/1/6 272/1/6 276/1/6
f 275/2/6 271/2/6 276/2/6
f 274/2/6 275/2/6 277/2/6
f 273/1/6 274/1/6 277/1/6
f 275/1/6 276/1/6 278/1/6
f 277/2/6 275/2/6 278/2/6
f 273/1/6 277/1/6 279/1/6
f 267/1/6 273/1/6 279/1/6
f 277/1/6 278/1/6 279/1/6
f 276/1/6 272/1/6 280/1/6
f 279/1/6 278/1/6 280/1/6
f 278/1/6 276/1/6 280/1/6
